<svg width="206" height="34" viewBox="0 0 206 34" fill="none" xmlns="http://www.w3.org/2000/svg"><g clip-path="url(#clip0_216_644)"><path d="M189.015.75h-165.7c-1.447-.337-2.992-.499-4.57-.499-1.856 0-3.755.319-5.482.962C5.99 2.958.582 9.485.582 17.275c0 7.946 5.624 14.58 13.117 16.162 1.76.541 3.681.806 5.637.806 1.646 0 3.146-.155 4.501-.444h165.178c9.148 0 16.568-7.398 16.568-16.524 0-9.125-7.42-16.524-16.568-16.524z" fill="#fff"/><path d="M126.117 12.837c-1.214-.04-1.487.684-1.487.684l-3.241 9.304a1.72 1.72 0 00-.069.293c.022.322.183.885 1.397.926 1.215.041 1.487-.684 1.487-.684l3.265-9.301s.047-.267.047-.297c-.024-.322-.187-.886-1.399-.925zm79.465 4.438a16.42 16.42 0 00-3.585-10.258l-8.148 23.313s-.403 1.602.606 2.078c.341.14.715.132 1.07.062 5.914-2.523 10.057-8.375 10.057-15.195zm-92.77-8.549L115.818.75h-5.53l-2.729 7.975 5.253.001z" fill="#014688"/><path d="M188.03 31.607l1.537-4.635c-1.004 1.281-2.865 1.401-4.323 1.365-1.115-.122-2.242-.643-2.862-1.693-.445-.606-.685-1.587-.412-2.432l4-11.538c.692-1.918 2.548-3.701 4.579-3.915 0 0 3.083-.39 4.839 1.71l2.517-7.132A16.515 16.515 0 00189.013.75h-34.91l-9.716 27.555v-.004h-5.372L148.736.75h-2.941l-9.718 27.555v-.003h-5.372L140.426.75h-19.238l-9.768 27.552-5.436-.001 5.211-14.936h-5.256l-7.435 20.434h89.427c-.232-1.211.099-2.192.099-2.192zm-63.613-3.313s-3.506.005-5.267-.011c-1.118.012-2.245-.642-2.863-1.69-.355-.618-.66-1.596-.414-2.432l4.001-11.54c.691-1.916 2.547-3.7 4.579-3.914h4.865c1.631.194 3.059.964 3.627 2.898.191.618.109 1.263-.007 1.819-1.34 4.045-2.707 8.045-4.238 12.002-.824 1.908-2.886 2.869-4.283 2.868zm31.452.01l.488-1.382c-1.004 1.281-2.867 1.4-4.323 1.363-1.118-.121-2.242-.642-2.863-1.69-.291-.732-.596-1.624-.412-2.432l4.001-11.54c.692-1.917 2.548-3.699 4.579-3.913 0 0 3.082-.393 4.839 1.71l.62-1.774 5.372.01-6.929 19.65v-.002h-5.372zm16.806-.006l5.05-14.368s.315-.873-1.12-1.041c-1.276-.15-1.659.7-1.676.74-.111.28-5.182 14.666-5.182 14.666l-5.37-.004 6.965-19.63h5.358l-.27.911s2.372-1.699 4.91-.497c2.533 1.201 1.837 4.307 1.837 4.307l-5.187 14.916h-5.315z" fill="#014688"/><path d="M158.994 12.941c-1.214-.042-1.487.684-1.487.684l-3.24 9.305a1.57 1.57 0 00-.072.291c.024.325.185.887 1.4.927 1.212.04 1.484-.684 1.484-.684l3.265-9.302s.05-.267.047-.295c-.024-.324-.185-.887-1.397-.926zm31.298 10.573l3.265-9.3s.076-.269.08-.297c.043-.196-.22-.886-1.434-.926-1.213-.04-1.487.684-1.487.684l-3.239 9.304a1.868 1.868 0 00-.071.293c.024.324.185.887 1.397.927 1.215.04 1.489-.685 1.489-.685z" fill="#014688"/><path d="M5.388 22.706h6.932c0 4.32 3.377 6.005 7.206 6.005 2.509 0 6.34-.728 6.34-4.05 0-3.5-4.88-4.093-9.67-5.368-4.834-1.273-9.714-3.139-9.714-9.234 0-4.436 2.81-7.328 6.429-8.76C5.814 3.168.582 9.61.582 17.276c0 7.771 5.381 14.285 12.63 16.048-4.525-1.522-7.887-4.953-7.824-10.618zm47.745-11.56L50.787.75h-1.101l-2.4 10.388 5.847.008zm-9.826 12.268L40.157 33.8h19.605l-2.707-10.385H43.307z" fill="#E0041D"/><path d="M56.879.75l5.017 15.056h-23.33L43.782.75H23.305c4.752 1.135 8.4 4.212 8.4 9.944h-6.93c-.23-3.911-3.012-4.91-6.434-4.91-2.281 0-4.927.954-4.927 3.682 0 2.502 1.552 2.822 9.718 4.915 2.37.59 9.668 2.092 9.668 9.461 0 4.83-3.087 8.672-8.967 9.957h8.733l5.287-15.116h24.97L67.33 33.8h2.213V.75H56.88zm35.201 0v6.164H76.527v7.521h13.507v5.668H76.527V33.8h16.43l11.8-33.05H92.08z" fill="#E0041D"/></g><defs><clipPath id="clip0_216_644"><path fill="#fff" transform="translate(.5)" d="M0 0h205v34H0z"/></clipPath></defs></svg>