<svg width="144" height="66" viewBox="0 0 144 66" fill="none" xmlns="http://www.w3.org/2000/svg">
<g clip-path="url(#clip0_216_783)">
<mask id="mask0_216_783" style="mask-type:luminance" maskUnits="userSpaceOnUse" x="-7" y="-10" width="158" height="93">
<path d="M150.743 -9.34717H-6.34766V82.8547H150.743V-9.34717Z" fill="white"/>
</mask>
<g mask="url(#mask0_216_783)">
<path d="M53.4598 61.662C53.1911 61.7093 51.0863 62.1145 48.8722 62.1736C44.9252 62.283 41.486 60.701 41.4535 57.8475C41.4004 52.9034 46.3895 50.1919 50.0737 49.4378C51.7239 49.1007 54.9033 48.7282 58.068 49.5088L56.2288 53.9266C55.7004 52.7231 54.3424 52.6994 53.7874 52.6876C52.4442 52.658 51.3313 53.0128 50.5106 53.3913C48.6508 54.2459 47.0301 56.9841 49.6634 58.0397C51.1217 58.6252 52.9845 58.158 54.9211 57.8505L53.4598 61.662Z" fill="#27509B"/>
</g>
<mask id="mask1_216_783" style="mask-type:luminance" maskUnits="userSpaceOnUse" x="-7" y="-10" width="158" height="93">
<path d="M150.743 -9.34717H-6.34766V82.8547H150.743V-9.34717Z" fill="white"/>
</mask>
<g mask="url(#mask1_216_783)">
<path d="M130.408 49.3252L127.237 57.9537C127.282 57.0843 127.453 53.6542 127.559 51.676C127.603 50.8628 127.426 50.2389 127.039 49.8279C126.564 49.3311 125.941 49.3252 125.935 49.3252H118.871L114.254 61.8983H119.382L122.659 52.9948L122.272 61.8983H130.871L135.494 49.3252H130.408Z" fill="#27509B"/>
</g>
<path d="M103.966 57.7235H98.0088L101.091 49.3257H95.1777L90.5547 61.8988H102.431L103.966 57.7235Z" fill="#27509B"/>
<path d="M90.6592 52.6198L91.8784 49.3257H79.2021L74.582 61.8988H87.403L88.6459 58.5071H81.5697L82.0863 57.1114H88.6931L89.8238 54.0155H83.2199L83.7247 52.6198H90.6592Z" fill="#27509B"/>
<path d="M71.1492 61.8988L75.7752 49.3257H69.9949L68.3181 53.8558H65.2598L66.9218 49.3257H61.1209L56.5156 61.8988H62.2929L63.8693 57.6407H66.9366L65.3601 61.8988H71.1492Z" fill="#27509B"/>
<path d="M37.0335 61.8988L41.6506 49.3257H35.5752L30.9492 61.8988H37.0335Z" fill="#27509B"/>
<mask id="mask2_216_783" style="mask-type:luminance" maskUnits="userSpaceOnUse" x="-7" y="-10" width="158" height="93">
<path d="M150.743 -9.34717H-6.34766V82.8547H150.743V-9.34717Z" fill="white"/>
</mask>
<g mask="url(#mask2_216_783)">
<path d="M27.5262 61.8983L32.1462 49.3252H23.5586L19.1186 56.079C19.1186 56.079 19.402 52.5454 19.4728 51.6937C19.526 51.0462 19.4463 49.3252 17.8698 49.3252H10.8261L6.20312 61.8983H11.7147L15.0624 52.8056L14.3568 61.8983H19.2544L25.259 52.9623L21.9792 61.8983H27.5262Z" fill="#27509B"/>
</g>
<path d="M110.819 61.8988L115.439 49.3257H109.36L104.734 61.8988H110.819Z" fill="#27509B"/>
<mask id="mask3_216_783" style="mask-type:luminance" maskUnits="userSpaceOnUse" x="-7" y="-10" width="158" height="93">
<path d="M150.743 -9.34717H-6.34766V82.8547H150.743V-9.34717Z" fill="white"/>
</mask>
<g mask="url(#mask3_216_783)">
<path d="M111.017 13.9836L111.008 13.957C110.754 13.2236 110.069 12.3099 108.939 12.0497C108.525 11.1981 107.681 10.6747 106.704 10.6747C106.474 10.6747 106.291 10.7043 106.179 10.7279C106.117 10.7398 105.874 10.7989 104 11.2484L101.243 11.9078C101.485 11.2129 101.452 10.4914 101.145 9.8704C100.761 9.09567 99.9939 8.59594 99.1909 8.59594C98.9045 8.59594 98.63 8.65804 98.3761 8.77927L98.3525 8.7911C98.2462 8.84433 98.0514 8.93895 93.1391 12.1325C93.0771 12.1739 93.0151 12.2183 92.959 12.2685C90.5707 14.3532 89.7028 15.5744 89.4962 15.8938C89.384 16.0594 89.1892 16.3728 89.015 16.7691C88.8881 16.704 88.7611 16.6449 88.6342 16.5887C87.6452 16.151 86.6179 15.9263 85.5787 15.9263C83.6953 15.9263 82.3639 16.6596 82.0096 16.8814C81.8207 16.9879 81.124 17.4048 80.0524 18.2298C79.6302 18.5551 79.2406 18.9395 78.9011 19.3742C78.1896 19.5368 77.6051 19.732 77.1711 19.9537C76.625 20.2346 76.0789 20.6664 75.4944 21.1247L75.4589 21.1513C75.3586 21.2282 75.2582 21.308 75.1578 21.3879C74.9098 21.5801 74.2751 22.1153 73.6493 22.9728L73.5784 22.9876C73.4928 23.0053 72.7076 23.1798 71.7363 23.65C71.4942 23.7682 71.2492 23.8984 71.0131 24.0432C70.4551 24.061 69.5783 24.1586 68.4418 24.4957L68.3945 24.4868C68.3001 24.4691 67.441 24.3005 66.3782 24.3005C65.9266 24.3005 65.4956 24.333 65.1029 24.3922C64.8461 24.4277 63.9457 24.5666 63.2047 24.7825C62.8475 24.886 61.9265 25.1965 60.8932 25.8618C58.6496 25.3443 56.3706 25.1699 54.9506 25.1137C56.2998 23.2981 56.9669 21.1898 56.7455 19.3801C56.3263 15.9825 54.0266 13.9747 53.203 13.3596C51.7683 7.41314 47.6471 4.88492 44.2227 4.4946C43.5496 3.71099 42.2595 3.229 40.8189 3.229C40.2373 3.229 39.6617 3.30589 39.1096 3.45965C37.2882 3.96529 35.8476 5.35804 35.5642 6.86906C33.7368 8.38304 30.9057 11.7806 31.6881 17.8986C31.0002 18.8301 29.6806 21.1957 30.581 24.7588C31.201 27.2102 32.7183 28.9755 34.9855 29.8981C33.2143 30.7497 31.6674 31.7876 30.3773 32.9852C30.3006 33.0591 30.2209 33.1301 30.1471 33.204C27.0857 33.3696 24.3078 34.6411 22.0996 36.8884C19.7674 39.2658 18.5866 42.1312 18.005 44.1153L17.9844 44.1892H68.6573H68.6632C68.9997 44.136 69.6787 43.9467 70.3252 43.6895C71.1931 43.3435 71.8455 42.9532 72.3149 42.4919C73.3511 42.3529 74.1452 42.0809 74.6766 41.9005C74.6766 41.9005 74.8331 41.8473 74.8862 41.8295C75.8014 41.5309 77.8944 40.4279 78.6679 38.9051C80.2295 38.3048 81.3838 37.5123 82.1041 36.5484C83.4621 36.3148 84.516 35.7174 85.0887 35.3922C86.4437 34.6234 87.3972 33.8693 88.0054 33.0857C88.5043 32.4411 88.8113 31.9473 89.0445 31.4062C89.508 31.1637 90.0276 30.8473 90.7095 30.3889C93.08 28.7951 93.5849 25.8973 93.635 25.5661C93.6469 25.4951 93.6557 25.4271 93.6646 25.3562C93.7856 25.365 93.9037 25.368 94.0247 25.368C96.41 25.368 99.5186 23.8688 101.195 23.0615L101.222 23.0497C101.482 22.9255 101.703 22.8161 101.815 22.7717C102.376 22.5381 103.519 21.9201 104.702 21.1217C106.205 20.1105 107.241 19.1672 107.782 18.3185C107.87 18.1795 107.938 18.0317 107.988 17.8779L108.965 17.2717C109.249 17.0973 109.485 16.8312 109.638 16.5177C109.904 16.3699 110.131 16.2338 110.202 16.1895C110.973 15.6986 111.297 14.8352 111.017 13.9836Z" fill="#1F2120"/>
</g>
<mask id="mask4_216_783" style="mask-type:luminance" maskUnits="userSpaceOnUse" x="-7" y="-10" width="158" height="93">
<path d="M150.743 -9.34717H-6.34766V82.8547H150.743V-9.34717Z" fill="white"/>
</mask>
<g mask="url(#mask4_216_783)">
<path d="M25.8682 44.192H19.9492C20.702 41.859 21.9271 39.7506 23.4386 38.213C24.9471 36.6754 26.7007 35.6966 28.6727 35.2915C27.9612 36.2584 27.3797 37.2993 26.928 38.4111C25.8889 40.9689 25.8298 43.2103 25.8682 44.192Z" fill="white"/>
</g>
<mask id="mask5_216_783" style="mask-type:luminance" maskUnits="userSpaceOnUse" x="-7" y="-10" width="158" height="93">
<path d="M150.743 -9.34717H-6.34766V82.8547H150.743V-9.34717Z" fill="white"/>
</mask>
<g mask="url(#mask5_216_783)">
<path d="M28.4247 39.0172C29.1362 37.2637 30.2225 35.6964 31.6543 34.3658C32.9296 33.1771 34.4883 32.1717 36.3009 31.3615C36.478 31.2994 36.8766 31.187 37.3932 31.2225C38.1962 31.2758 39.6338 31.601 40.4368 31.4561C40.6139 31.4266 40.8147 31.2077 40.3748 31.0688C40.2449 31.0274 39.1202 30.5572 39.2678 29.9983C39.2678 29.9924 39.2737 29.9747 39.2737 29.9747C39.315 29.8239 39.5187 29.6465 39.811 29.6228C41.0804 29.5016 41.8184 29.3596 42.1638 29.3123C42.3704 29.2827 42.5328 29.2384 42.5682 29.1349C42.5978 29.0491 42.5387 29.0077 42.3114 29.0196C40.177 29.1467 37.4227 28.6854 36.2183 28.3365C34.202 27.6978 32.9208 26.3405 32.4041 24.2913C31.8019 21.911 32.4189 20.0244 33.213 18.9924C33.6175 18.4986 34.3023 17.8717 34.5119 17.7032C35.0551 17.2685 34.6832 17.3661 34.0868 17.443C33.6558 17.4991 33.5348 17.3099 33.5053 17.1354C33.4817 16.9817 33.458 16.4819 33.4403 16.2395C33.3842 14.415 33.7031 12.7709 34.3968 11.3338C35.1407 9.78731 36.1917 8.75532 36.9888 8.13731C37.3223 7.89484 37.8124 7.55183 38.1637 7.36554C38.7187 7.0728 38.4087 6.87763 37.7091 7.02844C37.7091 7.02844 37.4906 7.08758 37.5497 6.89833C37.5615 6.86876 37.5703 6.83624 37.5851 6.80667C37.6353 6.6943 37.7002 6.59081 37.7681 6.49027C38.1578 5.98462 38.822 5.49376 39.6102 5.2779C41.0892 4.86688 42.5033 5.28973 42.8192 5.75398C42.8487 5.8279 42.8428 5.89887 42.7365 5.94027C42.4738 6.04376 42.2937 6.23005 42.7247 6.28624C42.8251 6.30102 43.2472 6.28624 43.8672 6.34833C43.8937 6.35425 43.9203 6.3572 43.9498 6.36016C46.6067 6.63812 49.8157 8.5572 51.1707 13.0725C51.215 13.2233 51.2533 13.3771 51.2947 13.5279C51.336 13.6876 51.3685 13.862 51.4039 14.0247C51.0851 14.0956 50.9788 14.3085 51.2917 14.415C51.4954 14.486 51.7316 14.6279 51.9176 14.7551C51.9176 14.7551 51.9205 14.7551 51.9205 14.758C51.9235 14.761 51.9294 14.7639 51.9353 14.7669C51.9677 14.7905 52.0002 14.8142 52.0327 14.8378C52.0917 14.8822 52.2128 14.9739 52.322 15.0596C53.4704 15.9999 54.6246 17.579 54.8726 19.6045C55.0852 21.3314 54.1346 23.2268 53.0039 24.5161C52.5611 24.9981 51.7759 25.7344 50.4179 26.5712C50.1138 26.7575 50.3913 26.9911 51.9057 26.447C52.0415 26.4174 52.2482 26.3228 52.3751 26.4499C52.5198 26.5948 52.5552 27.2483 52.0238 27.8634C51.4954 28.4755 52.2689 28.2626 53.1811 27.4701C53.3582 27.3163 53.4792 27.1478 53.5648 26.9733C54.356 26.9733 56.8033 27.0118 59.3598 27.4731C58.8284 28.0378 58.3797 28.6706 58.0225 29.3626C56.883 31.5715 56.5524 33.9134 57.0424 36.3263C57.3435 37.8107 58.2616 39.9427 59.4336 41.1462C60.2395 41.9741 61.4588 43.2249 63.7821 43.8844C64.4876 44.0854 65.264 44.186 66.0936 44.1889H27.4859C27.4505 43.4231 27.4682 41.3768 28.4247 39.0172Z" fill="white"/>
</g>
<mask id="mask6_216_783" style="mask-type:luminance" maskUnits="userSpaceOnUse" x="-7" y="-10" width="158" height="93">
<path d="M150.743 -9.34717H-6.34766V82.8547H150.743V-9.34717Z" fill="white"/>
</mask>
<g mask="url(#mask6_216_783)">
<path d="M68.3513 42.3204C68.1358 42.3559 67.2383 42.5659 66.1283 42.5659C65.5291 42.5659 64.8678 42.5038 64.2213 42.3204C62.3762 41.797 61.4345 40.8774 60.5931 40.011C59.7488 39.1446 58.9075 37.3704 58.63 36.0013C58.3525 34.6323 58.2108 32.5298 59.4625 30.1081C60.7142 27.6863 63.0375 26.7962 63.7312 26.5952C64.425 26.3911 65.3755 26.261 65.3755 26.261C65.4523 26.2492 65.5291 26.2403 65.6058 26.2314C64.8825 26.814 64.2449 27.5207 63.7371 28.3102C62.9991 29.4546 62.5415 30.7586 62.4175 32.0804C62.2935 33.3962 62.4412 34.7653 62.8515 36.0427C63.2589 37.3231 63.9202 38.4852 64.7586 39.4019C65.5615 40.2801 66.5505 41.0134 67.6192 41.5191C68.1358 41.7645 68.6642 41.9538 69.1956 42.0868C68.797 42.2199 68.4753 42.3027 68.3513 42.3204Z" fill="white"/>
</g>
<mask id="mask7_216_783" style="mask-type:luminance" maskUnits="userSpaceOnUse" x="-7" y="-10" width="158" height="93">
<path d="M150.743 -9.34717H-6.34766V82.8547H150.743V-9.34717Z" fill="white"/>
</mask>
<g mask="url(#mask7_216_783)">
<path d="M74.2932 40.0287C73.6585 40.2387 72.5396 40.6852 70.9898 40.6852C70.9425 40.6852 70.8953 40.6852 70.8481 40.6852C69.2244 40.6556 67.3321 39.8158 65.9535 38.3048C64.5719 36.7938 63.8191 34.4844 64.0317 32.2312C64.2442 29.9779 65.5963 28.0973 67.2347 27.0564C67.6126 26.8169 68.0081 26.6336 68.3949 26.4976C68.5602 26.4384 68.7226 26.3852 68.879 26.3379C68.8495 26.3793 68.82 26.4207 68.7904 26.465C67.1137 28.9548 67.2317 32.1218 68.0495 34.0083C68.4746 34.99 68.9646 35.8121 69.5491 36.5158C70.3196 37.4503 71.2496 38.1629 72.3064 38.636C73.2836 39.0736 74.3168 39.2925 75.3736 39.2925C75.4858 39.2925 75.598 39.2895 75.7102 39.2836C75.2142 39.6266 74.6799 39.9016 74.2932 40.0287Z" fill="white"/>
</g>
<mask id="mask8_216_783" style="mask-type:luminance" maskUnits="userSpaceOnUse" x="-7" y="-10" width="158" height="93">
<path d="M150.743 -9.34717H-6.34766V82.8547H150.743V-9.34717Z" fill="white"/>
</mask>
<g mask="url(#mask8_216_783)">
<path d="M77.6345 37.2636C77.0057 37.4825 76.2352 37.6688 75.3761 37.6688C74.6292 37.6688 73.8144 37.5298 72.9672 37.1513C71.1457 36.3381 70.1509 34.7709 69.5368 33.3604C68.9258 31.9499 68.7841 29.3833 70.1332 27.3725C70.8653 26.2843 71.9251 25.6338 72.7458 25.2612C72.2056 26.8403 71.9605 29.2946 73.6905 32.2131L73.7023 32.2338L73.7141 32.2545C74.5879 33.6354 75.7245 34.7029 77.0913 35.4244C77.9002 35.8502 78.774 36.14 79.6596 36.2819C79.0308 36.7196 78.2869 37.0389 77.6345 37.2636Z" fill="white"/>
</g>
<mask id="mask9_216_783" style="mask-type:luminance" maskUnits="userSpaceOnUse" x="-7" y="-10" width="158" height="93">
<path d="M150.743 -9.34717H-6.34766V82.8547H150.743V-9.34717Z" fill="white"/>
</mask>
<g mask="url(#mask9_216_783)">
<path d="M84.1504 33.7422C83.4153 34.1591 82.3879 34.715 81.0861 34.7535C81.027 34.7564 80.968 34.7564 80.9089 34.7564C78.9694 34.7564 76.6284 33.825 75.0874 31.3855C72.3655 26.7874 75.3442 23.6352 76.3155 22.8812C76.9088 22.4199 77.4874 21.9409 77.945 21.6836C77.7295 22.2898 77.6469 22.7599 77.6203 22.9167C77.4195 24.0758 77.5996 25.5602 78.1074 26.8938C78.7746 28.6532 79.9525 30.0726 81.5141 30.9952C82.7806 31.7433 84.0884 32.1247 85.402 32.1247C85.7622 32.1247 86.0987 32.0952 86.4028 32.0478C85.7858 32.7634 84.7732 33.3874 84.1504 33.7422Z" fill="white"/>
</g>
<mask id="mask10_216_783" style="mask-type:luminance" maskUnits="userSpaceOnUse" x="-7" y="-10" width="158" height="93">
<path d="M150.743 -9.34717H-6.34766V82.8547H150.743V-9.34717Z" fill="white"/>
</mask>
<g mask="url(#mask10_216_783)">
<path d="M109.347 14.8231C109.188 14.9236 108.978 15.0448 108.781 15.1513C108.775 15.1424 108.772 15.1306 108.766 15.1217C108.485 14.6515 108.116 14.3618 107.665 14.2553C106.959 14.0897 106.071 14.3736 104.875 15.1483C103.133 16.272 100.447 16.9077 100.42 16.9136C100.234 16.958 100.119 17.1443 100.163 17.3306C100.202 17.4903 100.343 17.5997 100.5 17.5997C100.526 17.5997 100.553 17.5967 100.58 17.5908C100.695 17.5642 103.408 16.9225 105.25 15.7338C106.251 15.0862 107.009 14.8171 107.508 14.9354C107.747 14.9916 107.939 15.1365 108.11 15.3849C108.338 15.7338 108.125 15.8964 108.107 15.9083C108.093 15.9171 107.231 16.4494 106.879 16.6682C106.702 16.476 106.333 16.1596 105.766 16.1123C105.146 16.0591 104.506 16.3429 103.859 16.9521C102.292 18.4335 100.583 18.9155 100.553 18.9244C100.37 18.9747 100.261 19.1639 100.311 19.3472C100.352 19.501 100.491 19.6045 100.645 19.6045C100.674 19.6045 100.704 19.6015 100.736 19.5927C100.813 19.572 102.631 19.0663 104.338 17.4548C104.828 16.9905 105.303 16.7658 105.713 16.8013C106.112 16.8368 106.351 17.1029 106.413 17.1827C106.428 17.2064 106.502 17.3276 106.422 17.4518C105.459 18.9658 102.129 20.8938 101.179 21.2929C100.459 21.5975 97.6334 23.1233 95.3012 23.6142C95.0503 23.6792 94.7905 23.7177 94.5278 23.7384C94.5012 23.7413 94.4746 23.7413 94.4481 23.7443C94.1086 23.7561 92.541 23.7857 92.0746 23.3126C91.4015 22.6295 91.1565 23.1174 91.3631 24.0015C90.6251 24.451 89.518 25.1252 89.2258 25.3056C88.4612 25.7728 87.4604 25.2494 87.2892 25.2494C86.8759 25.2405 87.8531 26.4706 88.6531 26.586C89.521 26.7102 91.1388 25.6811 91.1388 25.6811L91.7528 25.279V25.2819C91.7528 25.2819 91.3926 27.6416 89.645 28.8126C88.5645 29.54 88.1099 29.7618 87.6966 29.9481C87.4339 30.0693 86.6014 30.4951 85.3969 30.4951C84.5438 30.4951 83.4987 30.2822 82.3356 29.5932C79.5163 27.9255 78.9554 24.6521 79.2182 23.1765C79.2182 23.1765 79.5311 21.0091 81.199 19.7257C82.312 18.8712 82.9732 18.5015 82.9732 18.5015C82.9732 18.5015 84.0094 17.8126 85.574 17.8126C86.2442 17.8126 87.0147 17.9397 87.8383 18.3005C87.5933 18.4749 87.3807 18.6612 87.2626 18.8386C86.9409 19.3206 86.501 20.4325 86.8051 20.4265C87.0265 20.4236 87.1741 19.8825 87.921 19.4921C88.287 19.2999 90.0317 18.2768 90.0317 18.2768C90.0317 18.2768 90.1085 18.0077 90.1823 17.8451C90.1823 17.8451 90.3889 17.3809 90.8435 16.7333C90.8731 16.6889 90.9351 16.6002 91.0354 16.4671C91.2952 16.1182 91.6199 15.7338 92.0155 15.3435C92.4908 14.8438 93.1373 14.2169 93.9993 13.4658C93.9993 13.4658 98.829 10.3284 99.0504 10.219C99.0917 10.2013 99.136 10.1895 99.1832 10.1895C99.5995 10.1895 100.181 10.9139 99.4548 11.872C98.8644 12.6526 98.1884 13.1671 97.6481 13.5841C97.4976 13.6964 97.2791 13.8443 97.1286 13.8975C96.3994 14.1607 95.4252 14.7314 95.2806 14.8438C95.1123 14.9739 95.1241 15.1809 95.3219 15.0921C95.9566 14.8171 96.9898 14.551 97.1788 14.5037C98.2769 14.2612 106.345 12.3185 106.493 12.286C106.531 12.2771 106.602 12.2682 106.693 12.2682C106.971 12.2682 107.42 12.3688 107.564 12.9513C107.57 12.972 107.573 12.9897 107.576 13.0075L100.178 15.2134C99.9951 15.2696 99.8917 15.4618 99.9478 15.6451C99.9892 15.7722 100.092 15.861 100.214 15.8846C100.267 15.8964 100.326 15.8935 100.379 15.8757L106.965 13.9123C107.098 13.8827 107.349 13.8177 107.815 13.658L107.889 13.6343C108.031 13.5929 108.167 13.5722 108.29 13.5722C108.967 13.5722 109.365 14.1222 109.486 14.48C109.548 14.6338 109.486 14.7343 109.347 14.8231Z" fill="white"/>
</g>
<mask id="mask11_216_783" style="mask-type:luminance" maskUnits="userSpaceOnUse" x="-7" y="-10" width="158" height="93">
<path d="M150.743 -9.34717H-6.34766V82.8547H150.743V-9.34717Z" fill="white"/>
</mask>
<g mask="url(#mask11_216_783)">
<path d="M46.08 12.9339C46.0771 13.3833 46.1479 13.8594 46.2601 14.2911C46.3959 14.7287 46.5583 15.1605 46.8299 15.533C47.0601 15.8524 47.3347 16.1658 47.7184 16.29C47.7155 16.29 47.7125 16.29 47.7125 16.29C47.7125 16.29 47.7214 16.293 47.748 16.3019C47.7716 16.3078 47.7804 16.3107 47.7804 16.3107C47.7804 16.3107 47.7804 16.3107 47.7775 16.3107C47.869 16.3344 47.9605 16.3433 48.052 16.3433C48.2026 16.3433 48.3561 16.3166 48.5391 16.2782C48.7251 16.2368 48.9199 16.1984 49.0882 16.1067C49.2949 15.9943 49.4129 15.7223 49.4897 15.5123C49.5783 15.2728 49.6225 15.0215 49.6373 14.7672C49.6639 14.3177 49.593 13.8771 49.4602 13.4484C49.4631 13.4661 49.469 13.4839 49.472 13.5046C49.7229 14.6371 49.3805 15.6779 48.7133 15.8287C48.0402 15.9825 47.2963 15.19 47.0483 14.0575C46.9804 13.7529 46.9568 13.4543 46.9686 13.1793C47.1074 13.3804 47.3229 13.4868 47.5236 13.4306C47.8041 13.3567 47.9487 13.0019 47.8542 12.6441C47.7716 12.3277 47.5266 12.1148 47.2815 12.1177C47.4203 11.9166 47.5974 11.7806 47.807 11.7333C48.241 11.6328 48.7074 11.9314 49.0498 12.4607C48.9642 12.304 48.8698 12.1532 48.7605 12.0083C48.4978 11.6564 48.1465 11.3193 47.7037 11.2277C47.6299 11.2129 47.5531 11.204 47.4764 11.204C47.0867 11.204 46.6882 11.3933 46.4431 11.686C46.1597 12.029 46.08 12.5021 46.08 12.9339ZM45.8261 14.3089C45.6933 13.8239 45.528 13.0669 45.5693 12.3484C45.6254 11.3134 46.1538 10.7309 46.7856 10.5328C47.5649 10.2873 48.3886 10.6747 48.858 11.2779C49.1207 11.615 49.3982 12.1 49.5989 12.5997C49.6757 12.7683 49.7465 12.9457 49.8115 13.1379C50.0093 13.7115 50.0949 14.2645 50.0654 14.7879C50.0476 15.1013 49.9886 15.3941 49.8912 15.6572C49.7849 15.947 49.6196 16.3019 49.2919 16.4793C49.0735 16.5976 48.8432 16.6449 48.6395 16.6892L48.6306 16.6922C48.4506 16.7306 48.2557 16.7661 48.055 16.7661C47.931 16.7661 47.8129 16.7543 47.6948 16.7247C47.6771 16.7218 47.6594 16.7158 47.6387 16.7099C47.6358 16.7099 47.6328 16.7099 47.6299 16.707C47.621 16.704 47.6122 16.7011 47.6063 16.6981L47.6004 16.6951L47.5915 16.6922C47.0778 16.5266 46.7442 16.1363 46.4874 15.7785C46.263 15.468 46.1125 15.1368 45.9944 14.8204L45.9915 14.8145C45.9915 14.8145 45.9649 14.7465 45.9265 14.6252C45.9029 14.5513 45.8793 14.4804 45.8586 14.4094L45.8557 14.4005L45.8527 14.3916C45.8409 14.3709 45.832 14.3384 45.8261 14.3089ZM47.7509 16.2989C47.7598 16.3019 47.7716 16.3048 47.7804 16.3078C47.7716 16.3048 47.7332 16.293 47.7214 16.29C47.7302 16.293 47.7421 16.2959 47.7509 16.2989ZM40.102 16.6123C40.3795 17.1387 40.7279 17.5408 41.0821 17.7508C41.2563 17.8543 41.4482 17.9046 41.6607 17.9046C41.8378 17.9046 42.0356 17.872 42.2689 17.804L42.2807 17.8011C42.381 17.7744 42.6821 17.6887 42.8445 17.6177C43.1427 17.4906 43.3936 17.0677 43.5117 16.4882C43.556 16.2752 43.5766 16.0505 43.5825 15.8258C43.5058 16.5325 43.1663 17.0825 42.6526 17.2008C41.9057 17.3782 41.0732 16.5769 40.7958 15.4148C40.7219 15.1013 40.6954 14.7938 40.7101 14.507C40.8548 14.6814 41.0614 14.7701 41.2533 14.714C41.5367 14.6371 41.6843 14.2793 41.584 13.9244C41.5013 13.6376 41.2858 13.4365 41.0555 13.407C41.209 13.1911 41.4127 13.0433 41.6519 12.9871C42.198 12.857 42.7855 13.2502 43.1751 13.9215C43.1604 13.886 43.1456 13.8505 43.1309 13.818C42.7559 13.0699 42.1065 12.2951 40.8696 12.6263C39.2429 13.064 39.612 15.1959 39.7891 15.8554C39.8717 16.1215 39.9751 16.3728 40.102 16.6123ZM39.6858 16.8341C39.4142 16.3226 39.2548 15.7844 39.1721 15.2107C39.0924 14.6548 39.0599 14.0753 39.1603 13.5193C39.2577 12.9753 39.5057 12.4696 39.9514 12.1443C40.3175 11.8752 40.7987 11.7126 41.2651 11.7126C41.3891 11.7126 41.5131 11.7244 41.6312 11.7481C42.8061 11.9906 43.3552 12.9516 43.8217 14.3059C44.3324 15.7903 43.9781 17.6414 43.0305 18.0494C42.7973 18.15 42.4017 18.2535 42.4017 18.2535C42.1537 18.3244 41.9087 18.3718 41.6637 18.3718C41.3862 18.3718 41.1116 18.3097 40.8459 18.1529C40.347 17.8632 39.9544 17.3427 39.6858 16.8341ZM49.1207 20.4328C47.6358 21.2341 45.9472 21.6747 44.2822 21.9024C44.7339 22.1153 45.1973 22.2839 45.6992 22.3223C46.1538 22.3578 46.6055 22.2868 47.0395 22.1537C47.4823 22.0177 47.9074 21.8166 48.2646 21.518C48.6247 21.2193 48.8934 20.8379 49.1207 20.4328ZM51.3495 18.9957C51.2551 19.0134 51.2167 18.8922 51.1635 18.7502C50.8713 19.1287 50.2691 19.7201 50.1864 19.8236C50.0506 20.0011 49.9384 20.1962 49.8321 20.3943C49.6521 20.7226 49.4779 21.0537 49.2594 21.3583C48.9642 21.7723 48.5893 22.1242 48.1553 22.3873C47.3288 22.8871 46.2867 23.1236 45.3302 22.9669C44.8254 22.8841 44.3471 22.6949 43.8896 22.4731C43.5176 22.2927 43.1279 22.0562 42.7058 22.0355C42.2393 22.0503 41.7611 22.0562 41.2976 22C41.1382 21.9822 40.9994 21.9201 40.9463 21.7516C40.8755 21.5298 41.029 21.3021 41.2592 21.2873C41.336 21.2873 41.4098 21.3021 41.4865 21.308C41.6371 21.3169 41.7847 21.3287 41.9353 21.3317C43.618 21.3849 45.3213 21.1158 46.9273 20.622C47.9133 20.3175 48.8727 19.9005 49.72 19.3062C50.0683 19.0607 50.4019 18.7887 50.6883 18.4693C50.7296 18.422 50.7709 18.3599 50.8181 18.3067C50.7857 18.289 50.7562 18.2712 50.7325 18.2623C50.6499 18.2328 50.6381 18.0731 50.8004 18.0317C50.9628 17.9873 51.1813 18.0731 51.258 18.1589C51.3348 18.2446 51.4233 18.3895 51.4469 18.564C51.4735 18.7443 51.4558 18.972 51.3495 18.9957ZM41.209 20.9887C40.7751 21.2873 40.6688 21.5209 40.6068 21.6629C40.5448 21.8048 40.5537 21.9586 40.5743 22.0325C40.595 22.1064 40.5714 22.1804 40.5035 22.2099H40.5005C40.4976 22.2129 40.4946 22.2129 40.4917 22.2129C40.4238 22.2395 40.3677 22.2277 40.3382 22.2099C40.2998 22.1922 40.2703 22.1597 40.2555 22.1183C40.1315 21.8344 40.2585 21.2341 40.5773 20.9473C40.6924 20.8379 40.8636 20.7166 41.0024 20.6605C41.0555 20.6368 41.2179 20.5747 41.2976 20.693C41.3803 20.8172 41.2858 20.9355 41.209 20.9887Z" fill="#1F2120"/>
</g>
<path d="M12.3672 45.1355H137.032L138.189 41.9922H13.5215L12.3672 45.1355Z" fill="#27509B"/>
</g>
<defs>
<clipPath id="clip0_216_783">
<rect width="143" height="66" fill="white" transform="translate(0.5)"/>
</clipPath>
</defs>
</svg>
