<svg width="144" height="66" viewBox="0 0 144 66" fill="none" xmlns="http://www.w3.org/2000/svg"><g clip-path="url(#clip0_216_783)"><mask id="mask0_216_783" style="mask-type:luminance" maskUnits="userSpaceOnUse" x="-7" y="-10" width="158" height="93"><path d="M150.743-9.347H-6.347v92.202h157.09V-9.347z" fill="#fff"/></mask><g mask="url(#mask0_216_783)"><path d="M53.46 61.662c-.269.047-2.374.453-4.588.512-3.947.109-7.386-1.473-7.419-4.327-.053-4.944 4.936-7.655 8.62-8.41 1.65-.336 4.83-.709 7.995.072l-1.84 4.418c-.528-1.204-1.886-1.228-2.44-1.24a7.39 7.39 0 00-3.277.704c-1.86.855-3.48 3.593-.848 4.649 1.459.585 3.322.118 5.258-.19l-1.461 3.812z" fill="#27509B"/></g><mask id="mask1_216_783" style="mask-type:luminance" maskUnits="userSpaceOnUse" x="-7" y="-10" width="158" height="93"><path d="M150.743-9.347H-6.347v92.202h157.09V-9.347z" fill="#fff"/></mask><g mask="url(#mask1_216_783)"><path d="M130.408 49.325l-3.171 8.629c.045-.87.216-4.3.322-6.278.044-.813-.133-1.437-.52-1.848a1.677 1.677 0 00-1.104-.503h-7.064l-4.617 12.573h5.128l3.277-8.903-.387 8.903h8.599l4.623-12.573h-5.086z" fill="#27509B"/></g><path d="M103.966 57.724h-5.957l3.082-8.398h-5.913l-4.623 12.573h11.876l1.535-4.175zM90.66 52.62l1.218-3.294H79.202l-4.62 12.573h12.821l1.243-3.392H81.57l.516-1.396h6.607l1.13-3.095H83.22l.505-1.396h6.934zm-19.51 9.279l4.625-12.573h-5.78l-1.677 4.53H65.26l1.662-4.53H61.12l-4.605 12.573h5.777l1.576-4.258h3.068l-1.577 4.258h5.79zm-34.117 0l4.618-12.573h-6.076L30.95 61.899h6.084z" fill="#27509B"/><mask id="mask2_216_783" style="mask-type:luminance" maskUnits="userSpaceOnUse" x="-7" y="-10" width="158" height="93"><path d="M150.743-9.347H-6.347v92.202h157.09V-9.347z" fill="#fff"/></mask><g mask="url(#mask2_216_783)"><path d="M27.526 61.898l4.62-12.573H23.56l-4.44 6.754s.283-3.534.354-4.385c.053-.648-.027-2.369-1.603-2.369h-7.044L6.203 61.898h5.512l3.347-9.092-.705 9.092h4.897l6.005-8.936-3.28 8.936h5.547z" fill="#27509B"/></g><path d="M110.819 61.899l4.62-12.573h-6.079l-4.626 12.573h6.085z" fill="#27509B"/><mask id="mask3_216_783" style="mask-type:luminance" maskUnits="userSpaceOnUse" x="-7" y="-10" width="158" height="93"><path d="M150.743-9.347H-6.347v92.202h157.09V-9.347z" fill="#fff"/></mask><g mask="url(#mask3_216_783)"><path d="M111.017 13.984l-.009-.027c-.254-.733-.939-1.647-2.069-1.907-.414-.852-1.258-1.375-2.235-1.375-.23 0-.413.03-.525.053-.062.012-.305.07-2.179.52l-2.757.66c.242-.695.209-1.417-.098-2.038-.384-.774-1.151-1.274-1.954-1.274a1.88 1.88 0 00-.815.183l-.023.012c-.107.053-.302.148-5.214 3.341a1.607 1.607 0 00-.18.136c-2.388 2.085-3.256 3.306-3.463 3.626a5.688 5.688 0 00-.481.875 7.36 7.36 0 00-.38-.18 7.514 7.514 0 00-3.056-.663c-1.884 0-3.215.734-3.57.955-.188.107-.885.524-1.957 1.349-.422.325-.811.71-1.15 1.144-.712.163-1.297.358-1.73.58-.547.28-1.093.712-1.678 1.17l-.035.027c-.1.077-.2.157-.301.237a8.106 8.106 0 00-1.509 1.585l-.07.015c-.086.017-.871.192-1.843.662a8.614 8.614 0 00-.723.393c-.558.018-1.435.116-2.571.453l-.047-.01c-.095-.017-.954-.186-2.017-.186-.451 0-.882.033-1.275.092-.257.036-1.157.175-1.898.39a9.167 9.167 0 00-2.312 1.08c-2.243-.518-4.522-.692-5.942-.748 1.349-1.816 2.016-3.924 1.794-5.734-.419-3.397-2.718-5.405-3.542-6.02-1.435-5.947-5.556-8.475-8.98-8.865-.673-.784-1.963-1.266-3.404-1.266a6.41 6.41 0 00-1.71.23c-1.82.506-3.261 1.899-3.545 3.41-1.827 1.514-4.658 4.912-3.876 11.03-.688.931-2.007 3.297-1.107 6.86.62 2.451 2.137 4.216 4.405 5.14-1.772.85-3.319 1.889-4.609 3.086-.076.074-.156.145-.23.219-3.061.166-5.84 1.437-8.047 3.684-2.333 2.378-3.513 5.243-4.095 7.227l-.02.074h50.678c.337-.053 1.016-.242 1.662-.5.868-.346 1.52-.736 1.99-1.197 1.036-.14 1.83-.411 2.362-.591l.21-.072c.914-.298 3.007-1.401 3.78-2.924 1.563-.6 2.717-1.393 3.437-2.357 1.358-.233 2.412-.83 2.985-1.156 1.355-.769 2.308-1.523 2.916-2.306.5-.645.806-1.139 1.04-1.68a17.81 17.81 0 001.665-1.017c2.37-1.594 2.875-4.492 2.925-4.823.012-.07.02-.139.03-.21.12.009.239.012.36.012 2.385 0 5.494-1.5 7.17-2.306l.027-.012c.26-.125.481-.234.593-.278.561-.234 1.704-.852 2.887-1.65 1.503-1.012 2.539-1.955 3.08-2.803.088-.14.156-.287.206-.441l.977-.606c.284-.175.52-.44.673-.754.266-.148.493-.284.564-.329.771-.49 1.095-1.354.815-2.205z" fill="#1F2120"/></g><mask id="mask4_216_783" style="mask-type:luminance" maskUnits="userSpaceOnUse" x="-7" y="-10" width="158" height="93"><path d="M150.743-9.347H-6.347v92.202h157.09V-9.347z" fill="#fff"/></mask><g mask="url(#mask4_216_783)"><path d="M25.868 44.192H19.95c.753-2.333 1.978-4.441 3.49-5.979 1.508-1.538 3.262-2.516 5.234-2.922a14.372 14.372 0 00-1.745 3.12c-1.04 2.558-1.098 4.8-1.06 5.781z" fill="#fff"/></g><mask id="mask5_216_783" style="mask-type:luminance" maskUnits="userSpaceOnUse" x="-7" y="-10" width="158" height="93"><path d="M150.743-9.347H-6.347v92.202h157.09V-9.347z" fill="#fff"/></mask><g mask="url(#mask5_216_783)"><path d="M28.425 39.017a12.989 12.989 0 013.23-4.651c1.275-1.189 2.833-2.194 4.646-3.005a2.781 2.781 0 011.092-.139c.803.054 2.24.379 3.044.234.177-.03.378-.248-.062-.387-.13-.042-1.255-.512-1.107-1.07 0-.007.006-.024.006-.024.041-.151.245-.329.537-.352 1.27-.121 2.007-.263 2.353-.31.206-.03.369-.075.404-.178.03-.086-.03-.127-.257-.115-2.134.127-4.888-.335-6.093-.683-2.016-.64-3.297-1.997-3.814-4.046-.602-2.38.015-4.267.809-5.299.404-.493 1.09-1.12 1.299-1.289.543-.434.171-.337-.425-.26-.431.056-.552-.133-.582-.308-.023-.153-.047-.653-.065-.896-.056-1.824.263-3.468.957-4.905a8.996 8.996 0 012.592-3.197c.333-.242.823-.585 1.175-.771.555-.293.245-.488-.455-.338 0 0-.218.06-.16-.13.013-.03.021-.062.036-.091a2.1 2.1 0 01.183-.317 3.596 3.596 0 011.842-1.212c1.48-.411 2.893.012 3.21.476.029.074.023.145-.084.186-.262.104-.442.29-.011.346.1.015.522 0 1.142.062a.692.692 0 00.083.012c2.657.278 5.866 2.197 7.22 6.712.045.151.083.305.125.456.041.16.073.334.109.497-.319.07-.425.284-.112.39a2.935 2.935 0 01.628.343c.003.003.01.006.015.009l.098.07c.059.045.18.137.289.223 1.148.94 2.303 2.519 2.55 4.545.213 1.726-.737 3.622-1.868 4.911-.443.482-1.228 1.218-2.586 2.055-.304.186-.027.42 1.488-.124.136-.03.342-.124.47.003.144.145.18.798-.352 1.413-.529.613.245.4 1.157-.393.177-.154.298-.322.384-.497.791 0 3.238.039 5.795.5a8.32 8.32 0 00-1.337 1.89c-1.14 2.209-1.47 4.55-.98 6.963.3 1.485 1.219 3.617 2.39 4.82.806.828 2.026 2.079 4.35 2.738a8.554 8.554 0 002.31.305H27.487c-.035-.766-.018-2.812.939-5.172z" fill="#fff"/></g><mask id="mask6_216_783" style="mask-type:luminance" maskUnits="userSpaceOnUse" x="-7" y="-10" width="158" height="93"><path d="M150.743-9.347H-6.347v92.202h157.09V-9.347z" fill="#fff"/></mask><g mask="url(#mask6_216_783)"><path d="M68.351 42.32c-.215.036-1.113.246-2.223.246-.599 0-1.26-.062-1.907-.246-1.845-.523-2.787-1.443-3.628-2.309-.844-.866-1.686-2.64-1.963-4.01-.278-1.369-.42-3.471.832-5.893 1.252-2.422 3.575-3.312 4.27-3.513.693-.204 1.644-.334 1.644-.334.076-.012.153-.02.23-.03a8.779 8.779 0 00-1.869 2.08 8.454 8.454 0 00-1.32 3.77 9.994 9.994 0 00.434 3.962c.408 1.28 1.07 2.442 1.908 3.359a9.313 9.313 0 002.86 2.117 8.468 8.468 0 001.577.568 6.31 6.31 0 01-.845.233z" fill="#fff"/></g><mask id="mask7_216_783" style="mask-type:luminance" maskUnits="userSpaceOnUse" x="-7" y="-10" width="158" height="93"><path d="M150.743-9.347H-6.347v92.202h157.09V-9.347z" fill="#fff"/></mask><g mask="url(#mask7_216_783)"><path d="M74.293 40.029c-.635.21-1.753.656-3.303.656h-.142c-1.624-.03-3.516-.87-4.894-2.38-1.382-1.511-2.135-3.82-1.922-6.074.212-2.253 1.564-4.134 3.203-5.175.378-.24.773-.422 1.16-.558.165-.06.328-.113.484-.16-.03.041-.059.083-.089.127-1.676 2.49-1.558 5.657-.74 7.543.425.982.915 1.804 1.5 2.508.77.934 1.7 1.647 2.756 2.12a7.46 7.46 0 003.404.648c-.496.343-1.03.618-1.417.745z" fill="#fff"/></g><mask id="mask8_216_783" style="mask-type:luminance" maskUnits="userSpaceOnUse" x="-7" y="-10" width="158" height="93"><path d="M150.743-9.347H-6.347v92.202h157.09V-9.347z" fill="#fff"/></mask><g mask="url(#mask8_216_783)"><path d="M77.635 37.264c-.63.218-1.4.405-2.259.405a5.847 5.847 0 01-2.409-.518c-1.821-.813-2.816-2.38-3.43-3.79-.611-1.411-.753-3.978.596-5.988.732-1.089 1.792-1.74 2.613-2.112-.54 1.58-.785 4.034.945 6.952l.011.02.012.022c.874 1.38 2.01 2.448 3.377 3.17a8.38 8.38 0 002.569.857c-.63.438-1.373.757-2.025.982z" fill="#fff"/></g><mask id="mask9_216_783" style="mask-type:luminance" maskUnits="userSpaceOnUse" x="-7" y="-10" width="158" height="93"><path d="M150.743-9.347H-6.347v92.202h157.09V-9.347z" fill="#fff"/></mask><g mask="url(#mask9_216_783)"><path d="M84.15 33.742c-.735.417-1.762.973-3.064 1.012-.059.002-.118.002-.177.002-1.94 0-4.28-.931-5.822-3.37-2.722-4.599.257-7.75 1.228-8.505.594-.461 1.172-.94 1.63-1.197a7.317 7.317 0 00-.325 1.233c-.2 1.159-.02 2.643.487 3.977.668 1.76 1.846 3.179 3.407 4.101 1.267.748 2.574 1.13 3.888 1.13.36 0 .697-.03 1-.077-.616.715-1.629 1.34-2.252 1.694z" fill="#fff"/></g><mask id="mask10_216_783" style="mask-type:luminance" maskUnits="userSpaceOnUse" x="-7" y="-10" width="158" height="93"><path d="M150.743-9.347H-6.347v92.202h157.09V-9.347z" fill="#fff"/></mask><g mask="url(#mask10_216_783)"><path d="M109.347 14.823c-.159.1-.369.222-.566.328-.006-.009-.009-.02-.015-.03-.281-.47-.65-.76-1.101-.866-.706-.165-1.594.119-2.79.893-1.742 1.124-4.428 1.76-4.455 1.766a.347.347 0 00-.257.417.35.35 0 00.417.26c.115-.027 2.828-.669 4.67-1.857 1.001-.648 1.759-.917 2.258-.799.239.057.431.201.602.45.228.349.015.511-.003.523-.014.01-.876.541-1.228.76a1.708 1.708 0 00-1.113-.556c-.62-.053-1.26.23-1.907.84-1.567 1.481-3.276 1.963-3.306 1.972a.346.346 0 00.183.668c.077-.02 1.895-.526 3.602-2.137.49-.464.965-.69 1.375-.654.399.036.638.302.7.382.015.023.089.145.009.269-.963 1.514-4.293 3.442-5.243 3.84-.72.305-3.546 1.831-5.878 2.322-.25.065-.51.104-.773.124l-.08.006c-.34.012-1.907.042-2.373-.431-.674-.683-.919-.196-.712.689-.738.449-1.845 1.123-2.137 1.304-.765.467-1.766-.057-1.937-.057-.413-.008.564 1.222 1.364 1.337.868.124 2.486-.905 2.486-.905l.614-.402v.003s-.36 2.36-2.108 3.53c-1.08.728-1.535.95-1.948 1.136-.263.121-1.096.547-2.3.547-.853 0-1.898-.213-3.061-.902-2.82-1.668-3.38-4.94-3.118-6.416 0 0 .313-2.168 1.981-3.451 1.113-.855 1.774-1.224 1.774-1.224s1.036-.69 2.601-.69c.67 0 1.44.128 2.264.488-.245.175-.457.361-.575.539-.322.482-.762 1.594-.458 1.588.221-.003.37-.544 1.116-.935.366-.192 2.11-1.215 2.11-1.215s.078-.27.151-.432c0 0 .207-.464.662-1.112a9.842 9.842 0 011.172-1.39 29.43 29.43 0 011.983-1.877s4.83-3.138 5.051-3.247a.336.336 0 01.133-.03c.416 0 .998.725.272 1.683-.59.78-1.267 1.295-1.807 1.712-.15.112-.369.26-.52.314-.729.263-1.703.833-1.847.946-.169.13-.157.337.04.248.636-.275 1.669-.541 1.858-.588 1.098-.243 9.166-2.185 9.314-2.218a.956.956 0 01.2-.018c.278 0 .727.1.871.683.006.021.009.039.012.056l-7.398 2.206a.345.345 0 00.036.672.313.313 0 00.165-.01l6.586-1.963c.133-.03.384-.094.85-.254l.074-.024c.142-.041.278-.062.401-.062.677 0 1.075.55 1.196.908.062.154 0 .254-.139.343z" fill="#fff"/></g><mask id="mask11_216_783" style="mask-type:luminance" maskUnits="userSpaceOnUse" x="-7" y="-10" width="158" height="93"><path d="M150.743-9.347H-6.347v92.202h157.09V-9.347z" fill="#fff"/></mask><g mask="url(#mask11_216_783)"><path d="M46.08 12.934c-.003.45.068.925.18 1.357.136.438.298.87.57 1.242.23.32.505.633.888.757h-.006a20.292 20.292 0 00.068.02h-.002c.091.024.183.033.274.033.15 0 .304-.026.487-.065.186-.041.38-.08.55-.171.206-.113.324-.385.4-.595.09-.24.134-.49.148-.745.027-.45-.044-.89-.177-1.319.003.018.009.036.012.057.25 1.132-.092 2.173-.759 2.324-.673.153-1.417-.639-1.665-1.772a3.39 3.39 0 01-.08-.878c.14.201.355.308.556.252.28-.074.425-.43.33-.787-.082-.316-.327-.53-.572-.526.138-.201.315-.337.525-.385.434-.1.9.198 1.243.728a3.656 3.656 0 00-.29-.453c-.262-.352-.613-.689-1.056-.78a1.162 1.162 0 00-.228-.024c-.39 0-.788.19-1.033.482-.283.343-.363.816-.363 1.248zm-.254 1.375c-.133-.485-.298-1.242-.257-1.96.056-1.036.585-1.618 1.217-1.816.779-.246 1.603.142 2.072.745.263.337.54.822.74 1.322.078.168.148.346.214.538.197.573.283 1.127.253 1.65a2.994 2.994 0 01-.174.87c-.106.289-.271.644-.6.821-.217.119-.448.166-.651.21l-.01.003c-.18.039-.374.074-.575.074a1.49 1.49 0 01-.36-.041c-.018-.003-.036-.01-.056-.015-.003 0-.006 0-.01-.003l-.023-.009-.006-.003-.008-.003c-.514-.165-.848-.556-1.105-.914a3.995 3.995 0 01-.493-.958l-.002-.005s-.027-.069-.066-.19c-.023-.074-.047-.145-.067-.216l-.003-.009-.003-.008a.303.303 0 01-.027-.083zm1.925 1.99l.03.009a1.46 1.46 0 00-.06-.018l.03.009zm-7.649.313c.278.527.626.929.98 1.139.174.103.366.154.579.154.177 0 .375-.033.608-.101l.012-.003c.1-.027.401-.112.563-.183.299-.127.55-.55.668-1.13a3.76 3.76 0 00.07-.662c-.076.706-.416 1.256-.93 1.375-.746.177-1.579-.624-1.856-1.786a3.247 3.247 0 01-.086-.908c.145.174.351.263.543.207.284-.077.431-.435.331-.79-.083-.286-.298-.487-.529-.517.154-.216.358-.364.597-.42.546-.13 1.133.263 1.523.934a3.582 3.582 0 00-.044-.103c-.375-.748-1.025-1.523-2.261-1.192-1.627.438-1.258 2.57-1.08 3.23.082.266.185.517.312.756zm-.416.222a4.897 4.897 0 01-.514-1.623c-.08-.556-.112-1.136-.012-1.692.098-.544.346-1.05.791-1.375a2.279 2.279 0 011.314-.431c.124 0 .248.011.366.035 1.175.243 1.724 1.204 2.19 2.558.511 1.484.157 3.335-.79 3.743-.234.101-.63.204-.63.204a2.69 2.69 0 01-.737.119c-.278 0-.552-.062-.818-.22-.499-.289-.892-.81-1.16-1.318zm9.435 3.599c-1.485.801-3.174 1.242-4.839 1.47.452.212.915.38 1.417.42a3.6 3.6 0 001.34-.17 3.49 3.49 0 001.226-.635c.36-.299.628-.68.856-1.085zm2.228-1.437c-.094.017-.132-.104-.185-.246-.293.379-.895.97-.978 1.074a4.193 4.193 0 00-.354.57c-.18.329-.354.66-.573.964-.295.414-.67.766-1.104 1.03-.826.5-1.868.736-2.825.579-.505-.083-.983-.272-1.44-.494-.372-.18-.762-.417-1.184-.438-.467.015-.945.021-1.408-.035-.16-.018-.299-.08-.352-.248a.355.355 0 01.313-.465c.077 0 .15.015.227.021.151.009.299.02.45.024 1.682.053 3.385-.216 4.991-.71.986-.305 1.946-.721 2.793-1.316a5.63 5.63 0 00.968-.837c.042-.047.083-.11.13-.162-.032-.018-.062-.036-.085-.045-.083-.03-.095-.189.067-.23a.532.532 0 01.458.127c.077.086.165.23.189.405.026.18.009.408-.098.432zm-10.14 1.993c-.434.298-.54.532-.602.674a.602.602 0 00-.033.37c.021.073-.003.147-.07.177H40.5c-.003.003-.006.003-.01.003-.067.026-.123.015-.153-.003a.158.158 0 01-.083-.092c-.123-.284.003-.884.322-1.17.115-.11.287-.231.425-.288.053-.023.216-.085.296.033.082.124-.012.242-.089.296z" fill="#1F2120"/></g><path d="M12.367 45.136h124.665l1.157-3.144H13.522l-1.155 3.144z" fill="#27509B"/></g><defs><clipPath id="clip0_216_783"><path fill="#fff" transform="translate(.5)" d="M0 0h143v66H0z"/></clipPath></defs></svg>