<svg width="164" height="36" viewBox="0 0 164 36" fill="none" xmlns="http://www.w3.org/2000/svg"><path d="M16.456 1.852c-1.44.497-2.495 1.273-3.975 2.844C8.1 9.329 4.653 19.829 4.308 29.534l-.101 2.883 1.298-3.58c1.663-4.613 2.697-7.118 4.117-9.902 4.461-8.77 8.882-10.918 13.343-6.444l1.258 1.253 1.074-.557c1.683-.855 2.738-.696 2.961.498.142.755-.284 2.088-1.034 3.201l-.527.776 1.014 2.108c1.379 2.824 2.088 4.574 3.71 9.167 1.542 4.355 1.582 4.336 1.197-.517-.852-10.5-4.259-19.966-8.74-24.36-2.271-2.228-5.03-3.043-7.422-2.208zm26.504 3.6c-1.5.159-3.427.576-4.502.994l-.567.219v22.471h6.083V11.238l.528-.119c.973-.239 3.386.04 4.299.497 3.528 1.77 4.705 5.847 2.636 9.029-.75 1.133-2.271 2.207-3.65 2.545l-.974.259v5.687h.568c.304 0 1.116-.139 1.764-.298 5.456-1.372 9.228-6.065 9.228-11.534 0-3.222-1.075-5.727-3.55-8.173-1.317-1.313-1.946-1.77-3.345-2.427-.953-.437-2.15-.894-2.657-1.014-1.338-.298-4.076-.417-5.86-.238zm27.01.298c-5.292 1.272-9.165 6.145-9.165 11.554 0 5.429 3.812 10.181 9.227 11.534 1.52.378 4.299.378 5.942 0 4.562-1.054 8.253-4.912 9.105-9.506 1.095-6.026-2.84-11.991-8.964-13.562-1.44-.358-4.623-.378-6.144-.02zm5.922 6.085c1.298.636 2.637 2.148 3.063 3.4.425 1.253.344 3.54-.183 4.574-.568 1.154-1.602 2.228-2.778 2.864-.994.537-1.278.597-2.92.597-2.13 0-3.204-.398-4.543-1.71-3.204-3.163-1.967-8.472 2.352-10.043 1.237-.438 3.793-.279 5.01.318zm69.072-6.045c-.73.139-1.704.417-2.17.596l-.872.318v22.432h6.084l.04-9.505.061-9.486.953-.06c1.257-.08 2.129.378 2.535 1.293.345.855.223 1.81-.345 2.406-.365.378-.405.696-.405 2.824 0 2.366 0 2.406.507 2.625.284.12.73.557.973.934.426.677.446.995.507 4.853l.081 4.116h6.043v-4.852c0-5.39-.06-5.747-1.318-6.96-.385-.398-1.014-.855-1.379-1.034-.345-.18-.669-.358-.71-.378-.04-.04.345-.438.852-.895 1.582-1.432 1.927-3.52.933-5.727-.791-1.75-2.352-2.904-4.806-3.52-1.481-.378-5.759-.378-7.564.02zm-56.174.517c0 .258-.365 5.468-.81 11.593-.447 6.125-.812 11.157-.812 11.177 0 .04 1.4.06 3.103.06h3.102l.487-6.822c.243-3.738.527-7.199.588-7.676l.122-.875 2.98 6.026 3.002 6.005 3.022-5.946c2.413-4.752 3.042-5.826 3.123-5.429.061.279.304 3.321.547 6.762.223 3.44.467 6.642.528 7.1l.101.854h6.063v-.497c0-.596-1.358-19.548-1.541-21.437l-.121-1.333h-6.956l-2.353 4.713-2.352 4.733-2.413-4.733-2.413-4.713h-3.488c-3.509 0-3.509 0-3.509.438zm35.917.895c-.223.755-1.866 5.966-3.651 11.593l-3.224 10.242 3.245.06c1.805.02 3.285.02 3.325 0 .021-.04 1.014-3.74 2.17-8.214 1.177-4.494 2.19-8.014 2.251-7.855.061.16.487 1.65.913 3.321l.791 3.023-.527.06c-.507.06-.568.179-1.197 2.843-.365 1.532-.649 2.844-.669 2.924 0 .08.892.179 1.987.199l1.967.06.487 1.849.487 1.83h6.611l-.183-.558c-.182-.517-6.814-21.636-7.016-22.372-.102-.298-.447-.338-3.732-.338h-3.63l-.405 1.333z" fill="#1C386C"/><path d="M23.595 16.548c-2.778 1.93-4.948 3.043-5.962 3.043-.872 0-2.13-.577-3.224-1.511-.487-.398-.994-.676-1.156-.617-.446.18-1.947 2.128-2.454 3.242-.669 1.372-.933 2.903-.71 3.897.284 1.213.791 1.611 2.231 1.71 1.055.08 1.4 0 2.576-.536a19.553 19.553 0 002.697-1.552c1.723-1.213 4.826-4.136 6.327-5.985 1.196-1.452 2.332-3.182 2.19-3.301-.04-.04-1.176.676-2.515 1.61z" fill="#1C386C"/></svg>