<svg width="92" height="68" viewBox="0 0 92 68" fill="none" xmlns="http://www.w3.org/2000/svg"><path d="M35.212.08c-3.609.408-6.308 2.427-7.318 5.48-.332 1.021-.433 1.735-.433 3.04.007 2.114.238 3.032 1.71 6.742 2.108 5.306 3.385 9.292 4.814 15.014.93 3.746 1.587 5.444 3.016 7.783 1.19 1.961 2.988 3.892 4.676 5.022.628.423 1.761.999 2.483 1.261 1.999.722 4.366.809 6.603.248.346-.088 2.59-1.028 5.665-2.362 6.011-2.616 7.714-3.338 10.464-4.46 2.244-.918 2.684-1.144 3.651-1.902a10.088 10.088 0 003.407-4.898c.324-1.028.454-1.807.498-3.025.065-1.669-.145-3.126-.679-4.81-.296-.918-.462-1.268-2.056-4.286-1.501-2.835-2.8-5.444-3.327-6.683-1.17-2.733-1.84-3.819-3.262-5.313-2.872-3.01-6.92-4.781-12.759-5.583A186.498 186.498 0 0041.706.262C37.976 0 36.308-.044 35.211.08zm17.752 8.309c3.536.342 6.978 1.814 9.028 3.87.65.648 1.436 1.763 1.754 2.463a296.743 296.743 0 002.388 5.284c.743 1.596 1.241 2.77 1.335 3.134.635 2.478.166 4.351-1.508 5.962-.895.86-1.588 1.283-2.93 1.786-1.689.634-3.045 1.086-4.15 1.377-.858.226-1.082.255-1.876.263-.685 0-1.053-.037-1.537-.154-2.836-.7-5.095-3.309-6.365-7.375-.224-.7-1.046-3.258-1.84-5.685-.794-2.427-1.472-4.621-1.515-4.883-.282-1.852.202-3.623 1.284-4.723 1.256-1.261 2.843-1.618 5.932-1.32z" fill="#EE3324"/><path d="M26.427 49.597c-.88.24-1.623.83-1.984 1.582-.101.211-1.689 3.994-3.522 8.403-1.833 4.41-3.348 8.039-3.37 8.075-.014.03 1.082.044 2.44.037l2.467-.022.614-1.589.613-1.581 3.724.014 3.723.022.65 1.582.65 1.588h2.438c1.336 0 2.433-.021 2.433-.043 0-.08-6.654-16.027-6.87-16.457-.434-.868-1.163-1.45-2.065-1.64-.52-.11-1.479-.095-1.94.029zm2.1 8.498c.62 1.509 1.126 2.777 1.126 2.828 0 .058-.613.08-2.273.08-1.249 0-2.273-.022-2.273-.05 0-.147 2.208-5.693 2.244-5.65.029.03.556 1.284 1.176 2.792zm46.663-8.331a4.928 4.928 0 00-.57.226c-.324.183-.815.693-1.002 1.064l-.195.365-.022 8.14-.014 8.15h4.402l.014-5.737.022-5.728 4.02 5.393c2.208 2.966 4.17 5.532 4.351 5.692.563.496.989.627 2.093.634.794 0 1.01-.021 1.407-.167.563-.197 1.075-.562 1.371-.977.448-.627.433-.255.433-9.037v-8.003l-2.215.015-2.223.022-.036 5.852-.036 5.852-4.005-5.342c-2.201-2.937-4.164-5.502-4.366-5.7a3.555 3.555 0 00-.83-.582c-.433-.204-.541-.226-1.335-.24-.679-.015-.953.006-1.263.108zm-71.61.096c-1.602.167-2.46.684-2.872 1.712l-.173.43v13.484l.166.415a2.513 2.513 0 001.292 1.356c.729.335 1.53.451 3.19.451 2.922 0 5.167-.466 7.332-1.523 2.8-1.37 4.647-3.433 5.275-5.874.166-.663.18-.824.151-1.786-.028-.787-.072-1.195-.187-1.596-.989-3.418-4.82-6.217-9.425-6.887-1.552-.226-3.601-.306-4.748-.183zm4.128 3.71c2.8.575 4.944 2.28 5.391 4.292.152.678.101 1.603-.123 2.26-.577 1.697-2.403 3.119-4.777 3.724-.693.175-2.122.364-2.75.364h-.187V53.33l.852.043c.469.022 1.183.11 1.594.197zm31.687 5.174v8.965h4.762v-3.645c0-2.004.022-3.644.058-3.636.029 0 1.58 1.64 3.442 3.644l3.392 3.636h5.968l-4.46-4.562c-2.46-2.514-4.46-4.606-4.46-4.657.008-.051 1.733-2.012 3.847-4.359 2.107-2.354 3.832-4.293 3.832-4.314 0-.059-5.441-.044-5.52.021-.044.03-1.43 1.59-3.068 3.477l-2.995 3.418-.021-3.476-.015-3.477h-4.763v8.965zM60.85 49.86c-1.363.16-2.525.86-2.814 1.698-.123.342-.13.86-.13 7.15 0 6.464.008 6.8.137 7.178.347 1.02 1.032 1.531 2.36 1.742.282.051 2.194.08 4.958.08h4.489V64.21h-7.145v-3.936l3.233-.014 3.226-.022.022-1.771.014-1.764h-6.495V53.35h7.145l-.015-1.77-.021-1.764-4.222-.008c-2.324-.007-4.453.015-4.741.051z" fill="#1F2120"/></svg>