<svg width="130" height="46" viewBox="0 0 130 46" fill="none" xmlns="http://www.w3.org/2000/svg"><g clip-path="url(#clip0_216_877)"><path d="M21.109 11.006a6.538 6.538 0 001.034-3.523c0-1.2-.295-2.249-.812-3.223-.591-.975-1.33-1.725-2.143-2.25-.813-.599-1.774-.974-2.808-1.124-1.035-.15-2.66-.3-4.803-.3H.715v27.512H9.95c3.473-.075 5.69-.075 6.577-.15 1.478-.15 2.66-.6 3.694-1.35 1.035-.674 1.774-1.649 2.365-2.848.59-1.2.887-2.399.887-3.673 0-1.575-.444-2.924-1.33-4.123-.887-1.2-2.143-2.024-3.843-2.474 1.108-.6 2.069-1.35 2.808-2.474zm-4.36-2.698c0 .9-.295 1.574-.812 2.174-.518.524-1.257.899-2.217.974-.518.075-1.848.075-3.99.075H6.109V5.159h3.177c2.587 0 4.138.075 4.655.075.887.15 1.626.45 2.07.975.517.524.738 1.274.738 2.099zm.96 11.544c0 .974-.295 1.799-.812 2.324-.517.6-1.182.9-1.995 1.124-.517.15-1.773.15-3.768.15H6.109v-7.346h4.433c2.439 0 4.138.15 4.877.375.74.3 1.33.674 1.7 1.199.443.6.59 1.35.59 2.174zM30.492 5.459V.586h-5.32V5.46h5.32zm0 22.639V8.158h-5.32v19.94h5.32zm20.32-12.444c0-1.574-.074-2.699-.296-3.598a4.57 4.57 0 00-1.034-2.174c-.444-.675-1.182-1.2-2.143-1.574-.96-.45-1.995-.6-3.104-.6-2.586 0-4.729 1.124-6.428 3.448V8.233h-4.803v19.94h5.246v-8.996c0-2.249.148-3.748.37-4.572.295-.825.739-1.5 1.404-1.95.665-.45 1.551-.75 2.364-.75.665 0 1.33.15 1.773.526.444.375.813.824 1.109 1.499.222.6.37 2.024.37 4.198v10.195h5.246l-.074-12.669zm21.946 2.399c0-2.999-.96-5.472-2.808-7.421-1.921-1.95-4.36-2.924-7.315-2.924-1.921 0-3.62.45-5.246 1.274-1.552.9-2.808 2.1-3.621 3.824-.887 1.649-1.256 3.373-1.256 5.097 0 2.324.443 4.198 1.256 5.847.887 1.574 2.069 2.849 3.768 3.673 1.626.825 3.325 1.2 5.099 1.2 2.882 0 5.32-1.05 7.241-2.999 1.995-2.024 2.882-4.573 2.882-7.571zm-5.32 0c0 2.024-.444 3.598-1.404 4.648-.887 1.049-2.07 1.574-3.4 1.574s-2.438-.525-3.398-1.574c-.887-1.05-1.404-2.624-1.404-4.573 0-1.95.443-3.523 1.404-4.573.887-1.05 2.069-1.574 3.399-1.574s2.438.525 3.399 1.574c.96 1.05 1.404 2.549 1.404 4.498zm13.524-9.895V1.11l-5.246 3.074v3.973h-2.364v4.198h2.364v8.695c0 1.874.074 3.149.148 3.748.148.9.37 1.575.739 2.1.37.524.887.899 1.625 1.199.74.3 1.626.45 2.513.45 1.551 0 2.882-.3 4.064-.825L84.36 23.6c-.886.375-1.551.45-2.069.45-.369 0-.59-.075-.886-.3-.222-.15-.37-.375-.444-.675-.074-.3-.074-1.2-.074-2.848v-7.871h3.547V8.158h-3.473zm11.747 0V1.11l-5.247 3.074v3.973h-2.364v4.198h2.364v8.695c0 1.874.074 3.149.148 3.748.148.9.37 1.575.739 2.1.37.524.887.899 1.626 1.199.738.3 1.625.45 2.512.45 1.552 0 2.882-.3 4.064-.825l-.444-4.123c-.886.375-1.551.45-2.069.45-.369 0-.59-.075-.886-.3-.222-.15-.37-.375-.444-.675-.073-.3-.073-1.2-.073-2.848v-7.871h3.546V8.158H92.71zm24.014 9.895c0-2.999-.961-5.472-2.808-7.421-1.921-1.95-4.36-2.924-7.315-2.924-1.921 0-3.621.45-5.247 1.274-1.551.9-2.807 2.1-3.62 3.824-.887 1.649-1.256 3.373-1.256 5.097 0 2.324.443 4.198 1.256 5.847.886 1.574 2.069 2.849 3.768 3.673 1.7.825 3.325 1.2 5.099 1.2 2.881 0 5.32-1.05 7.241-2.999 1.921-2.024 2.882-4.573 2.882-7.571zm-5.32 0c0 2.024-.444 3.598-1.404 4.648-.887 1.049-2.069 1.574-3.399 1.574s-2.439-.525-3.399-1.574c-.887-1.05-1.404-2.624-1.404-4.573 0-1.95.443-3.523 1.404-4.573.886-1.05 2.069-1.574 3.399-1.574s2.438.525 3.399 1.574c.886 1.05 1.404 2.549 1.404 4.498z" fill="#E2001A"/><path d="M.715 32.895v12.52h115.714v-12.52H.715z" fill="#1F2120"/><path d="M125.22 14.604c2.143 0 4.064-1.649 4.064-3.973s-1.921-3.973-4.064-3.973-4.064 1.65-4.064 3.973c.074 2.324 1.921 3.973 4.064 3.973zm-3.029-4.048c0-1.874 1.33-3.223 3.103-3.223 1.7 0 3.104 1.35 3.104 3.223 0 1.874-1.404 3.224-3.104 3.224-1.773 0-3.103-1.275-3.103-3.224zm2.29.3h.665l1.109 1.95h.886l-1.182-1.95c.665-.075 1.182-.375 1.182-1.2 0-.974-.591-1.349-1.699-1.349h-1.7v4.573h.813l-.074-2.024zm0-.675V8.907h.813c.444 0 .961.075.961.6 0 .6-.444.674-.961.674h-.813z" fill="#E2001A"/><path d="M6.849 42.19h1.256v-5.397h3.177v-.675H3.598v.675h3.25v5.397zm10.27 0h.887v-4.272h-.886v1.874h-3.547v-1.874h-.887v4.272h.887v-1.949h3.547v1.95zm2.735 0h4.95v-.45h-4.137v-1.499h3.768v-.45h-3.768v-1.349h3.916v-.45H19.78v4.198h.074zm12.635 0h1.256v-5.397h3.178v-.675h-7.759v.675h3.325v5.397zm5.912 0h.886v-4.272h-.886v4.272zm2.807 0h.887v-1.799h2.29c.74 0 1.996-.374 1.774-1.424-.148-.9-1.551-1.05-2.069-1.05h-2.882v4.273zm.887-3.823h1.995c.37 0 1.109.15 1.182.675.074.6-.738.825-.886.825h-2.29v-1.5zm5.616 3.823h.887v-1.799h2.364c.74 0 1.995-.374 1.774-1.424-.148-.9-1.552-1.05-2.07-1.05h-2.881v4.273h-.074zm.96-3.823h1.996c.37 0 1.108.15 1.182.675.074.6-.739.825-.887.825h-2.29v-1.5zm5.69 3.823h.887v-4.272h-.887v4.272zm8.128 0v-4.272h-.886v3.448l-3.473-3.448h-1.035v4.272h.887v-3.448l3.473 3.448h1.034zm4.73-1.799h2.068c0 .3.074.825-.96 1.2-.296.15-.665.225-1.183.225-.59 0-1.256-.15-1.7-.375-.442-.3-.812-.825-.738-1.35 0-.524.296-1.049.739-1.349.443-.3 1.034-.375 1.7-.375 1.256 0 1.92.525 1.995.9h.886c-.074-.3-.221-.825-1.404-1.2-.37-.15-.96-.15-1.478-.15-.96 0-1.773.3-2.142.45-.887.45-1.183 1.2-1.183 1.8 0 .6.296 1.349 1.183 1.799.37.15 1.182.374 1.847.374 1.33 0 1.921-.374 2.438-.674l.222.524h.591v-2.323h-2.882v.524zm8.127 1.8h1.257v-2.624h3.25c1.035 0 2.809-.6 2.587-2.024-.296-1.35-2.143-1.574-2.956-1.5h-4.138v6.147zm1.257-5.473h2.808c.59 0 1.625.15 1.773 1.05.074.824-1.108 1.124-1.33 1.124h-3.177v-2.174h-.074zm10.492 1.05c-.96 0-1.773.3-2.143.45-.886.45-1.182 1.199-1.182 1.798 0 .6.296 1.35 1.182 1.8.37.15 1.183.45 2.143.45.96 0 1.774-.3 2.143-.45.887-.45 1.182-1.2 1.182-1.8 0-.6-.295-1.349-1.182-1.799-.37-.15-1.182-.45-2.143-.45zm0 .524c.591 0 1.256.15 1.7.375.443.3.813.825.739 1.35 0 .524-.296 1.049-.74 1.349-.443.3-1.034.375-1.699.375-.59 0-1.256-.15-1.7-.375-.443-.3-.812-.825-.738-1.35 0-.524.295-1.049.739-1.349.443-.225 1.108-.375 1.7-.375zm10.419 2.999l-1.552-3.448h-.96L93.45 41.29l-1.256-3.448h-1.035l1.774 4.272h.96l1.552-3.448 1.552 3.448h.96l1.774-4.272h-.96l-1.257 3.448zm3.547.9h4.95v-.45h-4.064v-1.5h3.769v-.45h-3.769v-1.349h3.917v-.45h-4.803v4.198zm6.576 0h.887v-1.875h2.29c1.404 0 1.035.825 1.109 1.275.074.15.074.375.221.524h1.109v-.15c-.296-.15-.37-.374-.37-.899 0-.675-.074-.825-.812-1.124.665-.3.96-.525.886-1.05-.074-.974-1.108-1.124-2.216-1.124h-3.104v4.422zm3.104-3.824c.591 0 1.403.075 1.256.825-.074.6-.665.675-1.256.675h-2.217v-1.425h2.217" fill="#fff"/></g><defs><clipPath id="clip0_216_877"><path fill="#fff" transform="translate(.715 .5)" d="M0 0h128.571v45H0z"/></clipPath></defs></svg>