<svg width="122" height="66" viewBox="0 0 122 66" fill="none" xmlns="http://www.w3.org/2000/svg"><g clip-path="url(#clip0_216_896)"><path fill-rule="evenodd" clip-rule="evenodd" d="M61.144 6.714c-14.632 0-27.91 2.976-37.528 7.774-9.554 4.767-15.477 11.325-15.477 18.528 0 7.204 5.924 13.761 15.476 18.528 9.618 4.799 22.897 7.774 37.53 7.774 14.631 0 27.91-2.975 37.528-7.774 9.553-4.767 15.476-11.324 15.476-18.528 0-7.203-5.923-13.761-15.476-18.528-9.618-4.798-22.897-7.774-37.529-7.774zm0-.599c14.732 0 28.111 3 37.808 7.839 9.762 4.87 15.815 11.615 15.815 19.062 0 7.448-6.053 14.191-15.815 19.062-9.697 4.839-23.076 7.84-37.808 7.84-14.731 0-28.11-3.001-37.808-7.84-9.761-4.87-15.814-11.614-15.814-19.062s6.052-14.191 15.814-19.062c9.698-4.839 23.077-7.839 37.808-7.839zm27.11 36.975V22.593h5.998v8.199l5.854-8.2h6.989l-7.747 9.927L107.3 43.09h-7.426l-5.621-8.375v8.375h-5.999zm-27.055 0l2.97-20.497h6l3.436 12.006 3.436-12.006h6l2.97 20.497h-5.766l-1.428-11.186-3.232 11.186h-3.96l-3.233-11.186-1.427 11.186H61.2zm-2.243-20.497V43.09h-5.998V27.512h-3.786v8.082c0 2.375-.348 4.484-2.14 6.252-1.787 1.761-5.587 1.717-7.937 1.244v-4.92c.299.087.946.21 1.428.206 2.603-.026 2.65-2.41 2.65-4.48V22.593h15.783zM18.623 43.09V22.593h5.999v7.379h6.64v-7.38h5.999V43.09h-6v-8.199h-6.64v8.2h-5.998zM61.145 3.342c31.438 0 57.079 13.33 57.079 29.674 0 16.343-25.641 29.674-57.08 29.674-31.438 0-57.08-13.33-57.08-29.674S29.706 3.342 61.144 3.342zm0-2.733c33.416 0 60.67 14.558 60.67 32.407 0 17.849-27.254 32.407-60.67 32.407C27.726 65.423.472 50.865.472 33.016.473 15.167 27.727.61 61.144.61z" fill="#2056AE"/></g><defs><clipPath id="clip0_216_896"><path fill="#fff" d="M0 0h122v66H0z"/></clipPath></defs></svg>