<svg width="80" height="80" viewBox="0 0 80 80" fill="none" xmlns="http://www.w3.org/2000/svg"><g clip-path="url(#clip0_216_906)"><path fill-rule="evenodd" clip-rule="evenodd" d="M16.768 53.591v2.77l-.063.057c-2.722.58-5.405 1.265-8.043 2.048a36.289 36.289 0 01-2.388-4.873A36.338 36.338 0 013.68 40.502h-.117l.017-.016c-.002-.15.097-.283.097-.433 0-20.134 16.321-36.455 36.454-36.455 20.134 0 36.455 16.321 36.455 36.455 0 .15-.002.3-.003.449a35.821 35.821 0 01-2.653 13.09h-.001a37.317 37.317 0 01-2.608 5.203 106.189 106.189 0 00-7.827-2.086v-6.343s.464-1.218 1.914-1.218v-8.695c-1.45 0-1.914-1.217-1.914-1.217V31.35h-3.593v11.48l-9.953-.024.716-2.303 2.093-6.734h-3.241l-1.607 4.937-.014-8.667h2.748c1.61.03 3.369-.561 4.68-1.605 1.58-1.252 2.364-3.398 2.364-5.306 0-3.13-1.742-6.35-5.736-6.35h-7.492v22.36l3.32-.031-.483 1.396-.803 2.327-1.665-.04-.93-2.287-2.821-6.937h-3.114l-2.859 6.937-.959 2.327h-1.682l-.747-2.327-.512-1.597c5.01-1.453 5.813-9.343 1.833-11.486 2.363-.743 4.997-10.643-3.724-10.643h-6.738v22.36h5.366l.429 1.366.73 2.327h-8.738V31.35h-3.594v7.885s-.464 1.217-1.914 1.217l-.059.15.06.043v8.503a2.041 2.041 0 011.913 1.218v3.225zm-13.986 0C8.32 68.863 22.952 79.77 40.132 79.77s31.81-10.907 37.348-26.175l-1.776-.002 1.776-.002a39.575 39.575 0 002.368-13.538C79.849 18.117 62.067.335 40.131.335 18.196.335.415 18.117.415 40.053c0 .148 0 .296.002.447v.002l-.1-.019.1.06c.056 4.579.886 8.97 2.366 13.048zm57.058 0l-.021 2.348a108.62 108.62 0 00-20.327-1.908c-6.546 0-12.91.58-19.146 1.692l.004-2.132.012-6.82 9.953-.034.966 3.106h3.309l1.236-3.072 7.314-.014 1.31 3.087h3.31l.994-3.072h11.147l-.062 6.82zM40.52 40.502l1.004 2.367-3.901.018 1.013-2.385.942-2.218.941 2.218zM25.937 25.81v-5.754h1.938c1.908.06 3.944.136 3.944 2.027 0 4.323-3.849 3.58-5.107 3.727h-.775zm21.946-5.754h1.908c2.355 0 4.518.387 4.518 2.951 0 2.713-2.372 3.62-4.19 3.62h-2.236v-6.571zm-20.977 15.72l-.624-2.008h3.242l.503 1.548c1.123-.44 2.13-1.215 2.13-2.93 0-2.415-2.016-2.902-4.61-2.902h-1.61v6.373h.895l.074-.081zm42.362 26.187C62.617 70.796 52.04 76.507 40.13 76.507c-12.05 0-22.734-5.847-29.37-14.857a98.873 98.873 0 0128.731-4.256 99.114 99.114 0 0129.723 4.532l.054.037z" fill="#154281"/></g><defs><clipPath id="clip0_216_906"><path fill="#fff" d="M0 0h80v80H0z"/></clipPath></defs></svg>