<svg width="82" height="66" viewBox="0 0 82 66" fill="none" xmlns="http://www.w3.org/2000/svg">
<g clip-path="url(#clip0_216_917)">
<path fill-rule="evenodd" clip-rule="evenodd" d="M8.10948 65.3511H0.585938L17.5366 0.593147L40.0894 21.5603L64.4925 0.593147L81.4368 65.3511H73.9153L60.7308 13.9335L40.0894 31.1093L21.2946 13.9335L8.10948 65.3511Z" fill="#2056AE"/>
<path fill-rule="evenodd" clip-rule="evenodd" d="M23.207 65.3511L28.8128 38.6159L36.3325 44.3839L34.4211 53.8769L51.3678 38.6159L53.2141 46.2466L45.6981 53.8769L58.8832 65.3511H49.454L40.0902 57.7207L30.7224 65.3511H23.207Z" fill="#2056AE"/>
<path fill-rule="evenodd" clip-rule="evenodd" d="M19.3826 65.3511H11.8633L23.206 19.6345L40.0892 34.8943L58.8822 19.6345L70.1595 65.3511H62.6399L53.2131 32.971L40.0892 44.3839L26.9025 34.8943L19.3826 65.3511Z" fill="#2056AE"/>
</g>
<defs>
<clipPath id="clip0_216_917">
<rect width="81" height="66" fill="white" transform="translate(0.5)"/>
</clipPath>
</defs>
</svg>
