<svg width="210" height="50" viewBox="0 0 210 50" fill="none" xmlns="http://www.w3.org/2000/svg"><path d="M136.166 15.101h-15.283l1.321-4.207h15.283" fill="#009640"/><path d="M121.699 14.606c.252-.743.44-1.485.692-2.227.126-.372.063-.805.503-.805h13.837v-.185c-.251.742-.44 1.485-.692 2.227-.126.371-.063.804-.503.804h-13.837v.186h13.774c.44 0 .378-.248.503-.68l.755-2.352v-.185h-13.774c-.44 0-.377.247-.503.68l-.755 2.351v.186z" fill="#fff"/><path d="M151.51 15.101h-15.346l1.321-4.207h15.346" fill="#EDEDED"/><path d="M136.98 14.606c.252-.743.441-1.485.692-2.227.126-.372.063-.805.503-.805h13.837v-.185c-.251.742-.44 1.485-.691 2.227-.126.371-.063.804-.504.804H136.98v.186h13.774c.441 0 .378-.248.504-.68l.754-2.352v-.185h-13.774c-.44 0-.377.247-.503.68l-.755 2.351v.186z" fill="#fff"/><path d="M166.796 15.101h-15.347l1.321-4.207h15.346" fill="#E30613"/><path d="M152.266 14.606c.251-.743.44-1.485.691-2.227.126-.372.063-.805.504-.805h13.837v-.185c-.252.742-.441 1.485-.692 2.227-.126.371-.063.804-.503.804h-13.837v.186h13.774c.44 0 .377-.248.503-.68l.755-2.352v-.185h-13.774c-.441 0-.378.247-.504.68l-.754 2.351v.186z" fill="#fff"/><path d="M150.756 22.835c.251-.928.629-1.3 1.572-1.3h3.459c.944 0 1.133.372.881 1.3l-.566 2.227h-5.912l.566-2.227zm22.39 7.919c-.566-.124-.88-.619-.629-1.238l4.152-13.24c.314-.68 1.132-1.237 1.886-1.237h6.479c.754 0 1.132.557.88 1.238l-1.321 3.093h7.359l2.327-5.32c.818-1.795-.189-3.342-2.201-3.342h-15.85c-2.012 0-4.339 1.485-5.157 3.341l-5.157 16.643h-16.982c-.063-.247-.063-.557 0-.928l.377-1.547h13.46l1.446-5.011c.881-3.403.566-4.95-3.207-4.95h-12.705c-3.774 0-5.22 1.547-6.101 4.95l-1.635 6.496c-.063.371-.189.68-.252 1.052-.44 2.722.441 3.898 3.774 3.898h50.064l1.761-3.898h-22.768zm-33.082-6.001l-1.51 6.063-.063.185c-.566 2.29-.314 2.908-.063 3.774h-9.497c.692-.866 1.321-1.484 1.887-3.774l.063-.185 2.076-8.043c.188-.866-.063-1.176-.755-1.176h-2.768c-.629 0-1.132.371-1.32 1.176l-2.076 8.043-.063.185c-.566 2.29-.314 2.908-.063 3.774h-9.497c.692-.866 1.321-1.484 1.887-3.774l.063-.185 2.075-8.043c.189-.866-.062-1.176-.754-1.176h-2.768c-.629 0-1.132.371-1.32 1.176l-2.076 8.043-.063.185c-.566 2.29-.314 2.908-.063 3.774h-9.497c.692-.866 1.321-1.484 1.887-3.774l2.264-8.847c.566-2.289.315-2.908.063-3.774h7.925l-.315 1.98h.063c.629-1.052 1.258-1.98 2.642-1.98h7.484c2.076 0 2.265.433 2.453 1.794h.063c.315-.68.881-1.794 2.327-1.794h5.724c2.893-.062 5.031.68 3.585 6.373zM106.729 23.7c-.88-.619-1.195-.805-3.648-.805-3.27 0-4.088.557-4.654 2.785l-1.32 5.258c-.567 2.29-.315 2.908-.064 3.774H86.855c.692-.866 1.321-1.484 1.887-3.774l.063-.185 2.202-8.724c.566-2.289.314-2.908.063-3.774h8.364l-.377 2.66h.063c1.321-1.98 2.39-2.66 4.969-2.66h4.088L106.73 23.7zm-26.667-.866l-1.887 7.3a7.7 7.7 0 01-.189.619c-.251.495-.629.742-1.383.742h-3.46c-.691 0-.943-.185-.943-.742 0-.186.063-.371.126-.619l1.887-7.3c.251-.928.629-1.3 1.572-1.3h3.46c.88 0 1.069.372.817 1.3zm4.654-4.517h-13.02c-3.773 0-5.22 1.547-6.1 4.95l-1.635 6.496c-.063.371-.189.68-.252 1.052h-7.925S62.2 15.225 62.2 15.163h57.423l1.258-4.145H58.237c.503 1.113.503 1.608-.188 4.269l-6.919 15.22h-.126l-2.893-20.48H35.155c.503 1.115.503 1.61-.189 4.27L29.054 30.63c0 .062 0 .124-.063.186H6.286l-2.013 3.897h28.555c-.44-.99-.378-1.546.188-3.897 0-.062 0-.124.063-.186l5.975-16.519h.063l2.39 16.643.566 3.898h38.492c3.334 0 4.843-1.238 5.786-3.898.126-.31.19-.68.315-1.052l1.635-6.496c.88-3.341.189-4.888-3.585-4.888z" fill="#E30613"/><path d="M144.217 34.033c-.881 0-1.824-.062-2.579-.495-.943-.557-.755-1.918-.566-2.784.189-.866.44-1.732.629-2.599.566-2.103.881-4.454 1.761-6.434 1.006-2.289 3.145-2.722 5.472-2.722h12.139c.691 0 1.446.062 2.138.31.943.37.943 1.299.818 2.165-.126 1.113-.503 2.227-.818 3.34-.252.929-.566 1.857-.818 2.846 0 .062-1.257 0-1.32 0h-10.504c-.503 0-1.258-.123-1.635.248-.252.31-.315 1.114-.377 1.485a3.543 3.543 0 00-.189 1.175c0 .68.314.99.943.99h15.913c.44 0 1.132.124 1.32-.433.378-1.3.818-2.536 1.195-3.836l3.837-12.559c.629-1.98 2.956-3.217 4.969-3.217h13.271c1.509 0 5.094-.371 3.899 2.289-.377.866-.818 1.794-1.195 2.66-.126.248-.818 2.228-1.069 2.228h-6.038v.185c.503-1.175 2.39-4.578-.44-4.578h-6.038c-1.195 0-2.516.433-2.956 1.67l-.378 1.3c-.691 2.289-1.446 4.578-2.138 6.805-.503 1.67-1.069 3.341-1.572 5.012-.252.742-.252 1.484.44 2.041.377.31.88.248 1.384.248h21.321v-.186c-.377.866-.755 1.732-1.195 2.598-.063.186-.126.124-.377.124h-49.247v.186h49.498c.252 0 .189-.062.315-.31l1.132-2.412v-.186h-21.951c-.817 0-1.32-.742-1.32-1.485v.186c.062-.557.314-1.114.44-1.67l.943-2.97a307.24 307.24 0 002.202-7.115c.503-1.609.88-3.65 3.144-3.65h6.101c.944 0 1.698.309 1.824 1.299v-.186c0 .99-.692 2.104-1.069 3.032v.185h5.786c.503 0 .692-.99.881-1.423.503-1.051.943-2.165 1.446-3.217.252-.557.503-1.114.378-1.732-.252-1.114-1.258-1.3-2.202-1.3h-15.22c-1.321 0-2.516.557-3.522 1.362-1.321 1.052-1.573 2.66-2.013 4.145-.755 2.35-1.447 4.702-2.201 7.053-.629 2.042-1.258 4.021-1.887 6.063-.126.371-.189.866-.503 1.176-.252.247-1.07.123-1.321.123H149.5c-.629 0-1.006-.123-1.069-.866v.186c0-.68.188-1.3.377-1.918.126-.433.189-.866.692-.866h12.202c.566 0 .629.123.817-.372.629-2.103 1.573-4.392 1.573-6.558 0-.928-.252-1.546-1.258-1.856-.818-.247-1.698-.185-2.516-.185h-11.887c-1.447 0-2.956.247-3.963 1.299-.88.866-1.258 2.165-1.572 3.34-.503 2.043-1.006 4.084-1.572 6.126-.189.804-.378 1.608-.378 2.475 0 .618.126 1.175.629 1.608.692.557 1.824.557 2.705.557-.063.186-.063 0-.063 0z" fill="#fff"/><path d="M152.33 20.855c-1.51.062-1.95 1.052-2.264 2.29-.189.68-.441 1.36-.441 2.04 0 .805 1.258.558 1.824.558h4.655c.503 0 .628-.433.691-.866.189-.805.566-1.733.566-2.599 0-1.237-.943-1.485-2.012-1.485h-3.019v.186h2.516c1.069 0 2.453-.124 2.515 1.36v-.185c-.062.928-.44 1.856-.629 2.784-.188.743-1.069.557-1.698.557h-3.333c-.629 0-1.887.248-2.076-.557v.186c.063-.742.378-1.547.566-2.29.315-1.175.881-1.855 2.139-1.855v-.124zm-22.139 13.364c1.195-1.856 1.572-4.27 2.075-6.373.315-1.175.629-2.413.881-3.588.126-.557.377-1.238.377-1.794 0-.99-.503-1.609-1.572-1.609-.944 0-1.95-.124-2.893 0-1.07.124-1.447 1.114-1.698 2.042-.252 1.051-.504 2.041-.755 3.093l-1.132 4.517c-.315 1.237-.566 2.474-.315 3.774v-.186h-7.484v.186c1.195-1.857 1.572-4.27 2.075-6.373.315-1.175.629-2.413.881-3.588.126-.557.377-1.238.377-1.794 0-.99-.503-1.61-1.572-1.61-.944 0-1.95-.123-2.893 0-1.07.125-1.447 1.114-1.699 2.043-.251 1.051-.503 2.041-.754 3.093a451.07 451.07 0 00-1.132 4.516c-.315 1.238-.566 2.475-.315 3.774v-.185h-7.484v.185c.817-1.175 1.132-2.598 1.446-3.96l1.195-4.578c.566-2.165 1.573-4.64 1.132-6.867v.186h6.478v-.186c-.062.619-.188 1.176-.188 1.732 0 .248.377.433.629.433.44 0 .629-.37.817-.68.441-.68 1.007-1.3 1.887-1.3h6.101c.818 0 1.698-.061 2.516.063.503.123.629.556.692.99.063.37.188.68.629.68.503 0 .629-.495.88-.866.629-1.052 1.698-.928 2.705-.928h3.71c1.51 0 3.46-.124 4.026 1.608.503 1.733-.315 3.836-.755 5.569a108.454 108.454 0 00-1.069 4.33c-.315 1.176-.566 2.475-.315 3.713v-.186h-7.484v.124h7.484v-.186c-.251-1.3.126-2.599.441-3.836.314-1.175.566-2.35.88-3.526.503-1.856 1.132-3.836.881-5.754-.252-2.722-3.963-2.104-5.975-2.104h-2.956c-.692 0-1.195.372-1.573.928-.251.372-.314.805-.817.867-.441.061-.629-.31-.692-.681-.063-.557-.189-.928-.818-1.052-.44-.062-.943-.062-1.384-.062h-7.044c-.692 0-1.195.248-1.635.743-.315.371-.503.928-.944 1.175-.44.248-.817-.247-.88-.618v.185l.189-1.3v-.185h-6.479V19c.315 1.3-.125 2.66-.44 3.898-.314 1.237-.629 2.536-.943 3.774l-.944 3.65c-.314 1.3-.692 2.537-1.383 3.65v.186h7.484v-.186c-.251-1.237.126-2.475.377-3.712.252-1.052.567-2.165.818-3.217l.881-3.465c.188-.804.314-1.732 1.069-2.289.755-.557 2.075-.31 2.956-.31 1.195 0 2.642.124 2.201 1.733-.503 1.98-1.006 4.022-1.509 6.001-.44 1.794-.755 3.65-1.761 5.197v.186h7.484v-.186c-.251-1.237.126-2.474.378-3.712.251-1.052.566-2.165.817-3.217.315-1.175.566-2.29.881-3.465.188-.804.314-1.732 1.069-2.289.755-.557 2.075-.31 2.956-.31 1.195 0 2.642.125 2.201 1.733-.503 1.98-1.006 4.022-1.509 6.002-.44 1.794-.755 3.65-1.761 5.196-.063.248 0 .31 0 .372zm-42.14 0c.818-1.176 1.132-2.599 1.447-3.96l1.195-4.578c.566-2.166 1.572-4.64 1.132-6.868V19h6.855v-.186c-.125.68-.314 1.423-.314 2.104 0 .433.126.742.629.742.629 0 1.195-1.175 1.635-1.608 1.006-.928 2.39-1.052 3.711-1.052h2.956v-.186l-.629 2.351c-.126.433-.189.866-.314 1.3-.063.309-.504 0-.755-.062-1.447-.372-3.271-.248-4.717-.062-1.195.186-2.076.742-2.642 1.794-.377.68-.503 1.485-.692 2.227-.251 1.052-.503 2.104-.817 3.156-.378 1.546-.88 3.155-.566 4.702v-.186h-8.177c.063 0 .063.186.063.186h8.177v-.186c-.378-1.856.503-4.207 1.006-6.063.377-1.485.566-3.403 1.635-4.517.755-.804 1.95-.927 2.956-.99 1.321-.061 2.83-.185 4.088.248.378.124.315.186.441-.185.125-.434.188-.867.314-1.3l.566-2.227v-.186c-1.321 0-2.704-.061-4.025 0-1.069.062-2.013.372-2.768 1.114-.377.371-.691.804-1.006 1.237-.377.557-1.132.186-1.132-.433v.186c.126-.68.189-1.3.315-1.98v-.186h-6.856v.186c.252 1.3-.126 2.66-.44 3.898-.315 1.237-.63 2.536-.944 3.774l-.943 3.65c-.315 1.3-.692 2.537-1.384 3.65-.063.186 0 .248 0 .31z" fill="#fff"/><path d="M42.578 34.033l-1.51-10.765c-.314-2.29-.628-4.64-1.005-6.93-.063-.68-.19-1.299-.252-1.98-.063-.618-.566-1.299-1.195-.68-.252.186-.315.742-.377 1.052a38.82 38.82 0 00-.88 2.474c-.881 2.413-1.762 4.764-2.58 7.177-.692 1.794-1.32 3.65-2.012 5.445-.503 1.36-.944 2.97-.692 4.392v-.185H5.219v.185c.44-.866.88-1.67 1.32-2.536.19-.31.378-.186.692-.186h21.573c.504 0 .692-.247.88-.68.567-1.485 1.07-2.97 1.636-4.517 1.384-3.898 2.83-7.733 4.214-11.631.44-1.237.818-2.846.503-4.145v.185h11.447c.315 0 .189.186.252.433.126.68.188 1.361.314 2.042.315 2.351.63 4.702 1.007 6.991.314 2.413.691 4.826 1.006 7.3l.314 2.352c.063.37.063.866.315 1.175.314.371.943.062 1.069-.247l.252-.495 1.006-2.227c1.07-2.29 2.075-4.579 3.145-6.868.754-1.67 1.572-3.403 2.327-5.073.629-1.361 1.069-3.094.692-4.578v.185h60.882v-.185c-.314.928-.566 1.856-.881 2.784-.062.185-.125.123-.314.123H62.202c-.566 0-.692.62-.88 1.052L60 18.628c-1.32 3.217-2.641 6.372-3.9 9.59-.25.68-.565 1.36-.817 2.04-.063.186-.126.372-.126.558 0 .866 1.321.618 1.887.618h6.541c.944 0 .88-1.299 1.07-1.98.314-1.113.566-2.289.88-3.402.503-2.042.818-4.764 2.642-6.187 1.446-1.176 3.647-.866 5.409-.866h7.547c1.761 0 3.774-.248 5.535.185 1.887.495 1.446 2.475 1.069 3.898-.252.928-.44 1.856-.692 2.784-.566 2.104-.88 4.888-2.264 6.62-1.132 1.423-3.02 1.485-4.717 1.485H42.578v.186H80.63c1.446 0 2.893-.186 3.962-1.238.944-.928 1.321-2.289 1.573-3.464.503-2.042 1.006-4.084 1.572-6.125.189-.867.377-1.671.377-2.599 0-1.67-1.635-1.98-3.019-1.98-4.025-.123-8.113 0-12.201 0-2.013 0-4.088-.062-5.41 1.67-.691.929-1.005 2.104-1.32 3.218-.252 1.114-.566 2.165-.818 3.279-.251.928-.44 1.856-.692 2.784-.125.557-.062 1.423-.817 1.547-.189.062-.44 0-.63 0H56.29c-.503 0-1.069.062-1.132-.619v.186c.126-.681.504-1.361.818-2.042.314-.804.692-1.67 1.006-2.475.692-1.67 1.384-3.279 2.013-4.95.88-2.103 1.698-4.206 2.579-6.31.251-.619 1.132-.433 1.635-.433h55.851c.188 0 .817-2.66.943-2.97v-.185H59.057v.185c.44 1.918-.566 3.898-1.32 5.569-1.007 2.165-2.014 4.392-3.02 6.558-.88 1.98-1.824 3.96-2.704 5.939-.19.433-.315.928-.755 1.175-.692.434-.944-.494-1.006-.99-.63-4.33-1.196-8.723-1.824-13.054a177.283 177.283 0 00-.818-5.692c0-.062-.063-.742-.126-.742h-11.51v.186c.44 1.794-.503 3.835-1.132 5.506l-2.453 6.682c-.754 2.103-1.572 4.269-2.327 6.372-.188.433-.314.866-.503 1.361-.189.557-.44.619-.943.619H7.106c-.504 0-.44 0-.692.495-.378.742-.818 1.485-1.195 2.289v.186h26.793v-.186c-.314-1.732.566-3.588 1.132-5.259.818-2.227 1.573-4.392 2.39-6.62.818-2.165 1.572-4.392 2.39-6.558.189-.495.377-1.052.566-1.547.252-.68 1.195-.618 1.258.124l2.83 19.984c0 .123 0 .062 0 0z" fill="#fff"/><path d="M75.659 20.855c-1.32.062-1.887.866-2.201 2.042l-.755 2.97c-.315 1.113-.566 2.288-.88 3.402-.126.557-.315 1.052-.315 1.609 0 1.36 1.258 1.36 2.327 1.36 1.006 0 2.013.063 3.019 0 1.32-.061 1.76-1.237 2.013-2.288.251-1.114.566-2.166.817-3.28l.755-2.97c.126-.432.252-.927.252-1.36 0-1.361-1.195-1.423-2.265-1.423H75.66v.185h2.453c1.132 0 2.641-.123 2.641 1.362v-.186c-.063.804-.314 1.547-.503 2.29-.314 1.236-.629 2.412-.943 3.65-.189.68-.315 1.36-.503 2.041-.252.928-.755 1.547-1.698 1.732-.378.062-.881.062-1.258.062-1.007 0-2.076.062-3.082 0-1.573-.123-1.07-1.732-.818-2.784.503-2.103 1.07-4.145 1.572-6.249.315-1.175.881-1.856 2.139-1.918v-.247z" fill="#fff"/><path d="M201.385 13.492c0 1.67-1.384 2.846-2.956 2.846-1.573 0-2.956-1.175-2.956-2.846 0-1.67 1.383-2.846 2.956-2.846 1.572 0 2.956 1.176 2.956 2.846zm-.629 0c0-1.36-1.006-2.35-2.327-2.35s-2.327.99-2.327 2.35c0 1.362 1.006 2.351 2.327 2.351 1.321.062 2.327-.99 2.327-2.35zm-2.893 1.67h-.566v-3.278h1.258c.817 0 1.195.31 1.195.928 0 .619-.378.866-.881.928l.943 1.423h-.566l-.88-1.423h-.566v1.423h.063zm.629-1.917c.314 0 .754-.062.754-.495s-.377-.495-.754-.495h-.692v.928h.692v.062z" fill="#E30613"/><path d="M58.928 38.611h-1.572v-.31h3.522v.31h-1.573v4.516h-.377v-4.516zm5.22 2.908h-1.887l-.566 1.608h-.377l1.698-4.825h.44l1.698 4.825h-.503l-.503-1.608zm-.126-.31l-.314-.866c-.252-.68-.377-1.237-.566-1.67-.126.433-.315.99-.503 1.67l-.315.866h1.698zm2.202-2.907h.44l2.013 3.34.566.99V38.24h.377v4.825h-.44l-2.013-3.34-.566-.99v4.33h-.377v-4.763zm5.157 0h.377v2.66l2.328-2.66h.44l-1.573 1.794 1.761 3.031h-.44l-1.572-2.722-.944 1.114v1.67h-.377v-4.887zm4.025 2.846h1.636v.309h-1.636v-.31zm3.774-2.537h-1.572v-.31h3.522v.31h-1.573v4.516h-.377v-4.516zm5.975 4.516l-1.32-2.165h-1.007v2.165h-.377v-4.825h1.446c.503 0 .944.123 1.195.309.315.186.44.557.44.99 0 .371-.125.68-.314.928-.189.247-.503.371-.88.433l1.32 2.227h-.503v-.062zm-1.384-2.474c.44 0 .755-.062 1.007-.248.251-.186.314-.433.314-.804 0-.371-.126-.619-.314-.743a2.172 2.172 0 00-1.007-.247h-.943v1.98h.943v.062zm3.585 2.103c-.314-.31-.44-.804-.44-1.485v-2.97h.377v2.908c0 .62.126.99.378 1.238.251.247.566.371.943.371.378 0 .692-.124.944-.371.251-.248.377-.68.377-1.238v-2.907h.377v2.97c0 .68-.125 1.237-.44 1.484-.314.31-.692.433-1.195.433-.566.062-1.006-.123-1.32-.433zm5.41.186c-.315-.186-.567-.495-.755-.866-.19-.372-.252-.805-.252-1.3s.063-.928.252-1.299c.188-.371.44-.68.754-.866a2.2 2.2 0 011.132-.31c.252 0 .504.063.755.186.252.124.378.248.566.433l-.251.248c-.315-.31-.63-.495-1.07-.495-.314 0-.629.062-.88.247a1.69 1.69 0 00-.566.743c-.126.31-.189.68-.189 1.113 0 .433.063.805.189 1.176.126.31.314.557.566.742.252.186.566.248.88.248.252 0 .44-.062.692-.124.189-.124.378-.247.566-.433l.252.247c-.189.248-.44.372-.629.495-.189.124-.503.186-.818.186-.566-.062-.88-.186-1.195-.371zm3.899-4.64h.377v2.66l2.327-2.66h.44l-1.572 1.794 1.761 3.031h-.44l-1.572-2.722-.944 1.114v1.67h-.377v-4.887zm6.415 0h2.705v.309h-2.328v1.794h1.95v.31h-1.95v2.041h2.39v.31h-2.767v-4.764zm8.051 5.939c-.189.062-.378.062-.629.062a1.76 1.76 0 01-1.007-.31c-.314-.185-.503-.433-.629-.804-.377-.062-.691-.185-.943-.371-.252-.247-.503-.495-.629-.866s-.252-.804-.252-1.237c0-.496.063-.929.252-1.3s.44-.68.755-.866c.314-.185.629-.31 1.069-.31.377 0 .755.125 1.069.31.315.186.566.495.692.866.189.371.252.804.252 1.3 0 .494-.063.866-.252 1.237-.126.371-.377.68-.629.866-.251.186-.566.371-.943.371.126.248.251.433.503.557.251.124.503.186.755.186.188 0 .377 0 .503-.062l.063.371zm-3.46-2.351c.126.31.315.619.567.742.251.186.503.248.817.248.315 0 .629-.062.881-.248.251-.185.44-.433.566-.742.126-.31.188-.742.188-1.175 0-.434-.062-.805-.188-1.114a1.698 1.698 0 00-.566-.743c-.252-.185-.503-.247-.881-.247-.314 0-.629.062-.88.247a1.683 1.683 0 00-.566.743c-.126.31-.189.68-.189 1.114 0 .433.126.804.251 1.175zm5.409.866c-.314-.31-.44-.804-.44-1.485v-2.97h.378v2.908c0 .62.125.99.377 1.238.251.247.566.371.943.371.378 0 .692-.124.944-.371.251-.248.377-.68.377-1.238v-2.907h.377v2.97c0 .68-.125 1.237-.44 1.484-.314.31-.692.433-1.195.433-.629.062-1.006-.123-1.321-.433zm4.655-4.454h.377v4.825h-.377v-4.825zm2.201 0h1.258c.566 0 1.006.123 1.321.309.314.186.44.557.44 1.052s-.126.804-.44 1.052c-.315.247-.755.37-1.321.37h-.881v2.042h-.377v-4.825zm1.195 2.474c.503 0 .881-.062 1.069-.247.252-.186.378-.433.378-.866 0-.371-.126-.68-.378-.805a2.545 2.545 0 00-1.132-.247h-.755v2.165h.818zm3.333-2.474h.566l1.007 2.784.377 1.052c.063-.124.126-.31.189-.557l.189-.557 1.006-2.784h.566v4.825h-.377v-3.093c0-.247 0-.68.062-1.361l-.377 1.114-1.069 2.784h-.315l-1.069-2.784-.377-1.114c0 .557.063.99.063 1.361v3.093h-.378v-4.763h-.063zm5.661 0h2.704v.309h-2.327v1.794h1.95v.31h-1.95v2.041h2.39v.31h-2.767v-4.764zm4.277 0h.44l2.013 3.34.566.99V38.24h.377v4.825h-.44l-2.013-3.34-.566-.99v4.33h-.377v-4.763zm6.164.309h-1.573v-.31h3.522v.31h-1.572v4.516h-.377v-4.516z" fill="#636569"/></svg>