<svg width="244" height="40" viewBox="0 0 244 40" fill="none" xmlns="http://www.w3.org/2000/svg"><g clip-path="url(#clip0_216_685)"><path d="M180.821 15c.144 3.75.381 8.245-10.073 8.297h-10.433c-10.623.034-9.764-5.6-10.098-8.607V6.41c0-3.231 1.862-5.91 10.146-5.876h9.667c9.071-.034 10.862 2.645 10.862 5.876V8H168.91c0-2.004-.598-3.248-2.365-3.421h-1.932c-1.768-.018-2.365 1.572-2.365 3.577v5.151c.168 2.022.072 5.271 2.652 5.289h1.383c2.077.034 2.435-1.573 2.556-3.613l11.982.017zM71.213.813L67.49 16.797 62.905.813H47.838l-4.609 15.984L39.528.813H28.066l6.663 22.19h17.74l2.937-14.106 2.866 14.105h17.766L82.675.812H71.213zm18.282 0l-9.074 22.182h12.108l1.076-3.198h8.693l1.17 3.198h12.538L106.572.812H89.495zm8.622 6.69l2.723 7.902h-5.613l2.89-7.901zm37.401 9.319c0 .796-.836 1.54-1.959 1.47h-3.653v-4.668h3.583c1.099 0 2.029.674 2.029 1.47v1.728zm-5.612-11.946h3.511c1.099 0 2.031.673 2.031 1.469v1.573c0 .796-.932 1.47-2.031 1.47h-3.511V4.876zm13.853 6.137c4.609-.432 4.418-4.097 4.418-4.097V4.944c.023-2.938-2.365-4.218-5.422-4.132h-25.459v22.2h22.57c2.985.07 8.573-.294 8.645-5.308l.025-1.798s.119-3.993-4.777-4.893zm51.588-2.974c0-2.005.596-3.596 2.364-3.579h3.486c1.72-.017 2.579 1.574 2.508 3.58v5.256c0 1.97-.168 5.204-2.77 5.22h-2.699c-2.58-.016-2.866-3.18-2.89-5.22l.001-5.257zm-12.326-1.642v8.28c.168 3.2.145 8.594 10.104 8.612h12.659c10.008-.018 10.101-5.439 10.149-8.59V6.391c-.004-3.229-3.654-5.87-8.114-5.873h-16.682c-4.463.002-8.116 2.647-8.116 5.879z" fill="#005AA9"/><path d="M38.789 32.378a2.5 2.5 0 00-.639-.522c-.532-.31-1.195-.477-1.878-.475-.644 0-1.191.09-1.64.27a2.96 2.96 0 00-1.095.727c-.28.303-.483.649-.61 1.036a3.81 3.81 0 00-.192 1.201c0 .396.064.782.191 1.155.128.375.331.711.611 1.01.28.3.645.54 1.094.72.45.18.997.27 1.641.27.876 0 1.56-.193 2.052-.58a2.4 2.4 0 00.903-1.532h2.772a3.784 3.784 0 01-.566 1.597c-.304.476-.705.88-1.203 1.215a5.734 5.734 0 01-1.751.765 8.654 8.654 0 01-2.207.264c-.997 0-1.893-.125-2.69-.376-.796-.25-1.468-.596-2.015-1.036a4.558 4.558 0 01-1.258-1.551 4.296 4.296 0 01-.438-1.921c0-.704.146-1.358.438-1.96a4.647 4.647 0 011.258-1.578c.547-.449 1.219-.8 2.015-1.056.797-.255 1.693-.383 2.69-.383.718 0 1.396.075 2.034.224.638.15 1.21.368 1.714.654.504.286.92.64 1.25 1.063.327.422.534.906.62 1.452h-2.773a1.435 1.435 0 00-.328-.653zm14.735 6.191c-.985.62-2.346.93-4.085.93-1.763 0-3.127-.307-4.094-.924-.966-.616-1.45-1.566-1.45-2.85v-5.863h2.863v5.862c0 .255.03.506.091.753.061.246.189.464.383.653.195.19.465.343.812.462.346.119.811.178 1.395.178 1.02 0 1.726-.165 2.115-.495.39-.33.584-.847.584-1.55v-5.863H55v5.862c0 1.276-.492 2.225-1.477 2.845zm6.128-1.604c.157.22.367.398.629.535.261.136.568.237.92.303.353.066.718.1 1.095.1.255 0 .528-.016.82-.047a3.67 3.67 0 00.82-.178c.25-.084.468-.208.64-.363a.758.758 0 00.255-.587c0-.255-.113-.462-.338-.621-.225-.158-.52-.29-.884-.396a11.457 11.457 0 00-1.24-.277c-.47-.081-.939-.169-1.404-.264a15.962 15.962 0 01-1.423-.324 5.614 5.614 0 01-1.24-.495 2.723 2.723 0 01-.885-.759c-.225-.303-.337-.67-.337-1.102 0-.484.143-.904.429-1.26a3.399 3.399 0 011.121-.892 5.896 5.896 0 011.569-.528 9.1 9.1 0 011.75-.171c.681 0 1.334.055 1.96.165a5.97 5.97 0 011.67.534c.483.244.88.568 1.158.944.285.383.428.847.428 1.393h-2.772a1.327 1.327 0 00-.246-.7 1.429 1.429 0 00-.556-.436 2.942 2.942 0 00-.794-.224 6.703 6.703 0 00-.975-.066 4.62 4.62 0 00-.693.053 2.306 2.306 0 00-.63.185 1.464 1.464 0 00-.464.33.711.711 0 00-.183.502c0 .185.049.334.146.449.097.114.289.22.575.316.285.097.68.194 1.185.29.658.127 1.318.25 1.978.37.244.035.58.1 1.013.192.43.092.86.24 1.285.442.426.203.794.473 1.104.812.31.339.465.772.465 1.3 0 .431-.116.832-.347 1.201-.23.37-.574.69-1.03.957-.456.269-1.021.478-1.696.627-.675.15-1.456.225-2.343.225a11.24 11.24 0 01-2.089-.192 6.321 6.321 0 01-1.787-.6 3.484 3.484 0 01-1.23-1.043c-.305-.422-.45-.924-.438-1.505h2.772c0 .317.078.585.237.805zm8.625-5.36v-1.742h10.668v1.742h-3.902v7.683H72.18v-7.683h-3.903zm12.036 1.05a4.648 4.648 0 011.258-1.578c.547-.448 1.22-.8 2.016-1.056.796-.255 1.692-.383 2.69-.383 1.008 0 1.908.128 2.699.383.79.256 1.458.608 2.005 1.056.547.45.967.975 1.259 1.578a4.44 4.44 0 01.438 1.96c0 .687-.146 1.327-.438 1.921a4.556 4.556 0 01-1.259 1.551c-.547.44-1.215.786-2.005 1.036-.791.251-1.69.377-2.7.377-.996 0-1.893-.126-2.69-.377-.796-.25-1.468-.596-2.014-1.036a4.56 4.56 0 01-1.26-1.551 4.296 4.296 0 01-.437-1.92c0-.705.146-1.358.438-1.961zm2.617 3.115c.128.375.331.711.61 1.01.28.3.645.54 1.095.72.45.18.997.27 1.641.27.645 0 1.192-.09 1.642-.27.45-.18.814-.42 1.094-.72.28-.299.483-.635.61-1.01.128-.374.192-.759.192-1.155a3.83 3.83 0 00-.191-1.201 2.819 2.819 0 00-.611-1.036 2.96 2.96 0 00-1.094-.727c-.45-.18-.998-.27-1.642-.27-.644 0-1.191.09-1.64.27a2.96 2.96 0 00-1.095.727 2.81 2.81 0 00-.611 1.036 3.807 3.807 0 00-.191 1.201c0 .396.063.781.191 1.155zm15.729-5.907l3.046 6.482h.036l2.881-6.482h4.031v9.425h-2.681v-6.68h-.036l-3.192 6.68h-2.206l-3.192-6.613h-.036v6.614h-2.68v-9.426h4.029zm22.248 0v1.742h-6.875v2.02h6.31v1.61h-6.31v2.311h7.022v1.742h-9.885v-9.425h9.738zm9.1 0c.584 0 1.109.068 1.578.204.468.137.869.324 1.203.561.331.235.592.515.766.825.176.313.265.65.265 1.01 0 .555-.162 1.035-.484 1.44-.322.404-.848.712-1.577.923v.027c.352.07.644.178.875.323.231.145.423.32.566.515.146.198.252.416.319.653.066.238.112.476.137.713.012.15.024.326.036.528.012.203.033.41.064.62.03.212.079.412.146.601.067.19.167.35.301.482h-2.863a2.806 2.806 0 01-.292-1.07 11.697 11.697 0 00-.164-1.187c-.098-.493-.304-.854-.62-1.083-.316-.229-.833-.343-1.55-.343h-2.863v3.683h-2.863v-9.425h7.02zm-1.021 4.264c.657 0 1.149-.106 1.477-.317.328-.211.493-.555.493-1.03 0-.457-.165-.79-.493-.997-.328-.206-.82-.31-1.477-.31h-3.137v2.654h3.137zm20.589-1.75a2.502 2.502 0 00-.639-.52 3.394 3.394 0 00-.866-.35 4.021 4.021 0 00-1.012-.126c-.644 0-1.191.09-1.641.27-.44.175-.816.424-1.094.727a2.81 2.81 0 00-.611 1.036 3.816 3.816 0 00-.192 1.201c0 .396.065.782.192 1.155.128.375.331.711.611 1.01.28.3.644.54 1.094.72.45.18.997.27 1.641.27.876 0 1.559-.193 2.052-.58.492-.387.793-.898.903-1.532h2.772a3.787 3.787 0 01-.566 1.597c-.304.476-.705.88-1.203 1.215a5.734 5.734 0 01-1.751.765 8.656 8.656 0 01-2.207.264c-.997 0-1.893-.125-2.69-.376-.796-.25-1.468-.596-2.015-1.036a4.56 4.56 0 01-1.258-1.551 4.295 4.295 0 01-.438-1.921c0-.704.146-1.358.438-1.96a4.652 4.652 0 011.258-1.578c.547-.449 1.219-.8 2.015-1.056.796-.255 1.693-.383 2.69-.383a8.9 8.9 0 012.034.224c.638.15 1.21.368 1.714.654.504.286.921.64 1.249 1.063.328.422.535.906.62 1.452h-2.772a1.441 1.441 0 00-.328-.653zm14.899-2.514v1.742h-6.875v2.02h6.309v1.61h-6.309v2.311h7.021v1.742h-9.884v-9.425h9.738zm4.924 0l5.434 6.323h.037v-6.323h2.681v9.425h-2.863l-5.417-6.31h-.036v6.31h-2.681v-9.425h2.845zm9.647 1.742v-1.742h10.668v1.742h-3.902v7.683h-2.863v-7.683h-3.903zm19.185-1.742a5.65 5.65 0 011.577.204c.468.137.869.324 1.204.561.331.234.591.515.766.825.176.313.264.65.264 1.01 0 .555-.161 1.035-.483 1.44-.323.404-.848.712-1.578.923v.027c.353.07.645.178.876.323.23.145.422.32.565.515.146.198.252.416.319.653.067.238.112.476.137.713.012.15.024.326.036.528.012.203.034.41.065.62.03.212.078.412.145.601.067.19.167.35.301.482h-2.863a2.806 2.806 0 01-.292-1.07 11.697 11.697 0 00-.164-1.187c-.097-.493-.304-.854-.62-1.083-.316-.229-.832-.343-1.55-.343h-2.863v3.683h-2.863v-9.425h7.021zm-1.021 4.264c.656 0 1.148-.106 1.477-.317.328-.211.492-.555.492-1.03 0-.457-.164-.79-.492-.997-.329-.206-.821-.31-1.477-.31h-3.137v2.654h3.137zm16.904-4.264v1.742h-6.875v2.02h6.31v1.61h-6.31v2.311h7.021v1.742h-9.884v-9.425h9.738z" fill="#6D7782"/></g><defs><clipPath id="clip0_216_685"><path fill="#fff" transform="translate(0 .5)" d="M0 0h244v39H0z"/></clipPath></defs></svg>