<svg width="172" height="36" viewBox="0 0 172 36" fill="none" xmlns="http://www.w3.org/2000/svg"><g clip-path="url(#clip0_216_695)" fill-rule="evenodd" clip-rule="evenodd"><path d="M15.954 7.426l-13.74 8.14L4.55 16.6s.874-.405 10.64-6.033c0 0 10.694-6.1 10.825-6.1.131 0 .239 4.674.239 10.387v10.379l2.334 1.4V.5S22.26 3.793 15.954 7.426zm14.033-2.96v24.968l-9.129-5.181-9.308-5.32-1.628 1.292 11.202 6.726 11.197 6.385V3.3l-2.334 1.167zm38.827 3.3c-4.08.802-7.046 3.593-8.047 7.57-1.558 6.199 2.273 12.3 8.29 13.202 2.913.437 7.604-.006 9.289-.877 5.16-2.667 7.155-9.366 4.398-14.769-1.254-2.457-3.435-4.034-6.78-4.906-3.018-.785-4.11-.82-7.15-.22zm-21.557 10.48v10.513l6.651-.13 6.652-.13.143-1.983.144-1.983h-8.922v-16.8h-4.668v10.513zm40.141-.013v10.5h4.668l.015-4.317.014-4.316 1.036 1.202c.57.662 2.032 2.604 3.25 4.317l2.214 3.114h2.337c1.285 0 2.336-.113 2.336-.251s-1.575-2.474-3.5-5.192c-1.926-2.717-3.501-5.152-3.501-5.41 0-.259 1.47-2.53 3.267-5.046 1.797-2.516 3.267-4.694 3.267-4.838 0-.144-1.103-.255-2.45-.244l-2.45.018-2.801 4.065-2.8 4.065-.136-4.084-.135-4.083h-4.631v10.5zm22.871 0v10.5h4.668v-8.867h10.269v8.916l2.45-.141 2.45-.141V7.966l-2.431-.14-2.433-.14-.134 4.107-.136 4.107h-9.802l-.135-4.084-.135-4.083h-4.631v10.5zm23.338.012v10.512l7.118-.129 7.118-.128v-3.734l-4.551-.133-4.55-.134v-4.633h7.001v-3.733h-7.001v-4.667h8.868V7.733h-14.003v10.512zm17.27-.035v10.523h4.176l.129-6.865.129-6.865 4.642 6.865 4.643 6.865h4.952v-21h-4.643l-.129 6.705-.129 6.705-4.238-6.588-4.237-6.589-2.647-.14-2.648-.14V18.21zm-50.974-.323l6.866 10.462V7.99l-6.866 9.896zM75.24 12.155c.733.379 1.798 1.442 2.367 2.362.843 1.363.994 2.155.817 4.286-.194 2.336-.42 2.803-2.138 4.405-1.611 1.503-2.244 1.791-3.923 1.788-2.272-.003-4.231-1.096-5.55-3.095-1.087-1.65-1.17-5.266-.163-7.212 1.478-2.857 5.609-4.076 8.59-2.534z" fill="#545458"/><path d="M14.288 27.33l13.91 7.842-.267-2.538s-.787-.556-10.539-6.21c0 0-10.624-6.22-10.69-6.334-.065-.114 3.933-2.54 8.885-5.39l8.997-5.18.049-2.72-11.596 6.676L1.98 19.84s6.011 3.839 12.307 7.49z" fill="#FC0"/></g><defs><clipPath id="clip0_216_695"><path fill="#fff" transform="translate(.582 .5)" d="M0 0h170.833v35H0z"/></clipPath></defs></svg>