<svg width="220" height="42" viewBox="0 0 220 42" fill="none" xmlns="http://www.w3.org/2000/svg"><path fill-rule="evenodd" clip-rule="evenodd" d="M.943 20.548c1.497-4.256 5.659-8.357 10.253-9.057 3.834-.536 7.521-.694 10.274 1.35-.714 1.474-1.52 3.019-1.52 3.019s-1.205-.745-1.92-.94c-1.455-.636-3.6-.81-4.949.259l-.58.933L9.36 28.05c-.057.384-.085.906.188 1.238.742.742 1.98.28 2.969.42l.33-.329 2.14-7.959 9.179.076.11.193c-.889 3.543-1.67 7.116-2.668 10.602l-.196.191-14.43-.06c-2.2.104-4.284-.792-5.351-2.553-.081-.55-.685-.855-.655-1.46H.838c-.625-2.422-.589-5.498.105-7.862zm108.414-.088c1.368 2.644 3.035 5.687 4.264 8.355l-.14.386c-3.666 3.618-7.308 8.36-12.232 9.666-.468.055-.605-.304-.714-.664.064-2.5 2.789-3.726 3.84-5.841.995-1.81 1.219-3.955 2.133-5.82.83-1.95 1.496-3.955 2.573-5.793l.276-.289z" fill="#1F4FA2"/><path fill-rule="evenodd" clip-rule="evenodd" d="M101.52 39.94c8.144-2.807 12.9-12.303 20.635-16.432.716-.356 1.294-1.012 2.092-1.119.273.328.602.66.602 1.129-5.452 3.115-10.36 8.105-14.936 12.736-2.369 2.193-5.013 3.723-7.82 4.87-.302-.358-.409-.773-.573-1.183zm5.559-29.67a104.187 104.187 0 018.645-4.867c-.306 1.43-.532 3.161-.069 4.673l-.137.274-6.085 3.474-.385-.002a35.775 35.775 0 01-2.107-3.304l.138-.247zm2.813 4.956c1.981-.054 3.572.326 5.221.454v.223c-1.734.954-3.496 2.022-5.285 2.621.03-1.1.253-2.199.064-3.298zm.401 4.729c2.011-1.175 4.048-2.38 6.194-3.28a10.763 10.763 0 002.626 4.05c1.266-.438 1.49-1.947 2.592-2.495l1.97 3.085-.084.22c-3.001 1.886-6.085 3.857-8.841 6.485h-.275c-1.477-2.643-2.926-5.311-4.182-8.065zm6.209-8.668l-.2 3.078c-1.349.144-3.051.034-4.755-.124l-.137-.137 4.764-2.817h.328zm11.74-.164h9.453l2.346 7.055s.082.11.136.191c2.178-2.081 5.957-7.246 5.957-7.246h5.003v.328l-9.463 11.872s-1.585 5.905-2.473 8.899l-.715.192h-9.319l-.108-.192 2.198-9.012-3.675-11.762s.467-.133.66-.325zm24.737.161l.22-.137 16.932-.046c.164-.026.412.18.412.18l-.808 3.687-7.642-.021-.332.578-.808 4.09.193.136 4.617-.082-.946 4.186-5.058.043s-.806 3.048-1.086 4.616l.192.136c2.309.006 4.673.015 7.146.022l.191.136c-.084 1.266-.584 2.234-.86 3.414l-.469.201-16.959.07 5.065-21.21zM34.529 12.29c4.037-2.178 9.662-1.763 13.082.427 2.933 2.51 3.72 6.468 2.802 10.095-1.169 4.284-4.837 8.863-9.403 9.812-4.236 1.086-9.293.605-12.058-2.948-2.547-3.088-1.981-8.224-.158-11.547 1.134-2.442 3.395-4.552 5.735-5.838zm1.41 15.372c-.194.632-.224 1.512.269 2.035.441.277 1.016.441 1.567.28.523-.22 1.128-.548 1.405-1.123 1.138-3.709 1.754-7.637 2.81-11.4.003-1.017 1.065-2.373-.196-2.982-.907-.221-1.911-.103-2.518.581-.83 1.814-1.058 3.846-1.584 5.741-.501 2.337-1.168 4.589-1.752 6.868zm23.465-14.638c3.98-2.606 9.479-2.988 13.472-1.168 3.13 1.521 4.246 4.877 4.4 8.151-.096 4.889-2.996 9.471-7.289 11.63l-2.78 1.12c-3.986.508-8.358.305-11.206-2.674-2.659-2.644-2.866-7.098-1.701-10.475.721-2.665 2.818-4.996 5.104-6.584zm3.114 16.228c.466.305 1.07.527 1.648.336a2.993 2.993 0 001.46-1.26l1.863-7.774c.113-.413.085-.961.28-1.238.226-1.619 1.066-2.979.934-4.628-.219-.219-.45-.73-.782-.785-.823-.195-1.621-.005-2.172.57-1.413 3.982-2.03 8.296-3.143 12.416-.058.77-.526 1.618-.088 2.363zm20.389-17.944l.55-.136 14.047-.012c2.251.31 4.335 2.486 5.181 4.634 1.497 4.675-.359 9.424-3.338 12.963-2.26 2.273-4.957 3.684-8.2 3.684-5.065 0-13.194-.018-13.194-.018s4.01-17.379 4.954-21.115zm5.144 17.744c.657.441 1.456.06 2.17.088.66-.16.936-.74 1.268-1.26 0 0 3.459-12.124 2.856-12.978-.63-.634-1.545-.406-2.678-.406-.084.22-.139.439-.195.658L88.05 29.052z" fill="#1F4FA2"/><path fill-rule="evenodd" clip-rule="evenodd" d="M118.644 3.295c3.167-2.711 7.645-1.79 11.823-1.86 5.221.59 11.021.417 16.164-.56.134 1.598-1.107 2.994-2.458 3.816-3.633 1.94-8.221 1.265-12.344 1.034l-.001.247 1.703.667c-.03.549-.635.848-1.047 1.066-.661.275-1.457.244-2.12.518.193.246.743.058.66.524-1.215 1.344-3.276 1.338-4.813.7l-.192.218c.05 1.322-.01 2.778-.755 3.876-.524.079-.824-.39-1.235-.581-.332.821-.198 1.977-.833 2.69-.548-.027-.987-.746-1.481-.937-.608 1.316-.971 2.744-1.936 3.897-.988-.058-1.479-1.268-1.89-2.04-.353-1.595-.484-3.522-.121-5.168-.959-1.487-1.695-3.413-.975-5.28.251-1.073.968-2.115 1.851-2.827zm1.576 5.694l-1.317-.14.108.247c.962.085.78 1.364 1.576 1.585l-.367-1.692.669-3.102c.466.249 1.18.386 1.704.142.468-.714 1.444-.642 2.243-.665.66-.137.593-1.416 1.445-1.056.303-.083.826-.301.799-.576-.881.493-1.895-.775-2.448.323-.524.465-1.348.436-1.98.517-.223.77-1.048 1.232-1.763 1.315l-.669 3.102zm59.284 2.116l8.384-.004.328.359 2.192 20.963c0 .11-9.511 0-9.511 0l-.375-3.302-7.256.04-2.126 3.262-4.288.018s10.634-18.154 12.652-21.336zm-3.918 14.214l4.399-.003-.643-6.362-3.756 6.365zm22.059-13.98l.276-.192 16.684-.006c1.896.06 3.267 1.467 4.224 2.98 1.15 1.931.95 4.596-.101 6.515-.831 1.537-2.345 2.96-3.833 3.892.481 2.443 1.065 4.877 1.628 7.375.082.328-.084.548-.387.52l-9.317.052-.33-.192-1.686-5.997c-.136-.25-.44-.112-.66-.14l-.275.384-1.529 5.689-.276.219-9.482.027c-.164-.44-.025-.711.14-1.125 1.642-6.648 3.392-13.326 4.924-20.001zm7.416 10.852c.356.329 1.224.32 1.718.265.496-.165.896-.697 1.145-1.193l1.333-5.19c.278-.52.088-1.18-.269-1.594-.549-.304-1.483-.307-2.035-.007l-1.892 7.719z" fill="#1F4FA2"/></svg>