<svg width="172" height="38" viewBox="0 0 172 38" fill="none" xmlns="http://www.w3.org/2000/svg"><g clip-path="url(#clip0_216_747)" fill="#ED1C24"><path d="M65.58 17.437c-.127 0-.255.001-.386.006h-21.89V37.5H54.25v-6.147h2.686L60.29 37.5h13.073l-4.838-6.655c5.396-2.631 5.043-13.377-2.944-13.408zm-11.33 5.097h4.233c3.938 0 4.002 3.728.065 3.728H54.25v-3.728z"/><path d="M165.453.5a6.21 6.21 0 00-.345.003H.5V37.5h18.985V14.348h145.623c9.375-1.003 7.521-13.697.345-13.847zm-40.552 5.167c11.737.003 19.585.01 19.649.026 1.675.446 1.802 2.8 0 3.437H19.485V5.693S89.69 5.658 124.9 5.667z"/><path d="M25.977 37.5h10.877V17.443H25.977V37.5zm52.136-20.057V37.5h23.76v-5.067H89.25v-2.67h11.334v-4.94H89.319v-2.29h11.717v-5.09H78.113zm29.567 0V37.5h21.433v-5.126h-10.234v-14.93H107.68zm24.234 0V37.5h21.43v-5.126h-10.231v-14.93h-11.199zM156.57 37.5h10.879V17.443H156.57V37.5z"/></g><defs><clipPath id="clip0_216_747"><path fill="#fff" transform="translate(.5 .5)" d="M0 0h171v37H0z"/></clipPath></defs></svg>