<svg width="154" height="52" viewBox="0 0 154 52" fill="none" xmlns="http://www.w3.org/2000/svg"><g clip-path="url(#clip0_216_761)"><path d="M44.208 51.4h-3.553l-7.3-17.439h5.098l4.109 11.103h.072l4.035-11.103h4.806l-7.267 17.44zm34.347-12.931a4.485 4.485 0 00-2.2-.624c-1.026 0-1.979.366-3.19 1.357v12.091h-4.954V33.961h4.183l.55 1.796c1.58-1.391 2.933-2.198 4.768-2.198.843 0 1.873.257 2.64.807l-1.797 4.103zm7.291 13.19c-2.972 0-5.21-.698-6.862-1.723l1.543-3.59c1.466 1.024 3.193 1.612 4.843 1.612 1.686 0 2.75-.55 2.75-1.576 0-2.748-8.034-1.648-8.034-7.51 0-3.189 2.568-5.313 6.785-5.313 2.314 0 3.927.33 5.355.88v4.103c-1.575-.625-3.262-1.174-5.132-1.174-1.432 0-2.203.402-2.203 1.246 0 2.38 8.179 1.502 8.179 7.549 0 3.993-3.52 5.496-7.224 5.496zm14.938 0c-3.23 0-4.44-1.832-4.44-4.178v-9.178h-3.192v-3.887h3.191V29.93l4.954-1.467v5.952h5.428l-.978 3.887h-4.45v7.312c0 1.278.512 1.902 1.65 1.902 1.062 0 2.163-.474 2.823-.88l1.285 3.08c-1.98 1.429-4.55 1.942-6.271 1.942zm16.623-8.208l-2.163.073c-2.128.074-3.156.807-3.156 2.126 0 1.317.953 2.16 2.643 2.16 1.319 0 2.2-.44 2.676-.806v-3.553zm1.211 7.842l-.771-1.504c-1.136 1.027-2.675 1.87-4.915 1.87-3.302 0-5.791-2.198-5.791-5.646 0-3.662 2.968-5.567 7.367-5.714l2.936-.108v-.295c0-1.83-1.466-2.6-3.189-2.6a9.019 9.019 0 00-4.439 1.173l-1.508-3.005c2.386-1.542 4.661-1.905 7.008-1.905 4.624 0 7.191 1.868 7.191 6.447v11.309l-3.889-.022zm11.056.022v-27.85l-4.986 1.507v26.343h4.986zm-121.54.344c-3.49 0-5.982-1.137-8.083-2.421l2.205-4.13c1.672 1.13 4.049 2.407 5.59 2.407 1.589 0 3.661-.52 3.661-2.358 0-3.188-5.724-3.758-8.66-7.09-.913-1.063-1.538-2.42-1.538-4.289 0-3.662 2.897-6.89 8.216-6.89 2.568 0 4.693.662 6.09 1.468l-.073 4.624c-2.055-1.098-4.006-2.062-5.988-2.062-1.797 0-2.982.798-2.982 2.189 0 4.178 10.398 3.82 10.398 11.407 0 4.397-3.888 7.145-8.836 7.145zm50.338-14.465c-1.974 0-3.107 1.823-3.107 3.396h6.248c-.11-1.645-1.023-3.396-3.14-3.396zm-2.997 6.788c.11 2.335 2.3 3.722 4.602 3.722 1.68 0 2.962-.327 4.904-1.24l1.133 3.139c-2.417 1.495-4.794 2.008-6.84 2.008-6.209 0-8.77-4.383-8.77-8.906 0-4.89 2.925-9.126 8.112-9.126 4.75 0 8.04 3.541 8.04 8.907v1.496H55.475zm-29.347-6.788c-1.974 0-3.104 1.823-3.104 3.396h6.248c-.11-1.645-1.026-3.396-3.144-3.396zm-2.997 6.788c.11 2.335 2.303 3.722 4.606 3.722 1.68 0 2.958-.327 4.903-1.24l1.133 3.139c-2.42 1.495-4.796 2.008-6.842 2.008-6.21 0-8.767-4.383-8.767-8.906 0-4.89 2.924-9.126 8.108-9.126 4.75 0 8.04 3.541 8.04 8.907v1.496H23.131z" fill="#005DA3"/><path d="M150.495 19.008c.318-.1.627-.267.927-.48a36.036 36.036 0 001.27-3.978h-.001c.504-1.947.81-3.704.96-5.283.149-1.601.14-3.018.011-4.268-.137-1.308-.482-2.642-1.263-3.407-.78-.767-2.116-1.09-3.431-1.202-.28-.02-.57-.036-.867-.045h-1.393c-.633.02-1.301.065-2.002.14.338.153.638.34.885.562.782.717 1.148 1.936 1.307 3.13.115.87.164 1.827.13 2.872-.055 1.691-.326 3.618-.893 5.804a28.48 28.48 0 01-1.518 4.424 17.77 17.77 0 002.512 1.296c1.117.461 2.358.755 3.366.435z" fill="#006FB3"/><path d="M132.003 15.387c-.072.326-.081.68-.046 1.049a36.54 36.54 0 002.805 3.076c1.444 1.414 2.823 2.555 4.124 3.47a22.993 22.993 0 003.676 2.143c1.197.553 2.53.908 3.584.617 1.054-.294 2.004-1.294 2.758-2.373.719-1.029 1.416-2.264 2.06-3.736a3.35 3.35 0 01-.945.492c-1.01.32-2.25.026-3.367-.434a17.586 17.586 0 01-2.558-1.322c-1.434-.893-2.969-2.092-4.582-3.673v-.003a28.56 28.56 0 01-3.074-3.522c-.904.487-1.693.996-2.375 1.52-.957.738-1.832 1.662-2.06 2.696z" fill="#E3E3E3"/><path d="M144.378 1.176a3.311 3.311 0 00-.84-.538c-1.268.19-2.635.478-4.115.887-1.934.536-3.607 1.15-5.051 1.809-1.45.665-2.667 1.376-3.682 2.105-1.081.775-2.079 1.749-2.355 2.817-.274 1.069.124 2.402.692 3.603.532 1.13 1.254 2.342 2.2 3.626a3.367 3.367 0 01.046-1.068c.228-1.031 1.103-1.959 2.058-2.696a17.736 17.736 0 012.422-1.547c1.491-.798 3.302-1.526 5.481-2.131a28.517 28.517 0 014.582-.896 17.376 17.376 0 00-.132-2.84c-.158-1.195-.524-2.416-1.306-3.13z" fill="#DE1E25"/></g><defs><clipPath id="clip0_216_761"><path fill="#fff" d="M0 0h154v52H0z"/></clipPath></defs></svg>