<svg width="73" height="80" viewBox="0 0 73 80" fill="none" xmlns="http://www.w3.org/2000/svg">
<g clip-path="url(#clip0_3164_2508)">
<path d="M71.9113 1.05801H1.04883V78.9356H71.9113V1.05801Z" stroke="#231F20" stroke-width="2" stroke-linecap="round" stroke-linejoin="round"/>
<path d="M17.6978 33.2148H7.86133V43.1348H17.6978V33.2148Z" stroke="#231F20" stroke-width="2" stroke-linecap="round" stroke-linejoin="round"/>
<path d="M33.4146 33.2147H23.5781V43.1347H33.4146V33.2147Z" stroke="#231F20" stroke-width="2" stroke-linecap="round" stroke-linejoin="round"/>
<path d="M65.9926 9.95923H6.98047V25.8547H65.9926V9.95923Z" stroke="#231F20" stroke-width="2" stroke-linecap="round" stroke-linejoin="round"/>
<path d="M49.1372 33.2147H39.3008V43.1347H49.1372V33.2147Z" stroke="#231F20" stroke-width="2" stroke-linecap="round" stroke-linejoin="round"/>
<path d="M64.853 33.2148H55.0166V43.1348H64.853V33.2148Z" stroke="#231F20" stroke-width="2" stroke-linecap="round" stroke-linejoin="round"/>
<path d="M17.6978 47.9608H7.86133V57.8808H17.6978V47.9608Z" stroke="#231F20" stroke-width="2" stroke-linecap="round" stroke-linejoin="round"/>
<path d="M33.4146 47.9608H23.5781V57.8808H33.4146V47.9608Z" stroke="#231F20" stroke-width="2" stroke-linecap="round" stroke-linejoin="round"/>
<path d="M49.1372 47.9608H39.3008V57.8808H49.1372V47.9608Z" stroke="#231F20" stroke-width="2" stroke-linecap="round" stroke-linejoin="round"/>
<path d="M64.853 47.9608H55.0166V57.8808H64.853V47.9608Z" stroke="#231F20" stroke-width="2" stroke-linecap="round" stroke-linejoin="round"/>
<path d="M17.6978 62.7135H7.86133V72.6335H17.6978V62.7135Z" stroke="#231F20" stroke-width="2" stroke-linecap="round" stroke-linejoin="round"/>
<path d="M33.4146 62.7135H23.5781V72.6335H33.4146V62.7135Z" stroke="#231F20" stroke-width="2" stroke-linecap="round" stroke-linejoin="round"/>
<path d="M49.1372 62.7135H39.3008V72.6335H49.1372V62.7135Z" stroke="#231F20" stroke-width="2" stroke-linecap="round" stroke-linejoin="round"/>
<path d="M64.853 62.7135H55.0166V72.6335H64.853V62.7135Z" stroke="#231F20" stroke-width="2" stroke-linecap="round" stroke-linejoin="round"/>
<path d="M15.8979 13.2572H10.957V22.8964H15.8979V13.2572Z" stroke="#231F20" stroke-width="2" stroke-linecap="round" stroke-linejoin="round"/>
<path d="M25.1255 13.2572H20.1846V22.8964H25.1255V13.2572Z" stroke="#231F20" stroke-width="2" stroke-linecap="round" stroke-linejoin="round"/>
<path d="M34.353 13.2572H29.4121V22.8964H34.353V13.2572Z" stroke="#231F20" stroke-width="2" stroke-linecap="round" stroke-linejoin="round"/>
<path d="M43.5805 13.2572H38.6396V22.8964H43.5805V13.2572Z" stroke="#231F20" stroke-width="2" stroke-linecap="round" stroke-linejoin="round"/>
<path d="M47.8613 18.5732L52.8022 13.2572V22.8899" stroke="#231F20" stroke-width="2" stroke-linecap="round" stroke-linejoin="round"/>
<path d="M57.0889 18.5732L62.0297 13.2572V22.8899" stroke="#231F20" stroke-width="2" stroke-linecap="round" stroke-linejoin="round"/>
</g>
<defs>
<clipPath id="clip0_3164_2508">
<rect width="72.967" height="80" fill="white"/>
</clipPath>
</defs>
</svg>
