<svg width="64" height="64" viewBox="0 0 64 64" fill="none" xmlns="http://www.w3.org/2000/svg">
<circle cx="32" cy="32" r="32" fill="#1F2120"/>
<path d="M22.4838 35.6754H33.7528L37.0117 39.1672V26.4209C37.0117 24.2842 35.3012 22.55 33.1936 22.55H22.4838C20.3762 22.55 18.6657 24.2842 18.6657 26.4209V31.8012C18.6657 33.9379 20.3762 35.6721 22.4838 35.6721V35.6754Z" stroke="white" stroke-linecap="round" stroke-linejoin="round"/>
<path d="M32.5495 29.2086C32.5495 29.4098 32.7116 29.5775 32.9134 29.5775C33.1152 29.5775 33.2773 29.4132 33.2773 29.2086C33.2773 29.004 33.1152 28.8396 32.9134 28.8396C32.7116 28.8396 32.5495 29.004 32.5495 29.2086Z" stroke="white" stroke-linecap="round" stroke-linejoin="round"/>
<path d="M27.4782 29.2086C27.4782 29.4098 27.6403 29.5775 27.8421 29.5775C28.0439 29.5775 28.2061 29.4132 28.2061 29.2086C28.2061 29.004 28.0439 28.8396 27.8421 28.8396C27.6403 28.8396 27.4782 29.004 27.4782 29.2086Z" stroke="white" stroke-linecap="round" stroke-linejoin="round"/>
<path d="M22.4049 29.2086C22.4049 29.4098 22.567 29.5775 22.7689 29.5775C22.9707 29.5775 23.1328 29.4132 23.1328 29.2086C23.1328 29.004 22.9707 28.8396 22.7689 28.8396C22.567 28.8396 22.4049 29.004 22.4049 29.2086Z" stroke="white" stroke-linecap="round" stroke-linejoin="round"/>
<path d="M21.0817 37.5806V48.1936C21.0817 49.9278 22.468 51.3333 24.1785 51.3333H40.4071C42.1176 51.3333 43.5039 49.9278 43.5039 48.1936V14.4695C43.5006 12.7387 42.1143 11.3333 40.4071 11.3333H24.1785C22.468 11.3333 21.0817 12.7387 21.0817 14.4729V21.054" stroke="white" stroke-linecap="round" stroke-linejoin="round"/>
<path d="M23.9967 37.5806V45.4934H40.5859V14.4695H23.9967V21.0506" stroke="white" stroke-linecap="round" stroke-linejoin="round"/>
<path d="M30.852 48.2675C30.852 49.0725 31.4972 49.7266 32.2912 49.7266C33.0853 49.7266 33.7305 49.0725 33.7305 48.2675C33.7305 47.4624 33.0853 46.8083 32.2912 46.8083C31.4972 46.8083 30.852 47.4624 30.852 48.2675Z" stroke="white" stroke-linecap="round" stroke-linejoin="round"/>
</svg>
