<svg width="24" height="24" viewBox="0 0 24 24" fill="none" xmlns="http://www.w3.org/2000/svg"><path d="M12 2C6.489 2 2 6.489 2 12s4.489 10 10 10 10-4.489 10-10S17.511 2 12 2zm0 2c.248 0 .52.102.867.432s.723.883 1.047 1.611c.246.554.448 1.23.621 1.957h-5.07c.173-.726.375-1.403.62-1.957.324-.728.701-1.281 1.048-1.611.347-.33.619-.432.867-.432zm-3.549.834c-.065.13-.132.26-.193.396-.362.814-.643 1.756-.854 2.77H5.072a7.99 7.99 0 013.38-3.166zm7.098 0A7.99 7.99 0 0118.928 8h-2.332c-.211-1.014-.492-1.956-.854-2.77-.06-.137-.128-.265-.193-.396zM4.262 10h2.836A21.14 21.14 0 007 12c0 .686.036 1.353.098 2H4.262A8.028 8.028 0 014 12c0-.693.098-1.36.262-2zm4.855 0h5.766c.07.643.117 1.307.117 2 0 .693-.048 1.357-.117 2H9.117A18.472 18.472 0 019 12c0-.693.048-1.357.117-2zm7.785 0h2.836c.164.64.262 1.307.262 2 0 .693-.098 1.36-.262 2h-2.836c.062-.647.098-1.314.098-2 0-.686-.036-1.353-.098-2zm-11.83 6h2.332c.211 1.014.492 1.956.854 2.77.06.137.128.265.193.396A7.99 7.99 0 015.072 16zm4.393 0h5.07c-.173.726-.375 1.403-.62 1.957-.324.728-.701 1.281-1.048 1.611-.347.33-.619.432-.867.432s-.52-.102-.867-.432-.723-.883-1.047-1.611c-.246-.554-.448-1.23-.621-1.957zm7.13 0h2.333a7.99 7.99 0 01-3.38 3.166c.066-.13.133-.26.194-.396.362-.814.643-1.756.854-2.77z" fill="#fff"/></svg>