<svg width="28" height="28" viewBox="0 0 28 28" fill="none" xmlns="http://www.w3.org/2000/svg">
<path d="M14 2.19653L2.05762 8.16659L4.14486 9.21021L7.89095 11.0833L2.05762 13.9999L7.89095 16.9166L2.05762 19.8333L14 25.8033L25.9424 19.8333L20.109 16.9166L25.9424 13.9999L20.109 11.0833L25.9424 8.16659L14 2.19653ZM14 4.8033L20.7243 8.16659L14 11.5299L7.27572 8.16659L14 4.8033ZM10.5 12.3866L14 14.1366L17.5 12.3866L20.7243 13.9999L14 17.3632L7.27572 13.9999L10.5 12.3866ZM10.5 18.22L14 19.97L17.5 18.22L20.7243 19.8333L14 23.1965L7.27572 19.8333L10.5 18.22Z" fill="white"/>
</svg>
