<svg width="16" height="16" viewBox="0 0 16 16" fill="none" xmlns="http://www.w3.org/2000/svg">
<path d="M15.6704 4.15278C15.4859 3.46744 14.9456 2.92708 14.2602 2.74257C13.0082 2.3999 7.99996 2.3999 7.99996 2.3999C7.99996 2.3999 2.99175 2.3999 1.7397 2.72939C1.06754 2.9139 0.514001 3.46744 0.329488 4.15278C0 5.40483 0 8.0012 0 8.0012C0 8.0012 0 10.6107 0.329488 11.8496C0.514001 12.5349 1.05436 13.0753 1.7397 13.2598C3.00493 13.6025 7.99996 13.6025 7.99996 13.6025C7.99996 13.6025 13.0082 13.6025 14.2602 13.273C14.9456 13.0885 15.4859 12.5481 15.6704 11.8628C15.9999 10.6107 15.9999 8.01438 15.9999 8.01438C15.9999 8.01438 16.0131 5.40483 15.6704 4.15278Z" fill="white"/>
<path d="M6.4043 10.3999L10.569 8.00121L6.4043 5.60254V10.3999Z" fill="#D3D3D3"/>
</svg>
