<svg width="48" height="48" viewBox="0 0 48 48" fill="none" xmlns="http://www.w3.org/2000/svg"><path d="M43.996 40.996h3v-11l-4.003-10.998M37 19v11" stroke="#fff" stroke-width="1.5" stroke-miterlimit="10" stroke-linejoin="round"/><path d="M31.492 34.995l2.033-15.997h12.468m-7.998 27.999a6.001 6.001 0 100-12.002 6.001 6.001 0 000 12.002z" stroke="#fff" stroke-width="1.5" stroke-miterlimit="10" stroke-linejoin="round"/><path d="M37.995 42.993a1.997 1.997 0 100-3.995 1.997 1.997 0 000 3.995zm-6.001-12.996h15.003m-4.004-14.994H29.996l-3 23.995h-6.001L1.003 26.002l.889-7.004h27.101m-5.833 3l-1.77 13.903m-3.73-13.903l-1.346 10.603M12.16 21.998l-.924 7.304M6.66 21.998l-.5 4.004m.835 20.995a6.001 6.001 0 100-12.002 6.001 6.001 0 000 12.002z" stroke="#fff" stroke-width="1.5" stroke-miterlimit="10" stroke-linejoin="round"/><path d="M6.995 42.993a1.997 1.997 0 100-3.995 1.997 1.997 0 000 3.995z" stroke="#fff" stroke-width="1.5" stroke-miterlimit="10" stroke-linejoin="round"/><path d="M13 43h19" stroke="#fff" stroke-width="1.5" stroke-miterlimit="10"/></svg>