<svg width="48" height="48" viewBox="0 0 48 48" fill="none" xmlns="http://www.w3.org/2000/svg"><path d="M35.998 42.993h-11m18.998-5.992h3" stroke="#fff" stroke-width="1.5" stroke-miterlimit="10"/><path d="M46.997 34l-9.002-3v-6.001h6.001" stroke="#fff" stroke-width="1.5" stroke-miterlimit="10" stroke-linejoin="round"/><path d="M42.993 42.993h4.004V34l-3.564-11.588a1.993 1.993 0 00-1.91-1.408h-8.526v21.998" stroke="#fff" stroke-width="1.5" stroke-miterlimit="10" stroke-linejoin="round"/><path d="M39.5 46.997a3.502 3.502 0 100-7.004 3.502 3.502 0 000 7.004zm-27.498 0a3.502 3.502 0 100-7.004 3.502 3.502 0 000 7.004zm9.996 0a3.502 3.502 0 100-7.004 3.502 3.502 0 000 7.004z" stroke="#fff" stroke-width="1.5" stroke-miterlimit="10"/><path d="M9.001 42.993H4.003v-4.998m14.994 4.998h-3.995m17.995-4.998H1.003l3.995-14.994h23.995" stroke="#fff" stroke-width="1.5" stroke-miterlimit="10" stroke-linejoin="round"/><path d="M25.65 37.995L31.28 17h9.715M21.461 34.995l2.411-8.993m-7.417 8.993l2.41-8.993m-7.408 8.993l2.41-8.993m-7.409 8.993l2.412-8.993" stroke="#fff" stroke-width="1.5" stroke-miterlimit="10" stroke-linejoin="round"/></svg>