<svg width="48" height="48" viewBox="0 0 48 48" fill="none" xmlns="http://www.w3.org/2000/svg"><path d="M43.996 37.001h3M39.5 46.997a3.502 3.502 0 100-7.004 3.502 3.502 0 000 7.004zm-28.5 0a3.502 3.502 0 100-7.004 3.502 3.502 0 000 7.004zm9.995 0a3.502 3.502 0 100-7.004 3.502 3.502 0 000 7.004z" stroke="#fff" stroke-width="1.5" stroke-miterlimit="10"/><path d="M42.993 42.993h4.004V31.994l-3.564-11.58a1.993 1.993 0 00-1.91-1.408h-8.526v23.996h3" stroke="#fff" stroke-width="1.5" stroke-miterlimit="10" stroke-linejoin="round"/><path d="M46.997 31.994l-9.002-3V23h6.001M7.999 42.993H4.004v-4.998m13.99 4.998H14m15.997 0h-6.001" stroke="#fff" stroke-width="1.5" stroke-miterlimit="10" stroke-linejoin="round"/><path d="M24.013 17.81L10.005 14H5.473L.994 21.752 3.3 25.756l10.25 10.25h7.506a4.99 4.99 0 004.33-2.498l2.42-4.189a5.018 5.018 0 000-4.998l-3.793-6.511z" stroke="#fff" stroke-width="1.5" stroke-miterlimit="10" stroke-linecap="round" stroke-linejoin="round"/><path d="M3.308 25.747L9.996 14m3.564 21.998L24.013 17.81" stroke="#fff" stroke-width="1.5" stroke-miterlimit="10" stroke-linejoin="round"/></svg>