<svg width="48" height="48" viewBox="0 0 48 48" fill="none" xmlns="http://www.w3.org/2000/svg">
    <path d="M39.9925 46.9881C43.8559 46.9881 46.9879 43.8562 46.9879 39.9927C46.9879 36.1293 43.8559 32.9973 39.9925 32.9973C36.129 32.9973 32.9971 36.1293 32.9971 39.9927C32.9971 43.8562 36.129 46.9881 39.9925 46.9881Z" stroke="white" stroke-width="1.5" stroke-miterlimit="10" stroke-linejoin="round"/>
    <path d="M39.9926 42.4916C41.3728 42.4916 42.4916 41.3728 42.4916 39.9926C42.4916 38.6125 41.3728 37.4937 39.9926 37.4937C38.6125 37.4937 37.4937 38.6125 37.4937 39.9926C37.4937 41.3728 38.6125 42.4916 39.9926 42.4916Z" stroke="white" stroke-width="1.5" stroke-miterlimit="10" stroke-linejoin="round"/>
    <path d="M26.002 37.001H32.9974" stroke="white" stroke-width="1.5" stroke-miterlimit="10" stroke-linejoin="round"/>
    <path d="M12.0023 45.9938C17.5229 45.9938 21.9983 41.5184 21.9983 35.9978C21.9983 30.4772 17.5229 26.0018 12.0023 26.0018C6.48169 26.0018 2.00635 30.4772 2.00635 35.9978C2.00635 41.5184 6.48169 45.9938 12.0023 45.9938Z" stroke="white" stroke-width="1.5" stroke-miterlimit="10" stroke-linejoin="round"/>
    <path d="M0.871094 27.5065C3.42288 24.1628 7.46174 21.9982 12.0022 21.9982C19.7367 21.9982 26.0018 28.2632 26.0018 35.9978C26.0018 38.1184 25.5266 40.1335 24.6819 41.9373" stroke="white" stroke-width="1.5" stroke-miterlimit="10" stroke-linejoin="round"/>
    <path d="M12.0022 40.0015C14.2134 40.0015 16.0059 38.209 16.0059 35.9978C16.0059 33.7866 14.2134 31.9941 12.0022 31.9941C9.79104 31.9941 7.99854 33.7866 7.99854 35.9978C7.99854 38.209 9.79104 40.0015 12.0022 40.0015Z" stroke="white" stroke-width="1.5" stroke-miterlimit="10" stroke-linejoin="round"/>
    <path d="M12.0024 23.9956V26.0018" stroke="white" stroke-width="1.5" stroke-miterlimit="10" stroke-linejoin="round"/>
    <path d="M12.0024 45.9938V48" stroke="white" stroke-width="1.5" stroke-miterlimit="10" stroke-linejoin="round"/>
    <path d="M6.00098 25.6058L6.99529 27.3393" stroke="white" stroke-width="1.5" stroke-miterlimit="10" stroke-linejoin="round"/>
    <path d="M17 44.6562L17.9943 46.3897" stroke="white" stroke-width="1.5" stroke-miterlimit="10" stroke-linejoin="round"/>
    <path d="M1.61035 29.9967L3.33501 30.9998" stroke="white" stroke-width="1.5" stroke-miterlimit="10" stroke-linejoin="round"/>
    <path d="M20.6606 40.9957L22.3941 41.9988" stroke="white" stroke-width="1.5" stroke-miterlimit="10" stroke-linejoin="round"/>
    <path d="M0 35.9978H1.99743" stroke="white" stroke-width="1.5" stroke-miterlimit="10" stroke-linejoin="round"/>
    <path d="M21.998 35.9978H23.9955" stroke="white" stroke-width="1.5" stroke-miterlimit="10" stroke-linejoin="round"/>
    <path d="M1.61035 41.9988L3.33501 40.9957" stroke="white" stroke-width="1.5" stroke-miterlimit="10" stroke-linejoin="round"/>
    <path d="M20.6606 30.9998L22.3941 29.9967" stroke="white" stroke-width="1.5" stroke-miterlimit="10" stroke-linejoin="round"/>
    <path d="M6.00098 46.3897L6.99529 44.6562" stroke="white" stroke-width="1.5" stroke-miterlimit="10" stroke-linejoin="round"/>
    <path d="M17 27.3393L17.9943 25.6058" stroke="white" stroke-width="1.5" stroke-miterlimit="10" stroke-linejoin="round"/>
    <path d="M29.9966 29.9967V23.9956" stroke="white" stroke-width="1.5" stroke-miterlimit="10" stroke-linejoin="round"/>
    <path d="M34.0005 29.9967V23.9956" stroke="white" stroke-width="1.5" stroke-miterlimit="10" stroke-linejoin="round"/>
    <path d="M37.9951 29.9967V23.9956" stroke="white" stroke-width="1.5" stroke-miterlimit="10" stroke-linejoin="round"/>
    <path d="M20.6167 17.2994L25.1131 21.7959" stroke="white" stroke-width="1.5" stroke-miterlimit="10" stroke-linejoin="round"/>
    <path d="M23.0892 14.818L18.1353 19.772" stroke="white" stroke-width="1.5" stroke-miterlimit="10" stroke-linejoin="round"/>
    <path d="M21.3384 25.5707L28.105 18.8041L41.4183 21.655C42.3422 21.8486 43.0022 22.667 43.0022 23.6085V33.9916" stroke="white" stroke-width="1.5" stroke-miterlimit="10" stroke-linejoin="round"/>
    <path d="M7.99854 23.0013V13.9996H8.90486C10.1632 13.9996 11.2895 14.7828 11.7206 15.9707L13.9732 22.1126" stroke="white" stroke-width="1.5" stroke-miterlimit="10" stroke-linejoin="round"/>
    <path d="M32.2319 9.45923L34.0006 12.9965V20.0008" stroke="white" stroke-width="1.5" stroke-miterlimit="10" stroke-linejoin="round"/>
</svg>
