<svg width="48" height="48" viewBox="0 0 48 48" fill="none" xmlns="http://www.w3.org/2000/svg"><path d="M39.992 46.988a6.995 6.995 0 100-13.99 6.995 6.995 0 000 13.99z" stroke="#fff" stroke-width="1.5" stroke-miterlimit="10" stroke-linejoin="round"/><path d="M39.993 42.492a2.499 2.499 0 100-4.998 2.499 2.499 0 000 4.998zm-13.991-5.491h6.995m-20.995 8.993c5.52 0 9.996-4.476 9.996-9.996 0-5.52-4.475-9.996-9.996-9.996-5.52 0-9.996 4.475-9.996 9.996 0 5.52 4.476 9.996 9.996 9.996z" stroke="#fff" stroke-width="1.5" stroke-miterlimit="10" stroke-linejoin="round"/><path d="M.871 27.506a13.978 13.978 0 0111.131-5.508c7.735 0 14 6.265 14 14 0 2.12-.475 4.136-1.32 5.94" stroke="#fff" stroke-width="1.5" stroke-miterlimit="10" stroke-linejoin="round"/><path d="M12.002 40.002a4.004 4.004 0 100-8.008 4.004 4.004 0 000 8.008zm0-16.006v2.006m0 19.992V48M6.001 25.606l.994 1.733M17 44.656l.994 1.734M1.61 29.997L3.335 31m17.325 9.996l1.734 1.003M0 35.998h1.997m20.001 0h1.997M1.61 41.999l1.725-1.003M20.66 31l1.734-1.003M6.001 46.39l.994-1.734M17 27.34l.994-1.734m12.003 4.391v-6.001M34 29.997v-6.001m3.995 6.001v-6.001M20.617 17.3l4.496 4.496m-2.023-6.978l-4.955 4.954m3.203 5.798l6.767-6.766 13.313 2.851a1.997 1.997 0 011.584 1.953v10.384M7.999 23.001V14h.906c1.258 0 2.385.783 2.816 1.97l2.252 6.143M32.232 9.46L34 12.995V20" stroke="#fff" stroke-width="1.5" stroke-miterlimit="10" stroke-linejoin="round"/></svg>