<svg width="48" height="48" viewBox="0 0 48 48" fill="none" xmlns="http://www.w3.org/2000/svg">
    <path d="M35.9976 42.9933H24.9985" stroke="white" stroke-width="1.5" stroke-miterlimit="10"/>
    <path d="M43.9961 37.001H46.9966" stroke="white" stroke-width="1.5" stroke-miterlimit="10"/>
    <path d="M46.9968 34.0004L37.9951 30.9999V24.9988H43.9962" stroke="white" stroke-width="1.5" stroke-miterlimit="10" stroke-linejoin="round"/>
    <path d="M42.993 42.9933H46.9967V34.0004L43.433 22.4118C43.1778 21.5759 42.4035 21.0039 41.5236 21.0039H32.9971V43.0021" stroke="white" stroke-width="1.5" stroke-miterlimit="10" stroke-linejoin="round"/>
    <path d="M39.4997 46.9969C41.4338 46.9969 43.0018 45.4289 43.0018 43.4948C43.0018 41.5606 41.4338 39.9927 39.4997 39.9927C37.5655 39.9927 35.9976 41.5606 35.9976 43.4948C35.9976 45.4289 37.5655 46.9969 39.4997 46.9969Z" stroke="white" stroke-width="1.5" stroke-miterlimit="10"/>
    <path d="M12.0021 46.9969C13.9363 46.9969 15.5042 45.4289 15.5042 43.4948C15.5042 41.5606 13.9363 39.9927 12.0021 39.9927C10.0679 39.9927 8.5 41.5606 8.5 43.4948C8.5 45.4289 10.0679 46.9969 12.0021 46.9969Z" stroke="white" stroke-width="1.5" stroke-miterlimit="10"/>
    <path d="M21.9982 46.9969C23.9324 46.9969 25.5003 45.4289 25.5003 43.4948C25.5003 41.5606 23.9324 39.9927 21.9982 39.9927C20.064 39.9927 18.4961 41.5606 18.4961 43.4948C18.4961 45.4289 20.064 46.9969 21.9982 46.9969Z" stroke="white" stroke-width="1.5" stroke-miterlimit="10"/>
    <path d="M9.0014 42.9932H4.00342V37.9952" stroke="white" stroke-width="1.5" stroke-miterlimit="10" stroke-linejoin="round"/>
    <path d="M18.9973 42.9933H15.0024" stroke="white" stroke-width="1.5" stroke-miterlimit="10" stroke-linejoin="round"/>
    <path d="M32.9971 37.9953H1.00293L4.9978 23.0013H28.9934" stroke="white" stroke-width="1.5" stroke-miterlimit="10" stroke-linejoin="round"/>
    <path d="M25.6499 37.9953L31.2814 17.0002H40.9958" stroke="white" stroke-width="1.5" stroke-miterlimit="10" stroke-linejoin="round"/>
    <path d="M21.4614 34.9948L23.8724 26.002" stroke="white" stroke-width="1.5" stroke-miterlimit="10" stroke-linejoin="round"/>
    <path d="M16.4546 34.9948L18.8656 26.002" stroke="white" stroke-width="1.5" stroke-miterlimit="10" stroke-linejoin="round"/>
    <path d="M11.4565 34.9948L13.8675 26.002" stroke="white" stroke-width="1.5" stroke-miterlimit="10" stroke-linejoin="round"/>
    <path d="M6.4585 34.9948L8.8695 26.002" stroke="white" stroke-width="1.5" stroke-miterlimit="10" stroke-linejoin="round"/>
</svg>
