<svg width="48" height="48" viewBox="0 0 48 48" fill="none" xmlns="http://www.w3.org/2000/svg"><circle cx="24" cy="24" r="24" fill="#1F2120"/><path d="M24 14c-5.5 0-10 4.5-10 10s4.5 10 10 10 10-4.5 10-10-4.5-10-10-10zm-1.002 2.07l-.002.909 2 .003.002-.912c.734.093 1.44.28 2.1.559l-.457.79 1.73 1.003.453-.783c.578.44 1.093.955 1.533 1.533l-.78.453 1 1.732.794-.459c.28.66.466 1.367.559 2.102h-.914v2h.914a7.917 7.917 0 01-.559 2.102l-.795-.46-1 1.733.781.453a8.087 8.087 0 01-1.533 1.533l-.451-.78-1.732.997.457.793c-.66.28-1.366.466-2.1.559l-.002-.912-2 .003.002.909a7.919 7.919 0 01-2.102-.56l.457-.79-1.732-1.002-.45.78a8.087 8.087 0 01-1.532-1.534l.779-.449-1.002-1.732-.787.457a7.919 7.919 0 01-.559-2.1h.909v-2h-.909c.093-.734.28-1.44.559-2.1l.787.457 1.002-1.732-.78-.45a8.087 8.087 0 011.534-1.532l.45.779 1.732-1.002-.457-.79a7.915 7.915 0 012.101-.56zM24 20c-2.197 0-4 1.803-4 4s1.803 4 4 4 4-1.803 4-4-1.803-4-4-4zm0 2c1.116 0 2 .884 2 2s-.884 2-2 2-2-.884-2-2 .884-2 2-2z" fill="#fff"/></svg>