<svg width="48" height="48" viewBox="0 0 48 48" fill="none" xmlns="http://www.w3.org/2000/svg"><circle cx="24" cy="24" r="24" fill="#1F2120"/><path d="M21.707 14.293l-1.414 1.414L23 18.414v3.781l-3.207-2.006-.857-3.73-1.95.45.729 3.16-3.16.728.449 1.95 3.728-.86L22.113 24l-3.38 2.113-3.73-.86-.448 1.95 3.16.729-.729 3.16 1.95.449.857-3.73L23 25.806v3.779l-2.707 2.707 1.414 1.414L24 31.414l2.293 2.293 1.414-1.414L25 29.586v-3.78l3.207 2.005.857 3.73 1.95-.45-.729-3.16 3.16-.728-.449-1.95-3.728.86L25.887 24l3.38-2.113 3.73.86.448-1.95-3.16-.729.729-3.16-1.95-.449-.857 3.73L25 22.195v-3.78l2.707-2.708-1.414-1.414L24 16.586l-2.293-2.293z" fill="#fff"/></svg>