<svg width="48" height="48" viewBox="0 0 48 48" fill="none" xmlns="http://www.w3.org/2000/svg"><circle cx="24" cy="24" r="24" fill="#1F2120"/><path d="M21 15l-1 2h-2v-1h-2v1h-.082c-.818 0-1.58.508-1.871 1.291-.4 1.07-1.047 3.255-1.047 6.209 0 2.954.648 5.138 1.047 6.209A2.003 2.003 0 0015.918 32H17v1h2v-1h10v1h2v-1h1.082c.818 0 1.578-.508 1.871-1.29v-.001c.4-1.07 1.047-3.255 1.047-6.209 0-2.954-.648-5.138-1.047-6.209A2.003 2.003 0 0032.082 17H32v-1h-2v1h-2l-1-2h-6zm-5.082 4h16.164c.335.9.918 2.844.918 5.5s-.583 4.6-.918 5.5H15.918c-.335-.9-.918-2.844-.918-5.5s.583-4.6.918-5.5zM24 21s-3 2-3 4.5c0 1.466 1 2.5 2.443 2.5-.262-.177-.443-.536-.443-1 0-1.5 1-3 1-3s1 1.5 1 3c0 .464-.181.823-.443 1C26 28 27 26.966 27 25.5c0-2.5-3-4.5-3-4.5z" fill="#fff"/></svg>