<svg width="40" height="42" viewBox="0 0 40 42" fill="none" xmlns="http://www.w3.org/2000/svg"><g clip-path="url(#clip0_74_157)"><mask id="mask0_74_157" style="mask-type:luminance" maskUnits="userSpaceOnUse" x="0" y="0" width="40" height="42"><path d="M30.082.667H9.983c-5.258 0-9.52 4.475-9.52 9.996v21.104c0 5.521 4.262 9.997 9.52 9.997h20.1c5.257 0 9.52-4.476 9.52-9.997V10.663c0-5.52-4.263-9.996-9.52-9.996z" fill="#fff"/></mask><g mask="url(#mask0_74_157)" fill="#fff"><path d="M24.64 20.277H13.075v-4.804h11.563c.676 0 1.146.124 1.381.34.236.215.382.616.382 1.2v1.726c0 .616-.146 1.016-.382 1.232-.235.216-.705.308-1.38.308v-.002zm.793-9.334H8.172V31.49h4.904v-6.685h9.037l4.289 6.685h5.491l-4.728-6.716c1.744-.271 2.526-.832 3.172-1.756.645-.925.969-2.403.969-4.375v-1.54c0-1.17-.118-2.095-.324-2.804a4.726 4.726 0 00-1.057-1.878 4.739 4.739 0 00-1.82-1.14c-.706-.216-1.587-.34-2.672-.34v.002z"/><path d="M59.175.666c0 11.35-8.762 20.55-19.57 20.55a18.72 18.72 0 01-6.283-1.082c.043-.489.061-.988.061-1.492v-1.54c0-1.309-.13-2.462-.414-3.439a6.93 6.93 0 00-1.536-2.742l-.039-.043-.04-.04a6.796 6.796 0 00-2.59-1.625l-.038-.013-.039-.012c-.94-.288-2.025-.427-3.253-.427H23.36v.002h-1.747A21.363 21.363 0 0120.034.666c0-11.348 8.762-20.548 19.57-20.548 10.809 0 19.57 9.2 19.57 20.548z"/></g><path d="M30.082.979H9.983C4.89.979.76 5.314.76 10.663v21.104c0 5.349 4.13 9.685 9.223 9.685h20.1c5.093 0 9.223-4.336 9.223-9.685V10.663c0-5.349-4.13-9.684-9.224-9.684z" stroke="#fff" stroke-width=".372"/></g><defs><clipPath id="clip0_74_157"><path fill="#fff" d="M0 0h40v42H0z"/></clipPath></defs></svg>