<svg width="42" height="42" viewBox="0 0 42 42" fill="none" xmlns="http://www.w3.org/2000/svg"><g clip-path="url(#clip0_74_176)"><mask id="mask0_74_176" style="mask-type:luminance" maskUnits="userSpaceOnUse" x="0" y="0" width="41" height="42"><path d="M40.092 0h-40v41.761h40V0z" fill="#fff"/></mask><g mask="url(#mask0_74_176)"><path d="M20.005 41.309h.163c8.115 0 12.826-.817 16.162-4.056 3.402-3.437 4.188-8.179 4.188-16.262v-.229c0-8.08-.786-12.79-4.188-16.26C32.996 1.261 28.252.444 20.17.444h-.162C11.893.445 7.18 1.262 3.844 4.5.442 7.937-.344 12.681-.344 20.762v.23c0 8.08.786 12.79 4.188 16.26 3.304 3.24 8.049 4.057 16.161 4.057z" fill="#fff"/><path d="M35.653 20.567a.296.296 0 00-.282-.292c-5.585-.212-8.984-.924-11.362-3.302-2.383-2.383-3.093-5.785-3.305-11.382a.292.292 0 00-.291-.282h-.652a.296.296 0 00-.292.282c-.211 5.595-.921 8.999-3.304 11.382-2.38 2.38-5.777 3.09-11.362 3.302a.292.292 0 00-.282.292v.651c0 .156.126.285.282.292 5.585.211 8.984.924 11.362 3.302s3.088 5.77 3.302 11.345a.292.292 0 00.292.282h.654a.296.296 0 00.291-.282c.214-5.575.924-8.967 3.302-11.345 2.38-2.38 5.777-3.09 11.363-3.302a.292.292 0 00.282-.292v-.651h.002z" fill="#1F2120"/></g></g><defs><clipPath id="clip0_74_176"><path fill="#fff" d="M0 0h42v42H0z"/></clipPath></defs></svg>