<svg width="40" height="40" viewBox="0 0 40 40" fill="none" xmlns="http://www.w3.org/2000/svg"><path d="M26.146 0h-12.27C2.664 0 0 2.666 0 13.854v12.272C0 37.334 2.646 40 13.854 40h12.272C37.334 40 40 37.354 40 26.146v-12.27C40 2.664 37.354 0 26.146 0zm6.146 28.54h-2.918c-1.104 0-1.436-.894-3.416-2.874C24.23 24 23.5 23.792 23.062 23.792c-.604 0-.77.166-.77 1v2.624c0 .71-.23 1.126-2.084 1.126a11.4 11.4 0 01-8.896-5.334 23.2 23.2 0 01-4.604-9.666c0-.438.166-.834 1-.834h2.918c.75 0 1.02.334 1.312 1.104 1.416 4.168 3.832 7.792 4.812 7.792.376 0 .54-.166.54-1.104v-4.292c-.124-1.958-1.164-2.124-1.164-2.832a.72.72 0 01.748-.668h4.584c.626 0 .834.312.834 1.062v5.792c0 .626.27.834.458.834.376 0 .666-.208 1.354-.896a24.002 24.002 0 003.584-5.96 1.26 1.26 0 011.27-.832h2.918c.874 0 1.06.438.874 1.062a36.404 36.404 0 01-3.916 6.73c-.314.48-.44.73 0 1.292.29.438 1.312 1.292 2 2.104 1 .998 1.83 2.151 2.458 3.416.25.812-.168 1.228-1 1.228z" fill="#fff"/></svg>