<svg width="20" height="20" viewBox="0 0 20 20" fill="none" xmlns="http://www.w3.org/2000/svg"><path d="M8.055 1.667l-.409 2.102a6.626 6.626 0 00-1.87 1.076l-2.02-.696L1.81 7.518l1.617 1.406A6.672 6.672 0 003.333 10c0 .34.033.694.094 1.076v.001L1.81 12.484l1.946 3.367 2.018-.695a6.628 6.628 0 001.872 1.074l.409 2.103h3.89l.408-2.103a6.62 6.62 0 001.87-1.075l2.02.696 1.945-3.367-1.616-1.408c.062-.382.094-.736.094-1.076 0-.34-.032-.693-.094-1.074v-.002l1.618-1.408-1.947-3.367-2.018.695a6.626 6.626 0 00-1.872-1.075l-.408-2.103h-3.89zm1.373 1.666h1.143L10.895 5l.869.329a4.95 4.95 0 011.403.804l.72.589 1.601-.55.571.988-1.28 1.113.147.916v.002c.051.312.074.574.074.809 0 .234-.023.496-.074.809l-.148.916 1.28 1.113-.572.99-1.6-.552-.72.591a4.945 4.945 0 01-1.402.804h-.002l-.869.329-.324 1.666H9.43L9.103 15l-.869-.329a4.953 4.953 0 01-1.403-.804l-.719-.59-1.602.551-.57-.988 1.28-1.115-.148-.913v-.002A5.132 5.132 0 015 10c0-.235.022-.497.073-.81l.148-.915-1.28-1.114.57-.99 1.602.552.72-.59a4.95 4.95 0 011.402-.804l.87-.33.323-1.666zM10 6.666A3.347 3.347 0 006.666 10 3.347 3.347 0 0010 13.333 3.347 3.347 0 0013.333 10 3.347 3.347 0 0010 6.667zm0 1.667c.926 0 1.666.74 1.666 1.667A1.66 1.66 0 0110 11.666 1.66 1.66 0 018.333 10c0-.926.74-1.667 1.667-1.667z" fill="#fff"/></svg>