<svg width="48" height="48" viewBox="0 0 48 48" fill="none" xmlns="http://www.w3.org/2000/svg"><rect width="48" height="48" rx="24" fill="#fff"/><g clip-path="url(#clip0_1553_1682)"><path d="M11.73 23.951H8.185v-1.839h3.547v1.84zM42 20.941h-.976a.523.523 0 00-.448.236L38.45 24.69l-2.128-3.512a.523.523 0 00-.448-.237h-.224a.732.732 0 00-.743.734v6.386h.947a.242.242 0 00.232-.237v-4.949l1.75 2.802c.13.13.272.237.449.237h.33c.177 0 .319-.107.448-.237l1.75-2.802v4.949c0 .13.107.237.236.237h.708c.13 0 .236-.107.236-.237.008-2.297.008-4.59.008-6.883zm-8.16 0h-.948a.242.242 0 00-.232.236v5.695h-3.547v-5.695a.237.237 0 00-.236-.237h-.708a.237.237 0 00-.236.237v6.879h5.179c.413 0 .732-.32.732-.734-.004-2.127-.004-4.255-.004-6.382zm-6.977 0h-.947a.242.242 0 00-.232.236v5.056l-3.323-5.056a.51.51 0 00-.449-.237h-.224a.722.722 0 00-.731.734v6.386h.947a.242.242 0 00.233-.237V22.79l3.31 5.032a.51.51 0 00.45.237h.235c.413 0 .735-.32.735-.734-.004-2.131-.004-4.259-.004-6.386zm-6.976 0h-5.18a.722.722 0 00-.73.733v6.382h5.175c.413 0 .731-.32.731-.734.004-2.127.004-4.255.004-6.382zm-1.18 5.93H15.16v-4.747h3.547v4.748zM7 28.06h4.672c.684 0 1.243-.545 1.243-1.212v-1.2c0-.663-.555-1.211-1.243-1.211v-.047c.684 0 1.243-.545 1.243-1.212v-1.034c0-.663-.555-1.212-1.243-1.212H7.236A.237.237 0 007 21.17v6.891zm27.556-9.077C32.609 15.419 28.838 13 24.5 13c-4.338 0-8.109 2.42-10.056 5.983h1.392c1.821-2.873 5.019-4.78 8.664-4.78 3.645 0 6.843 1.907 8.663 4.78h1.393zM24.5 36c4.338 0 8.109-2.42 10.056-5.983h-1.392c-1.821 2.873-5.022 4.78-8.664 4.78-3.645 0-6.843-1.907-8.664-4.78h-1.392C16.391 33.581 20.162 36 24.5 36zm-12.77-9.116H8.185V24.89h3.547v1.993z" fill="#8F9190"/></g><defs><clipPath id="clip0_1553_1682"><path fill="#fff" transform="translate(7 13)" d="M0 0h35v23H0z"/></clipPath></defs></svg>