<svg width="48" height="48" viewBox="0 0 48 48" fill="none" xmlns="http://www.w3.org/2000/svg"><rect width="48" height="48" rx="24" fill="#fff"/><path fill-rule="evenodd" clip-rule="evenodd" d="M15.206 29.113v1.046l-.024.022a39.614 39.614 0 00-3.034.773 13.708 13.708 0 01-1.88-6.784h-.043l.006-.006c0-.057.037-.107.037-.164 0-7.604 6.156-13.768 13.75-13.768 7.595 0 13.751 6.164 13.751 13.768l-.001.17a13.543 13.543 0 01-1 4.943h-.001c-.278.684-.608 1.34-.984 1.966-.972-.3-1.95-.562-2.952-.788v-2.396s.175-.46.722-.46V24.15c-.547 0-.722-.459-.722-.459v-2.978h-1.356v4.336l-3.754-.01.27-.87.79-2.542h-1.223l-.606 1.864-.005-3.273h1.037a2.844 2.844 0 001.765-.606c.596-.473.892-1.284.892-2.004 0-1.183-.658-2.399-2.164-2.399H25.65v8.445l1.252-.012-.182.528-.303.879-.628-.016-.351-.863-1.064-2.62H23.2l-1.079 2.62-.362.879h-.634l-.282-.88-.193-.602c1.89-.549 2.193-3.529.691-4.338.892-.28 1.885-4.02-1.404-4.02h-2.542v8.445h2.024l.162.516.275.879H16.56v-4.336h-1.355v2.978s-.175.46-.722.46l-.023.056.023.017v3.211a.77.77 0 01.722.46v1.218zm-5.276 0C12.018 34.881 17.538 39 24.018 39c6.48 0 12-4.12 14.089-9.886h-.67.67A14.964 14.964 0 0039 24c0-8.284-6.707-15-14.982-15-8.274 0-14.981 6.716-14.981 15v.169L9 24.164l.038.022c.02 1.73.334 3.388.892 4.928zm21.522 0l-.007.887a40.922 40.922 0 00-7.668-.721c-2.469 0-4.87.22-7.222.64l.002-.806.005-2.575 3.753-.014.365 1.174h1.248l.466-1.16 2.76-.006.494 1.166h1.248l.375-1.16h4.204l-.023 2.575zm-7.287-4.943l.379.894-1.472.006.382-.9.356-.838.355.838zm-5.5-5.549v-2.173h.73c.72.022 1.488.051 1.488.766 0 1.632-1.451 1.352-1.926 1.407h-.292zm8.278-2.173h.72c.888 0 1.704.146 1.704 1.115 0 1.024-.895 1.367-1.58 1.367h-.844v-2.482zm-7.913 5.937l-.235-.758h1.222l.19.584c.424-.166.804-.458.804-1.106 0-.912-.76-1.096-1.739-1.096h-.607v2.407h.337l.028-.031zm15.98 9.89a13.725 13.725 0 01-10.992 5.493 13.726 13.726 0 01-11.079-5.611 37.253 37.253 0 0110.838-1.608c3.906 0 7.672.6 11.212 1.712l.02.014z" fill="#8F9190"/></svg>