<svg width="48" height="48" viewBox="0 0 48 48" fill="none" xmlns="http://www.w3.org/2000/svg"><rect width="48" height="48" rx="24" fill="#fff"/><path d="M8.214 23.5a5.5 5.5 0 015.5-5.5H38.5v11H13.714a5.5 5.5 0 01-5.5-5.5z" fill="#8F9190"/><path d="M9.609 25.35h2.32c0 1.447 1.131 2.01 2.413 2.01.84 0 2.122-.243 2.122-1.355 0-1.172-1.633-1.37-3.237-1.797-1.618-.426-3.252-1.051-3.252-3.092 0-1.485.94-2.453 2.152-2.932A5.536 5.536 0 008 23.532a5.535 5.535 0 004.228 5.373c-1.515-.51-2.64-1.659-2.62-3.555zm15.984-3.87L24.808 18h-.369l-.803 3.477 1.957.003zm-3.29 4.107l-1.055 3.477h6.564l-.906-3.477h-4.603z" fill="#fff"/><path d="M26.847 18l1.679 5.04h-7.81L22.462 18h-6.855c1.59.38 2.812 1.41 2.812 3.329H16.1c-.077-1.31-1.008-1.644-2.154-1.644-.763 0-1.65.32-1.65 1.233 0 .837.52.944 3.254 1.645.794.197 3.237.7 3.237 3.167 0 1.617-1.034 2.904-3.002 3.334h2.924l1.77-5.06h8.359l1.508 5.06h.741V18h-4.24zm11.783 0v2.063h-5.206v2.518h4.521v1.898h-4.521v4.585h5.206V18z" fill="#fff"/></svg>