<svg width="20" height="20" viewBox="0 0 20 20" fill="none" xmlns="http://www.w3.org/2000/svg">
<path d="M10 1.56909L1.46973 5.83342L2.96061 6.57886L5.63639 7.91675L1.46973 10.0001L5.63639 12.0834L1.46973 14.1667L10 18.4311L18.5303 14.1667L14.3636 12.0834L18.5303 10.0001L14.3636 7.91675L18.5303 5.83342L10 1.56909ZM10 3.43107L14.8031 5.83342L10 8.23576L5.19694 5.83342L10 3.43107ZM7.5 8.84774L10 10.0977L12.5 8.84774L14.8031 10.0001L10 12.4024L5.19694 10.0001L7.5 8.84774ZM7.5 13.0144L10 14.2644L12.5 13.0144L14.8031 14.1667L10 16.5691L5.19694 14.1667L7.5 13.0144Z" fill="white"/>
</svg>
