<svg width="74" height="73" viewBox="0 0 74 73" fill="none" xmlns="http://www.w3.org/2000/svg"><g clip-path="url(#clip0_2872_2305)" fill="#08090A"><path d="M67.59 27.3c-1.68 0-3.36.59-4.56 1.9l-4.44 2.61h-8.04v-2.97c0-6.65-6.12-12.11-13.81-12.11-7.68 0-13.81 5.34-13.81 11.99 0 .83.72 1.54 1.56 1.54.84 0 1.56-.71 1.56-1.54 0-4.98 4.8-9.02 10.69-9.02 5.88 0 10.68 4.04 10.68 9.02v4.15c-1.44 1.19-1.92 3.2-1.32 4.87H27.25c.12-.48.24-.95.24-1.54 0-2.49-2.04-4.51-4.56-4.51h-7.92l-4.44-2.61c-1.2-1.19-2.88-1.9-4.68-1.9C2.52 27.3 0 29.91 0 33.23v18.16c0 3.32 2.76 6.05 6.12 6.05h8.64l9.96 14.24c.48.71 1.44.83 2.16.36.72-.47.84-1.42.36-2.14L16.81 55.07c-.24-.36-.72-.59-1.2-.59H6.12c-1.68 0-3-1.31-3-2.97V33.35c0-1.66 1.32-3.09 3.12-2.97.84 0 1.68.36 2.16 1.07l.36.36 5.04 2.97c.24.12.48.24.84.24h8.28c.84 0 1.56.71 1.56 1.54 0 .83-.72 1.54-1.56 1.54H13.8c-.24 0-.6-.12-.84-.24l-1.44-.83a1.78 1.78 0 00-1.56 0c-.48.24-.72.83-.72 1.31V50.2c0 .83.72 1.54 1.56 1.54h6.12c.36 0 .72.12.96.36l11.28 15.67c.48.71 1.44.83 2.16.36.72-.48.84-1.42.36-2.14C19.45 48.9 20.29 49.96 20.05 49.73c-.84-.83-2.04-1.3-3.24-1.3h-4.56V40.6c.48.12.96.24 1.56.24h21.37V71.1c0 .83.72 1.54 1.56 1.54.84 0 1.56-.71 1.56-1.54V40.83h21.37c.48 0 1.08-.12 1.56-.24v7.83h-4.56c-1.2 0-2.4.47-3.24 1.3-.12.12.6-.83-11.53 15.9-.48.71-.36 1.66.36 2.14.72.47 1.68.36 2.16-.36l11.29-15.67c.24-.24.6-.36.96-.36h6.12c.84 0 1.56-.71 1.56-1.54V37.98c0-.59-.24-1.07-.72-1.31a1.78 1.78 0 00-1.56 0l-1.44.83c-.24.12-.48.24-.84.24h-9.12c-.84 0-1.56-.71-1.56-1.54 0-.83.72-1.54 1.56-1.54h8.28c.24 0 .6-.12.84-.24l5.04-2.97.36-.36c.6-.71 1.44-1.07 2.4-1.07 1.68.12 3 1.42 3 2.97v18.16c0 1.66-1.32 2.97-3 2.97h-9.48c-.48 0-.96.24-1.2.59L46.46 69.55c-.48.71-.36 1.66.36 2.14.72.48 1.68.36 2.16-.36l9.96-14.24h8.4c3.36 0 6.12-2.73 6.12-6.05V33.35c.01-3.32-2.51-5.93-5.87-6.05z"/><path d="M65.79 25.75c4.2 0 7.68-3.44 7.68-7.6s-3.48-7.6-7.68-7.6c-4.2 0-7.68 3.44-7.68 7.6s3.48 7.6 7.68 7.6zm0-12.1c2.52 0 4.56 2.02 4.56 4.51 0 2.49-2.04 4.51-4.56 4.51-2.52 0-4.56-2.02-4.56-4.51 0-2.49 2.04-4.51 4.56-4.51zM7.68 25.75c4.2 0 7.68-3.44 7.68-7.6s-3.48-7.6-7.68-7.6C3.48 10.56 0 14 0 18.16s3.48 7.59 7.68 7.59zm0-12.1c2.52 0 4.56 2.02 4.56 4.51 0 2.49-2.04 4.51-4.56 4.51-2.52 0-4.56-2.02-4.56-4.51 0-2.49 2.04-4.51 4.56-4.51zm29.06 1.54c4.2 0 7.68-3.44 7.68-7.6S40.94 0 36.74 0c-4.2 0-7.68 3.44-7.68 7.6s3.48 7.59 7.68 7.59zm0-12.1c2.52 0 4.56 2.02 4.56 4.51 0 2.49-2.04 4.51-4.56 4.51-2.52 0-4.56-2.02-4.56-4.51-.01-2.5 2.04-4.51 4.56-4.51z"/></g><defs><clipPath id="clip0_2872_2305"><path fill="#fff" d="M0 0h73.47v72.63H0z"/></clipPath></defs></svg>