<svg width="76" height="75" viewBox="0 0 76 75" fill="none" xmlns="http://www.w3.org/2000/svg"><g clip-path="url(#clip0_2872_2294)" fill="#08090A"><path d="M43.64 27.69c2.23-1.71 3.72-4.41 3.72-7.48 0-5.15-4.21-9.31-9.42-9.31s-9.42 4.17-9.42 9.31c0 3.06 1.49 5.76 3.72 7.48-4.96 2.21-8.43 7.11-8.43 12.87v12.5c0 .86.74 1.59 1.61 1.59h4.71V73.4c0 .86.74 1.59 1.61 1.59.87 0 1.61-.74 1.61-1.59V48.28c0-.86-.74-1.59-1.61-1.59-.87 0-1.61.74-1.61 1.59v3.19h-3.1V40.44c0-6.01 4.96-10.91 11.03-10.91 6.08 0 11.03 4.9 11.03 10.91v11.03h-3.1V48.4c0-.86-.74-1.59-1.61-1.59-.87 0-1.61.73-1.61 1.59v25c0 .86.74 1.59 1.61 1.59.87 0 1.61-.74 1.61-1.59V54.53h4.71c.87 0 1.61-.73 1.61-1.59v-12.5c-.12-5.64-3.59-10.66-8.67-12.75zm-12.02-7.47c0-3.43 2.85-6.25 6.32-6.25s6.32 2.82 6.32 6.25-2.85 6.25-6.32 6.25-6.32-2.82-6.32-6.25z"/><path d="M37.94 59.19c-.87 0-1.61.74-1.61 1.59v12.5c0 .86.74 1.59 1.61 1.59.87 0 1.61-.73 1.61-1.59v-12.5c0-.86-.74-1.59-1.61-1.59zM20.58 18.63c5.21 0 9.42-4.17 9.42-9.31C30 4.17 25.79.01 20.58.01s-9.42 4.17-9.42 9.31c-.12 5.14 4.22 9.31 9.42 9.31zm0-15.57c3.47 0 6.32 2.82 6.32 6.25s-2.85 6.25-6.32 6.25-6.32-2.82-6.32-6.25 2.85-6.25 6.32-6.25zm34.71 15.57c5.21 0 9.42-4.17 9.42-9.31 0-5.15-4.21-9.31-9.42-9.31s-9.42 4.17-9.42 9.31c0 5.14 4.22 9.31 9.42 9.31zm0-15.57c3.47 0 6.32 2.82 6.32 6.25s-2.85 6.25-6.32 6.25-6.32-2.82-6.32-6.25 2.85-6.25 6.32-6.25zM18.23 49.88c-.87 0-1.61.74-1.61 1.59v21.81c0 .86.74 1.59 1.61 1.59.87 0 1.61-.73 1.61-1.59V51.47c-.12-.86-.74-1.59-1.61-1.59zm-5.58 10.9c-.87 0-1.61.74-1.61 1.59v10.91c0 .86.74 1.59 1.61 1.59.87 0 1.61-.73 1.61-1.59v-10.9c0-.86-.74-1.6-1.61-1.6z"/><path d="M12.65 18.38c-4.71 0-8.43 3.8-8.43 8.46 0 2.57 1.24 4.9 3.1 6.49C3.11 35.29.13 39.7.13 44.61v10.91c0 .86.74 1.59 1.61 1.59h3.97v16.18c0 .86.74 1.59 1.61 1.59.87 0 1.61-.73 1.61-1.59V51.47c0-.86-.74-1.59-1.61-1.59-.87 0-1.61.74-1.61 1.59v2.45H3.35v-9.31c0-5.15 4.22-9.31 9.42-9.31 4.71 0 8.55-3.8 8.55-8.33-.12-4.79-3.96-8.59-8.67-8.59zm0 13.73c-2.98 0-5.33-2.33-5.33-5.27 0-2.94 2.36-5.27 5.33-5.27s5.33 2.33 5.33 5.27c0 2.94-2.36 5.27-5.33 5.27zm55.91 1.22c1.86-1.59 3.1-3.92 3.1-6.5 0-4.66-3.84-8.33-8.43-8.33-4.71 0-8.43 3.8-8.43 8.33 0 4.66 3.84 8.33 8.43 8.33 5.21 0 9.42 4.17 9.42 9.31v9.44h-2.36v-2.45c0-.86-.74-1.59-1.61-1.59-.87 0-1.61.74-1.61 1.59v21.81c0 .86.74 1.59 1.61 1.59.87 0 1.61-.73 1.61-1.59V57.1h3.97c.87 0 1.61-.73 1.61-1.59v-10.9c0-5.03-2.97-9.32-7.31-11.28zM57.9 26.84c0-2.94 2.35-5.27 5.33-5.27s5.33 2.33 5.33 5.27c0 2.94-2.36 5.27-5.33 5.27s-5.33-2.33-5.33-5.27zm-.25 23.04c-.87 0-1.61.74-1.61 1.59v21.81c0 .86.74 1.59 1.61 1.59.87 0 1.61-.73 1.61-1.59V51.47c0-.86-.74-1.59-1.61-1.59z"/><path d="M63.23 60.78c-.87 0-1.61.74-1.61 1.59v10.91c0 .86.74 1.59 1.61 1.59.87 0 1.61-.73 1.61-1.59v-10.9c0-.86-.74-1.6-1.61-1.6z"/></g><defs><clipPath id="clip0_2872_2294"><path fill="#fff" transform="translate(.13)" d="M0 0h75.74v75H0z"/></clipPath></defs></svg>