<svg width="82" height="81" viewBox="0 0 82 81" fill="none" xmlns="http://www.w3.org/2000/svg"><g clip-path="url(#clip0_2872_2101)" fill="#08090A"><path d="M61.215 38.875c-.92 0-1.71.78-1.71 1.69 0 10.03-8.3 18.23-18.44 18.23-.92 0-1.71.78-1.71 1.69 0 .91.79 1.69 1.71 1.69 11.99 0 21.87-9.64 21.87-21.62-.01-.9-.8-1.68-1.72-1.68zm-18.44-18.23c0-.91-.79-1.69-1.71-1.69-11.99 0-21.87 9.64-21.87 21.62 0 .91.79 1.69 1.71 1.69.92 0 1.71-.78 1.71-1.69 0-10.03 8.3-18.23 18.44-18.23.93-.01 1.72-.79 1.72-1.7z"/><path d="M79.655 33.925h-9.09a30.35 30.35 0 00-3.95-9.25l6.45-6.38c.66-.65.66-1.69 0-2.35l-7.11-7.03c-.66-.65-1.71-.65-2.37 0l-6.45 6.38c-2.9-1.82-6.06-3.13-9.35-3.91v-8.98c0-.91-.79-1.69-1.71-1.69h-10.02c-.92 0-1.71.78-1.71 1.69v8.99a30.8 30.8 0 00-9.35 3.91l-6.46-6.38c-.66-.65-1.71-.65-2.37 0l-7.12 7.03c-.66.65-.66 1.69 0 2.35l6.45 6.38a30.35 30.35 0 00-3.95 9.25h-9.09c-.92-.01-1.71.77-1.71 1.68v9.9c0 .91.79 1.69 1.71 1.69h9.09c.79 3.26 2.11 6.38 3.82 9.25l-6.46 6.38c-.66.65-.66 1.69 0 2.35l7.11 7.03c.66.65 1.71.65 2.37 0l6.45-6.38c2.9 1.82 6.06 3.13 9.36 3.78v8.99c0 .91.79 1.69 1.71 1.69h10.01c.92 0 1.71-.78 1.71-1.69v-8.99c3.29-.78 6.46-2.08 9.35-3.78l6.46 6.38c.66.65 1.71.65 2.37 0l7.11-7.03c.66-.65.66-1.69 0-2.35l-6.46-6.38c1.85-2.87 3.16-5.99 3.95-9.25h9.09c.92 0 1.71-.78 1.71-1.69v-9.9c.17-.91-.62-1.69-1.55-1.69zm-1.71 9.9h-8.83c-.79 0-1.45.52-1.71 1.43-.66 3.78-2.11 7.29-4.35 10.42-.53.65-.39 1.56.13 2.08l6.19 6.12-4.74 4.69-6.19-6.12c-.53-.52-1.45-.65-2.11-.13-3.16 2.21-6.72 3.65-10.54 4.3-.79.13-1.45.78-1.45 1.69v8.73h-6.59v-8.73c0-.78-.53-1.43-1.45-1.69-3.82-.65-7.38-2.08-10.54-4.3-.66-.52-1.58-.39-2.11.13l-6.19 6.12-4.74-4.69 6.19-6.12c.53-.52.66-1.43.13-2.08-2.24-3.13-3.69-6.64-4.35-10.42-.13-.78-.79-1.43-1.71-1.43h-8.81v-6.51h8.83c.79 0 1.45-.52 1.71-1.43.66-3.78 2.11-7.29 4.35-10.42.53-.65.39-1.56-.13-2.08l-6.19-6.12 4.74-4.69 6.19 6.12c.53.52 1.45.65 2.11.13 3.16-2.21 6.72-3.65 10.54-4.3.79-.13 1.45-.78 1.45-1.69v-8.73h6.59v8.73c0 .78.53 1.43 1.45 1.69 3.82.65 7.38 2.08 10.54 4.3.66.52 1.58.39 2.11-.13l6.19-6.12 4.74 4.69-6.19 6.12c-.53.52-.66 1.43-.13 2.08 2.24 3.13 3.69 6.64 4.35 10.42.13.78.79 1.43 1.71 1.43h8.83v6.51h-.02z"/><path d="M51.075 50.465v-4.95c0-3.78-2.11-7.03-5.14-8.73 1.19-1.17 1.85-2.73 1.85-4.56 0-3.65-3.03-6.64-6.72-6.64s-6.72 2.99-6.72 6.64c0 1.82.66 3.39 1.84 4.56-3.16 1.69-5.14 4.95-5.14 8.73v4.95c0 .91.79 1.69 1.71 1.69h16.73c.93 0 1.59-.78 1.59-1.69zm-13.31-18.23c0-1.82 1.45-3.26 3.29-3.26s3.29 1.43 3.29 3.26c0 1.82-1.45 3.26-3.29 3.26-1.84.12-3.29-1.44-3.29-3.26zm10.01 16.67h-13.44v-3.26c0-3.65 3.03-6.64 6.72-6.64s6.72 3 6.72 6.64v3.26z"/></g><defs><clipPath id="clip0_2872_2101"><path fill="#fff" transform="translate(.745 .715)" d="M0 0h80.51v79.57H0z"/></clipPath></defs></svg>