<svg width="78" height="77" viewBox="0 0 78 77" fill="none" xmlns="http://www.w3.org/2000/svg"><g clip-path="url(#clip0_2872_2128)" fill="#08090A"><path d="M76.065 0h-48.4c-.89 0-1.65.75-1.65 1.63 0 .88.76 1.63 1.65 1.63h46.88V49.6h-46.88c-.89 0-1.65.75-1.65 1.63 0 .88.76 1.63 1.65 1.63h48.4c.89 0 1.65-.75 1.65-1.63V1.63c-.01-.88-.77-1.63-1.65-1.63zm-59.68 49.47v-8.02c0-.88-.76-1.63-1.65-1.63-.89 0-1.65.75-1.65 1.63v8.02c0 .88.76 1.63 1.65 1.63.89 0 1.65-.75 1.65-1.63z"/><path d="M27.665 36.7c.89 0 1.65-.75 1.65-1.63v-4.76h14.57c.89 0 1.65-.75 1.65-1.63v-6.39c0-.88-.76-1.63-1.65-1.63h-18.38c-1.39-1.5-3.04-2.75-4.94-3.51 2.28-1.75 3.8-4.51 3.8-7.64 0-5.26-4.31-9.52-9.63-9.52-5.32.01-9.63 4.27-9.63 9.53 0 3.13 1.52 5.89 3.8 7.64-5.06 2.25-8.61 7.26-8.61 13.15v4.88c0 .88.76 1.63 1.65 1.63h4.69V49.6c0 .88.76 1.63 1.65 1.63.89 0 1.65-.75 1.65-1.63V30.31c0-.88-.76-1.63-1.65-1.63-.89 0-1.65.75-1.65 1.63v3.13h-3.17v-3.13c0-6.14 5.07-11.15 11.28-11.15 3.42 0 6.72 1.5 8.87 4.13.25.38.76.63 1.27.63h17.23v3.13h-14.58c-1.01 0-1.77.88-1.65 1.75 0 .5.13 1 .13 1.38v3.13h-3.17v-3.13c0-.88-.76-1.63-1.65-1.63-.89 0-1.65.75-1.65 1.63v19.16c0 .88.76 1.63 1.65 1.63.89 0 1.65-.75 1.65-1.63V36.7h4.82zM8.275 9.64c0-3.51 2.91-6.39 6.46-6.39s6.46 2.88 6.46 6.39-2.91 6.39-6.46 6.39c-3.54 0-6.46-2.88-6.46-6.39zm22.55 35.07c0 .88.76 1.63 1.65 1.63h33.96c.89 0 1.65-.75 1.65-1.63 0-.88-.76-1.63-1.65-1.63h-33.96c-.89.01-1.65.76-1.65 1.63zm6.47-36.69h-3.17v3.13h3.17V8.02zm11.28 0h-3.17v3.13h3.17V8.02zm11.27 0h-3.17v3.13h3.17V8.02zM14.615 65c1.14-1.13 1.77-2.63 1.77-4.38 0-3.51-2.91-6.39-6.46-6.39s-6.46 2.88-6.46 6.39c0 1.75.63 3.26 1.77 4.38-3.04 1.63-4.94 4.76-4.94 8.4v1.63c0 .88.76 1.63 1.65 1.63h16.09c.89 0 1.65-.75 1.65-1.63V73.4c-.13-3.51-2.16-6.64-5.07-8.4zm-7.99-4.38c0-1.75 1.39-3.13 3.17-3.13s3.17 1.38 3.17 3.13-1.39 3.13-3.17 3.13c-1.64.13-3.17-1.38-3.17-3.13zM3.465 73.4c0-3.51 2.91-6.39 6.46-6.39s6.46 2.88 6.46 6.39H3.465zm40.16-8.4c1.14-1.13 1.77-2.63 1.77-4.38 0-3.51-2.91-6.39-6.46-6.39s-6.46 2.88-6.46 6.39c0 1.75.63 3.26 1.77 4.38-3.04 1.63-5.07 4.76-5.07 8.39v1.63c0 .88.76 1.63 1.65 1.63h16.09c.89 0 1.65-.75 1.65-1.63V73.4c0-3.51-2.02-6.64-4.94-8.4zm-7.85-4.38c0-1.75 1.39-3.13 3.17-3.13 1.77 0 3.17 1.38 3.17 3.13s-1.39 3.13-3.17 3.13-3.17-1.38-3.17-3.13zm-3.3 12.78c0-3.51 2.91-6.39 6.46-6.39s6.46 2.88 6.46 6.39h-12.92zm40.17-8.4c1.14-1.13 1.77-2.63 1.77-4.38 0-3.51-2.91-6.39-6.46-6.39s-6.46 2.88-6.46 6.39c0 1.75.63 3.26 1.77 4.38-3.04 1.63-4.94 4.76-4.94 8.39v1.63c0 .88.76 1.63 1.65 1.63h16.09c.89 0 1.65-.75 1.65-1.63V73.4c-.01-3.51-2.03-6.64-5.07-8.4zm-7.86-4.38c0-1.75 1.39-3.13 3.17-3.13s3.17 1.38 3.17 3.13-1.39 3.13-3.17 3.13c-1.78.13-3.17-1.38-3.17-3.13zm-3.29 12.78c0-3.51 2.91-6.39 6.46-6.39s6.46 2.88 6.46 6.39h-12.92z"/></g><defs><clipPath id="clip0_2872_2128"><path fill="#fff" transform="translate(.295)" d="M0 0h77.41v76.65H0z"/></clipPath></defs></svg>