<svg width="90" height="32" viewBox="0 0 90 32" fill="none" xmlns="http://www.w3.org/2000/svg"><path d="M14.276 7.47A4.701 4.701 0 0015 4.965c0-.852-.207-1.599-.569-2.292a4.88 4.88 0 00-1.5-1.599 4.297 4.297 0 00-1.965-.8C10.24.169 9.103.062 7.603.062H0v19.564h6.466c2.43-.053 3.982-.053 4.603-.107 1.034-.106 1.862-.426 2.586-.96.724-.48 1.242-1.172 1.655-2.025.414-.853.621-1.706.621-2.612 0-1.12-.31-2.079-.931-2.932-.62-.853-1.5-1.44-2.69-1.759.776-.426 1.449-.96 1.966-1.76zm-3.052-1.918c0 .64-.207 1.12-.569 1.546-.362.373-.88.64-1.552.693-.362.053-1.293.053-2.793.053H3.776V3.313H6c1.81 0 2.897.053 3.259.053.62.107 1.138.32 1.448.693.362.373.517.906.517 1.493zm.673 8.21c0 .692-.207 1.278-.57 1.652-.361.426-.827.64-1.396.8-.362.106-1.241.106-2.638.106H3.776v-5.224h3.103c1.707 0 2.897.106 3.414.266.517.213.931.48 1.19.853.31.427.414.96.414 1.546zm8.948-10.236V.061H17.12v3.465h3.724zm0 16.099V5.445H17.12v14.18h3.724zm14.224-8.849c0-1.12-.052-1.92-.207-2.559a3.272 3.272 0 00-.724-1.546c-.31-.48-.828-.853-1.5-1.12-.672-.319-1.397-.426-2.172-.426-1.81 0-3.31.8-4.5 2.452V5.5h-3.363v14.18h3.673v-6.4c0-1.599.103-2.665.259-3.251.206-.587.517-1.067.982-1.386.466-.32 1.087-.533 1.655-.533.466 0 .931.106 1.242.373a2.8 2.8 0 01.776 1.066c.155.426.258 1.44.258 2.985v7.25h3.673l-.052-9.01zm15.362 1.706c0-2.133-.672-3.892-1.965-5.278-1.345-1.386-3.052-2.079-5.121-2.079-1.345 0-2.535.32-3.673.907-1.086.64-1.965 1.492-2.534 2.718a7.655 7.655 0 00-.88 3.625c0 1.653.311 2.985.88 4.158.62 1.12 1.448 2.026 2.638 2.612a7.663 7.663 0 003.569.853c2.017 0 3.724-.746 5.069-2.132 1.396-1.44 2.017-3.252 2.017-5.384zm-3.724 0c0 1.439-.31 2.558-.983 3.305a3.006 3.006 0 01-2.38 1.12c-.93 0-1.706-.374-2.379-1.12-.62-.747-.982-1.866-.982-3.252 0-1.386.31-2.505.983-3.252a3.006 3.006 0 012.379-1.12c.93 0 1.707.374 2.38 1.12.672.747.982 1.813.982 3.199zm9.465-7.037V.435L52.5 2.62v2.825h-1.655V8.43H52.5v6.184c0 1.333.052 2.239.103 2.665.104.64.26 1.12.518 1.493s.62.64 1.138.853c.517.213 1.138.32 1.758.32 1.086 0 2.017-.213 2.845-.587l-.31-2.931c-.62.266-1.087.32-1.449.32a.886.886 0 01-.62-.214.778.778 0 01-.31-.48c-.052-.213-.052-.853-.052-2.025V8.43h2.482V5.445h-2.43zm8.225 0V.435L60.724 2.62v2.825H59.07V8.43h1.655v6.184c0 1.333.052 2.239.104 2.665.103.64.258 1.12.517 1.493.258.373.62.64 1.138.853.517.213 1.138.32 1.758.32 1.087 0 2.018-.213 2.845-.587l-.31-2.931c-.62.266-1.086.32-1.448.32a.886.886 0 01-.621-.214.777.777 0 01-.31-.48c-.052-.213-.052-.853-.052-2.025V8.43h2.483V5.445h-2.431zm16.81 7.037c0-2.133-.672-3.892-1.966-5.278-1.344-1.386-3.051-2.079-5.12-2.079-1.345 0-2.535.32-3.673.907-1.086.64-1.965 1.492-2.534 2.718a7.655 7.655 0 00-.88 3.625c0 1.653.31 2.985.88 4.158.62 1.12 1.448 2.026 2.638 2.612 1.19.586 2.327.853 3.569.853 2.017 0 3.724-.746 5.069-2.132 1.344-1.44 2.017-3.252 2.017-5.384zm-3.724 0c0 1.439-.31 2.558-.983 3.305a3.006 3.006 0 01-2.38 1.12c-.93 0-1.706-.374-2.379-1.12-.62-.747-.982-1.866-.982-3.252 0-1.386.31-2.505.982-3.252a3.006 3.006 0 012.38-1.12c.93 0 1.707.374 2.379 1.12.62.747.983 1.813.983 3.199z" fill="#E2001A"/><path d="M0 23.037v8.902h81v-8.902H0z" fill="#1F2120"/><path d="M87.155 10.03c1.5 0 2.845-1.173 2.845-2.826 0-1.652-1.345-2.825-2.845-2.825-1.5 0-2.845 1.173-2.845 2.825.052 1.653 1.345 2.826 2.845 2.826zm-2.12-2.879c0-1.333.93-2.292 2.172-2.292 1.19 0 2.172.96 2.172 2.292 0 1.333-.982 2.292-2.172 2.292-1.241 0-2.172-.906-2.172-2.292zm1.603.213h.465l.776 1.386h.621l-.828-1.386c.466-.053.828-.266.828-.853 0-.693-.414-.96-1.19-.96h-1.19v3.253h.57l-.052-1.44zm0-.48v-.906h.569c.31 0 .672.054.672.427 0 .426-.31.48-.672.48h-.569z" fill="#E2001A"/><path d="M4.293 29.646h.88v-3.838h2.224v-.48h-5.38v.48h2.276v3.838zm7.19 0h.62v-3.038h-.62v1.333H9v-1.333h-.62v3.038H9V28.26h2.483v1.386zm1.913 0h3.466v-.32h-2.896V28.26h2.637v-.32h-2.638v-.959h2.742v-.32h-3.362v2.985h.051zm8.845 0h.88v-3.838h2.224v-.48h-5.431v.48h2.327v3.838zm4.138 0H27v-3.038h-.62v3.038zm1.966 0h.62v-1.279h1.604c.517 0 1.396-.266 1.241-1.013-.103-.64-1.086-.746-1.448-.746h-2.017v3.038zm.62-2.718h1.397c.259 0 .776.106.828.48.051.426-.518.586-.621.586h-1.604v-1.066zm3.932 2.718h.62v-1.279h1.655c.518 0 1.397-.266 1.242-1.013-.104-.64-1.086-.746-1.449-.746h-2.017v3.038h-.051zm.672-2.718h1.396c.26 0 .776.106.828.48.052.426-.517.586-.62.586h-1.604v-1.066zm3.983 2.718h.62v-3.038h-.62v3.038zm5.69 0v-3.038h-.621v2.452l-2.431-2.452h-.724v3.038h.62v-2.452l2.431 2.453h.724zm3.31-1.279H48c0 .213.052.586-.672.853-.207.107-.466.16-.828.16-.414 0-.88-.107-1.19-.267-.31-.213-.569-.586-.517-.96a1.2 1.2 0 01.517-.959c.31-.213.724-.266 1.19-.266.88 0 1.345.373 1.397.64h.62c-.052-.214-.155-.587-.983-.853-.258-.107-.672-.107-1.034-.107-.672 0-1.241.213-1.5.32-.62.32-.828.853-.828 1.28 0 .426.207.959.828 1.279.259.106.828.266 1.293.266.931 0 1.345-.267 1.707-.48l.155.373h.414v-1.652h-2.017v.373zm5.69 1.28h.879V27.78h2.276c.724 0 1.965-.427 1.81-1.44-.207-.96-1.5-1.119-2.07-1.066h-2.896v4.372zm.879-3.892h1.965c.414 0 1.138.107 1.242.746.051.587-.776.8-.931.8h-2.225v-1.546h-.051zm7.344.746c-.672 0-1.24.214-1.5.32-.62.32-.827.853-.827 1.28 0 .426.207.96.828 1.279.258.107.827.32 1.5.32.672 0 1.24-.213 1.5-.32.62-.32.827-.853.827-1.28 0-.426-.207-.959-.828-1.279-.258-.106-.827-.32-1.5-.32zm0 .373c.414 0 .88.107 1.19.267.31.213.57.586.517.96a1.2 1.2 0 01-.517.96c-.31.212-.724.266-1.19.266-.413 0-.879-.107-1.19-.267-.31-.213-.568-.586-.516-.96a1.2 1.2 0 01.517-.959c.31-.16.776-.266 1.19-.266zm7.294 2.133l-1.087-2.452H66l-1.086 2.452-.88-2.452h-.724l1.242 3.038h.672l1.086-2.452 1.087 2.452h.672l1.241-3.038h-.672l-.88 2.452zm2.482.64h3.466v-.32h-2.845V28.26H73.5v-.32h-2.638v-.959h2.741v-.32h-3.362v2.985zm4.604 0h.62v-1.333h1.604c.983 0 .724.586.776.906.052.107.052.267.155.373h.776v-.107c-.207-.106-.259-.266-.259-.64 0-.479-.051-.585-.569-.799.466-.213.673-.373.62-.746-.05-.693-.775-.8-1.55-.8h-2.173v3.145zm2.172-2.72c.414 0 .983.054.88.587-.052.427-.466.48-.88.48h-1.551V26.98h1.551" fill="#fff"/></svg>