<svg width="62" height="62" viewBox="0 0 62 62" fill="none" xmlns="http://www.w3.org/2000/svg"><path fill-rule="evenodd" clip-rule="evenodd" d="M12.995 41.533v2.146l-.049.045c-2.11.45-4.188.98-6.233 1.587a28.162 28.162 0 01-3.861-13.922h-.09l.013-.013c-.002-.116.075-.218.075-.335 0-15.604 12.648-28.253 28.252-28.253 15.603 0 28.252 12.65 28.252 28.253l-.002.348a27.761 27.761 0 01-2.056 10.144h-.001a28.927 28.927 0 01-2.021 4.033 82.252 82.252 0 00-6.066-1.617v-4.916s.36-.943 1.483-.943v-6.74c-1.123 0-1.483-.943-1.483-.943v-6.11h-2.785v8.895l-7.713-.018.554-1.785 1.623-5.219h-2.512l-1.245 3.826-.012-6.717h2.13c1.248.023 2.611-.435 3.628-1.244 1.224-.97 1.832-2.633 1.832-4.112 0-2.426-1.35-4.921-4.446-4.921h-5.807V30.33l2.573-.023-.373 1.082-.623 1.803-1.29-.031-.721-1.772-2.187-5.376h-2.412l-2.216 5.376-.743 1.803h-1.304l-.58-1.803-.396-1.238c3.883-1.125 4.505-7.24 1.42-8.901 1.832-.576 3.873-8.248-2.886-8.248h-5.221V30.33h4.159l.332 1.059.566 1.803H15.78v-8.896h-2.786v6.11s-.36.944-1.483.944l-.046.116.046.034v6.59c1.124 0 1.483.944 1.483.944v2.499zm-10.839 0c4.291 11.835 15.631 20.289 28.946 20.289 13.314 0 24.654-8.454 28.945-20.286l-1.376-.002 1.376-.001a30.671 30.671 0 001.836-10.492c0-17-13.781-30.782-30.781-30.782S.32 14.04.32 31.041l.001.346v.002l-.077-.015.078.046a30.679 30.679 0 001.833 10.113zm44.22 0l-.016 1.82a84.176 84.176 0 00-15.753-1.48c-5.074 0-10.006.451-14.839 1.312l.003-1.652.01-5.285 7.713-.027.748 2.408h2.565l.958-2.381 5.669-.011 1.015 2.392h2.565l.77-2.381h8.639l-.047 5.285zM31.402 31.389l.78 1.835-3.025.013.786-1.848.73-1.719.73 1.719zm-11.3-11.387v-4.459h1.502c1.479.046 3.057.106 3.057 1.572 0 3.35-2.983 2.774-3.958 2.887h-.6zm17.008-4.459h1.479c1.825 0 3.502.3 3.502 2.288 0 2.102-1.839 2.805-3.248 2.805H37.11v-5.093zM20.853 27.726l-.484-1.556h2.512l.39 1.2c.871-.342 1.652-.942 1.652-2.271 0-1.872-1.563-2.25-3.573-2.25h-1.248v4.94h.694l.057-.063zm32.83 20.295c-5.154 6.845-13.351 11.272-22.581 11.272-9.339 0-17.62-4.531-22.763-11.514a76.624 76.624 0 0122.268-3.299c8.025 0 15.762 1.23 23.035 3.512l.042.029z" fill="#154281"/></svg>