<svg width="60" height="45" viewBox="0 0 60 45" fill="none" xmlns="http://www.w3.org/2000/svg"><path d="M22.887.053c-2.38.27-4.159 1.606-4.825 3.627-.219.675-.286 1.148-.286 2.011.005 1.399.157 2.007 1.128 4.462 1.39 3.511 2.232 6.15 3.174 9.935.614 2.48 1.047 3.603 1.989 5.151.785 1.298 1.97 2.576 3.083 3.324.414.28 1.16.66 1.637.834 1.318.478 2.878.536 4.353.164.229-.058 1.709-.68 3.736-1.563 3.963-1.731 5.086-2.209 6.899-2.951 1.48-.608 1.77-.758 2.407-1.26a6.676 6.676 0 002.246-3.24c.214-.68.3-1.197.329-2.002.042-1.105-.096-2.07-.448-3.183-.195-.608-.304-.84-1.356-2.836-.99-1.877-1.846-3.603-2.193-4.423-.771-1.809-1.214-2.527-2.151-3.516-1.894-1.992-4.563-3.164-8.412-3.695a122.532 122.532 0 00-7.028-.718c-2.46-.174-3.56-.203-4.282-.12zm11.705 5.498c2.331.227 4.6 1.201 5.952 2.562.428.429.947 1.167 1.156 1.63.657 1.49.904 2.035 1.575 3.496.49 1.057.819 1.833.88 2.074.42 1.64.11 2.88-.994 3.946-.59.569-1.047.849-1.932 1.181-1.113.42-2.008.72-2.736.912-.566.15-.714.169-1.237.174-.452 0-.694-.024-1.013-.102-1.87-.463-3.36-2.19-4.197-4.88-.148-.464-.69-2.157-1.213-3.763-.524-1.606-.971-3.058-1-3.231-.185-1.225.134-2.397.847-3.126.828-.834 1.875-1.07 3.912-.873z" fill="#EE3324"/><path d="M17.096 32.822c-.58.159-1.07.55-1.309 1.046a665.54 665.54 0 00-2.322 5.561 980.216 980.216 0 01-2.222 5.344c-.009.02.714.03 1.609.024l1.627-.014.405-1.052.404-1.046 2.455.01 2.455.014.428 1.047.429 1.051h1.608c.88 0 1.604-.015 1.604-.029 0-.053-4.387-10.606-4.53-10.89-.286-.575-.766-.96-1.361-1.086-.343-.072-.976-.063-1.28.02zm1.385 5.623c.409.999.742 1.838.742 1.872 0 .038-.405.053-1.499.053-.823 0-1.499-.015-1.499-.034 0-.096 1.456-3.767 1.48-3.738.02.02.366.849.776 1.847zm30.766-5.513a3.261 3.261 0 00-.376.15c-.214.12-.538.458-.662.704l-.128.241-.014 5.388-.01 5.392h2.903l.01-3.796.013-3.79 2.65 3.568c1.457 1.963 2.75 3.661 2.87 3.767.37.328.652.415 1.38.42.523 0 .666-.015.927-.111.372-.13.71-.372.904-.646.296-.415.286-.17.286-5.981v-5.296l-1.46.01-1.466.014-.024 3.873-.024 3.873-2.64-3.535c-1.452-1.944-2.746-3.642-2.88-3.772a2.345 2.345 0 00-.546-.386c-.286-.135-.357-.15-.88-.159-.448-.01-.629.005-.833.072zm-47.215.063C.975 33.106.409 33.45.138 34.13l-.114.284v8.922l.11.276c.156.395.456.714.85.897.482.222 1.01.299 2.104.299 1.927 0 3.407-.309 4.834-1.008 1.846-.907 3.064-2.272 3.478-3.888.11-.438.12-.544.1-1.181-.019-.521-.047-.791-.123-1.056-.652-2.263-3.179-4.115-6.214-4.558-1.023-.15-2.375-.203-3.131-.12zm2.721 2.455c1.847.381 3.26 1.51 3.555 2.84.1.45.066 1.062-.081 1.496-.38 1.124-1.585 2.064-3.15 2.465-.457.116-1.399.24-1.813.24H3.14v-7.199l.562.029c.31.014.78.072 1.051.13zm20.893 3.424v5.933h3.14v-2.412c0-1.326.015-2.411.039-2.406.019 0 1.042 1.085 2.27 2.411l2.236 2.407h3.935l-2.94-3.02c-1.623-1.663-2.941-3.047-2.941-3.081.004-.034 1.142-1.332 2.536-2.885 1.39-1.557 2.526-2.84 2.526-2.855 0-.038-3.587-.029-3.64.015-.028.019-.942 1.051-2.022 2.3l-1.974 2.262-.015-2.3-.01-2.3h-3.14v5.931zm14.146-5.879c-.899.106-1.665.57-1.855 1.124-.081.227-.086.569-.086 4.731 0 4.279.005 4.5.09 4.751.229.675.68 1.013 1.556 1.153.186.034 1.447.053 3.27.053h2.959v-2.315h-4.711v-2.605l2.132-.01 2.127-.014.014-1.172.01-1.167h-4.282v-2.219h4.71l-.01-1.172-.014-1.167-2.784-.005c-1.532-.005-2.935.01-3.126.034z" fill="#1F2120"/></svg>