<svg width="88" height="50" viewBox="0 0 88 50" fill="none" xmlns="http://www.w3.org/2000/svg"><path d="M.283 27.914V10.338L44.473.188l43.433 10.338v17.67l-44 10.338L.283 27.914z" fill="#D9D1C1"/><path d="M33.52 9.587l-7.366 1.127v16.73l7.365 1.034V9.587zm8.403-1.222l-7.365 1.128 4.627 8.928-5.194 10.056 7.46 1.128 2.455-4.98 2.36 4.98 4.155-.658 1.133.94 31.064-4.417V13.158l-36.73-5.17-1.982 5.17-1.983-4.793z" fill="#fff"/><path d="M22.096 5.044C10.029 7.811.125 10.102.096 10.132c-.03.03-.067 4.114-.081 9.085l-.022 9.019.5.131c6.313 1.59 40.63 9.986 40.696 9.957.052-.022.074 0 .052.044-.03.043.022.05.154.021.14-.036.184-.029.147.037-.044.066 0 .073.148.037.154-.037.184-.03.14.044-.045.073-.03.087.066.05.066-.028.176-.014.25.023.198.117 1.273.358 1.383.315.059-.022.103 0 .103.05 0 .052.059.067.147.038.081-.022.147-.015.147.021 0 .037.11.066.243.066.125 0 2.988-.666 6.343-1.486 3.362-.82 7.733-1.889 9.712-2.372 1.987-.483 9.036-2.203 15.672-3.828l12.067-2.95.022-8.976.015-8.982-.272-.073C86.852 10.168 44.198 0 44.125.007c-.051.008-9.962 2.27-22.03 5.037zm44.044.417l21.64 5.183v8.682l-1.745-.014-1.75-.022-.023-3.455c-.015-3.207-.022-3.456-.147-3.492a8678.75 8678.75 0 00-20.241-4.188L43.757 4.012l-3.826.732c-2.097.41-3.833.754-3.848.768-.022.015.397.755.92 1.633.53.878.941 1.61.927 1.632-.015.015-.854.154-1.847.308-1 .161-1.832.3-1.84.307-.014.015 1.067 2.05 2.4 4.532l2.427 4.51-2.67 5.036-2.664 5.044-.022-9.575-.015-9.583-.206.044c-.11.022-1.803.27-3.767.556-1.965.286-3.613.535-3.665.55-.073.028-.088 1.778-.073 8.579l.022 8.55 3.9.528c2.148.285 5.643.783 7.784 1.09 2.392.352 3.907.542 3.944.498.037-.037.523-1.09 1.074-2.335.552-1.252 1.03-2.299 1.06-2.328.03-.03.53 1.025 1.104 2.342.58 1.318 1.06 2.409 1.074 2.424.014.014.978-.125 2.14-.308 1.163-.19 2.142-.315 2.164-.285.133.153 1.84 3.045 1.81 3.074-.015.015-1.89.396-4.164.842l-4.136.813-19.932-4.085L3.9 25.813v-6.487H.294V10.33l.39-.08c.206-.044 10.051-2.313 21.868-5.051C34.942 2.335 44.132.242 44.272.256c.125.015 9.97 2.358 21.868 5.205zm-23.288 5.337c.523 1.267.971 2.306.993 2.306.023 0 .471-1.018.994-2.255.522-1.237.971-2.276 1-2.306.045-.051 6.939.85 7.189.937.052.015-.875 1.794-2.34 4.473-1.332 2.445-2.42 4.473-2.42 4.517 0 .037 1.155 2.262 2.567 4.949 1.42 2.68 2.583 4.92 2.598 4.978.014.08-.707.205-3.51.6-1.943.278-3.576.498-3.627.483-.06-.007-.611-1.171-1.236-2.577-.626-1.412-1.163-2.584-1.193-2.613-.029-.03-.603 1.113-1.265 2.54-1.126 2.43-1.214 2.599-1.39 2.599-.207 0-7.086-.937-7.108-.966-.008-.015 1.17-2.248 2.619-4.964 1.45-2.716 2.642-4.978 2.642-5.029 0-.051-1.075-2.072-2.385-4.502-1.368-2.533-2.354-4.43-2.302-4.444.147-.051 6.703-1.017 6.967-1.025l.258-.007.95 2.306zm-9.447 8.236v9.37l-.199-.007c-.118 0-1.73-.22-3.59-.49l-3.385-.491-.022-8.36-.015-8.36.346-.052 3.554-.505c1.758-.256 3.222-.461 3.26-.468.029 0 .05 4.209.05 9.363zm27.592-8.448c3.097.432 5.672.812 5.724.856.147.117.706 1.26.883 1.808.353 1.084.53 2.848.53 5.271 0 2.665-.184 4.385-.633 5.798-.236.732-.758 1.772-1.082 2.138l-.235.263-5.585.784-5.584.783-.412-.22c-.243-.124-.685-.483-1.082-.87-.56-.557-.714-.77-1.008-1.355-.883-1.794-1.185-4.122-1.023-7.804.147-3.228.478-4.714 1.398-6.178.596-.952 1.832-2.043 2.333-2.05.08 0 2.678.344 5.776.776zm12.25 1.72c2.105.293 3.834.534 3.849.542.007.007.544 1.56 1.192 3.448.64 1.889 1.221 3.565 1.287 3.726.103.27.11.015.074-3.243-.037-2.884-.03-3.529.051-3.529.052 0 .648.074 1.332.162l1.229.16v5.44c0 2.994-.007 5.439-.015 5.439-.015.007-1.243.183-2.744.395l-2.723.388-.08-.153c-.045-.088-.575-1.538-1.178-3.229l-1.096-3.075-.022.66c-.008.358.007 1.873.044 3.367.037 1.486.059 2.716.044 2.73-.015.03-5.231.747-5.415.747-.126 0-.133-.395-.133-7.291v-7.292l.243.037c.125.022 1.957.278 4.061.571z" fill="#003768"/><path d="M4.717 13.07v.216l-.023 5.615h0l-.014 5.622v.2l.195.045.161.037.01.002h.008c.098.016 4.215.58 9.143 1.246h0l8.969 1.208.088.012.076-.047.25-.154h.001c.23-.142.471-.38.696-.662.228-.284.45-.626.638-.988M4.717 13.07l20.198 12.352M4.717 13.07l.214-.03m-.214.03l.214-.03m19.984 12.383c.356-.688.583-1.25.735-1.966.15-.71.223-1.566.286-2.837h0c.092-1.886.061-3.454-.098-4.714-.16-1.257-.45-2.23-.891-2.91h-.001c-.233-.354-.596-.747-.985-1.094-.39-.348-.822-.663-1.202-.852h-.001c-.26-.128-.442-.212-.62-.26a1.987 1.987 0 00-.576-.052h-.003c-.082.003-.39.039-.848.097-.468.059-1.113.143-1.888.248-1.55.208-3.62.496-5.835.814l11.927 13.525zM4.93 13.038l8.057-1.141-8.057 1.141z" fill="#fff" stroke="#003768" stroke-width=".5"/><path d="M12.655 24.701h-.25v-11.43l.258.008.979.029h0c.592.02 1.084.065 1.48.202.41.142.717.385.932.78.207.382.322.894.393 1.563.07.673.099 1.534.115 2.628.033 2.071-.027 3.438-.271 4.35-.124.462-.297.822-.541 1.102a2.14 2.14 0 01-.903.599h0c-.382.14-.66.169-1.345.169h-.847z" fill="#D9D1C1" stroke="#003768" stroke-width=".5"/><path d="M59.341 12.27c-.655.336-1.008 1.032-1.265 2.496-.118.622-.133 1.2-.133 4.377 0 3.522.008 3.69.17 4.407.198.901.36 1.304.684 1.67.426.483.993.6 1.589.336.544-.248.942-.995 1.126-2.13.125-.761.242-4.634.191-6.515-.059-2.358-.258-3.478-.75-4.18-.354-.505-1.111-.725-1.612-.462zM44.383 43.419c-1.42.241-2.443 1.625-2.443 3.316 0 .527.03.666.206 1.003.287.549.765.798 1.53.798.7 0 1.229-.198 1.722-.637.353-.315.81-.974.81-1.179 0-.05-.104-.087-.273-.08-.257 0-.302.036-.574.454-.42.637-.846.893-1.515.893-.552 0-.78-.117-1.075-.55-.14-.197-.169-.343-.169-.76 0-1.582.95-2.76 2.2-2.753.574.007 1.111.425 1.111.878 0 .125.044.147.331.147.316 0 .331-.008.324-.205-.022-.937-.993-1.523-2.185-1.325zm-34.84.117a1.628 1.628 0 00-.088.293l-.052.241h.861c.78 0 .854.015.817.125-.022.073-.22 1.003-.449 2.072a68.042 68.042 0 01-.449 2.064c-.037.11.008.132.295.132h.323l.081-.352c.037-.19.25-1.178.464-2.189l.39-1.852h.868c.773 0 .86-.014.86-.132 0-.065.023-.197.045-.292l.044-.161h-1.986c-1.097 0-2.01.022-2.024.05zm4.657-.022c0 .014-.227 1.105-.514 2.43-.28 1.325-.515 2.43-.515 2.46 0 .037.125.059.28.059h.279l.206-1.01c.287-1.348.375-1.575.706-1.875.434-.388 1.111-.432 1.34-.088.095.14.066.425-.2 1.648-.14.659-.257 1.222-.257 1.259 0 .036.125.066.28.066h.272l.28-1.303c.338-1.604.345-1.86.066-2.138-.39-.388-1.133-.366-1.693.051-.132.103-.257.169-.28.147-.029-.022.09-.637.303-1.574.036-.147.014-.161-.258-.161-.162 0-.294.014-.294.029zm9.536 2.372c-.28 1.317-.522 2.438-.544 2.481-.022.066.066.096.309.096.184 0 .338-.015.338-.037 0-.037.324-1.581.405-1.925.037-.161.059-.161 1.074-.161.994 0 1.038.007 1.207.183.213.205.213.249.074 1.025-.17.944-.177.915.294.915.434 0 .449-.008.324-.205-.066-.103-.06-.308.037-.835.154-.908.154-.959-.067-1.215l-.176-.212.294-.242c.39-.307.574-.725.581-1.266 0-.374-.03-.454-.206-.637-.294-.286-.772-.366-2.207-.366h-1.229l-.508 2.4zm3.304-1.633c.22.213.236.476.037.9-.22.484-.537.601-1.707.601-.523 0-.942-.007-.942-.022 0-.044.302-1.413.339-1.537.036-.11.154-.125 1.067-.125.993 0 1.037.008 1.206.183zm2.149-.717a3.035 3.035 0 00-.081.33l-.052.278h.287c.265 0 .294-.022.339-.227.08-.396.059-.432-.206-.432-.14 0-.273.022-.287.05zm5.503.11c-.117.527-.993 4.685-.993 4.743 0 .044.125.074.28.074h.272l.213-1.047c.118-.571.265-1.171.339-1.333.28-.658 1.096-1.04 1.53-.717.11.08.206.227.22.33.016.095-.095.717-.242 1.383-.14.659-.258 1.245-.258 1.296 0 .066.089.088.273.073l.28-.022.272-1.281c.316-1.479.33-1.706.132-2.028-.28-.454-1.118-.498-1.692-.088-.17.125-.324.205-.346.19-.03-.036.213-1.266.316-1.61.03-.102-.007-.124-.257-.124s-.302.029-.339.16zm34.332.11c-.11.388-.11.388.199.388.28 0 .287-.008.36-.33l.074-.33h-.28c-.257 0-.287.023-.353.272zm9.448-.206c-.434.176-.758.791-.67 1.267.118.615.552.966 1.2.966 1.14.008 1.574-1.559.595-2.152-.25-.154-.838-.19-1.125-.08zm.978.227c.287.176.53.55.53.828 0 .11-.066.322-.14.476-.47.907-1.847.563-1.847-.462 0-.761.817-1.23 1.457-.842z" fill="#003768"/><path d="M78.435 44.656c0 .534.022.659.11.659.081 0 .11-.08.11-.293 0-.205.03-.293.103-.293.104 0 .442.352.5.52.016.044.09.073.155.058.118-.029.11-.058-.058-.3l-.184-.278.147-.146c.309-.308.073-.586-.5-.586h-.383v.659zm.765-.366c.11.11-.096.293-.331.293-.191 0-.213-.022-.213-.227 0-.22.007-.227.235-.183.132.022.272.08.309.117zm-40.579.051c-.103.49-.11.498-.36.535-.214.029-.265.073-.28.234-.022.183 0 .205.199.205.125 0 .228.014.228.03 0 .021-.118.563-.258 1.214-.301 1.377-.323 1.72-.117 1.83.228.118.89.096.89-.029 0-.058.022-.154.044-.22.03-.08 0-.117-.095-.117a.523.523 0 01-.28-.102c-.133-.095-.125-.132.103-1.223.316-1.5.265-1.383.596-1.383.228 0 .287-.03.324-.169.066-.256.059-.27-.221-.27h-.272l.044-.33c.03-.183.066-.41.096-.512.044-.176.029-.183-.243-.183h-.295l-.103.49zm28.394 0c-.103.498-.103.498-.368.52-.228.022-.264.051-.294.242-.03.197-.014.212.214.212.22 0 .242.022.206.16-.214.894-.479 2.314-.479 2.548 0 .352.133.44.655.44.272 0 .375-.03.375-.103a.83.83 0 01.045-.22c.029-.08 0-.117-.096-.117a.524.524 0 01-.28-.102c-.14-.095-.132-.124.067-1.076.33-1.618.301-1.53.625-1.53.235 0 .294-.03.331-.169.066-.256.059-.27-.199-.27-.14 0-.264-.022-.287-.044-.022-.022 0-.227.06-.454.05-.227.095-.44.102-.476 0-.03-.125-.051-.287-.051h-.28l-.11.49zm-48.238.527c-.552.19-.897.498-1.177 1.04-.463.908-.493 1.75-.08 2.225.286.322.632.432 1.22.381.574-.044 1.038-.3 1.413-.783l.25-.33-.287-.022c-.235-.022-.309.008-.47.19-.368.432-1.009.579-1.472.345-.243-.125-.42-.564-.338-.872l.044-.19h1.317c1.515 0 1.405.059 1.405-.754 0-.673-.147-.98-.589-1.208-.39-.197-.713-.197-1.236-.022zm1.111.674c.074.095.125.278.125.476v.322H18.02l.052-.169c.235-.761 1.383-1.156 1.817-.63zm11.545-.74c-.861.205-1.494 1.186-1.516 2.343-.007.886.338 1.318 1.111 1.376.353.022.486-.007.787-.168l.36-.19-.043.263c-.103.622-.626 1.054-1.273 1.062-.346 0-.692-.22-.692-.447 0-.117-.051-.14-.302-.14h-.308l.044.308c.051.374.28.6.728.725.61.161 1.516-.124 1.935-.615.324-.373.405-.622.81-2.54.184-.864.345-1.647.367-1.742.037-.161.023-.169-.235-.147-.228.015-.287.051-.302.183-.03.212-.103.212-.28.015-.279-.315-.676-.41-1.191-.286zm.971.754c.324.432.125 1.633-.346 2.087-.463.446-.971.505-1.317.16-.22-.219-.22-.24-.191-.797.066-1.164.677-1.852 1.486-1.691a.707.707 0 01.368.241zm16.106-.761c-.816.205-1.45.966-1.633 1.933-.265 1.45.89 2.254 2.207 1.537 1.229-.659 1.604-2.752.604-3.33-.265-.162-.84-.228-1.178-.14zm.721.564c.405.205.53.776.331 1.45-.308 1.024-1.228 1.537-1.817 1.01-.581-.513-.206-2.021.604-2.416.382-.19.58-.198.882-.044zm3.444-.527a2.398 2.398 0 00-.493.248c-.287.206-.339.206-.28-.029.044-.175.037-.183-.228-.16l-.28.021-.375 1.757-.367 1.757.25.022c.14.015.264.007.287-.015.022-.022.154-.556.287-1.186.28-1.317.434-1.61.927-1.852.368-.175.58-.19.816-.073.354.19.354.403.023 1.962l-.25 1.179h.279c.206 0 .294-.037.324-.132.19-.674.559-2.716.53-2.906-.06-.308-.28-.527-.611-.615-.354-.103-.508-.096-.84.022zm3.944-.015a2.817 2.817 0 00-.478.256l-.258.169-.022-.183c-.022-.154-.066-.183-.272-.183-.206 0-.25.029-.287.197-.022.117-.192.893-.376 1.742-.184.842-.33 1.56-.33 1.59 0 .036.124.058.279.058h.287l.199-.974c.28-1.362.33-1.508.67-1.852.455-.483 1.11-.52 1.36-.08.096.175.089.292-.14 1.383-.14.659-.264 1.266-.286 1.362-.03.146 0 .16.257.16h.287l.272-1.302c.317-1.494.339-1.816.125-2.087-.242-.307-.824-.417-1.287-.256zm3.664.015c-.17.058-.42.168-.567.256-.713.44-1.228 1.786-1 2.606.316 1.12 2.008 1.135 2.862.037l.25-.33-.272-.022c-.228-.022-.302.015-.508.235-.287.3-.537.41-.942.41-.603 0-.97-.44-.831-.996l.044-.176h1.31c1.5 0 1.398.059 1.398-.754 0-.68-.147-.98-.589-1.208-.36-.183-.699-.197-1.155-.058zm1.03.71c.074.095.125.278.125.476v.322h-.993c-.545 0-.993-.022-.993-.059 0-.11.338-.593.522-.732.405-.322 1.082-.33 1.339-.007zm2.825-.71c-.897.241-1.596 1.288-1.596 2.4 0 .894.515 1.362 1.413 1.282.676-.059 1.133-.38 1.486-1.062l.125-.234h-.294c-.25 0-.31.03-.442.256-.199.345-.56.55-.95.55-.588 0-.845-.484-.676-1.289.118-.556.294-.9.618-1.186.56-.483 1.295-.351 1.413.249.044.227.066.249.301.249h.258l-.03-.403c-.066-.768-.662-1.069-1.626-.812zm7.152.014c-.81.25-1.457 1.179-1.515 2.19-.045.68.154 1.097.64 1.339 1.155.578 2.553-.44 2.766-2.013.096-.74-.28-1.399-.883-1.552-.412-.103-.581-.096-1.008.036zm1.06.688c.559.623-.074 2.3-.927 2.453-.376.073-.7-.03-.89-.278-.324-.432-.118-1.523.382-2.058.449-.468 1.067-.527 1.435-.117zm3.208-.702a1.86 1.86 0 00-.478.256l-.214.168-.022-.19c-.022-.161-.059-.19-.272-.19-.191 0-.25.036-.28.16-.08.323-.713 3.302-.713 3.368 0 .03.125.059.28.059h.271l.206-.974c.287-1.376.324-1.493.611-1.808.449-.49 1.14-.571 1.406-.169.125.183.117.242-.126 1.406-.132.666-.264 1.288-.28 1.384-.029.146 0 .16.251.16h.287l.287-1.361c.375-1.779.324-2.123-.317-2.299-.345-.095-.573-.087-.897.03zm-46.649.058c0 .015-.177.813-.39 1.78l-.383 1.756.25.022c.14.015.273.007.295-.015.044-.05.743-3.235.75-3.433 0-.095-.058-.124-.257-.124-.14 0-.258.007-.265.014zm39.88 0c0 .015-.177.82-.39 1.801l-.383 1.779.294-.022.295-.022.375-1.779.375-1.771h-.28c-.154 0-.279.007-.286.014z" fill="#003768"/></svg>