<svg width="105" height="22" viewBox="0 0 105 22" fill="none" xmlns="http://www.w3.org/2000/svg"><path d="M8.519.927c-.966.341-1.674.873-2.667 1.95C2.912 6.055.599 13.255.368 19.91L.3 21.886l.87-2.454c1.117-3.164 1.81-4.882 2.763-6.791 2.994-6.014 5.96-7.486 8.954-4.418l.844.859.721-.382c1.13-.586 1.837-.477 1.987.34.095.52-.19 1.433-.694 2.196l-.354.532.68 1.446c.926 1.936 1.402 3.136 2.49 6.286 1.035 2.986 1.062 2.973.803-.355-.571-7.2-2.857-13.69-5.865-16.704C11.976.914 10.125.355 8.52.927zm17.786 2.468c-1.007.11-2.3.396-3.021.682l-.381.15v15.409h4.082V7.364l.354-.082c.653-.164 2.272.027 2.885.34 2.368 1.214 3.157 4.01 1.769 6.192-.504.777-1.524 1.513-2.45 1.745l-.653.177v3.9h.381c.204 0 .749-.095 1.184-.204 3.66-.941 6.192-4.16 6.192-7.91 0-2.208-.721-3.927-2.382-5.604-.884-.9-1.306-1.213-2.245-1.663-.64-.3-1.443-.614-1.783-.696-.898-.204-2.735-.286-3.932-.164zM44.43 3.6c-3.551.873-6.15 4.214-6.15 7.923 0 3.722 2.558 6.982 6.191 7.909 1.02.259 2.885.259 3.987 0 3.062-.723 5.539-3.368 6.11-6.518.735-4.132-1.905-8.223-6.014-9.3-.967-.246-3.103-.26-4.124-.014zm3.974 4.173c.87.436 1.769 1.472 2.055 2.332.286.859.231 2.427-.123 3.136a4.625 4.625 0 01-1.864 1.963c-.667.369-.857.41-1.96.41-1.428 0-2.15-.273-3.048-1.173-2.15-2.168-1.32-5.81 1.579-6.886.83-.3 2.544-.191 3.361.218zm46.349-4.146c-.49.096-1.143.287-1.456.41l-.585.218v15.381h4.082l.027-6.518.041-6.504.64-.041c.843-.055 1.428.259 1.7.886.232.586.15 1.241-.23 1.65-.246.26-.273.477-.273 1.936 0 1.623 0 1.65.34 1.8.19.082.49.382.653.641.286.464.3.682.341 3.328l.054 2.822h4.055V16.31c0-3.695-.041-3.94-.884-4.773a4.1 4.1 0 00-.926-.709c-.231-.123-.449-.245-.476-.259-.027-.027.232-.3.572-.613 1.061-.982 1.292-2.414.626-3.928-.531-1.2-1.579-1.99-3.225-2.413-.994-.26-3.865-.26-5.076.013zm-37.694.355c0 .177-.245 3.75-.545 7.95l-.544 7.663c0 .028.939.041 2.082.041h2.082l.327-4.677c.163-2.564.354-4.936.394-5.264l.082-.6 2 4.132 2.014 4.118 2.028-4.077c1.62-3.259 2.041-3.995 2.096-3.723.04.191.204 2.278.367 4.637.15 2.359.313 4.554.354 4.868l.068.586h4.069v-.34c0-.41-.912-13.405-1.035-14.7l-.081-.914h-4.668l-1.578 3.232-1.579 3.245-1.62-3.245-1.619-3.232h-2.34c-2.354 0-2.354 0-2.354.3zm24.099.613c-.15.519-1.252 4.091-2.449 7.95l-2.164 7.023 2.178.041c1.21.014 2.204.014 2.231 0 .014-.027.68-2.564 1.456-5.632.79-3.082 1.47-5.495 1.51-5.386.042.109.327 1.132.613 2.277l.53 2.073-.353.04c-.34.042-.38.123-.803 1.95-.245 1.05-.435 1.95-.449 2.005 0 .055.599.123 1.334.137l1.32.04.326 1.269.327 1.254H91.2l-.122-.381c-.123-.355-4.573-14.837-4.709-15.341-.068-.205-.3-.232-2.504-.232H81.43l-.273.913z" fill="#1C386C"/><path d="M13.309 11.005c-1.864 1.322-3.32 2.086-4 2.086-.586 0-1.43-.396-2.164-1.036-.327-.273-.667-.464-.776-.423-.3.123-1.306 1.459-1.647 2.223-.449.94-.626 1.99-.476 2.672.19.832.53 1.105 1.497 1.173.708.055.939 0 1.728-.368.504-.232 1.32-.71 1.81-1.064 1.157-.832 3.239-2.836 4.246-4.104.803-.996 1.565-2.182 1.47-2.264-.028-.027-.79.464-1.688 1.104z" fill="#1C386C"/></svg>