<svg width="129" height="24" viewBox="0 0 129 24" fill="none" xmlns="http://www.w3.org/2000/svg"><path fill-rule="evenodd" clip-rule="evenodd" d="M.323 11.892c.88-2.505 3.33-4.919 6.033-5.33 2.256-.316 4.426-.408 6.046.794-.42.867-.894 1.777-.894 1.777s-.71-.439-1.13-.553c-.856-.375-2.118-.477-2.912.152l-.341.55-1.85 7.025c-.032.226-.05.533.112.728.436.437 1.165.165 1.746.247l.195-.193 1.26-4.683 5.4.044.065.113c-.522 2.086-.983 4.188-1.57 6.24l-.115.112-8.491-.035c-1.295.06-2.521-.466-3.15-1.503-.047-.324-.403-.503-.385-.859H.261c-.368-1.425-.346-3.236.062-4.627zm63.797-.052c.806 1.556 1.787 3.346 2.51 4.916l-.082.227c-2.158 2.13-4.301 4.92-7.199 5.689-.275.032-.355-.18-.42-.39.038-1.472 1.642-2.194 2.26-3.438.585-1.066.718-2.328 1.255-3.425.489-1.148.88-2.328 1.515-3.41l.162-.17z" fill="#1F4FA2"/><path fill-rule="evenodd" clip-rule="evenodd" d="M59.51 23.304c4.792-1.653 7.59-7.24 12.143-9.67.421-.21.762-.596 1.23-.659.162.193.356.389.356.664-3.209 1.834-6.097 4.77-8.79 7.495-1.394 1.29-2.95 2.191-4.602 2.866-.177-.21-.24-.455-.337-.696zm3.27-17.46a61.287 61.287 0 015.087-2.865c-.18.841-.313 1.86-.04 2.75l-.082.161-3.58 2.045-.227-.002c-.45-.631-.869-1.28-1.24-1.944l.082-.145zm1.657 2.916c1.166-.032 2.102.192 3.072.267v.131c-1.02.562-2.057 1.19-3.11 1.543.018-.648.149-1.294.038-1.94zm.234 2.783c1.184-.692 2.382-1.4 3.645-1.93a6.33 6.33 0 001.546 2.383c.745-.258.877-1.146 1.525-1.469l1.16 1.816-.05.129c-1.766 1.11-3.581 2.27-5.203 3.817h-.162c-.869-1.556-1.721-3.126-2.46-4.746zm3.654-5.101l-.118 1.811c-.794.085-1.795.02-2.798-.073l-.08-.08 2.803-1.658h.193zm6.909-.097h5.564l1.38 4.152s.048.064.08.113c1.282-1.225 3.505-4.265 3.505-4.265h2.944v.193l-5.568 6.987S82.206 17 81.683 18.76l-.42.113h-5.484l-.063-.113 1.293-5.303-2.163-6.921s.275-.079.388-.192zm14.558.095l.13-.08 9.963-.028c.097-.015.243.106.243.106l-.476 2.17-4.497-.013-.196.34-.475 2.407.114.08 2.717-.048-.557 2.464-2.976.025s-.475 1.794-.64 2.716l.113.08c1.36.004 2.75.01 4.206.013l.112.08c-.05.745-.344 1.315-.506 2.01l-.276.118-9.98.04 2.98-12.48zm-69.705.592c2.376-1.282 5.686-1.038 7.699.251 1.726 1.477 2.188 3.806 1.649 5.94-.688 2.522-2.847 5.216-5.534 5.775-2.493.639-5.468.356-7.096-1.735-1.499-1.817-1.165-4.84-.093-6.795.668-1.437 1.998-2.678 3.375-3.436zm.83 9.046c-.114.372-.132.89.158 1.197.26.163.598.26.922.165.308-.129.664-.322.828-.66.67-2.183 1.031-4.495 1.653-6.71.002-.597.626-1.395-.116-1.754-.533-.13-1.124-.06-1.481.342-.489 1.067-.623 2.263-.932 3.379-.295 1.374-.688 2.7-1.032 4.04zm13.807-8.614c2.342-1.534 5.578-1.758 7.928-.687 1.842.895 2.499 2.87 2.59 4.796-.057 2.877-1.764 5.574-4.29 6.845l-1.636.659c-2.346.298-4.919.179-6.594-1.574-1.565-1.556-1.687-4.177-1.001-6.165.424-1.568 1.658-2.94 3.003-3.874zm1.833 9.55c.274.18.63.31.97.197.338-.129.68-.42.859-.741l1.096-4.575c.067-.243.05-.566.165-.729.133-.952.627-1.752.55-2.723-.13-.128-.265-.43-.46-.462-.485-.114-.955-.003-1.279.335-.831 2.344-1.195 4.883-1.85 7.307-.033.453-.309.952-.051 1.39zm12-10.56l.323-.08 8.266-.007c1.325.182 2.551 1.463 3.05 2.727.88 2.75-.212 5.546-1.965 7.628-1.33 1.337-2.917 2.168-4.826 2.168-2.98 0-7.764-.01-7.764-.01s2.36-10.227 2.916-12.426zm3.026 10.442c.387.26.857.036 1.278.052.389-.095.55-.435.746-.742 0 0 2.035-7.134 1.68-7.637-.37-.373-.909-.239-1.576-.239-.049.13-.081.258-.114.387l-2.014 8.179z" fill="#1F4FA2"/><path fill-rule="evenodd" clip-rule="evenodd" d="M69.586 1.739C71.45.143 74.086.686 76.543.645c3.073.347 6.486.245 9.512-.33.08.94-.65 1.762-1.446 2.245-2.138 1.143-4.838.745-7.264.609v.145l1.001.392c-.017.324-.373.5-.615.628-.39.162-.858.144-1.248.305.114.145.437.034.388.308-.715.79-1.927.788-2.832.412l-.113.129c.03.777-.006 1.634-.444 2.28-.309.047-.485-.229-.727-.342-.195.484-.117 1.164-.49 1.583-.323-.016-.58-.439-.872-.55-.358.774-.571 1.614-1.14 2.292-.58-.034-.87-.746-1.111-1.2-.208-.94-.285-2.073-.072-3.041-.564-.876-.997-2.009-.573-3.108.147-.63.57-1.244 1.089-1.663zm.927 3.35l-.775-.082.064.146c.566.05.459.802.927.932l-.216-.995.394-1.826c.274.147.695.227 1.003.084.276-.42.85-.378 1.32-.392.388-.08.349-.833.85-.621.178-.049.486-.177.47-.339-.518.29-1.115-.456-1.44.19-.309.274-.793.256-1.165.304-.131.453-.617.725-1.038.774l-.394 1.826zm34.888 1.246l4.934-.002.193.21 1.29 12.337c0 .064-5.597 0-5.597 0l-.22-1.943-4.27.023-1.252 1.92-2.523.01s6.258-10.683 7.445-12.555zm-2.305 8.364l2.588-.002-.378-3.744-2.21 3.746zm12.98-8.227l.162-.113 9.818-.003c1.116.035 1.923.863 2.486 1.754.676 1.136.559 2.704-.06 3.833-.488.905-1.38 1.742-2.255 2.29.283 1.438.627 2.87.958 4.34.048.194-.05.323-.228.307l-5.483.03-.194-.113-.992-3.529c-.08-.147-.259-.066-.389-.082l-.161.226-.9 3.347-.163.13-5.579.015c-.097-.26-.015-.418.082-.662.966-3.912 1.996-7.842 2.898-11.77zm4.364 6.386c.21.194.72.188 1.011.156.292-.096.527-.41.674-.702l.784-3.054c.163-.306.052-.695-.158-.938-.324-.179-.873-.18-1.198-.004l-1.113 4.542z" fill="#1F4FA2"/></svg>