<svg width="123" height="26" viewBox="0 0 123 26" fill="none" xmlns="http://www.w3.org/2000/svg"><path fill-rule="evenodd" clip-rule="evenodd" d="M10.248 5.145L.195 11.191l1.708.769s.64-.3 7.786-4.482c0 0 7.824-4.532 7.92-4.532.097 0 .175 3.473.175 7.717v7.71l1.708 1.04V0s-4.63 2.446-9.244 5.145zm10.268-2.198v18.546l-6.68-3.848-6.81-3.952-1.192.96 8.197 4.996 8.193 4.743V2.08l-1.708.867zm28.41 2.45c-2.985.597-5.156 2.67-5.887 5.625-1.14 4.604 1.663 9.136 6.065 9.806 2.132.325 5.564-.004 6.797-.65 3.776-1.983 5.235-6.959 3.218-10.973-.917-1.824-2.513-2.996-4.962-3.644-2.207-.583-3.006-.609-5.23-.164zm-15.773 7.785v7.81l4.867-.096 4.867-.096.105-1.474.105-1.473h-6.529V5.373h-3.415v7.81zm29.372-.009v7.8h3.415l.01-3.207.011-3.206.758.893c.417.492 1.487 1.934 2.378 3.207l1.62 2.313h1.71c.94 0 1.71-.084 1.71-.186 0-.103-1.153-1.838-2.562-3.857-1.409-2.019-2.561-3.828-2.561-4.02 0-.191 1.076-1.878 2.39-3.748 1.315-1.869 2.391-3.486 2.391-3.594 0-.107-.807-.189-1.793-.181L70.21 5.4l-2.05 3.02-2.048 3.019-.099-3.034-.099-3.033h-3.388v7.8zm16.735 0v7.8h3.415v-6.587h7.514v6.624l1.793-.105 1.793-.104V5.546l-1.78-.104-1.78-.104-.098 3.05-.1 3.052h-7.17l-.099-3.034-.099-3.033H79.26v7.8zm17.076.01v7.808l5.208-.096 5.209-.095v-2.774l-3.33-.099-3.33-.099v-3.442h5.123v-2.773h-5.123V8.146h6.489V5.373H96.336v7.81zm12.637-.027v7.817h3.055l.095-5.1.094-5.1 3.397 5.1 3.397 5.1h3.623v-15.6h-3.397l-.095 4.981-.094 4.98-3.101-4.893-3.1-4.895-1.937-.104-1.937-.104v7.818zm-37.299-.24l5.024 7.771V5.565l-5.024 7.351zM53.63 8.658c.536.281 1.315 1.07 1.731 1.754.617 1.013.727 1.601.598 3.184-.142 1.736-.308 2.083-1.564 3.273-1.18 1.116-1.642 1.33-2.87 1.328-1.663-.002-3.097-.814-4.062-2.3-.795-1.225-.855-3.91-.119-5.357 1.082-2.122 4.104-3.027 6.286-1.882z" fill="#545458"/><path fill-rule="evenodd" clip-rule="evenodd" d="M9.03 19.93l10.178 5.827-.196-1.886s-.576-.413-7.711-4.612c0 0-7.774-4.622-7.822-4.706-.048-.085 2.878-1.887 6.501-4.004L16.563 6.7l.036-2.02-8.485 4.958-8.09 4.728s4.399 2.852 9.006 5.564z" fill="#FC0"/></svg>