<svg width="64" height="52" viewBox="0 0 64 52" fill="none" xmlns="http://www.w3.org/2000/svg">
<path fill-rule="evenodd" clip-rule="evenodd" d="M6.01357 51.4889H0.069046L13.4621 0.467499L31.2817 16.987L50.5631 0.467499L63.9512 51.4889H58.0083L47.5909 10.9781L31.2817 24.5105L16.4314 10.9781L6.01357 51.4889Z" fill="#2056AE"/>
<path fill-rule="evenodd" clip-rule="evenodd" d="M17.9419 51.4889L22.3712 30.4248L28.3126 34.9693L26.8024 42.4486L40.1924 30.4248L41.6512 36.4369L35.7126 42.4486L46.1305 51.4889H38.6803L31.2817 45.4771L23.88 51.4889H17.9419Z" fill="#2056AE"/>
<path fill-rule="evenodd" clip-rule="evenodd" d="M14.921 51.4889H8.97975L17.9419 15.4698L31.2817 27.4926L46.1305 15.4698L55.041 51.4889H49.0995L41.6512 25.9774L31.2817 34.9693L20.8626 27.4926L14.921 51.4889Z" fill="#2056AE"/>
</svg>
