<svg width="64" height="52" viewBox="0 0 64 52" fill="none" xmlns="http://www.w3.org/2000/svg"><path fill-rule="evenodd" clip-rule="evenodd" d="M6.014 51.489H.069L13.462.467l17.82 16.52L50.563.467 63.951 51.49h-5.943L47.591 10.98 31.28 24.51 16.43 10.977 6.013 51.487z" fill="#2056AE"/><path fill-rule="evenodd" clip-rule="evenodd" d="M17.942 51.489l4.43-21.064 5.94 4.544-1.51 7.48 13.39-12.024 1.46 6.012-5.94 6.012 10.418 9.04h-7.45l-7.398-6.012-7.402 6.012h-5.938z" fill="#2056AE"/><path fill-rule="evenodd" clip-rule="evenodd" d="M14.921 51.489H8.98l8.962-36.02 13.34 12.024L46.13 15.47l8.911 36.019H49.1l-7.45-25.512-10.37 8.992-10.418-7.476-5.942 23.996z" fill="#2056AE"/></svg>