<svg width="91" height="49" viewBox="0 0 91 49" fill="none" xmlns="http://www.w3.org/2000/svg"><path fill-rule="evenodd" clip-rule="evenodd" d="M45.606 4.985c-10.914 0-20.819 2.209-27.992 5.771C10.488 14.295 6.07 19.164 6.07 24.512c0 5.348 4.418 10.217 11.544 13.755 7.173 3.563 17.078 5.772 27.992 5.772 10.915 0 20.82-2.209 27.993-5.772 7.126-3.539 11.543-8.407 11.543-13.755.001-5.348-4.417-10.217-11.543-13.756-7.174-3.562-17.078-5.771-27.993-5.771zm0-.445c10.989 0 20.968 2.227 28.201 5.82 7.281 3.616 11.796 8.623 11.796 14.152 0 5.53-4.514 10.536-11.796 14.152-7.233 3.592-17.212 5.82-28.2 5.82-10.99 0-20.968-2.228-28.202-5.82C10.124 35.048 5.61 30.041 5.61 24.512c0-5.53 4.515-10.536 11.796-14.152 7.234-3.593 17.213-5.82 28.201-5.82zm20.221 27.45V16.773h4.475v6.087l4.366-6.087h5.213l-5.778 7.37 5.93 7.848h-5.54l-4.191-6.218v6.218h-4.475zm-20.18 0l2.216-15.218h4.475l2.563 8.914 2.563-8.914h4.474l2.216 15.218h-4.3l-1.065-8.305-2.411 8.305h-2.955l-2.41-8.305-1.065 8.305h-4.3zm-1.673-15.218V31.99H39.5V20.425h-2.824v6c0 1.764-.26 3.33-1.596 4.642-1.333 1.308-4.167 1.275-5.92.924V28.34a4.44 4.44 0 001.065.152c1.942-.019 1.976-1.79 1.976-3.326v-8.392h11.773zM13.89 31.991V16.773h4.474v5.479h4.953v-5.479h4.475v15.218h-4.475v-6.087h-4.953v6.087H13.89zm31.717-29.51c23.45 0 42.575 9.897 42.575 22.03 0 12.134-19.126 22.031-42.575 22.031-23.45 0-42.577-9.896-42.577-22.03s19.126-22.03 42.577-22.03zm0-2.029c24.925 0 45.254 10.808 45.254 24.06 0 13.251-20.33 24.06-45.255 24.06C20.68 48.571.351 37.762.351 24.511S20.681.452 45.606.452z" fill="#2056AE"/></svg>