<svg width="136" height="32" viewBox="0 0 136 32" fill="none" xmlns="http://www.w3.org/2000/svg">
<path d="M88.2793 9.53532H78.334L79.1935 6.78784H89.1387" fill="#009640"/>
<path d="M78.8661 9.21209C79.0298 8.72725 79.1526 8.2424 79.3163 7.75755C79.3981 7.51512 79.3572 7.2323 79.6437 7.2323H88.6476V7.11108C88.4839 7.59593 88.3611 8.08078 88.1974 8.56563C88.1156 8.80805 88.1565 9.09088 87.87 9.09088H78.8661V9.21209H87.8291C88.1156 9.21209 88.0746 9.05048 88.1565 8.76765L88.6476 7.2323V7.11108H79.6846C79.3981 7.11108 79.4391 7.2727 79.3572 7.55553L78.8661 9.09088V9.21209Z" fill="white"/>
<path d="M98.2654 9.53532H88.2793L89.1387 6.78784H99.1249" fill="#EDEDED"/>
<path d="M88.8113 9.21209C88.975 8.72725 89.0978 8.2424 89.2615 7.75755C89.3434 7.51512 89.3025 7.2323 89.5889 7.2323H98.5929V7.11108C98.4292 7.59593 98.3064 8.08078 98.1427 8.56563C98.0608 8.80805 98.1017 9.09088 97.8153 9.09088H88.8113V9.21209H97.7743C98.0608 9.21209 98.0199 9.05048 98.1017 8.76765L98.5929 7.2323V7.11108H89.6299C89.3434 7.11108 89.3843 7.2727 89.3025 7.55553L88.8113 9.09088V9.21209Z" fill="white"/>
<path d="M108.211 9.53532H98.2245L99.084 6.78784H109.07" fill="#E30613"/>
<path d="M98.7565 9.21209C98.9202 8.72725 99.043 8.2424 99.2067 7.75755C99.2886 7.51512 99.2477 7.2323 99.5341 7.2323H108.538V7.11108C108.374 7.59593 108.252 8.08078 108.088 8.56563C108.006 8.80805 108.047 9.09088 107.76 9.09088H98.7565V9.21209H107.72C108.006 9.21209 107.965 9.05048 108.047 8.76765L108.538 7.2323V7.11108H99.5751C99.2886 7.11108 99.3295 7.2727 99.2477 7.55553L98.7565 9.09088V9.21209Z" fill="white"/>
<path d="M97.7743 14.5858C97.938 13.9797 98.1836 13.7373 98.7975 13.7373H101.048C101.662 13.7373 101.785 13.9797 101.621 14.5858L101.253 16.0404H97.406L97.7743 14.5858ZM112.344 19.7575C111.976 19.6767 111.771 19.3535 111.935 18.9494L114.636 10.303C114.841 9.85853 115.373 9.4949 115.864 9.4949H120.079C120.571 9.4949 120.816 9.85853 120.652 10.303L119.793 12.3232H124.581L126.096 8.84843C126.628 7.67671 125.973 6.66661 124.663 6.66661H114.35C113.04 6.66661 111.526 7.63631 110.994 8.84843L107.638 19.7171H96.5874C96.5465 19.5555 96.5465 19.3535 96.5874 19.1111L96.833 18.101H105.591L106.533 14.8282C107.106 12.606 106.901 11.5959 104.445 11.5959H96.1782C93.7226 11.5959 92.7812 12.606 92.2083 14.8282L91.1442 19.0707C91.1032 19.3131 91.0214 19.5151 90.9805 19.7575C90.694 21.5353 91.267 22.303 93.4361 22.303H126.014L127.16 19.7575H112.344ZM90.8167 15.8383L89.8345 19.7979L89.7936 19.9191C89.4252 21.4141 89.589 21.8181 89.7527 22.3838H83.5727C84.0229 21.8181 84.4322 21.4141 84.8005 19.9191L84.8414 19.7979L86.192 14.5454C86.3148 13.9797 86.1511 13.7777 85.7009 13.7777H83.9001C83.4908 13.7777 83.1634 14.0201 83.0406 14.5454L81.6901 19.7979L81.6491 19.9191C81.2808 21.4141 81.4445 21.8181 81.6082 22.3838H75.4283C75.8784 21.8181 76.2877 21.4141 76.6561 19.9191L76.697 19.7979L78.0476 14.5454C78.1703 13.9797 78.0066 13.7777 77.5564 13.7777H75.7557C75.3464 13.7777 75.019 14.0201 74.8962 14.5454L73.5456 19.7979L73.5047 19.9191C73.1363 21.4141 73.3 21.8181 73.4638 22.3838H67.2838C67.734 21.8181 68.1433 21.4141 68.5116 19.9191L69.985 14.1414C70.3533 12.6464 70.1896 12.2424 70.0259 11.6767H75.1827L74.9781 12.9696H75.019C75.4283 12.2828 75.8375 11.6767 76.7379 11.6767H81.6082C82.9588 11.6767 83.0816 11.9595 83.2044 12.8484H83.2453C83.4499 12.404 83.8183 11.6767 84.7596 11.6767H88.4839C90.3666 11.6363 91.7581 12.1212 90.8167 15.8383ZM69.1255 15.1515C68.5525 14.7474 68.3479 14.6262 66.7518 14.6262C64.6236 14.6262 64.0915 14.9898 63.7232 16.4444L62.8637 19.8787C62.4954 21.3737 62.6591 21.7777 62.8228 22.3434H56.1926C56.6428 21.7777 57.0521 21.3737 57.4204 19.8787L57.4613 19.7575L58.8938 14.0606C59.2621 12.5656 59.0984 12.1616 58.9347 11.5959H64.378L64.1324 13.3333H64.1734C65.0328 12.0404 65.7286 11.5959 67.4066 11.5959H70.0668L69.1255 15.1515ZM51.7725 14.5858L50.5447 19.3535C50.5038 19.5151 50.4629 19.6363 50.4219 19.7575C50.2582 20.0808 50.0127 20.2424 49.5215 20.2424H47.2706C46.8204 20.2424 46.6567 20.1212 46.6567 19.7575C46.6567 19.6363 46.6976 19.5151 46.7385 19.3535L47.9663 14.5858C48.13 13.9797 48.3756 13.7373 48.9895 13.7373H51.2405C51.8134 13.7373 51.9362 13.9797 51.7725 14.5858ZM54.8011 11.6363H46.3292C43.8736 11.6363 42.9323 12.6464 42.3593 14.8686L41.2952 19.1111C41.2543 19.3535 41.1725 19.5555 41.1315 19.7979H35.9747C35.9747 19.7979 40.1493 9.61611 40.1493 9.5757H77.5155L78.3341 6.86863H37.5709C37.8983 7.59591 37.8983 7.91914 37.4481 9.65651L32.9461 19.5959H32.8643L30.9817 6.22217H22.5507C22.8781 6.94944 22.8781 7.27267 22.4279 9.01005L18.5808 19.6767C18.5808 19.7171 18.5808 19.7575 18.5399 19.7979H3.76529L2.45563 22.3434H21.0364C20.7499 21.6969 20.7909 21.3333 21.1592 19.7979C21.1592 19.7575 21.1592 19.7171 21.2001 19.6767L25.0882 8.88883H25.1291L26.6843 19.7575L27.0527 22.303H52.0999C54.2691 22.303 55.2513 21.4949 55.8652 19.7575C55.9471 19.5555 55.988 19.3131 56.0698 19.0707L57.1339 14.8282C57.7069 12.6464 57.2567 11.6363 54.8011 11.6363Z" fill="#E30613"/>
<path d="M93.5179 21.899C92.945 21.899 92.3311 21.8586 91.8399 21.5757C91.226 21.2121 91.3488 20.3232 91.4716 19.7575C91.5944 19.1919 91.7581 18.6262 91.8809 18.0606C92.2492 16.6868 92.4538 15.1515 93.0268 13.8586C93.6816 12.3636 95.0732 12.0808 96.5874 12.0808H104.486C104.937 12.0808 105.428 12.1212 105.878 12.2828C106.492 12.5252 106.492 13.1313 106.41 13.6969C106.328 14.4242 106.082 15.1515 105.878 15.8788C105.714 16.4848 105.51 17.0909 105.346 17.7373C105.346 17.7777 104.527 17.7373 104.486 17.7373H97.6515C97.3241 17.7373 96.833 17.6565 96.5874 17.899C96.4237 18.101 96.3828 18.6262 96.3419 18.8687C96.26 19.1111 96.2191 19.3535 96.2191 19.6363C96.2191 20.0808 96.4237 20.2828 96.833 20.2828H107.188C107.474 20.2828 107.924 20.3636 108.047 20C108.293 19.1515 108.579 18.3434 108.825 17.4949L111.321 9.2929C111.73 7.99997 113.245 7.19189 114.554 7.19189H123.19C124.172 7.19189 126.505 6.94946 125.727 8.68684C125.482 9.25249 125.195 9.85855 124.95 10.4242C124.868 10.5858 124.418 11.8788 124.254 11.8788H120.325V12C120.652 11.2323 121.88 9.01007 120.039 9.01007H116.11C115.332 9.01007 114.472 9.2929 114.186 10.101L113.94 10.9495C113.49 12.4444 112.999 13.9394 112.549 15.3939C112.222 16.4848 111.853 17.5757 111.526 18.6666C111.362 19.1515 111.362 19.6363 111.812 20C112.058 20.202 112.385 20.1616 112.713 20.1616H126.587V20.0404C126.341 20.606 126.096 21.1717 125.809 21.7373C125.768 21.8586 125.727 21.8182 125.564 21.8182H93.5179V21.9394H125.727C125.891 21.9394 125.85 21.899 125.932 21.7373L126.669 20.1616V20.0404H112.385C111.853 20.0404 111.526 19.5555 111.526 19.0707V19.1919C111.567 18.8283 111.73 18.4646 111.812 18.101L112.426 16.1616C112.917 14.6262 113.408 13.0505 113.859 11.5151C114.186 10.4646 114.432 9.13128 115.905 9.13128H119.875C120.489 9.13128 120.98 9.3333 121.062 9.97977V9.85855C121.062 10.505 120.612 11.2323 120.366 11.8384V11.9596H124.131C124.459 11.9596 124.581 11.3131 124.704 11.0303C125.032 10.3434 125.318 9.61613 125.646 8.92926C125.809 8.56562 125.973 8.20199 125.891 7.79795C125.727 7.07067 125.073 6.94946 124.459 6.94946H114.554C113.695 6.94946 112.917 7.3131 112.262 7.83835C111.403 8.52522 111.239 9.57573 110.953 10.5454C110.462 12.0808 110.011 13.6161 109.52 15.1515C109.111 16.4848 108.702 17.7777 108.293 19.1111C108.211 19.3535 108.17 19.6767 107.965 19.8788C107.801 20.0404 107.269 19.9596 107.106 19.9596H96.9558C96.5465 19.9596 96.301 19.8788 96.26 19.3939V19.5151C96.26 19.0707 96.3828 18.6666 96.5056 18.2626C96.5874 17.9798 96.6284 17.6969 96.9558 17.6969H104.896C105.264 17.6969 105.305 17.7777 105.428 17.4545C105.837 16.0808 106.451 14.5858 106.451 13.1717C106.451 12.5656 106.287 12.1616 105.632 11.9596C105.1 11.7979 104.527 11.8384 103.995 11.8384H96.26C95.3187 11.8384 94.3365 12 93.6816 12.6868C93.1087 13.2525 92.8631 14.101 92.6585 14.8687C92.3311 16.202 92.0036 17.5353 91.6353 18.8687C91.5125 19.3939 91.3897 19.9192 91.3897 20.4848C91.3897 20.8889 91.4716 21.2525 91.799 21.5353C92.2492 21.899 92.9859 21.899 93.5589 21.899C93.5179 22.0202 93.5179 21.899 93.5179 21.899Z" fill="white"/>
<path d="M98.7975 13.2929C97.8152 13.3333 97.5288 13.9798 97.3241 14.7879C97.2013 15.2323 97.0376 15.6768 97.0376 16.1212C97.0376 16.6465 97.8562 16.4848 98.2245 16.4848H101.253C101.581 16.4848 101.662 16.202 101.703 15.9192C101.826 15.3939 102.072 14.7879 102.072 14.2222C102.072 13.4141 101.458 13.2525 100.762 13.2525H98.7975V13.3737H100.435C101.13 13.3737 102.031 13.2929 102.072 14.2626V14.1414C102.031 14.7475 101.785 15.3535 101.662 15.9596C101.54 16.4444 100.967 16.3232 100.557 16.3232H98.3882C97.9789 16.3232 97.1604 16.4848 97.0376 15.9596V16.0808C97.0786 15.596 97.2832 15.0707 97.406 14.5859C97.6106 13.8182 97.9789 13.3737 98.7975 13.3737V13.2929ZM84.3912 22.0202C85.1688 20.8081 85.4144 19.2323 85.7418 17.8586C85.9464 17.0909 86.1511 16.2828 86.3148 15.5151C86.3966 15.1515 86.5603 14.7071 86.5603 14.3434C86.5603 13.697 86.2329 13.2929 85.5372 13.2929C84.9233 13.2929 84.2684 13.2121 83.6545 13.2929C82.9588 13.3737 82.7132 14.0202 82.5495 14.6263C82.3858 15.3131 82.2221 15.9596 82.0584 16.6465L81.3217 19.596C81.1171 20.404 80.9534 21.2121 81.1171 22.0606V21.9394H76.2468V22.0606C77.0244 20.8485 77.27 19.2727 77.5974 17.899C77.802 17.1313 78.0066 16.3232 78.1703 15.5556C78.2522 15.1919 78.4159 14.7475 78.4159 14.3838C78.4159 13.7374 78.0885 13.3333 77.3927 13.3333C76.7788 13.3333 76.124 13.2525 75.5101 13.3333C74.8143 13.4141 74.5688 14.0606 74.4051 14.6667C74.2414 15.3535 74.0777 16 73.9139 16.6869C73.6684 17.6566 73.4228 18.6263 73.1773 19.6364C72.9726 20.4444 72.8089 21.2525 72.9726 22.101V21.9798H68.1023V22.101C68.6344 21.3333 68.839 20.404 69.0436 19.5151L69.8213 16.5253C70.1896 15.1111 70.8444 13.4949 70.5579 12.0404V12.1616H74.7734V12.0404C74.7325 12.4444 74.6506 12.8081 74.6506 13.1717C74.6506 13.3333 74.8962 13.4545 75.0599 13.4545C75.3464 13.4545 75.4692 13.2121 75.5919 13.0101C75.8784 12.5657 76.2468 12.1616 76.8197 12.1616H80.7897C81.3217 12.1616 81.8947 12.1212 82.4267 12.202C82.7541 12.2828 82.836 12.5657 82.8769 12.8485C82.9179 13.0909 82.9997 13.2929 83.2862 13.2929C83.6136 13.2929 83.6955 12.9697 83.8592 12.7273C84.2684 12.0404 84.9642 12.1212 85.619 12.1212H88.0337C89.016 12.1212 90.2847 12.0404 90.653 13.1717C90.9805 14.303 90.4484 15.6768 90.1619 16.8081C89.9164 17.7374 89.6708 18.7071 89.4662 19.6364C89.2615 20.404 89.0978 21.2525 89.2615 22.0606V21.9394H84.3912V22.0202H89.2615V21.899C89.0978 21.0505 89.3434 20.202 89.548 19.3939C89.7526 18.6263 89.9164 17.8586 90.121 17.0909C90.4484 15.8788 90.8577 14.5859 90.694 13.3333C90.5303 11.5556 88.1156 11.9596 86.8059 11.9596H84.8823C84.4321 11.9596 84.1047 12.202 83.8592 12.5657C83.6955 12.8081 83.6545 13.0909 83.3271 13.1313C83.0406 13.1717 82.9179 12.9293 82.8769 12.6869C82.836 12.3232 82.7541 12.0808 82.3449 12C82.0584 11.9596 81.731 11.9596 81.4445 11.9596H76.8607C76.4105 11.9596 76.0831 12.1212 75.7966 12.4444C75.5919 12.6869 75.4692 13.0505 75.1827 13.2121C74.8962 13.3737 74.6506 13.0505 74.6097 12.8081V12.9293L74.7325 12.0808V11.9596H70.517V12.0808C70.7216 12.9293 70.4352 13.8182 70.2305 14.6263C70.0259 15.4343 69.8213 16.2828 69.6166 17.0909L69.0027 19.4747C68.7981 20.3232 68.5525 21.1313 68.1023 21.8586V21.9798H72.9726V21.8586C72.8089 21.0505 73.0545 20.2424 73.2182 19.4343C73.3819 18.7475 73.5865 18.0202 73.7502 17.3333L74.3232 15.0707C74.446 14.5455 74.5278 13.9394 75.019 13.5758C75.5101 13.2121 76.3696 13.3737 76.9425 13.3737C77.7201 13.3737 78.6615 13.4545 78.375 14.505C78.0476 15.798 77.7201 17.1313 77.3927 18.4242C77.1062 19.596 76.9016 20.8081 76.2468 21.8182V21.9394H81.1171V21.8182C80.9534 21.0101 81.1989 20.202 81.3626 19.3939C81.5263 18.7071 81.731 17.9798 81.8947 17.2929C82.0993 16.5252 82.263 15.798 82.4677 15.0303C82.5904 14.505 82.6723 13.899 83.1634 13.5354C83.6545 13.1717 84.514 13.3333 85.087 13.3333C85.8646 13.3333 86.8059 13.4141 86.5194 14.4646C86.192 15.7576 85.8646 17.0909 85.5372 18.3838C85.2507 19.5556 85.0461 20.7677 84.3912 21.7778C84.3503 21.9394 84.3912 21.9798 84.3912 22.0202ZM56.9702 22.0202C57.5023 21.2525 57.7069 20.3232 57.9115 19.4343L58.6891 16.4444C59.0575 15.0303 59.7123 13.4141 59.4258 11.9596V12.0808H63.8869V11.9596C63.805 12.404 63.6822 12.8889 63.6822 13.3333C63.6822 13.6162 63.7641 13.8182 64.0915 13.8182C64.5008 13.8182 64.8691 13.0505 65.1556 12.7677C65.8104 12.1616 66.7108 12.0808 67.5703 12.0808H69.4938V11.9596L69.0846 13.4949C69.0027 13.7778 68.9618 14.0606 68.8799 14.3434C68.839 14.5455 68.5525 14.3434 68.3888 14.303C67.4475 14.0606 66.2606 14.1414 65.3193 14.2626C64.5417 14.3838 63.9687 14.7475 63.6004 15.4343C63.3548 15.8788 63.273 16.404 63.1502 16.8889C62.9865 17.5758 62.8228 18.2626 62.6181 18.9495C62.3726 19.9596 62.0452 21.0101 62.2498 22.0202V21.899H56.9293C56.9702 21.899 56.9702 22.0202 56.9702 22.0202H62.2907V21.899C62.0451 20.6869 62.6181 19.1515 62.9455 17.9394C63.1911 16.9697 63.3139 15.7172 64.0096 14.9899C64.5008 14.4646 65.2784 14.3838 65.9332 14.3434C66.7927 14.303 67.7749 14.2222 68.5935 14.505C68.839 14.5859 68.7981 14.6263 68.8799 14.3838C68.9618 14.101 69.0027 13.8182 69.0846 13.5354L69.4529 12.0808V11.9596C68.5934 11.9596 67.6931 11.9192 66.8336 11.9596C66.1378 12 65.5239 12.202 65.0328 12.6869C64.7872 12.9293 64.5826 13.2121 64.378 13.4949C64.1324 13.8586 63.6413 13.6162 63.6413 13.2121V13.3333C63.7232 12.8889 63.7641 12.4848 63.8459 12.0404V11.9192H59.3849V12.0404C59.5486 12.8889 59.303 13.7778 59.0984 14.5859C58.8938 15.3939 58.6891 16.2424 58.4845 17.0505L57.8706 19.4343C57.666 20.2828 57.4204 21.0909 56.9702 21.8182C56.9293 21.9394 56.9702 21.9798 56.9702 22.0202Z" fill="white"/>
<path d="M27.3801 21.8989L26.3978 14.8686C26.1932 13.3737 25.9886 11.8383 25.743 10.3434C25.7021 9.89894 25.6202 9.4949 25.5793 9.05046C25.5384 8.64642 25.211 8.20197 24.8017 8.60601C24.638 8.72723 24.5971 9.09086 24.5561 9.29288C24.3515 9.81813 24.1469 10.3838 23.9832 10.909C23.4102 12.4848 22.8372 14.0202 22.3051 15.5959C21.855 16.7676 21.4457 17.9798 20.9955 19.1515C20.6681 20.0404 20.3816 21.0909 20.5453 22.0202V21.8989H3.06952V22.0202C3.35601 21.4545 3.6425 20.9292 3.92898 20.3636C4.05176 20.1616 4.17454 20.2424 4.37918 20.2424H18.4171C18.7445 20.2424 18.8673 20.0808 18.9901 19.7979C19.3584 18.8282 19.6858 17.8585 20.0542 16.8484C20.9546 14.303 21.8959 11.7979 22.7963 9.25248C23.0828 8.4444 23.3283 7.39389 23.1237 6.54541V6.66662H30.5724C30.777 6.66662 30.6952 6.78783 30.7361 6.94945C30.8179 7.39389 30.8589 7.83834 30.9407 8.28278C31.1454 9.81813 31.35 11.3535 31.5955 12.8484C31.8002 14.4242 32.0457 16 32.2504 17.6161L32.455 19.1515C32.4959 19.3939 32.4959 19.7171 32.6597 19.9191C32.8643 20.1616 33.2736 19.9595 33.3554 19.7575L33.5191 19.4343L34.1739 17.9798C34.8697 16.4848 35.5245 14.9899 36.2203 13.4949C36.7114 12.404 37.2435 11.2727 37.7346 10.1818C38.1438 9.29288 38.4303 8.16157 38.1848 7.19187V7.31308H77.802V7.19187C77.5974 7.79793 77.4336 8.40399 77.229 9.01005C77.1881 9.13127 77.1472 9.09086 77.0244 9.09086H40.1493C39.7809 9.09086 39.6991 9.4949 39.5763 9.77773L38.7168 11.8383C37.8574 13.9393 36.9979 16 36.1794 18.101C36.0157 18.5454 35.811 18.9899 35.6473 19.4343C35.6064 19.5555 35.5655 19.6767 35.5655 19.7979C35.5655 20.3636 36.4249 20.202 36.7933 20.202H41.0497C41.6636 20.202 41.6226 19.3535 41.7454 18.909C41.9501 18.1818 42.1138 17.4141 42.3184 16.6868C42.6458 15.3535 42.8504 13.5757 44.0373 12.6464C44.9786 11.8787 46.4111 12.0808 47.557 12.0808H52.4683C53.6142 12.0808 54.9239 11.9191 56.0698 12.202C57.2976 12.5252 57.0111 13.8181 56.7656 14.7474C56.6019 15.3535 56.4791 15.9595 56.3154 16.5656C55.947 17.9393 55.7424 19.7575 54.842 20.8888C54.1053 21.8181 52.8775 21.8585 51.7725 21.8585H27.3801V21.9798H52.1408C53.0822 21.9798 54.0235 21.8585 54.7192 21.1717C55.3331 20.5656 55.5787 19.6767 55.7424 18.909C56.0698 17.5757 56.3972 16.2424 56.7656 14.909C56.8884 14.3434 57.0111 13.8181 57.0111 13.2121C57.0111 12.1212 55.947 11.9191 55.0466 11.9191C52.4273 11.8383 49.7671 11.9191 47.1068 11.9191C45.7972 11.9191 44.4466 11.8787 43.5871 13.0101C43.1369 13.6161 42.9323 14.3838 42.7277 15.1111C42.564 15.8383 42.3593 16.5252 42.1956 17.2525C42.0319 17.8585 41.9091 18.4646 41.7454 19.0707C41.6636 19.4343 41.7045 20 41.2134 20.0808C41.0906 20.1212 40.9269 20.0808 40.8041 20.0808H36.3021C35.9747 20.0808 35.6064 20.1212 35.5655 19.6767V19.7979C35.6473 19.3535 35.8929 18.909 36.0975 18.4646C36.3021 17.9393 36.5477 17.3737 36.7523 16.8484C37.2025 15.7575 37.6527 14.707 38.062 13.6161C38.635 12.2424 39.167 10.8686 39.74 9.4949C39.9037 9.09086 40.4767 9.21207 40.8041 9.21207H77.1472C77.2699 9.21207 77.6792 7.4747 77.7611 7.27268V7.15147H38.1029V7.27268C38.3894 8.52521 37.7346 9.81813 37.2435 10.909C36.5886 12.3232 35.9338 13.7777 35.279 15.1919C34.706 16.4848 34.0921 17.7777 33.5191 19.0707C33.3963 19.3535 33.3145 19.6767 33.028 19.8383C32.5778 20.1212 32.4141 19.5151 32.3732 19.1919C31.9639 16.3636 31.5955 13.4949 31.1863 10.6666C31.0226 9.41409 30.8589 8.20197 30.6542 6.94945C30.6542 6.90904 30.6133 6.4646 30.5724 6.4646H23.0828V6.58581C23.3692 7.75753 22.7553 9.09086 22.3461 10.1818L20.7499 14.5454C20.2588 15.9191 19.7268 17.3333 19.2356 18.707C19.1129 18.9899 19.031 19.2727 18.9082 19.5959C18.7854 19.9595 18.6217 20 18.2943 20H4.29733C3.96991 20 4.01084 20 3.84713 20.3232C3.60157 20.808 3.31508 21.2929 3.06952 21.8181V21.9393H20.5044V21.8181C20.2997 20.6868 20.8727 19.4747 21.2411 18.3838C21.7731 16.9292 22.2642 15.5151 22.7963 14.0606C23.3283 12.6464 23.8194 11.1919 24.3515 9.77773C24.4743 9.4545 24.5971 9.09086 24.7198 8.76763C24.8835 8.32319 25.4974 8.36359 25.5384 8.84844L27.3801 21.8989C27.3801 21.9798 27.3801 21.9393 27.3801 21.8989Z" fill="white"/>
<path d="M48.9076 13.293C48.0482 13.3334 47.6798 13.8586 47.4752 14.6263L46.9841 16.5657C46.7794 17.293 46.6157 18.0606 46.4111 18.7879C46.3292 19.1516 46.2065 19.4748 46.2065 19.8384C46.2065 20.7273 47.025 20.7273 47.7207 20.7273C48.3756 20.7273 49.0304 20.7677 49.6852 20.7273C50.5447 20.6869 50.8312 19.9192 50.9949 19.2324C51.1586 18.5051 51.3632 17.8182 51.5269 17.0909L52.0181 15.1516C52.0999 14.8687 52.1818 14.5455 52.1818 14.2627C52.1818 13.3738 51.4042 13.3334 50.7084 13.3334H48.9076V13.4546H50.5038C51.2405 13.4546 52.2227 13.3738 52.2227 14.3435V14.2223C52.1818 14.7475 52.0181 15.2324 51.8953 15.7172C51.6907 16.5253 51.486 17.293 51.2814 18.101C51.1586 18.5455 51.0767 18.9899 50.954 19.4344C50.7903 20.0404 50.4628 20.4445 49.8489 20.5657C49.6034 20.6061 49.276 20.6061 49.0304 20.6061C48.3756 20.6061 47.6798 20.6465 47.025 20.6061C46.0018 20.5253 46.3292 19.4748 46.4929 18.7879C46.8204 17.4142 47.1887 16.0808 47.5161 14.7071C47.7207 13.9394 48.0891 13.495 48.9076 13.4546V13.293Z" fill="white"/>
<path d="M130.72 8.48481C130.72 9.57572 129.82 10.3434 128.797 10.3434C127.774 10.3434 126.873 9.57572 126.873 8.48481C126.873 7.3939 127.774 6.62622 128.797 6.62622C129.82 6.62622 130.72 7.3939 130.72 8.48481ZM130.311 8.48481C130.311 7.59592 129.656 6.94945 128.797 6.94945C127.937 6.94945 127.283 7.59592 127.283 8.48481C127.283 9.3737 127.937 10.0202 128.797 10.0202C129.656 10.0606 130.311 9.3737 130.311 8.48481ZM128.429 9.57572H128.06V7.4343H128.879C129.411 7.4343 129.656 7.63632 129.656 8.04036C129.656 8.4444 129.411 8.60602 129.083 8.64642L129.697 9.57572H129.329L128.756 8.64642H128.388V9.57572H128.429ZM128.838 8.32319C129.042 8.32319 129.329 8.28279 129.329 7.99996C129.329 7.71713 129.083 7.67673 128.838 7.67673H128.388V8.28279H128.838V8.32319Z" fill="#E30613"/>
<path d="M38.0211 24.8889H36.9979V24.6869H39.2898V24.8889H38.2666V27.8384H38.0211V24.8889ZM41.418 26.7879H40.1902L39.8218 27.8384H39.5763L40.6813 24.6869H40.9678L42.0728 27.8384H41.7454L41.418 26.7879ZM41.3361 26.5859L41.1315 26.0202C40.9678 25.5758 40.8859 25.2121 40.7632 24.9293C40.6813 25.2121 40.5585 25.5758 40.4358 26.0202L40.2311 26.5859H41.3361ZM42.7686 24.6869H43.0551L44.3647 26.8687L44.7331 27.5152V24.6465H44.9786V27.798H44.6921L43.3825 25.6162L43.0141 24.9697V27.798H42.7686V24.6869ZM46.1246 24.6869H46.3701V26.4243L47.8844 24.6869H48.1709L47.1478 25.8586L48.2937 27.8384H48.0072L46.9841 26.0606L46.3701 26.7879V27.8788H46.1246V24.6869ZM48.7439 26.5455H49.808V26.7475H48.7439V26.5455ZM51.1995 24.8889H50.1763V24.6869H52.4683V24.8889H51.4451V27.8384H51.1995V24.8889ZM55.0876 27.8384L54.2281 26.4243H53.5733V27.8384H53.3277V24.6869H54.269C54.5965 24.6869 54.8829 24.7677 55.0466 24.8889C55.2513 25.0101 55.3331 25.2525 55.3331 25.5354C55.3331 25.7778 55.2513 25.9798 55.1285 26.1414C55.0057 26.303 54.8011 26.3839 54.5555 26.4243L55.415 27.8788H55.0876V27.8384ZM54.1872 26.2222C54.4737 26.2222 54.6783 26.1818 54.842 26.0606C55.0057 25.9394 55.0466 25.7778 55.0466 25.5354C55.0466 25.2929 54.9648 25.1313 54.842 25.0505C54.6783 24.9697 54.4737 24.8889 54.1872 24.8889H53.5733V26.1818H54.1872V26.2222ZM56.52 27.596C56.3154 27.394 56.2335 27.0707 56.2335 26.6263V24.6869H56.4791V26.5859C56.4791 26.9899 56.5609 27.2323 56.7247 27.394C56.8884 27.5556 57.093 27.6364 57.3386 27.6364C57.5841 27.6364 57.7887 27.5556 57.9525 27.394C58.1162 27.2323 58.198 26.9495 58.198 26.5859V24.6869H58.4436V26.6263C58.4436 27.0707 58.3617 27.4344 58.1571 27.596C57.9525 27.798 57.7069 27.8788 57.3795 27.8788C57.0111 27.9192 56.7247 27.798 56.52 27.596ZM60.0397 27.7172C59.8351 27.596 59.6714 27.394 59.5486 27.1515C59.4258 26.9091 59.3849 26.6263 59.3849 26.303C59.3849 25.9798 59.4258 25.697 59.5486 25.4546C59.6714 25.2121 59.8351 25.0101 60.0397 24.8889C60.2444 24.7677 60.4899 24.6869 60.7764 24.6869C60.9401 24.6869 61.1038 24.7273 61.2675 24.8081C61.4312 24.8889 61.5131 24.9697 61.6359 25.0909L61.4722 25.2525C61.2675 25.0505 61.0629 24.9293 60.7764 24.9293C60.5718 24.9293 60.3671 24.9697 60.2034 25.0909C60.0397 25.2121 59.9169 25.3738 59.8351 25.5758C59.7532 25.7778 59.7123 26.0202 59.7123 26.303C59.7123 26.5859 59.7532 26.8283 59.8351 27.0707C59.9169 27.2727 60.0397 27.4344 60.2034 27.5556C60.3671 27.6768 60.5718 27.7172 60.7764 27.7172C60.9401 27.7172 61.0629 27.6768 61.2266 27.6364C61.3494 27.5556 61.4722 27.4748 61.5949 27.3536L61.7587 27.5152C61.6359 27.6768 61.4722 27.7576 61.3494 27.8384C61.2266 27.9192 61.022 27.9596 60.8173 27.9596C60.449 27.9192 60.2444 27.8384 60.0397 27.7172ZM62.5772 24.6869H62.8228V26.4243L64.337 24.6869H64.6235L63.6004 25.8586L64.7463 27.8384H64.4598L63.4367 26.0606L62.8228 26.7879V27.8788H62.5772V24.6869ZM66.7517 24.6869H68.5116V24.8889H66.9973V26.0606H68.266V26.2626H66.9973V27.596H68.5525V27.798H66.7517V24.6869ZM71.9904 28.5657C71.8676 28.6061 71.7448 28.6061 71.5811 28.6061C71.3355 28.6061 71.09 28.5253 70.9263 28.4041C70.7216 28.2828 70.5989 28.1212 70.517 27.8788C70.2714 27.8384 70.0668 27.7576 69.9031 27.6364C69.7394 27.4748 69.5757 27.3132 69.4938 27.0707C69.412 26.8283 69.3301 26.5455 69.3301 26.2626C69.3301 25.9394 69.3711 25.6566 69.4938 25.4142C69.6166 25.1717 69.7803 24.9697 69.985 24.8485C70.1896 24.7273 70.3942 24.6465 70.6807 24.6465C70.9263 24.6465 71.1718 24.7273 71.3765 24.8485C71.5811 24.9697 71.7448 25.1717 71.8267 25.4142C71.9494 25.6566 71.9904 25.9394 71.9904 26.2626C71.9904 26.5859 71.9494 26.8283 71.8267 27.0707C71.7448 27.3132 71.5811 27.5152 71.4174 27.6364C71.2537 27.7576 71.0491 27.8788 70.8035 27.8788C70.8853 28.0404 70.9672 28.1616 71.1309 28.2424C71.2946 28.3233 71.4583 28.3637 71.622 28.3637C71.7448 28.3637 71.8676 28.3637 71.9494 28.3233L71.9904 28.5657ZM69.7394 27.0303C69.8212 27.2323 69.944 27.4344 70.1077 27.5152C70.2714 27.6364 70.4352 27.6768 70.6398 27.6768C70.8444 27.6768 71.0491 27.6364 71.2128 27.5152C71.3765 27.394 71.4992 27.2323 71.5811 27.0303C71.663 26.8283 71.7039 26.5455 71.7039 26.2626C71.7039 25.9798 71.663 25.7374 71.5811 25.5354C71.4992 25.3334 71.3765 25.1717 71.2128 25.0505C71.0491 24.9293 70.8853 24.8889 70.6398 24.8889C70.4352 24.8889 70.2305 24.9293 70.0668 25.0505C69.9031 25.1717 69.7803 25.3334 69.6985 25.5354C69.6166 25.7374 69.5757 25.9798 69.5757 26.2626C69.5757 26.5455 69.6575 26.7879 69.7394 27.0303ZM73.2591 27.596C73.0545 27.394 72.9726 27.0707 72.9726 26.6263V24.6869H73.2182V26.5859C73.2182 26.9899 73.3 27.2323 73.4637 27.394C73.6274 27.5556 73.8321 27.6364 74.0776 27.6364C74.3232 27.6364 74.5278 27.5556 74.6915 27.394C74.8553 27.2323 74.9371 26.9495 74.9371 26.5859V24.6869H75.1827V26.6263C75.1827 27.0707 75.1008 27.4344 74.8962 27.596C74.6915 27.798 74.446 27.8788 74.1186 27.8788C73.7093 27.9192 73.4637 27.798 73.2591 27.596ZM76.2877 24.6869H76.5333V27.8384H76.2877V24.6869ZM77.7201 24.6869H78.5387C78.907 24.6869 79.1935 24.7677 79.3981 24.8889C79.6028 25.0101 79.6846 25.2525 79.6846 25.5758C79.6846 25.899 79.6028 26.101 79.3981 26.2626C79.1935 26.4243 78.907 26.5051 78.5387 26.5051H77.9657V27.8384H77.7201V24.6869ZM78.4977 26.303C78.8252 26.303 79.0707 26.2626 79.1935 26.1414C79.3572 26.0202 79.4391 25.8586 79.4391 25.5758C79.4391 25.3334 79.3572 25.1313 79.1935 25.0505C79.0298 24.9697 78.7842 24.8889 78.4568 24.8889H77.9657V26.303H78.4977ZM80.6669 24.6869H81.0352L81.69 26.5051L81.9356 27.1919C81.9765 27.1111 82.0175 26.9899 82.0584 26.8283L82.1812 26.4647L82.836 24.6465H83.2043V27.798H82.9588V25.7778C82.9588 25.6162 82.9588 25.3334 82.9997 24.8889L82.7541 25.6162L82.0584 27.4344H81.8538L81.158 25.6162L80.9124 24.8889C80.9124 25.2525 80.9534 25.5354 80.9534 25.7778V27.798H80.7078V24.6869H80.6669ZM84.3503 24.6869H86.1101V24.8889H84.5958V26.0606H85.8646V26.2626H84.5958V27.596H86.1511V27.798H84.3503V24.6869ZM87.1333 24.6869H87.4198L88.7295 26.8687L89.0978 27.5152V24.6465H89.3434V27.798H89.0569L87.7472 25.6162L87.3789 24.9697V27.798H87.1333V24.6869ZM91.1441 24.8889H90.121V24.6869H92.4129V24.8889H91.3897V27.8384H91.1441V24.8889Z" fill="#636569"/>
</svg>
