<svg width="136" height="32" viewBox="0 0 136 32" fill="none" xmlns="http://www.w3.org/2000/svg"><path d="M88.28 9.535h-9.946l.86-2.747h9.945" fill="#009640"/><path d="M78.866 9.212c.164-.485.287-.97.45-1.454.082-.243.041-.526.328-.526h9.004v-.12c-.164.484-.287.969-.45 1.454-.082.242-.041.525-.328.525h-9.004v.121h8.963c.287 0 .246-.162.328-.444l.49-1.536v-.12h-8.962c-.287 0-.246.16-.328.444l-.49 1.535v.121z" fill="#fff"/><path d="M98.265 9.535H88.28l.86-2.747h9.986" fill="#EDEDED"/><path d="M88.811 9.212c.164-.485.287-.97.45-1.454.082-.243.041-.526.328-.526h9.004v-.12c-.164.484-.287.969-.45 1.454-.082.242-.041.525-.328.525h-9.004v.121h8.963c.287 0 .246-.162.328-.444l.49-1.536v-.12H89.63c-.287 0-.246.16-.328.444l-.49 1.535v.121z" fill="#fff"/><path d="M108.211 9.535h-9.986l.859-2.747h9.986" fill="#E30613"/><path d="M98.757 9.212c.163-.485.286-.97.45-1.454.082-.243.04-.526.327-.526h9.004v-.12c-.164.484-.286.969-.45 1.454-.082.242-.041.525-.328.525h-9.004v.121h8.964c.286 0 .245-.162.327-.444l.491-1.536v-.12h-8.963c-.286 0-.246.16-.327.444l-.492 1.535v.121z" fill="#fff"/><path d="M97.774 14.586c.164-.606.41-.849 1.023-.849h2.251c.614 0 .737.243.573.849l-.368 1.454h-3.847l.368-1.454zm14.57 5.171c-.368-.08-.573-.404-.409-.808l2.701-8.646c.205-.444.737-.808 1.228-.808h4.215c.492 0 .737.364.573.808l-.859 2.02h4.788l1.515-3.475c.532-1.171-.123-2.181-1.433-2.181H114.35c-1.31 0-2.824.97-3.356 2.181l-3.356 10.87h-11.05a1.497 1.497 0 010-.607l.245-1.01h8.758l.942-3.273c.573-2.222.368-3.232-2.088-3.232h-8.267c-2.455 0-3.397 1.01-3.97 3.232l-1.064 4.243c-.04.242-.123.444-.163.686-.287 1.778.286 2.546 2.455 2.546h32.578l1.146-2.546h-14.816zm-21.527-3.919l-.982 3.96-.041.121c-.369 1.495-.205 1.9-.041 2.465h-6.18c.45-.566.86-.97 1.228-2.465l.04-.121 1.351-5.253c.123-.565-.04-.767-.491-.767h-1.8c-.41 0-.738.242-.86.767l-1.35 5.253-.042.121c-.368 1.495-.204 1.9-.04 2.465h-6.18c.45-.566.859-.97 1.227-2.465l.041-.121 1.35-5.253c.123-.565-.04-.767-.49-.767h-1.801c-.41 0-.737.242-.86.767l-1.35 5.253-.041.121c-.369 1.495-.205 1.9-.041 2.465h-6.18c.45-.566.86-.97 1.228-2.465l1.473-5.778c.368-1.495.205-1.899.04-2.464h5.158l-.205 1.293h.041c.41-.687.819-1.293 1.719-1.293h4.87c1.35 0 1.474.283 1.596 1.171h.041c.205-.444.573-1.171 1.515-1.171h3.724c1.883-.04 3.274.444 2.333 4.161zm-21.691-.686c-.574-.405-.778-.526-2.374-.526-2.128 0-2.66.364-3.029 1.818l-.86 3.435c-.368 1.495-.204 1.899-.04 2.464h-6.63c.45-.565.86-.97 1.227-2.464l.041-.122 1.433-5.696c.368-1.495.204-1.9.04-2.465h5.444l-.246 1.737h.041c.86-1.293 1.556-1.737 3.234-1.737h2.66l-.941 3.556zm-17.354-.566l-1.227 4.768c-.041.161-.082.282-.123.404-.164.323-.41.484-.9.484H47.27c-.45 0-.614-.12-.614-.485 0-.12.04-.242.082-.404l1.227-4.767c.164-.606.41-.849 1.023-.849h2.252c.572 0 .695.243.532.849zm3.03-2.95h-8.473c-2.455 0-3.397 1.01-3.97 3.233l-1.064 4.242c-.04.242-.123.444-.163.687h-5.157s4.174-10.182 4.174-10.222h37.367l.818-2.707H37.571c.327.727.327 1.05-.123 2.788l-4.502 9.939h-.082L30.982 6.222H22.55c.327.727.327 1.05-.123 2.788L18.58 19.677c0 .04 0 .08-.041.12H3.765l-1.31 2.546h18.581c-.286-.646-.245-1.01.123-2.545 0-.04 0-.08.041-.121l3.888-10.788h.041l1.555 10.869.369 2.545H52.1c2.17 0 3.151-.808 3.765-2.546.082-.202.123-.444.205-.686l1.064-4.243c.573-2.182.123-3.192-2.333-3.192z" fill="#E30613"/><path d="M93.518 21.899c-.573 0-1.187-.04-1.678-.323-.614-.364-.491-1.253-.368-1.819.122-.565.286-1.13.409-1.696.368-1.374.573-2.91 1.146-4.202.655-1.495 2.046-1.778 3.56-1.778h7.899c.451 0 .942.04 1.392.202.614.242.614.848.532 1.414-.082.727-.328 1.455-.532 2.182-.164.606-.368 1.212-.532 1.858 0 .04-.819 0-.86 0h-6.835c-.327 0-.818-.08-1.064.162-.163.202-.204.727-.245.97a2.323 2.323 0 00-.123.767c0 .445.205.647.614.647h10.355c.286 0 .736.08.859-.283.246-.849.532-1.657.778-2.505l2.496-8.202c.409-1.293 1.924-2.101 3.233-2.101h8.636c.982 0 3.315-.243 2.537 1.495-.245.565-.532 1.172-.777 1.737-.082.162-.532 1.455-.696 1.455h-3.929V12c.327-.768 1.555-2.99-.286-2.99h-3.929c-.778 0-1.638.283-1.924 1.091l-.246.848c-.45 1.495-.941 2.99-1.391 4.445-.327 1.09-.696 2.182-1.023 3.273-.164.484-.164.97.286 1.333.246.202.573.162.901.162h13.874v-.122c-.246.566-.491 1.132-.778 1.697-.041.122-.082.081-.245.081H93.518v.121h32.209c.164 0 .123-.04.205-.202l.737-1.575v-.122h-14.284c-.532 0-.859-.485-.859-.97v.122c.041-.364.204-.727.286-1.091l.614-1.94c.491-1.535.982-3.11 1.433-4.646.327-1.05.573-2.384 2.046-2.384h3.97c.614 0 1.105.202 1.187.849v-.121c0 .646-.45 1.373-.696 1.98v.12h3.765c.328 0 .45-.646.573-.929.328-.687.614-1.414.942-2.1.163-.364.327-.728.245-1.132-.164-.727-.818-.849-1.432-.849h-9.905c-.859 0-1.637.364-2.292.89-.859.686-1.023 1.737-1.309 2.706-.491 1.536-.942 3.071-1.433 4.607-.409 1.333-.818 2.626-1.227 3.96-.082.242-.123.565-.328.767-.164.161-.696.08-.859.08h-10.15c-.41 0-.655-.08-.696-.565v.121c0-.444.123-.848.246-1.252.081-.283.122-.566.45-.566h7.94c.368 0 .409.08.532-.242.409-1.374 1.023-2.87 1.023-4.283 0-.606-.164-1.01-.819-1.212-.532-.162-1.105-.122-1.637-.122H96.26c-.941 0-1.924.162-2.578.849-.573.566-.819 1.414-1.023 2.182a143.502 143.502 0 01-1.024 4c-.123.525-.245 1.05-.245 1.616 0 .404.082.768.409 1.05.45.364 1.187.364 1.76.364-.041.121-.041 0-.041 0z" fill="#fff"/><path d="M98.797 13.293c-.982.04-1.268.687-1.473 1.495-.123.444-.286.889-.286 1.333 0 .526.818.364 1.187.364h3.028c.328 0 .409-.283.45-.566.123-.525.369-1.131.369-1.697 0-.808-.614-.97-1.31-.97h-1.965v.122h1.638c.695 0 1.596-.081 1.637.889v-.122c-.041.607-.287 1.213-.41 1.819-.122.484-.695.363-1.105.363h-2.169c-.41 0-1.228.162-1.35-.363v.12c.04-.484.245-1.01.368-1.494.205-.768.573-1.212 1.391-1.212v-.081zM84.391 22.02c.778-1.212 1.023-2.788 1.35-4.161.205-.768.41-1.576.574-2.344.082-.364.245-.808.245-1.172 0-.646-.327-1.05-1.023-1.05-.614 0-1.269-.08-1.883 0-.695.08-.94.727-1.105 1.333-.163.687-.327 1.334-.49 2.02l-.737 2.95c-.205.808-.369 1.616-.205 2.465v-.122h-4.87v.122c.777-1.212 1.023-2.788 1.35-4.162.205-.768.41-1.576.573-2.343.082-.364.246-.808.246-1.172 0-.647-.328-1.05-1.023-1.05-.614 0-1.269-.082-1.883 0-.696.08-.941.727-1.105 1.333-.164.687-.327 1.333-.491 2.02-.246.97-.491 1.94-.737 2.95-.204.807-.368 1.616-.204 2.464v-.121h-4.87v.121c.531-.768.736-1.697.94-2.586l.778-2.99c.369-1.414 1.023-3.03.737-4.485v.122h4.215v-.122c-.04.404-.122.768-.122 1.132 0 .161.245.282.409.282.286 0 .41-.242.532-.444.286-.444.655-.848 1.228-.848h3.97c.532 0 1.105-.04 1.637.04.327.08.409.364.45.646.04.243.123.445.41.445.327 0 .408-.323.572-.566.41-.687 1.105-.606 1.76-.606h2.415c.982 0 2.25-.08 2.619 1.05.328 1.132-.205 2.506-.491 3.637-.246.93-.491 1.9-.696 2.828-.204.768-.368 1.617-.204 2.425v-.122h-4.87v.081h4.87v-.12c-.164-.849.081-1.697.286-2.505.205-.768.368-1.535.573-2.303.327-1.212.737-2.505.573-3.758-.164-1.777-2.578-1.373-3.888-1.373h-1.924c-.45 0-.777.242-1.023.606-.163.242-.204.525-.532.565-.286.04-.41-.202-.45-.444-.041-.364-.123-.606-.532-.687-.287-.04-.614-.04-.9-.04H76.86c-.45 0-.778.161-1.064.484-.205.243-.328.606-.614.768-.287.162-.532-.162-.573-.404v.121l.123-.848v-.121h-4.216v.12c.205.85-.082 1.738-.286 2.546-.205.808-.41 1.657-.614 2.465l-.614 2.384c-.205.848-.45 1.656-.9 2.384v.12h4.87v-.12c-.164-.809.082-1.617.245-2.425.164-.687.368-1.414.532-2.1l.573-2.263c.123-.525.205-1.132.696-1.495.491-.364 1.35-.202 1.923-.202.778 0 1.72.08 1.433 1.131-.327 1.293-.655 2.626-.982 3.92-.287 1.171-.491 2.383-1.146 3.393v.121h4.87v-.12c-.164-.809.082-1.617.246-2.425.163-.687.368-1.414.532-2.101.204-.768.368-1.495.573-2.263.122-.525.204-1.131.695-1.495.492-.363 1.351-.202 1.924-.202.778 0 1.719.081 1.432 1.132-.327 1.293-.654 2.626-.982 3.919-.286 1.172-.49 2.384-1.146 3.394-.04.161 0 .202 0 .242zm-27.42 0c.531-.767.736-1.697.94-2.586l.778-2.99c.368-1.414 1.023-3.03.737-4.484v.12h4.46v-.12c-.081.444-.204.929-.204 1.373 0 .283.082.485.41.485.409 0 .777-.768 1.064-1.05.654-.606 1.555-.687 2.414-.687h1.924v-.121l-.41 1.535c-.081.283-.122.566-.204.848-.041.203-.328 0-.491-.04-.941-.242-2.128-.162-3.07-.04-.777.12-1.35.485-1.719 1.171-.245.445-.327.97-.45 1.455a38.038 38.038 0 01-.532 2.06c-.245 1.01-.573 2.061-.368 3.071v-.12h-5.32c.04 0 .04.121.04.121h5.32V21.9c-.245-1.212.328-2.748.656-3.96.245-.97.368-2.222 1.064-2.95.49-.524 1.268-.605 1.923-.646.86-.04 1.842-.12 2.66.162.246.08.205.121.287-.121.082-.283.123-.566.205-.849l.368-1.454v-.121c-.86 0-1.76-.04-2.62 0-.695.04-1.31.242-1.8.727-.246.242-.45.525-.655.808-.246.364-.737.121-.737-.283v.121c.082-.444.123-.848.205-1.293v-.12h-4.461v.12c.164.849-.082 1.738-.287 2.546-.204.808-.409 1.656-.614 2.464l-.613 2.384c-.205.849-.45 1.657-.9 2.384-.042.121 0 .162 0 .202z" fill="#fff"/><path d="M27.38 21.899l-.982-7.03c-.205-1.495-.41-3.03-.655-4.526-.04-.444-.123-.848-.164-1.293-.04-.404-.368-.848-.777-.444-.164.121-.205.485-.246.687a25.44 25.44 0 00-.573 1.616c-.573 1.576-1.146 3.111-1.678 4.687-.45 1.172-.86 2.384-1.31 3.555-.327.89-.613 1.94-.45 2.87v-.122H3.07v.121c.286-.566.573-1.09.859-1.656.123-.202.246-.122.45-.122h14.038c.327 0 .45-.161.573-.444.368-.97.696-1.94 1.064-2.95.9-2.545 1.842-5.05 2.742-7.596.287-.808.532-1.858.328-2.707v.122h7.448c.205 0 .123.12.164.282.082.445.123.89.205 1.334.204 1.535.409 3.07.655 4.565.204 1.576.45 3.152.654 4.768l.205 1.535c.04.243.04.566.205.768.204.243.614.04.695-.162l.164-.323.655-1.454c.696-1.495 1.35-2.99 2.046-4.485.491-1.091 1.023-2.222 1.515-3.313.409-.89.695-2.02.45-2.99v.121h39.617v-.121c-.205.606-.368 1.212-.573 1.818-.04.121-.082.08-.205.08H40.15c-.368 0-.45.405-.573.688l-.86 2.06c-.859 2.101-1.718 4.162-2.537 6.263-.163.444-.368.889-.532 1.333-.04.121-.081.243-.081.364 0 .566.859.404 1.227.404h4.257c.614 0 .573-.849.695-1.293.205-.727.369-1.495.573-2.222.328-1.334.532-3.111 1.72-4.04.94-.768 2.373-.566 3.519-.566h4.911c1.146 0 2.456-.162 3.602.121 1.228.323.941 1.616.696 2.545-.164.607-.287 1.213-.45 1.819-.369 1.373-.574 3.192-1.474 4.323-.737.93-1.965.97-3.07.97H27.38v.12h24.76c.942 0 1.883-.12 2.58-.807.613-.606.859-1.495 1.022-2.263.328-1.333.655-2.667 1.024-4 .122-.566.245-1.09.245-1.697 0-1.09-1.064-1.293-1.964-1.293-2.62-.08-5.28 0-7.94 0-1.31 0-2.66-.04-3.52 1.091-.45.606-.655 1.374-.86 2.101-.163.727-.368 1.414-.531 2.142-.164.605-.287 1.212-.45 1.818-.082.363-.041.929-.533 1.01-.122.04-.286 0-.409 0h-4.502c-.327 0-.696.04-.736-.404v.12c.081-.444.327-.888.531-1.332.205-.526.45-1.091.655-1.617.45-1.09.9-2.141 1.31-3.232.573-1.374 1.105-2.747 1.678-4.121.164-.404.737-.283 1.064-.283h36.343c.123 0 .532-1.737.614-1.94v-.12H38.103v.12c.286 1.253-.368 2.546-.86 3.637-.654 1.414-1.31 2.869-1.964 4.283-.573 1.293-1.187 2.586-1.76 3.879-.123.282-.204.606-.491.767-.45.283-.614-.323-.655-.646-.41-2.828-.777-5.697-1.187-8.525a115.817 115.817 0 00-.532-3.718c0-.04-.04-.484-.082-.484h-7.49v.12c.287 1.173-.327 2.506-.736 3.597l-1.596 4.363c-.491 1.374-1.023 2.788-1.514 4.162-.123.283-.205.566-.328.889-.123.363-.286.404-.614.404H4.297c-.327 0-.286 0-.45.323-.245.485-.532.97-.777 1.495v.121h17.434v-.12c-.204-1.132.369-2.344.737-3.435.532-1.455 1.023-2.869 1.555-4.323.532-1.415 1.023-2.87 1.556-4.283.122-.324.245-.687.368-1.01.164-.445.777-.404.818.08l1.842 13.05c0 .082 0 .041 0 0z" fill="#fff"/><path d="M48.908 13.293c-.86.04-1.228.566-1.433 1.333l-.49 1.94c-.206.727-.37 1.495-.574 2.222-.082.364-.205.687-.205 1.05 0 .89.819.89 1.515.89.655 0 1.31.04 1.964 0 .86-.041 1.146-.809 1.31-1.496.164-.727.368-1.414.532-2.141l.491-1.94c.082-.282.164-.605.164-.888 0-.89-.778-.93-1.474-.93h-1.8v.122h1.596c.736 0 1.719-.081 1.719.889v-.122c-.041.526-.205 1.01-.328 1.495-.204.808-.409 1.576-.614 2.384-.122.445-.204.889-.327 1.333-.164.606-.491 1.01-1.105 1.132-.246.04-.573.04-.819.04-.654 0-1.35.04-2.005 0-1.023-.08-.696-1.131-.532-1.818.327-1.374.696-2.707 1.023-4.08.205-.769.573-1.213 1.392-1.253v-.162z" fill="#fff"/><path d="M130.72 8.485c0 1.09-.9 1.858-1.923 1.858-1.023 0-1.924-.767-1.924-1.858 0-1.091.901-1.859 1.924-1.859s1.923.768 1.923 1.859zm-.409 0c0-.89-.655-1.536-1.514-1.536-.86 0-1.514.647-1.514 1.536s.654 1.535 1.514 1.535c.859.04 1.514-.646 1.514-1.535zm-1.882 1.09h-.369v-2.14h.819c.532 0 .777.201.777.605 0 .404-.245.566-.573.606l.614.93h-.368l-.573-.93h-.368v.93h.041zm.409-1.252c.204 0 .491-.04.491-.323 0-.283-.246-.323-.491-.323h-.45v.606h.45v.04z" fill="#E30613"/><path d="M38.021 24.889h-1.023v-.202h2.292v.202h-1.023v2.95h-.246v-2.95zm3.397 1.899H40.19l-.368 1.05h-.246l1.105-3.151h.287l1.105 3.151h-.328l-.327-1.05zm-.082-.202l-.204-.566c-.164-.444-.246-.808-.369-1.09-.082.282-.204.646-.327 1.09l-.205.566h1.105zm1.433-1.9h.286l1.31 2.183.368.646v-2.869h.246v3.152h-.287l-1.31-2.182-.368-.646v2.828h-.245v-3.111zm3.356 0h.245v1.738l1.514-1.737h.287l-1.023 1.172 1.146 1.98h-.287l-1.023-1.778-.614.727v1.09h-.245v-3.191zm2.619 1.86h1.064v.201h-1.064v-.201zm2.456-1.657h-1.024v-.202h2.292v.202h-1.023v2.95H51.2v-2.95zm3.888 2.95l-.86-1.415h-.655v1.414h-.245v-3.151h.941c.328 0 .614.08.778.202.204.121.286.364.286.646a.984.984 0 01-.204.606c-.123.162-.328.243-.573.283l.859 1.455h-.327v-.04zm-.9-1.617c.286 0 .49-.04.654-.161.164-.122.205-.283.205-.526 0-.242-.082-.404-.205-.485a1.409 1.409 0 00-.655-.161h-.614v1.293h.614v.04zm2.332 1.374c-.205-.202-.287-.525-.287-.97v-1.94h.246v1.9c0 .404.082.646.246.808a.839.839 0 00.614.242c.245 0 .45-.08.614-.242.163-.162.245-.444.245-.808v-1.9h.246v1.94c0 .445-.082.808-.287.97-.204.202-.45.283-.777.283a1.02 1.02 0 01-.86-.283zm3.52.121c-.205-.121-.369-.323-.491-.566-.123-.242-.164-.525-.164-.848 0-.323.04-.606.164-.848.122-.243.286-.445.49-.566a1.43 1.43 0 01.737-.202c.164 0 .328.04.491.121.164.08.246.162.369.283l-.164.162c-.205-.203-.41-.324-.696-.324-.204 0-.409.04-.573.162a1.104 1.104 0 00-.368.485 1.934 1.934 0 00-.123.727c0 .283.041.525.123.768.082.202.205.363.368.485.164.12.369.161.573.161.164 0 .287-.04.45-.08.123-.081.246-.162.369-.283l.164.161c-.123.162-.287.243-.41.323-.122.081-.327.122-.532.122-.368-.04-.573-.122-.777-.243zm2.537-3.03h.246v1.737l1.514-1.737h.287L63.6 25.859l1.146 1.98h-.286l-1.023-1.778-.614.727v1.09h-.246v-3.191zm4.175 0h1.76v.202h-1.515v1.172h1.269v.202h-1.269v1.333h1.555v.202h-1.8v-3.111zm5.238 3.879c-.122.04-.245.04-.409.04-.246 0-.491-.08-.655-.202a.895.895 0 01-.409-.525 1.396 1.396 0 01-.614-.243c-.164-.161-.327-.323-.41-.565-.081-.243-.163-.526-.163-.808 0-.324.041-.606.164-.849.123-.242.286-.444.491-.566a1.28 1.28 0 01.696-.201c.245 0 .49.08.695.202.205.12.369.323.45.565.123.243.164.525.164.849 0 .323-.04.565-.163.808a1.205 1.205 0 01-.41.565c-.163.122-.368.243-.614.243.082.161.164.283.328.363a1.1 1.1 0 00.491.122c.123 0 .246 0 .327-.04l.041.242zm-2.25-1.536c.081.202.204.404.368.485a.83.83 0 00.532.162c.204 0 .41-.04.573-.162a1.11 1.11 0 00.368-.485c.082-.202.123-.485.123-.767 0-.283-.041-.526-.123-.728a1.105 1.105 0 00-.368-.485c-.164-.12-.328-.161-.573-.161-.205 0-.41.04-.573.162a1.104 1.104 0 00-.368.484 1.934 1.934 0 00-.123.728c0 .282.082.525.163.767zm3.52.566c-.206-.202-.287-.525-.287-.97v-1.94h.245v1.9c0 .404.082.646.246.808a.839.839 0 00.614.242c.245 0 .45-.08.614-.242.163-.162.245-.444.245-.808v-1.9h.246v1.94c0 .445-.082.808-.287.97-.204.202-.45.283-.777.283-.41.04-.655-.081-.86-.283zm3.028-2.91h.245v3.152h-.245v-3.151zm1.432 0h.819c.368 0 .654.082.86.203.204.121.286.364.286.687 0 .323-.082.525-.287.687-.204.161-.491.242-.86.242h-.572v1.333h-.246v-3.151zm.778 1.617c.327 0 .573-.04.695-.162.164-.12.246-.282.246-.565 0-.243-.082-.445-.245-.526a1.652 1.652 0 00-.737-.161h-.491v1.414h.532zm2.169-1.616h.368l.655 1.818.246.687c.04-.08.081-.202.122-.364l.123-.363.655-1.819h.368v3.152h-.245v-2.02c0-.162 0-.445.04-.89l-.245.728-.696 1.818h-.204l-.696-1.818-.246-.727c0 .364.041.646.041.889v2.02h-.245v-3.111h-.041zm3.683 0h1.76v.202h-1.514v1.172h1.269v.202h-1.27v1.333h1.556v.202h-1.8v-3.111zm2.783 0h.287l1.31 2.182.368.646v-2.869h.245v3.152h-.286l-1.31-2.182-.368-.646v2.828h-.246v-3.111zm4.011.202h-1.023v-.202h2.292v.202H91.39v2.95h-.246v-2.95z" fill="#636569"/></svg>