<svg width="112" height="19" viewBox="0 0 112 19" fill="none" xmlns="http://www.w3.org/2000/svg"><g clip-path="url(#clip0_1301_1388)" fill="#ED1C24"><path d="M42.626 8.697c-.083 0-.167.001-.253.004H28.037V19h7.168v-3.156h1.76L39.16 19h8.562l-3.169-3.417c3.535-1.352 3.304-6.87-1.928-6.886zm-7.421 2.618h2.773c2.58 0 2.621 1.914.043 1.914h-2.816v-1.914z"/><path d="M108.04 0c-.075 0-.151 0-.227.002H0V19h12.435V7.11h95.378c6.141-.515 4.927-7.033.227-7.11zM81.48 2.653c7.686.002 12.827.006 12.868.014 1.097.229 1.18 1.437 0 1.765H12.436V2.667s45.982-.018 69.044-.014z"/><path d="M16.687 19h7.124V8.7h-7.124V19zM50.833 8.7V19h15.562v-2.602h-8.268v-1.371h7.424V12.49h-7.378v-1.175h7.674V8.7H50.833zm19.367 0V19h14.038v-2.632h-6.703V8.7H70.2zm15.873 0V19h14.036v-2.632h-6.7V8.7h-7.336zM102.222 19h7.126V8.7h-7.126V19z"/></g><defs><clipPath id="clip0_1301_1388"><path fill="#fff" d="M0 0h112v19H0z"/></clipPath></defs></svg>