<svg width="120" height="20" viewBox="0 0 120 20" fill="none" xmlns="http://www.w3.org/2000/svg"><g clip-path="url(#clip0_1301_1222)"><path d="M110.349.442H13.354a11.756 11.756 0 00-2.675-.294A9.24 9.24 0 007.47.714a9.718 9.718 0 00-7.423 9.448 9.717 9.717 0 007.678 9.507 11.24 11.24 0 003.3.474c.964 0 1.842-.091 2.635-.261h96.689c5.355 0 9.698-4.352 9.698-9.72s-4.343-9.72-9.698-9.72z" fill="#fff"/><path d="M73.533 7.55c-.711-.023-.87.403-.87.403l-1.898 5.474a.983.983 0 00-.04.172c.012.19.107.52.818.544.71.025.87-.402.87-.402l1.911-5.471s.028-.157.028-.175c-.014-.19-.11-.521-.82-.544zm46.514 2.612c0-2.28-.785-4.376-2.098-6.034l-4.77 13.713s-.235.943.355 1.223c.2.082.419.078.627.036a9.72 9.72 0 005.886-8.938zM65.743 5.133l1.76-4.691h-3.237l-1.598 4.69 3.075.001z" fill="#014688"/><path d="M109.774 18.592l.9-2.726c-.588.754-1.677.824-2.531.803-.652-.072-1.312-.378-1.675-.996-.261-.356-.401-.934-.241-1.43l2.342-6.788c.404-1.128 1.491-2.177 2.68-2.303 0 0 1.804-.229 2.832 1.007l1.473-4.196a9.632 9.632 0 00-5.205-1.521H89.914L84.227 16.65v-.003h-3.144L86.773.442H85.05L79.363 16.65v-.002h-3.145L81.908.442h-11.26l-5.719 16.206h-3.181l3.05-8.786H61.72l-4.352 12.02h52.347c-.136-.713.058-1.29.058-1.29zm-37.237-1.948s-2.052.003-3.083-.007c-.654.007-1.314-.378-1.675-.994-.208-.363-.387-.939-.243-1.43l2.342-6.789c.405-1.127 1.491-2.176 2.68-2.302h2.848c.955.114 1.79.567 2.123 1.705.112.363.064.743-.004 1.07-.784 2.379-1.584 4.732-2.48 7.06-.483 1.122-1.69 1.687-2.508 1.686zm18.411.006l.286-.813c-.588.753-1.678.823-2.53.802-.655-.072-1.313-.378-1.676-.995-.17-.43-.35-.955-.242-1.43l2.343-6.788c.404-1.128 1.49-2.176 2.68-2.302 0 0 1.804-.231 2.832 1.006l.363-1.044 3.145.006-4.056 11.559v-.001h-3.145zm9.838-.004l2.956-8.452s.184-.514-.656-.612c-.747-.088-.971.411-.981.435-.065.165-3.033 8.627-3.033 8.627l-3.143-.002 4.077-11.547h3.136l-.158.536s1.389-1 2.874-.293c1.483.707 1.075 2.534 1.075 2.534l-3.036 8.774h-3.111z" fill="#014688"/><path d="M92.777 7.613c-.71-.025-.87.402-.87.402l-1.897 5.473a.9.9 0 00-.042.172c.014.19.108.521.82.545.709.024.868-.402.868-.402l1.911-5.473s.03-.156.028-.173c-.014-.19-.108-.521-.818-.544zm18.321 6.219l1.911-5.471s.044-.158.047-.175c.025-.115-.129-.52-.84-.544-.709-.024-.87.402-.87.402l-1.896 5.473a1.011 1.011 0 00-.041.172c.013.191.108.522.817.546.711.024.872-.403.872-.403z" fill="#014688"/><path d="M2.86 13.357h4.058c0 2.541 1.977 3.532 4.218 3.532 1.469 0 3.711-.428 3.711-2.382 0-2.06-2.855-2.408-5.66-3.158C6.357 10.6 3.5 9.502 3.5 5.917c0-2.61 1.645-4.31 3.763-5.153a9.72 9.72 0 00-7.217 9.398 9.717 9.717 0 007.393 9.44c-2.648-.895-4.616-2.913-4.58-6.245zm27.95-6.8L29.437.442h-.645l-1.405 6.11 3.423.005zm-5.752 7.216l-1.845 6.109H34.69l-1.585-6.109h-8.047z" fill="#E0041D"/><path d="M33.001.442l2.937 8.856H22.28L25.335.442H13.348c2.782.667 4.918 2.477 4.918 5.849h-4.058c-.134-2.301-1.763-2.889-3.766-2.889-1.335 0-2.884.561-2.884 2.167 0 1.471.909 1.66 5.69 2.89 1.386.347 5.658 1.231 5.658 5.566 0 2.841-1.807 5.101-5.249 5.857h5.113l3.094-8.892h14.617l2.638 8.892h1.296V.442H33zm20.606 0v3.625h-9.104v4.424h7.906v3.335h-7.906v8.056h9.617L61.028.442h-7.421z" fill="#E0041D"/></g><defs><clipPath id="clip0_1301_1222"><path fill="#fff" d="M0 0h120v20H0z"/></clipPath></defs></svg>