<svg width="116" height="39" viewBox="0 0 116 39" fill="none" xmlns="http://www.w3.org/2000/svg"><path d="M33.299 38.55h-2.677l-5.498-13.08h3.84l3.095 8.328h.054l3.04-8.327h3.62l-5.474 13.08zm25.871-9.698a3.388 3.388 0 00-1.657-.468c-.773 0-1.49.274-2.403 1.017v9.069h-3.73v-13h3.15l.415 1.348c1.19-1.044 2.209-1.649 3.591-1.649.635 0 1.41.193 1.988.605l-1.353 3.078zm5.491 9.892c-2.238 0-3.924-.523-5.168-1.292l1.162-2.692c1.104.768 2.405 1.208 3.647 1.208 1.27 0 2.073-.411 2.073-1.181 0-2.061-6.053-1.236-6.053-5.633 0-2.391 1.935-3.985 5.111-3.985 1.743 0 2.958.248 4.034.66v3.078c-1.187-.47-2.457-.88-3.866-.88-1.078 0-1.66.3-1.66.934 0 1.785 6.161 1.126 6.161 5.661 0 2.995-2.651 4.122-5.441 4.122zm11.254 0c-2.433 0-3.345-1.374-3.345-3.133v-6.884h-2.404v-2.915h2.404V22.45l3.731-1.1v4.463h4.089l-.737 2.915h-3.352v5.484c0 .96.386 1.427 1.243 1.427.8 0 1.63-.356 2.127-.66l.967 2.31c-1.49 1.072-3.427 1.456-4.723 1.456zm12.519-6.155l-1.629.054c-1.603.056-2.377.606-2.377 1.595 0 .987.718 1.62 1.99 1.62.994 0 1.658-.33 2.016-.605V32.59zm.912 5.88l-.58-1.127c-.856.77-2.015 1.402-3.703 1.402-2.486 0-4.362-1.648-4.362-4.234 0-2.747 2.236-4.176 5.55-4.286l2.212-.08v-.222c0-1.372-1.105-1.95-2.402-1.95a6.815 6.815 0 00-3.344.88l-1.136-2.254c1.797-1.156 3.51-1.429 5.279-1.429 3.482 0 5.416 1.401 5.416 4.836v8.481l-2.93-.016zm8.331.017V17.599l-3.757 1.13v19.757h3.757zm-91.551.258c-2.629 0-4.506-.852-6.088-1.816l1.66-3.097c1.26.848 3.05 1.806 4.212 1.806 1.196 0 2.757-.39 2.757-1.77 0-2.39-4.312-2.817-6.523-5.317-.688-.797-1.159-1.814-1.159-3.216 0-2.747 2.183-5.168 6.189-5.168 1.935 0 3.535.496 4.587 1.101l-.055 3.468c-1.547-.824-3.017-1.546-4.51-1.546-1.354 0-2.247.598-2.247 1.641 0 3.134 7.833 2.866 7.833 8.556 0 3.297-2.929 5.358-6.656 5.358zm37.916-10.848c-1.486 0-2.34 1.367-2.34 2.547h4.706c-.083-1.234-.77-2.547-2.366-2.547zm-2.258 5.091c.083 1.75 1.734 2.791 3.467 2.791 1.266 0 2.231-.245 3.694-.93l.854 2.355c-1.821 1.12-3.611 1.505-5.153 1.505-4.676 0-6.606-3.286-6.606-6.679 0-3.668 2.204-6.845 6.11-6.845 3.58 0 6.057 2.656 6.057 6.68v1.123h-8.422zm-22.105-5.091c-1.487 0-2.338 1.367-2.338 2.547h4.706c-.082-1.234-.773-2.547-2.368-2.547zm-2.258 5.091c.084 1.75 1.736 2.791 3.47 2.791 1.266 0 2.228-.245 3.693-.93l.854 2.355c-1.823 1.12-3.613 1.505-5.154 1.505-4.678 0-6.604-3.286-6.604-6.679 0-3.668 2.203-6.845 6.108-6.845 3.578 0 6.056 2.656 6.056 6.68v1.123h-8.423z" fill="#005DA3"/><path d="M113.359 14.256c.24-.075.472-.2.698-.36.348-.89.669-1.882.957-2.984h-.001c.38-1.46.61-2.778.723-3.962a16.3 16.3 0 00.009-3.201c-.104-.98-.363-1.98-.952-2.555-.587-.575-1.594-.817-2.584-.901a15.269 15.269 0 00-.653-.034h-1.049c-.477.014-.98.048-1.508.105.254.115.48.255.666.421.589.538.865 1.452.984 2.348.087.653.124 1.37.098 2.154-.041 1.268-.245 2.713-.672 4.353a21.343 21.343 0 01-1.143 3.318c.66.404 1.292.726 1.891.972.842.346 1.777.566 2.536.326z" fill="#006FB3"/><path d="M99.432 11.54c-.055.245-.061.51-.035.787.6.741 1.3 1.51 2.113 2.307a25.072 25.072 0 003.106 2.603 17.313 17.313 0 002.769 1.607c.902.415 1.906.681 2.7.463.794-.22 1.509-.97 2.077-1.78a16.18 16.18 0 001.552-2.802c-.23.164-.468.294-.712.37-.761.24-1.695.019-2.536-.327a13.271 13.271 0 01-1.927-.991c-1.08-.67-2.236-1.569-3.452-2.755v-.002a21.445 21.445 0 01-2.315-2.642c-.681.366-1.275.747-1.789 1.141-.721.553-1.38 1.246-1.551 2.022z" fill="#E3E3E3"/><path d="M108.751.882a2.482 2.482 0 00-.632-.403c-.955.142-1.985.358-3.1.665a25.696 25.696 0 00-3.804 1.356c-1.093.5-2.01 1.033-2.774 1.58-.814.58-1.566 1.311-1.774 2.112-.207.802.094 1.802.521 2.703a16.48 16.48 0 001.657 2.72 2.527 2.527 0 01.035-.802c.172-.773.831-1.47 1.551-2.022.523-.4 1.127-.789 1.824-1.16 1.123-.598 2.487-1.145 4.129-1.599a21.54 21.54 0 013.451-.672 12.943 12.943 0 00-.1-2.13c-.119-.896-.394-1.812-.984-2.348z" fill="#DE1E25"/></svg>