<svg width="63" height="21" viewBox="0 0 63 21" fill="none" xmlns="http://www.w3.org/2000/svg"><path d="M10.243 2.913h-.746c-2.238 0-3.97.93-3.97 2.951 0 1.311.932 1.885 1.971 2.377L9.95 9.333c2.025.902 3.758 2.296 3.758 5.165 0 4.097-3.012 6.474-7.809 6.474h-.88c-1.252 0-3.01-.327-4.263-.737-.48-.137-.747-.438-.747-.902 0-.082 0-.19.24-1.338.107-.465.374-.766.746-.766.107 0 .214 0 .347.055 1.173.465 2.932.82 4.184.82h.692c2.213 0 3.892-1.12 3.892-3.278 0-1.503-1.04-2.159-2.399-2.76l-2.319-1.038c-1.518-.71-3.41-2.213-3.41-4.917 0-3.99 3.49-6.066 7.887-6.066h.614c1.065 0 2.638.246 3.864.683.507.164.774.436.774.901 0 .082 0 .164-.214 1.23-.107.465-.4.819-.826.819a.795.795 0 01-.32-.081c-1.04-.41-2.532-.684-3.518-.684zm13.869 0h-.746c-2.239 0-3.971.93-3.971 2.951 0 1.311.932 1.885 1.972 2.377l2.452 1.092c2.025.902 3.758 2.296 3.758 5.165 0 4.097-3.012 6.474-7.81 6.474h-.878c-1.253 0-3.012-.327-4.264-.737-.48-.137-.747-.438-.747-.902 0-.082 0-.19.24-1.338.107-.465.373-.766.746-.766.107 0 .213 0 .347.055 1.172.465 2.931.82 4.184.82h.693c2.211 0 3.89-1.12 3.89-3.278 0-1.503-1.038-2.159-2.398-2.76l-2.318-1.038c-1.52-.71-3.412-2.213-3.412-4.917 0-3.99 3.491-6.066 7.889-6.066h.612c1.067 0 2.639.246 3.865.683.506.164.773.436.773.901 0 .082 0 .164-.213 1.23-.107.465-.4.819-.826.819a.795.795 0 01-.32-.081c-1.04-.41-2.532-.684-3.518-.684zm29.316.192l-1.2 5.928h3.704c2.026 0 3.465-1.775 3.465-3.743 0-1.475-.932-2.185-2.665-2.185h-3.304zm-1.759 8.633l-1.252 6.175h3.997c2.345 0 3.597-1.585 3.597-3.744 0-1.556-1.225-2.431-2.878-2.431H51.67zM50.443 1.247c.133-.602.533-.984 1.173-.984h6.182c3.278 0 5.197 1.476 5.197 4.535 0 2.487-1.598 4.672-3.864 5.6 1.412.602 2.398 1.969 2.398 3.853 0 3.716-2.558 6.503-6.876 6.503H47.38c-.534 0-.828-.273-.828-.71 0-.082.028-.3.054-.41l3.838-18.387zM29.984 20.754h-1.572c-.48 0-.773-.219-.773-.574 0-.137.026-.273.08-.41C30.57 12.285 35.074 4.142 37.979.263h4.344c.96 3.77 2.398 11.448 2.505 19.507 0 .602-.32.984-.96.984h-1.625c-.613 0-1.013-.382-1.013-.984-.054-6.147-.96-12.814-1.786-16.584-2.798 4.262-6.023 10.765-8.234 16.584-.24.602-.64.984-1.226.984z" fill="#123167"/><path d="M36.013 12.214c-.462-.262-.84-.034-.84.507v4.208c0 .542.378.77.84.507l3.761-2.135c.462-.261.462-.69 0-.952l-3.761-2.135z" fill="#123167"/></svg>