<svg width="149" height="24" viewBox="0 0 149 24" fill="none" xmlns="http://www.w3.org/2000/svg"><path d="M110.419 8.923c.089 2.308.233 5.074-6.151 5.105h-6.37c-6.488.022-5.963-3.446-6.167-5.296V3.637c0-1.989 1.137-3.637 6.196-3.616h5.903c5.539-.021 6.633 1.627 6.633 3.616v.978h-7.317c0-1.233-.365-1.999-1.444-2.105h-1.18c-1.08-.011-1.444.967-1.444 2.201v3.17c.102 1.245.044 3.244 1.619 3.255h.845c1.268.02 1.487-.968 1.56-2.223l7.317.01zM43.487.193l-2.274 9.835-2.8-9.836h-9.2l-2.815 9.836-2.26-9.836H17.14l4.069 13.655H32.04l1.793-8.68 1.75 8.68h10.85L50.485.192h-6.999zm11.164 0l-5.542 13.65h7.395l.657-1.968h5.308l.715 1.968h7.656L65.079.193H54.651zm5.265 4.117l1.663 4.862H58.15l1.765-4.862zm22.839 5.734c0 .49-.51.948-1.196.905h-2.23V8.076h2.187c.67 0 1.239.415 1.239.905v1.063zm-3.427-7.351h2.144c.671 0 1.24.414 1.24.904v.968c0 .49-.569.904-1.24.904h-2.144V2.693zm8.46 3.776c2.814-.266 2.697-2.52 2.697-2.52V2.734C90.5.926 89.041.139 87.175.192H71.628v13.662H85.41c1.823.042 5.235-.182 5.279-3.267l.015-1.107s.073-2.457-2.917-3.01zm31.502-1.83c0-1.234.364-2.213 1.443-2.202h2.129c1.05-.01 1.575.968 1.532 2.203v3.234c0 1.213-.103 3.202-1.692 3.213h-1.648c-1.575-.01-1.75-1.957-1.765-3.213l.001-3.234zm-7.527-1.01v5.096c.102 1.968.089 5.288 6.17 5.299h7.73c6.112-.011 6.169-3.347 6.198-5.286V3.625c-.003-1.987-2.232-3.613-4.955-3.614h-10.187c-2.726.001-4.956 1.63-4.956 3.618z" fill="#005AA9"/><path d="M23.686 19.617a1.524 1.524 0 00-.39-.32 2.282 2.282 0 00-1.146-.293c-.394 0-.728.055-1.003.166-.269.107-.498.26-.668.447-.17.187-.295.4-.373.638-.078.242-.118.49-.117.74 0 .243.04.48.117.71.078.23.202.437.373.621.17.184.394.332.668.443.275.111.61.167 1.003.167.534 0 .952-.12 1.253-.358.3-.238.484-.552.55-.942h1.693c-.044.363-.16.69-.345.983-.186.292-.43.541-.735.747a3.49 3.49 0 01-1.069.471A5.25 5.25 0 0122.15 24a5.417 5.417 0 01-1.643-.232 3.715 3.715 0 01-1.23-.637 2.8 2.8 0 01-.77-.955 2.66 2.66 0 01-.266-1.182 2.751 2.751 0 011.035-2.177 3.692 3.692 0 011.23-.65 5.337 5.337 0 011.644-.236c.438 0 .852.046 1.241.138.39.093.739.226 1.047.402.308.177.562.394.763.654.2.26.326.558.378.894h-1.692a.884.884 0 00-.2-.402zm8.998 3.81c-.6.382-1.432.573-2.494.573-1.077 0-1.91-.19-2.5-.569-.59-.379-.886-.964-.886-1.755V18.07h1.749v3.607c0 .158.018.312.055.464a.832.832 0 00.234.401 1.3 1.3 0 00.496.285c.211.073.495.11.852.11.623 0 1.054-.102 1.292-.305.237-.203.356-.521.356-.955V18.07h1.748v3.607c0 .786-.3 1.37-.901 1.751zm3.742-.987c.097.136.225.245.384.33.16.083.347.145.563.186.215.04.438.061.668.061.156 0 .323-.01.5-.029.175-.017.344-.054.502-.11.152-.05.285-.127.39-.223a.468.468 0 00.156-.361.449.449 0 00-.206-.382 1.809 1.809 0 00-.54-.243 6.971 6.971 0 00-.758-.171c-.287-.05-.573-.104-.857-.163a9.67 9.67 0 01-.869-.199 3.411 3.411 0 01-.757-.304 1.665 1.665 0 01-.54-.468 1.112 1.112 0 01-.206-.678c0-.298.087-.556.262-.776.174-.219.402-.402.684-.548.283-.146.602-.254.958-.325.349-.07.708-.105 1.07-.105.415 0 .814.034 1.197.101.382.068.721.178 1.019.329.295.15.537.35.707.581a1.4 1.4 0 01.261.857h-1.692a.82.82 0 00-.15-.43.873.873 0 00-.34-.269 1.785 1.785 0 00-.485-.138 4.051 4.051 0 00-.596-.04c-.14 0-.282.01-.423.032a1.4 1.4 0 00-.384.114.894.894 0 00-.284.203.44.44 0 00-.111.309c0 .114.03.206.089.276.059.07.176.135.35.195.175.06.416.12.724.179.402.077.805.153 1.209.227.148.022.354.061.618.118.263.057.525.147.785.272.26.125.484.291.674.5.189.208.284.475.284.8 0 .265-.071.512-.212.74-.141.227-.35.423-.63.588a3.536 3.536 0 01-1.035.386 6.611 6.611 0 01-1.43.138c-.439 0-.864-.04-1.276-.118a3.838 3.838 0 01-1.091-.37 2.132 2.132 0 01-.752-.641 1.495 1.495 0 01-.267-.926h1.693c0 .195.048.36.144.495zm5.267-3.298V18.07h6.515v1.072h-2.383v4.728h-1.748v-4.728h-2.384zm7.35.646c.178-.371.434-.695.769-.971a3.694 3.694 0 011.23-.65 5.337 5.337 0 011.643-.236c.616 0 1.165.079 1.648.236a3.7 3.7 0 011.225.65 2.75 2.75 0 011.036 2.177c0 .422-.09.816-.267 1.182a2.798 2.798 0 01-.769.955c-.334.27-.742.483-1.225.637-.483.155-1.032.232-1.648.232a5.418 5.418 0 01-1.643-.232 3.718 3.718 0 01-1.23-.637 2.8 2.8 0 01-.769-.955 2.662 2.662 0 01-.267-1.182c0-.433.09-.835.267-1.206zm1.598 1.917c.078.23.203.437.373.621.171.184.394.332.668.443.275.111.61.167 1.003.167.393 0 .727-.056 1.002-.167.275-.11.497-.258.668-.443.17-.184.295-.39.373-.621a2.2 2.2 0 00.117-.71c0-.255-.039-.502-.117-.74a1.738 1.738 0 00-.373-.638c-.17-.186-.4-.34-.668-.447-.275-.11-.609-.166-1.002-.166-.394 0-.728.055-1.003.166-.269.107-.498.26-.668.447-.17.187-.295.4-.373.638-.078.242-.117.49-.116.74 0 .243.038.48.116.71zm9.605-3.635l1.86 3.988h.022l1.76-3.988h2.461v5.8h-1.637v-4.11h-.022l-1.949 4.11h-1.347l-1.95-4.07h-.022v4.07h-1.636v-5.8h2.46zm13.586 0v1.072h-4.198v1.243h3.853v.99h-3.853v1.423h4.288v1.072h-6.036v-5.8h5.947zm5.557 0c.357 0 .678.041.964.125.285.084.53.2.735.346.202.144.36.317.467.507.108.193.162.4.162.622 0 .341-.099.636-.295.885-.197.25-.518.439-.964.569v.016c.215.044.394.11.535.2a1.23 1.23 0 01.54.718c.04.146.069.293.084.439.007.092.015.2.022.325.007.125.02.252.04.382.017.13.047.253.088.37.04.116.102.214.184.296h-1.749a1.731 1.731 0 01-.178-.658 7.287 7.287 0 00-.1-.731c-.06-.304-.186-.526-.379-.667-.193-.14-.508-.21-.946-.21H76.85v2.266h-1.748v-5.8h4.287zm-.623 2.623c.4 0 .701-.065.902-.195.2-.13.3-.34.3-.633 0-.282-.1-.486-.3-.614-.2-.127-.501-.19-.902-.19H76.85v1.633h1.916zm12.572-1.076a1.525 1.525 0 00-.39-.32 2.068 2.068 0 00-.528-.216 2.439 2.439 0 00-.618-.077c-.394 0-.728.055-1.003.166-.269.107-.498.26-.668.447-.17.187-.295.4-.373.638-.078.242-.118.49-.117.74 0 .243.04.48.117.71.078.23.202.437.373.621.171.184.394.332.668.443.275.111.609.167 1.003.167.534 0 .952-.12 1.252-.358.301-.238.485-.552.552-.942h1.692c-.044.363-.16.69-.345.983a2.55 2.55 0 01-.735.747 3.49 3.49 0 01-1.069.471 5.25 5.25 0 01-1.347.163 5.417 5.417 0 01-1.643-.232 3.715 3.715 0 01-1.23-.637 2.802 2.802 0 01-.77-.955 2.662 2.662 0 01-.266-1.182 2.753 2.753 0 011.035-2.177 3.692 3.692 0 011.231-.65 5.335 5.335 0 011.643-.236c.438 0 .851.046 1.241.138.39.093.74.226 1.047.402.308.177.563.394.763.654.2.26.327.558.379.894h-1.693a.887.887 0 00-.2-.402zm9.099-1.547v1.072h-4.199v1.243h3.853v.99h-3.853v1.423h4.288v1.072H94.49v-5.8h5.947zm3.006 0l3.319 3.89h.023v-3.89h1.636v5.8h-1.748l-3.307-3.883h-.023v3.883h-1.637v-5.8h1.737zm5.892 1.072V18.07h6.514v1.072h-2.383v4.728h-1.748v-4.728h-2.383zm11.715-1.072c.356 0 .677.041.963.125.286.084.531.2.735.346.202.144.361.317.468.507.107.193.161.4.161.622 0 .341-.098.636-.295.885-.197.25-.518.439-.963.569v.016c.215.044.393.11.534.2a1.224 1.224 0 01.54.719c.041.145.069.292.084.438.007.092.015.2.022.325.008.125.021.252.039.382.019.13.049.253.089.37a.77.77 0 00.184.296h-1.748a1.717 1.717 0 01-.178-.658 7.26 7.26 0 00-.101-.731c-.059-.304-.185-.526-.378-.667-.193-.14-.509-.21-.947-.21h-1.748v2.266h-1.748v-5.8h4.287zm-.624 2.623c.401 0 .702-.065.902-.195.201-.13.301-.34.301-.633 0-.282-.1-.486-.301-.614-.2-.127-.501-.19-.902-.19h-1.915v1.633h1.915zm10.323-2.623v1.072h-4.198v1.243h3.853v.99h-3.853v1.423h4.287v1.072h-6.036v-5.8h5.947z" fill="#6D7782"/></svg>