<svg width="124" height="27" viewBox="0 0 124 27" fill="none" xmlns="http://www.w3.org/2000/svg"><g clip-path="url(#clip0_1301_1385)"><path d="M86.385 22.55h5.321l-3.79-6.676c2.113-.89 3.28-2.67 3.28-4.896 0-3.412-2.187-5.637-6.561-5.637h-8.383v17.208h4.592v-6.008h2.333l3.207 6.008zm.145-11.572c0 1.187-.802 2.077-2.551 2.077H80.77V8.901h3.208c1.75 0 2.551.89 2.551 2.077zm-18.516-.816v5.49c0 2.521-1.166 3.337-2.77 3.337-1.53 0-2.77-.89-2.77-3.338v-5.563h-4.666v5.786c0 4.524 2.479 7.046 7.509 7.046s7.436-2.522 7.436-6.972v-5.786h-4.739zm-5.54-1.558V5.341h-4.666v3.263h4.666zm5.54 0h4.666V5.341h-4.666v3.263zm-29.597 8.16L36.012 5.34h-4.666l4.301 17.208h4.957l2.916-11.274 2.916 11.274h4.957L55.694 5.34H51.03l-2.406 11.423L45.707 5.34h-4.374l-2.916 11.423zm80.845-5.267h-5.686V5.341h-4.666v17.208h4.666v-7.195h5.686v7.195H124V5.341h-4.738v6.156zM97.246 9.124v13.5h4.666v-13.5h4.374V5.34H92.872v3.783h4.374z" fill="#1F2120"/><path d="M24.275 10.607H0V0h10.133v4.154h4.082V0h10.133v10.607h-.073zM14.142 22.92v4.154c5.832-1.113 10.133-6.23 10.133-12.016v-.223H0v.223C0 20.769 4.301 25.888 10.133 27v-4.154h4.01v.074z" fill="#C00"/></g><defs><clipPath id="clip0_1301_1385"><path fill="#fff" d="M0 0h124v27H0z"/></clipPath></defs></svg>