<svg width="24" height="24" viewBox="0 0 24 24" fill="none" xmlns="http://www.w3.org/2000/svg">
<path d="M20.922 7.615C20.871 7.493 20.797 7.383 20.705 7.292L16.706 3.293C16.52 3.105 16.266 3 16 3H4C3.87 3 3.74 3.026 3.618 3.077C3.373 3.178 3.178 3.373 3.077 3.618C3.026 3.74 3 3.87 3 4V16C3 16.266 3.105 16.52 3.293 16.707L7.292 20.706C7.384 20.798 7.493 20.872 7.615 20.923C7.736 20.973 7.866 21 8 21H20C20.553 21 21 20.553 21 20V8C21 7.866 20.973 7.736 20.922 7.615ZM17.586 7H8.414L6.414 5H15.586L17.586 7ZM5 6.414L7 8.414V17.586L5 15.586V6.414Z" fill="white"/>
</svg>
