<svg width="48" height="48" viewBox="0 0 48 48" fill="none" xmlns="http://www.w3.org/2000/svg">
    <path d="M43.9963 40.9958H46.9968V29.9968L42.9932 18.9977" stroke="white" stroke-width="1.5" stroke-miterlimit="10" stroke-linejoin="round"/>
    <path d="M37 19L37 30" stroke="white" stroke-width="1.5" stroke-miterlimit="10" stroke-linejoin="round"/>
    <path d="M31.4922 34.9947L33.5248 18.9977H45.9934" stroke="white" stroke-width="1.5" stroke-miterlimit="10" stroke-linejoin="round"/>
    <path d="M37.9952 46.9969C41.3096 46.9969 43.9963 44.3102 43.9963 40.9958C43.9963 37.6815 41.3096 34.9948 37.9952 34.9948C34.6809 34.9948 31.9941 37.6815 31.9941 40.9958C31.9941 44.3102 34.6809 46.9969 37.9952 46.9969Z" stroke="white" stroke-width="1.5" stroke-miterlimit="10" stroke-linejoin="round"/>
    <path d="M37.9955 42.9933C39.0986 42.9933 39.9929 42.099 39.9929 40.9958C39.9929 39.8927 39.0986 38.9984 37.9955 38.9984C36.8923 38.9984 35.998 39.8927 35.998 40.9958C35.998 42.099 36.8923 42.9933 37.9955 42.9933Z" stroke="white" stroke-width="1.5" stroke-miterlimit="10" stroke-linejoin="round"/>
    <path d="M31.9941 29.9967H46.9969" stroke="white" stroke-width="1.5" stroke-miterlimit="10" stroke-linejoin="round"/>
    <path d="M42.993 15.0028H29.9965L26.996 38.9984H20.9949L1.00293 26.0019L1.89166 18.9977H28.9934" stroke="white" stroke-width="1.5" stroke-miterlimit="10" stroke-linejoin="round"/>
    <path d="M23.1593 21.9982L21.3906 35.901" stroke="white" stroke-width="1.5" stroke-miterlimit="10" stroke-linejoin="round"/>
    <path d="M17.6598 21.9982L16.3135 32.6013" stroke="white" stroke-width="1.5" stroke-miterlimit="10" stroke-linejoin="round"/>
    <path d="M12.1603 21.9982L11.2363 29.3016" stroke="white" stroke-width="1.5" stroke-miterlimit="10" stroke-linejoin="round"/>
    <path d="M6.66074 21.9982L6.15918 26.0018" stroke="white" stroke-width="1.5" stroke-miterlimit="10" stroke-linejoin="round"/>
    <path d="M6.99524 46.9969C10.3096 46.9969 12.9963 44.3102 12.9963 40.9958C12.9963 37.6815 10.3096 34.9948 6.99524 34.9948C3.68092 34.9948 0.994141 37.6815 0.994141 40.9958C0.994141 44.3102 3.68092 46.9969 6.99524 46.9969Z" stroke="white" stroke-width="1.5" stroke-miterlimit="10" stroke-linejoin="round"/>
    <path d="M6.99548 42.9933C8.09863 42.9933 8.99291 42.099 8.99291 40.9958C8.99291 39.8927 8.09863 38.9984 6.99548 38.9984C5.89233 38.9984 4.99805 39.8927 4.99805 40.9958C4.99805 42.099 5.89233 42.9933 6.99548 42.9933Z" stroke="white" stroke-width="1.5" stroke-miterlimit="10" stroke-linejoin="round"/>
    <path d="M13 43L32 43" stroke="white" stroke-width="1.5" stroke-miterlimit="10"/>
</svg>
