<svg width="20" height="20" viewBox="0 0 20 20" fill="none" xmlns="http://www.w3.org/2000/svg">
<path fill-rule="evenodd" clip-rule="evenodd" d="M7.40499 2.8025C9.85665 0.454995 13.8217 0.454995 16.2742 2.8025C18.7417 5.16416 18.7417 9.00583 16.2742 11.3683L9.65082 17.7083C7.90916 19.375 5.09582 19.375 3.35416 17.7083C2.93797 17.3164 2.60634 16.8435 2.37967 16.3187C2.15299 15.7939 2.03606 15.2283 2.03606 14.6567C2.03606 14.085 2.15299 13.5194 2.37967 12.9946C2.60634 12.4698 2.93797 11.9969 3.35416 11.605L9.88249 5.35666C10.3857 4.88121 11.0518 4.61631 11.7442 4.61631C12.4365 4.61631 13.1026 4.88121 13.6058 5.35666C13.8539 5.59039 14.0515 5.87237 14.1866 6.18528C14.3217 6.49819 14.3914 6.83542 14.3914 7.17624C14.3914 7.51707 14.3217 7.8543 14.1866 8.16721C14.0515 8.48012 13.8539 8.7621 13.6058 8.99583L7.03082 15.2908C6.97151 15.3476 6.90159 15.3922 6.82505 15.422C6.74852 15.4517 6.66687 15.4661 6.58477 15.4644C6.50267 15.4626 6.42172 15.4446 6.34655 15.4116C6.27138 15.3785 6.20345 15.331 6.14666 15.2717C6.08986 15.2123 6.0453 15.1424 6.01553 15.0659C5.98575 14.9894 5.97134 14.9077 5.97312 14.8256C5.9749 14.7435 5.99283 14.6626 6.0259 14.5874C6.05896 14.5122 6.10651 14.4443 6.16582 14.3875L12.7408 8.09333C12.8667 7.97612 12.9671 7.83424 13.0357 7.67653C13.1044 7.51882 13.1398 7.34866 13.1398 7.17666C13.1398 7.00466 13.1044 6.8345 13.0357 6.67679C12.9671 6.51908 12.8667 6.3772 12.7408 6.25999C12.4703 6.00734 12.1139 5.8668 11.7437 5.8668C11.3736 5.8668 11.0172 6.00734 10.7467 6.25999L4.21832 12.5083C3.92413 12.7835 3.68958 13.1162 3.52924 13.4857C3.36889 13.8553 3.28615 14.2538 3.28615 14.6567C3.28615 15.0595 3.36889 15.458 3.52924 15.8276C3.68958 16.1971 3.92413 16.5298 4.21832 16.805C5.47665 18.0092 7.52832 18.0092 8.78665 16.805L15.41 10.465C17.3633 8.59499 17.3633 5.575 15.41 3.705C13.4408 1.82083 10.2383 1.82083 8.26832 3.705L2.93249 8.81333C2.81281 8.92815 2.65242 8.99072 2.48661 8.98728C2.32079 8.98384 2.16314 8.91467 2.04832 8.79499C1.93351 8.67532 1.87093 8.51493 1.87437 8.34911C1.87781 8.1833 1.94698 8.02565 2.06666 7.91083L7.40499 2.8025Z" fill="white"/>
</svg>
