<svg width="40" height="42" viewBox="0 0 40 42" fill="none" xmlns="http://www.w3.org/2000/svg">
<g clip-path="url(#clip0_74_157)">
<mask id="mask0_74_157" style="mask-type:luminance" maskUnits="userSpaceOnUse" x="0" y="0" width="40" height="42">
<path d="M30.0823 0.666504H9.98315C4.72504 0.666504 0.462494 5.14217 0.462494 10.6632V31.7673C0.462494 37.2883 4.72504 41.764 9.98315 41.764H30.0823C35.3404 41.764 39.603 37.2883 39.603 31.7673V10.6632C39.603 5.14217 35.3404 0.666504 30.0823 0.666504Z" fill="white"/>
</mask>
<g mask="url(#mask0_74_157)">
<path d="M24.6394 20.2775H13.0759V15.4729H24.6394C25.3149 15.4729 25.7845 15.5966 26.0202 15.8124C26.2558 16.0283 26.4019 16.4287 26.4019 17.0136V18.7388C26.4019 19.355 26.2558 19.7554 26.0202 19.9712C25.7845 20.1871 25.3149 20.2794 24.6394 20.2794V20.2775ZM25.4326 10.9432H8.17188V31.4902H13.0759V24.8054H22.1134L26.4019 31.4902H31.8934L27.1653 24.774C28.9085 24.5029 29.6912 23.9419 30.3366 23.0176C30.9822 22.0931 31.3059 20.6152 31.3059 18.6429V17.1021C31.3059 15.9324 31.188 15.008 30.9822 14.2995C30.7765 13.591 30.4246 12.9747 29.9251 12.4212C29.3974 11.8972 28.8099 11.5281 28.1045 11.2809C27.3992 11.065 26.5179 10.9414 25.4326 10.9414V10.9432Z" fill="white"/>
<path d="M59.1749 0.666414C59.1749 12.0152 50.413 21.2152 39.6046 21.2152C37.4072 21.2152 35.2942 20.8348 33.3224 20.1336C33.3646 19.6452 33.3832 19.1461 33.3832 18.6423V17.1015C33.3832 15.7934 33.2531 14.6403 32.9693 13.6631C32.6632 12.6092 32.1381 11.7023 31.4334 10.9215L31.3944 10.8781L31.3531 10.8371C30.6022 10.0915 29.7512 9.55919 28.7635 9.21302L28.7256 9.1997L28.6872 9.18794C27.747 8.90024 26.6618 8.76137 25.4344 8.76137H23.3587V8.76322H21.6122C20.5966 6.27862 20.0344 3.54148 20.0344 0.666414C20.0344 -10.6824 28.7963 -19.8823 39.6046 -19.8823C50.413 -19.8823 59.1749 -10.6824 59.1749 0.666414Z" fill="white"/>
</g>
<path d="M30.0823 0.978516H9.98317C4.88923 0.978516 0.759766 5.31445 0.759766 10.6631V31.7672C0.759766 37.1158 4.88923 41.4517 9.98317 41.4517H30.0823C35.1762 41.4517 39.3057 37.1158 39.3057 31.7672V10.6631C39.3057 5.31445 35.1762 0.978516 30.0823 0.978516Z" stroke="white" stroke-width="0.371567"/>
</g>
<defs>
<clipPath id="clip0_74_157">
<rect width="40" height="42" fill="white"/>
</clipPath>
</defs>
</svg>
