<svg width="42" height="42" viewBox="0 0 42 42" fill="none" xmlns="http://www.w3.org/2000/svg">
<g clip-path="url(#clip0_74_176)">
<mask id="mask0_74_176" style="mask-type:luminance" maskUnits="userSpaceOnUse" x="0" y="0" width="41" height="42">
<path d="M40.0916 0H0.0916138V41.7614H40.0916V0Z" fill="white"/>
</mask>
<g mask="url(#mask0_74_176)">
<path d="M20.0054 41.3087H20.1683C28.2833 41.3087 32.9936 40.4918 36.3301 37.2525C39.7321 33.8165 40.5177 29.0744 40.5177 20.9911V20.7625C40.5177 12.6816 39.7321 7.97124 36.3301 4.50106C32.996 1.26191 28.2517 0.444824 20.1707 0.444824H20.0078C11.8929 0.444824 7.18007 1.26191 3.84366 4.50106C0.441569 7.93719 -0.343903 12.6816 -0.343903 20.7625V20.9911C-0.343903 29.0719 0.441569 33.7824 3.84366 37.2525C7.14848 40.4918 11.8929 41.3087 20.0054 41.3087Z" fill="white"/>
<path d="M35.6532 20.5666C35.6532 20.411 35.5267 20.2821 35.3711 20.2748C29.7859 20.0632 26.3869 19.3508 24.0089 16.9728C21.626 14.59 20.916 11.1884 20.7044 5.59112C20.6996 5.43551 20.5707 5.30908 20.4126 5.30908H19.761C19.6054 5.30908 19.4765 5.43551 19.4693 5.59112C19.2577 11.1859 18.5477 14.59 16.1649 16.9728C13.7845 19.3533 10.3877 20.0632 4.80261 20.2748C4.647 20.2797 4.52057 20.4085 4.52057 20.5666V21.2182C4.52057 21.3738 4.647 21.5027 4.80261 21.51C10.3877 21.7215 13.7869 22.4339 16.1649 24.8119C18.5428 27.1899 19.2528 30.5819 19.4668 36.1571C19.4717 36.3127 19.6006 36.4392 19.7586 36.4392H20.4126C20.5683 36.4392 20.6971 36.3127 20.7044 36.1571C20.9184 30.5819 21.6284 27.1899 24.0065 24.8119C26.3869 22.4315 29.7835 21.7215 35.3686 21.51C35.5243 21.5051 35.6508 21.3763 35.6508 21.2182V20.5666H35.6532Z" fill="#1F2120"/>
</g>
</g>
<defs>
<clipPath id="clip0_74_176">
<rect width="42" height="42" fill="white"/>
</clipPath>
</defs>
</svg>
