<svg width="42" height="42" viewBox="0 0 42 42" fill="none" xmlns="http://www.w3.org/2000/svg">
<path fill-rule="evenodd" clip-rule="evenodd" d="M8.10219 0.995117C6.12512 0.995117 4.22903 1.76135 2.83103 3.12525C1.43303 4.48915 0.647644 6.339 0.647644 8.26784V33.7224C0.647644 35.6512 1.43303 37.5011 2.83103 38.865C4.22903 40.2289 6.12512 40.9951 8.10219 40.9951H34.1931C36.1702 40.9951 38.0663 40.2289 39.4643 38.865C40.8623 37.5011 41.6476 35.6512 41.6476 33.7224V8.26784C41.6476 6.339 40.8623 4.48915 39.4643 3.12525C38.0663 1.76135 36.1702 0.995117 34.1931 0.995117H8.10219ZM36.0567 20.9951C36.0567 24.8528 34.486 28.5525 31.69 31.2803C28.894 34.0081 25.1018 35.5406 21.1476 35.5406C17.1935 35.5406 13.4013 34.0081 10.6053 31.2803C7.80933 28.5525 6.23855 24.8528 6.23855 20.9951C6.23855 17.1374 7.80933 13.4377 10.6053 10.7099C13.4013 7.98213 17.1935 6.44966 21.1476 6.44966C25.1018 6.44966 28.894 7.98213 31.69 10.7099C34.486 13.4377 36.0567 17.1374 36.0567 20.9951ZM11.8556 19.5951C11.7922 19.6204 11.7377 19.663 11.6987 19.7179C11.6597 19.7727 11.6378 19.8375 11.6356 19.9042C11.6356 20.0388 11.727 20.166 11.8556 20.2133L15.4505 21.4933L16.5389 26.7151V26.7224C16.5761 26.9181 16.6714 27.0989 16.8128 27.2424C16.94 27.3624 17.0984 27.4462 17.2708 27.4847C17.4433 27.5231 17.6233 27.5148 17.7912 27.4606C17.892 27.4188 17.9909 27.3727 18.0876 27.3224C18.2486 27.2342 18.4076 27.1426 18.5646 27.0478C18.9299 26.8297 19.3921 26.5388 19.8412 26.2551C20.3838 25.911 20.9243 25.5638 21.4626 25.2133L21.5986 25.126L25.1489 27.6315C25.1946 27.6622 25.2471 27.682 25.3022 27.6893C25.3572 27.6965 25.4132 27.6911 25.4657 27.6733C25.5701 27.6369 25.6521 27.546 25.6781 27.4406L29.0085 13.7697C29.0214 13.7112 29.0186 13.6505 29.0003 13.5935C28.982 13.5365 28.9489 13.485 28.9041 13.4442C28.8569 13.4059 28.8003 13.3802 28.7398 13.3697C28.6794 13.3592 28.6172 13.3642 28.5593 13.3842L11.8556 19.5951ZM17.7614 25.946L16.7737 21.2188L24.245 17.4551C24.2887 17.4343 24.3385 17.4292 24.3856 17.4409C24.4327 17.4525 24.474 17.4801 24.5022 17.5188C24.5295 17.5582 24.5416 17.6059 24.5361 17.6532C24.5306 17.7005 24.508 17.7444 24.4724 17.7769L18.8591 22.6897L17.7614 25.946Z" fill="white"/>
</svg>
