<?xml version="1.0" encoding="utf-8"?><svg width="28" height="28" fill="none" xmlns="http://www.w3.org/2000/svg" viewBox="0 0 28 28"><path d="M14 2.197L2.058 8.167 4.145 9.21l3.746 1.873L2.058 14l5.833 2.917-5.833 2.916L14 25.803l11.942-5.97-5.833-2.916L25.942 14l-5.833-2.917 5.833-2.916L14 2.197zm0 2.606l6.724 3.364L14 11.53 7.276 8.167 14 4.803zm-3.5 7.584l3.5 1.75 3.5-1.75L20.724 14 14 17.363 7.276 14l3.224-1.613zm0 5.833l3.5 1.75 3.5-1.75 3.224 1.613L14 23.197l-6.724-3.364L10.5 18.22z" fill="#fff"/></svg>