<?xml version="1.0" encoding="utf-8"?><svg width="28" height="28" fill="none" xmlns="http://www.w3.org/2000/svg" viewBox="0 0 28 28"><path d="M14 1.167a4.671 4.671 0 00-4.667 4.666h-3.5c-1.165 0-2.135.81-2.317 2.017L2.358 23.076a2.21 2.21 0 00.57 1.839 2.37 2.37 0 001.739.752h18.666c.663 0 1.297-.274 1.737-.75.465-.502.673-1.172.58-1.755L24.487 7.85l-.011-.089c-.173-1.116-1.143-1.928-2.308-1.928h-3.5A4.671 4.671 0 0014 1.167zM14 3.5a2.336 2.336 0 012.333 2.333h-4.666A2.336 2.336 0 0114 3.5zM5.831 8.167l16.34.007 1.162 15.16-18.657.006L5.83 8.167zm1.957 2.28v8.71h1.908V17.41l.54-.538 1.337 2.284h2.185l-2.287-3.61 2.146-2.522H11.33l-1.44 1.79-.191.256v-4.623h-1.91zm9.02 2.466c-.507 0-.95.13-1.331.387-.382.258-.675.629-.88 1.103-.203.476-.305 1.025-.305 1.643h.002v.069c0 .96.23 1.725.69 2.297.462.572 1.066.856 1.814.856.558 0 1.022-.201 1.388-.606v.194c0 .868-.426 1.301-1.272 1.301-.58 0-1.049-.21-1.403-.629l-.8 1.123c.223.271.545.49.966.661a3.43 3.43 0 001.306.255c.626 0 1.178-.104 1.654-.319.477-.212.838-.518 1.09-.916.252-.399.378-.868.378-1.408v-5.9H18.37l-.068.534c-.357-.43-.857-.645-1.495-.645zm.487 1.472c.408 0 .704.14.889.42v2.577c-.19.275-.49.414-.9.414a.892.892 0 01-.793-.44c-.19-.291-.285-.69-.285-1.191 0-.579.098-1.02.29-1.324.193-.303.458-.456.799-.456z" fill="#F8F8F8"/></svg>