<?xml version="1.0" encoding="utf-8"?><svg width="16" height="16" fill="none" xmlns="http://www.w3.org/2000/svg" viewBox="0 0 16 16"><path fill-rule="evenodd" clip-rule="evenodd" d="M1.358 7.529C5.492 5.728 8.25 4.54 9.628 3.966c3.94-1.638 4.758-1.922 5.291-1.932.117-.002.38.027.55.165a.597.597 0 01.201.384 2.5 2.5 0 01.024.559c-.213 2.242-1.137 7.684-1.607 10.196-.198 1.062-.59 1.419-.969 1.454-.824.075-1.449-.545-2.247-1.068-1.248-.818-1.953-1.327-3.164-2.126-1.4-.922-.493-1.43.305-2.258.209-.217 3.838-3.518 3.908-3.817.008-.038.017-.177-.066-.25-.083-.074-.206-.05-.294-.03-.125.03-2.12 1.347-5.982 3.955-.566.388-1.079.578-1.538.568-.506-.011-1.48-.287-2.204-.522C.947 8.955.242 8.803.303 8.312c.032-.255.384-.516 1.055-.783z" fill="#fff"/></svg>