<?xml version="1.0" encoding="utf-8"?><svg width="16" height="16" fill="none" xmlns="http://www.w3.org/2000/svg" viewBox="0 0 16 16"><path d="M15.67 4.153a2.005 2.005 0 00-1.41-1.41C13.008 2.4 8 2.4 8 2.4s-5.008 0-6.26.33A2.046 2.046 0 00.33 4.152C0 5.405 0 8 0 8s0 2.61.33 3.849a2.005 2.005 0 001.41 1.41c1.265.342 6.26.342 6.26.342s5.008 0 6.26-.329a2.005 2.005 0 001.41-1.41C16 10.61 16 8.014 16 8.014s.013-2.61-.33-3.861z" fill="#fff"/><path d="M6.405 10.4L10.57 8 6.405 5.603V10.4z" fill="#E62D28"/></svg>