<?xml version="1.0" encoding="utf-8"?><svg width="24" height="16" fill="none" xmlns="http://www.w3.org/2000/svg" viewBox="0 0 24 16"><path fill-rule="evenodd" clip-rule="evenodd" d="M20.568 3.389c.125-.417 0-.722-.594-.722h-1.965c-.5 0-.73.264-.855.555 0 0-1 2.436-2.415 4.018-.458.458-.666.604-.916.604-.125 0-.312-.146-.312-.562V3.389c0-.5-.138-.722-.555-.722H9.87c-.313 0-.5.231-.5.451 0 .474.707.583.78 1.915v2.894c0 .634-.114.75-.364.75-.666 0-2.286-2.447-3.247-5.247-.189-.544-.378-.764-.88-.764H3.693c-.561 0-.673.265-.673.556 0 .52.666 3.102 3.101 6.516 1.624 2.332 3.912 3.595 5.993 3.595 1.25 0 1.404-.28 1.404-.764v-1.762c0-.562.118-.674.514-.674.291 0 .79.146 1.956 1.27 1.333 1.332 1.552 1.93 2.302 1.93h1.965c.561 0 .842-.28.68-.835-.177-.552-.813-1.353-1.657-2.302-.458-.541-1.145-1.124-1.354-1.416-.291-.374-.208-.54 0-.874 0 0 2.394-3.372 2.644-4.517z" fill="#fff"/></svg>