<?xml version="1.0" encoding="utf-8"?><svg width="16" height="16" fill="none" xmlns="http://www.w3.org/2000/svg" viewBox="0 0 16 16"><g clip-path="url(#bbclip0_84_15)" fill="#fff"><path d="M7.213 11.311c-1.24-.13-2.36-.435-3.317-1.184-.119-.093-.241-.183-.35-.287-.419-.402-.461-.863-.13-1.338.284-.407.76-.516 1.256-.282.095.045.187.102.274.162 1.785 1.226 4.236 1.26 6.027.055.178-.136.367-.247.587-.303a.922.922 0 011.056.421c.262.427.259.844-.064 1.176a4.868 4.868 0 01-1.753 1.133c-.626.242-1.312.364-1.99.446.102.111.15.166.214.23.922.926 1.847 1.848 2.765 2.776.313.317.379.709.206 1.077-.188.402-.61.667-1.023.638-.262-.018-.466-.148-.648-.331-.695-.7-1.403-1.386-2.084-2.1-.199-.207-.294-.167-.469.013-.7.72-1.41 1.429-2.125 2.134-.321.316-.703.373-1.076.193-.396-.192-.647-.596-.628-1.002.013-.275.148-.485.337-.673.912-.91 1.821-1.823 2.73-2.735.06-.06.117-.125.205-.219z"/><path d="M7.968 8.099C5.755 8.09 3.941 6.257 3.954 4.04A4.056 4.056 0 018.017 0c2.239.006 4.036 1.838 4.025 4.102-.012 2.212-1.839 4.004-4.074 3.997zM9.98 4.046a1.972 1.972 0 00-1.978-1.978A1.975 1.975 0 006.017 4.07a1.972 1.972 0 001.994 1.962 1.968 1.968 0 001.968-1.986z"/></g><defs><clipPath id="bbclip0_84_15"><path fill="#fff" d="M0 0h16v16H0z"/></clipPath></defs></svg>