<?xml version="1.0" encoding="utf-8"?><svg width="48" height="48" fill="none" xmlns="http://www.w3.org/2000/svg" viewBox="0 0 48 48"><path d="M43.996 37.001h3M39.5 46.997a3.502 3.502 0 100-7.004 3.502 3.502 0 000 7.004zM11 46.997a3.502 3.502 0 100-7.004 3.502 3.502 0 000 7.004zM20.995 46.997a3.502 3.502 0 100-7.004 3.502 3.502 0 000 7.004z" stroke="#fff" stroke-width="1.5" stroke-miterlimit="10"/><path d="M42.993 42.993h4.004V31.994l-3.564-11.58a1.993 1.993 0 00-1.91-1.408h-8.526V43.002h3" stroke="#fff" stroke-width="1.5" stroke-miterlimit="10" stroke-linejoin="round"/><path d="M46.997 31.994l-9.002-3V23h6.001M7.999 42.993H4.004v-4.998M17.994 42.993H14M29.997 42.993h-6.001" stroke="#fff" stroke-width="1.5" stroke-miterlimit="10" stroke-linejoin="round"/><path d="M24.013 17.81L10.005 14H5.473L.994 21.752 3.3 25.756l10.25 10.25h7.506c1.787 0 3.441-.95 4.33-2.498l2.42-4.189a5.018 5.018 0 000-4.998l-3.793-6.511z" stroke="#fff" stroke-width="1.5" stroke-miterlimit="10" stroke-linecap="round" stroke-linejoin="round"/><path d="M3.308 25.747L9.996 14M13.56 35.998L24.013 17.81" stroke="#fff" stroke-width="1.5" stroke-miterlimit="10" stroke-linejoin="round"/></svg>