<?xml version="1.0" encoding="utf-8"?><svg width="66" height="44" fill="none" xmlns="http://www.w3.org/2000/svg" viewBox="0 0 66 44"><g clip-path="url(#lclip0_549_79)"><path d="M8.921 20.95H2.232v-3.518h6.69v3.519zM66 15.19h-1.839c-.334 0-.668.159-.846.453l-4.011 6.72-4.012-6.72c-.178-.294-.512-.453-.846-.453h-.422a1.39 1.39 0 00-1.402 1.404V28.81h1.787a.46.46 0 00.438-.453V18.89l3.3 5.36c.245.249.511.453.845.453h.623c.334 0 .6-.204.845-.453l3.3-5.36v9.467c0 .249.2.453.445.453h1.335a.45.45 0 00.445-.453C66 23.963 66 19.577 66 15.19zm-15.388 0H48.825a.46.46 0 00-.437.453v10.894h-6.69V15.643a.45.45 0 00-.444-.453h-1.335a.45.45 0 00-.445.453V28.802h9.766c.78 0 1.38-.611 1.38-1.404-.008-4.07-.008-8.139-.008-12.208zm-13.155 0H35.67a.46.46 0 00-.438.453v9.671l-6.266-9.67c-.2-.34-.556-.454-.846-.454h-.422c-.779 0-1.38.612-1.38 1.404V28.81h1.788a.46.46 0 00.437-.453V18.73l6.244 9.626c.2.34.556.453.846.453h.444c.78 0 1.387-.612 1.387-1.404-.007-4.077-.007-8.147-.007-12.216zm-13.156 0h-9.766c-.779 0-1.38.612-1.38 1.404V28.802h9.76c.778 0 1.379-.611 1.379-1.404.007-4.07.007-8.139.007-12.208zm-2.224 11.347h-6.69v-9.082h6.69v9.082zM0 28.81h8.81c1.29 0 2.343-1.042 2.343-2.318v-2.295c0-1.268-1.045-2.318-2.343-2.318v-.09c1.29 0 2.343-1.042 2.343-2.318v-1.978c0-1.269-1.045-2.318-2.343-2.318H.445a.45.45 0 00-.445.453V28.81zm51.962-17.365C48.292 4.628 41.18 0 33 0S17.709 4.628 14.038 11.445h2.625C20.097 5.95 26.126 2.303 33 2.303c6.874 0 12.903 3.646 16.337 9.142h2.625zM33 44c8.18 0 15.291-4.628 18.962-11.445h-2.625c-3.434 5.496-9.47 9.142-16.337 9.142-6.874 0-12.903-3.646-16.337-9.142h-2.625C17.708 39.372 24.82 44 33 44zM8.921 26.56H2.232v-3.813h6.69v3.813z" fill="#fff"/></g><defs><clipPath id="lclip0_549_79"><path fill="#fff" d="M0 0h66v44H0z"/></clipPath></defs></svg>