<?xml version="1.0" encoding="utf-8"?><svg width="20" height="20" fill="none" xmlns="http://www.w3.org/2000/svg" viewBox="0 0 20 20"><path fill-rule="evenodd" clip-rule="evenodd" d="M7.405 2.803c2.452-2.348 6.417-2.348 8.87 0 2.467 2.361 2.467 6.203 0 8.565l-6.624 6.34c-1.742 1.667-4.555 1.667-6.297 0a4.192 4.192 0 010-6.103l6.528-6.248a2.71 2.71 0 013.724 0 2.5 2.5 0 010 3.639L7.03 15.29a.626.626 0 11-.865-.904l6.575-6.294a1.252 1.252 0 000-1.833 1.46 1.46 0 00-1.994 0l-6.529 6.248a2.942 2.942 0 000 4.297c1.259 1.204 3.31 1.204 4.569 0l6.623-6.34c1.953-1.87 1.953-4.89 0-6.76-1.97-1.884-5.172-1.884-7.142 0L2.932 8.813a.625.625 0 11-.865-.902l5.338-5.108z" fill="#fff"/></svg>