<?xml version="1.0" encoding="utf-8"?><svg width="48" height="48" fill="none" xmlns="http://www.w3.org/2000/svg" viewBox="0 0 48 48"><circle cx="24" cy="24" r="24" fill="#1F2120"/><path d="M14.5 16a.5.5 0 00-.5.5v1a.5.5 0 00.5.5h5a.5.5 0 00.5-.5v-1a.5.5 0 00-.5-.5h-5zm14 0a.5.5 0 00-.5.5v1a.5.5 0 00.5.5h5a.5.5 0 00.5-.5v-1a.5.5 0 00-.5-.5h-5zM16 20v2.271A2 2 0 0015 24a2 2 0 001 1.729V28h2v-2.27a2 2 0 00.729-.73h10.54a2 2 0 00.731.729V28h2v-2.27A2.001 2.001 0 0033 24a2 2 0 00-1-1.729V20h-2v2.27a2 2 0 00-.729.73H18.729a2 2 0 00-.728-.73V20h-2zm-1.5 10a.5.5 0 00-.5.5v1a.5.5 0 00.5.5h5a.5.5 0 00.5-.5v-1a.5.5 0 00-.5-.5h-5zm14 0a.5.5 0 00-.5.5v1a.5.5 0 00.5.5h5a.5.5 0 00.5-.5v-1a.5.5 0 00-.5-.5h-5z" fill="#fff"/></svg>