<?xml version="1.0" encoding="utf-8"?><svg width="48" height="48" fill="none" xmlns="http://www.w3.org/2000/svg" viewBox="0 0 48 48"><circle cx="24" cy="24" r="24" fill="#1F2120"/><path d="M23 13v2.205c-.49.164-.934.403-1.248.756A3.05 3.05 0 0021 18c0 .435.272.82.453 1.229C20.101 19.518 19 20.567 19 22c0 1.645 1.355 3 3 3h4c.565 0 1 .435 1 1s-.435 1-1 1h-2c-.917 0-1.731.38-2.248.96A3.05 3.05 0 0021 30c0 .722.235 1.458.752 2.04.314.352.758.59 1.248.755V35h2v-2.205c.49-.164.934-.403 1.248-.756A3.05 3.05 0 0027 30c0-.435-.272-.82-.453-1.229C27.899 28.482 29 27.433 29 26c0-1.645-1.355-3-3-3h-4c-.565 0-1-.435-1-1s.435-1 1-1h2c.917 0 1.731-.38 2.248-.96A3.05 3.05 0 0027 18a3.05 3.05 0 00-.752-2.04c-.314-.352-.758-.59-1.248-.755V13h-2zm1 4c.417 0 .602.12.752.29.15.168.248.432.248.71 0 .278-.098.542-.248.71-.15.17-.335.29-.752.29s-.602-.12-.752-.29A1.095 1.095 0 0123 18c0-.278.098-.542.248-.71.15-.17.335-.29.752-.29zm0 12c.417 0 .602.12.752.29.15.168.248.432.248.71 0 .278-.098.542-.248.71-.15.17-.335.29-.752.29s-.602-.12-.752-.29A1.095 1.095 0 0123 30c0-.278.098-.542.248-.71.15-.17.335-.29.752-.29z" fill="#fff"/></svg>