<?xml version="1.0" encoding="utf-8"?><svg width="48" height="48" fill="none" xmlns="http://www.w3.org/2000/svg" viewBox="0 0 48 48"><circle cx="24" cy="24" r="24" fill="#1F2120"/><path d="M24 13c-2.206 0-4 1.794-4 4h-3c-1 0-1.83.695-1.986 1.729l-.993 13.05a1.894 1.894 0 00.489 1.576c.379.41.922.645 1.49.645h16a2.03 2.03 0 001.488-.643c.4-.43.577-1.005.498-1.503l-.998-13.125-.01-.077C32.83 17.695 31.998 17 31 17h-3c0-2.206-1.794-4-4-4zm0 2c1.103 0 2 .897 2 2h-4c0-1.103.897-2 2-2zm-7.002 4l14.006.006L32 32l-15.992.006.99-13.006zm1.678 1.955v7.465h1.634v-1.496l.463-.461 1.147 1.957h1.873l-1.961-3.094 1.84-2.162H21.71L20.476 24.7l-.164.219v-3.963h-1.636zm7.73 2.113c-.434 0-.813.111-1.14.332-.327.221-.578.539-.754.946-.174.408-.262.878-.262 1.408h.002v.058c0 .823.197 1.48.592 1.97.396.49.913.734 1.554.734.478 0 .876-.173 1.19-.52v.166c0 .744-.365 1.115-1.09 1.115-.498 0-.9-.18-1.203-.539l-.686.963c.191.232.467.42.828.567a2.94 2.94 0 001.12.218c.537 0 1.01-.09 1.418-.273.409-.182.718-.444.933-.785.217-.342.324-.744.324-1.207v-5.057h-1.486l-.059.457c-.306-.369-.734-.553-1.28-.553zm.418 1.262c.35 0 .604.12.762.36v2.208c-.162.236-.42.356-.772.356a.764.764 0 01-.68-.377c-.161-.25-.244-.591-.244-1.021 0-.497.085-.874.249-1.135.166-.26.393-.39.685-.39z" fill="#F8F8F8"/></svg>