<?xml version="1.0" encoding="utf-8"?><svg width="48" height="48" fill="none" xmlns="http://www.w3.org/2000/svg" viewBox="0 0 48 48"><circle cx="24" cy="24" r="24" fill="#1F2120"/><path d="M21.666 14l-.49 2.523a7.952 7.952 0 00-2.244 1.291l-2.424-.835-2.336 4.043 1.941 1.687A7.997 7.997 0 0016 24c0 .409.04.833.113 1.291v.002l-1.941 1.688 2.336 4.04 2.422-.834a7.952 7.952 0 002.246 1.29l.49 2.523h4.668l.49-2.523a7.942 7.942 0 002.244-1.291l2.424.835 2.334-4.04-1.94-1.69c.075-.458.114-.883.114-1.291a8.01 8.01 0 00-.113-1.29v-.001l1.941-1.69-2.336-4.04-2.422.834a7.952 7.952 0 00-2.246-1.29L26.334 14h-4.668zm1.648 2h1.372l.388 2 1.043.395a5.943 5.943 0 011.684.964l.863.707 1.922-.66.686 1.186-1.536 1.336.176 1.1v.001c.061.375.088.69.088.971s-.027.596-.088.97l-.178 1.1 1.535 1.336-.685 1.188-1.92-.662-.865.709a5.932 5.932 0 01-1.682.965h-.002L25.072 30l-.388 2h-1.37l-.388-2-1.043-.395a5.943 5.943 0 01-1.684-.964l-.863-.707-1.922.66-.686-1.186 1.538-1.338-.178-1.095v-.002A6.156 6.156 0 0118 24c0-.281.027-.596.088-.97l.178-1.1-1.537-1.336.685-1.188 1.922.662.863-.709a5.943 5.943 0 011.684-.965L22.926 18l.389-2zM24 20c-2.197 0-4 1.803-4 4s1.803 4 4 4 4-1.803 4-4-1.803-4-4-4zm0 2c1.111 0 2 .889 2 2s-.889 2-2 2-2-.889-2-2 .889-2 2-2z" fill="#fff"/></svg>