<?xml version="1.0" encoding="utf-8"?><svg width="48" height="48" fill="none" xmlns="http://www.w3.org/2000/svg" viewBox="0 0 48 48"><circle cx="24" cy="24" r="24" fill="#1F2120"/><path d="M22.918 16c-2.068 0-4.427.796-6.377 2.156C14.591 19.516 13 21.532 13 24c0 2.468 1.59 4.483 3.541 5.844C18.491 31.204 20.85 32 22.918 32c.66 0 1.265-.374 1.65-.846.385-.471.636-1.046.838-1.726C25.811 28.066 26 26.25 26 24c0-2.25-.189-4.066-.594-5.428-.202-.68-.453-1.255-.838-1.726-.385-.472-.99-.846-1.65-.846zm0 2c-.008 0-.026-.047.102.11.127.156.315.51.47 1.03.31 1.044.51 2.728.51 4.86s-.2 3.816-.51 4.86c-.155.52-.343.874-.47 1.03-.128.157-.11.11-.102.11-1.523 0-3.621-.673-5.232-1.797C16.074 27.08 15 25.593 15 24c0-1.593 1.074-3.079 2.686-4.203 1.61-1.124 3.71-1.797 5.232-1.797zm4.383 0c.18.6.33 1.27.43 2H35v-2h-7.7zm.68 5c.02.32.019.66.019 1 0 .34 0 .68-.02 1H35v-2h-7.02zm-.25 5c-.1.73-.25 1.4-.43 2H35v-2h-7.27z" fill="#fff"/></svg>