<?xml version="1.0" encoding="utf-8"?><svg width="48" height="48" fill="none" xmlns="http://www.w3.org/2000/svg" viewBox="0 0 48 48"><circle cx="24" cy="24" r="24" fill="#1F2120"/><path d="M26.736 14.027c-.762 0-1.525.289-2.1.864l-9.745 9.746c-1.179 1.178-1.21 3.143.046 4.244l4.229 4.23a2.988 2.988 0 004.2 0l9.745-9.746a2.988 2.988 0 000-4.199l-4.275-4.275a2.962 2.962 0 00-2.1-.864zm0 1.946c.232 0 .463.11.684.332l4.277 4.275c.443.443.443.928 0 1.371l-9.746 9.746c-.443.443-.928.443-1.37 0l-4.3-4.299-.025-.023c-.335-.293-.366-.912.047-1.324h.002l1.222-1.223 3.03 3.104 1.431-1.397-3.047-3.12 1.57-1.571 1.573 1.69 1.465-1.364-1.621-1.742 1.61-1.61 3.095 3.096 1.414-1.416-3.094-3.096 1.098-1.097c.221-.222.453-.332.685-.332z" fill="#fff"/></svg>