<?xml version="1.0" encoding="utf-8"?><svg width="42" height="42" fill="none" xmlns="http://www.w3.org/2000/svg" viewBox="0 0 42 42"><path fill-rule="evenodd" clip-rule="evenodd" d="M8.102.995a7.55 7.55 0 00-5.271 2.13A7.184 7.184 0 00.648 8.268v25.454c0 1.93.785 3.78 2.183 5.143a7.55 7.55 0 005.271 2.13h26.091a7.55 7.55 0 005.271-2.13 7.184 7.184 0 002.184-5.143V8.268a7.184 7.184 0 00-2.184-5.143 7.55 7.55 0 00-5.27-2.13H8.101zm27.955 20c0 3.858-1.571 7.557-4.367 10.285-2.796 2.728-6.588 4.26-10.542 4.26-3.954 0-7.747-1.532-10.543-4.26C7.81 28.552 6.24 24.853 6.24 20.995c0-3.858 1.57-7.557 4.366-10.285 2.796-2.728 6.588-4.26 10.543-4.26 3.954 0 7.746 1.532 10.542 4.26 2.796 2.728 4.367 6.427 4.367 10.285zm-24.201-1.4a.352.352 0 00-.157.123.34.34 0 00-.063.186c0 .135.091.262.22.31l3.595 1.28 1.088 5.221v.007c.037.196.132.377.274.52a.978.978 0 00.978.219c.101-.042.2-.088.297-.139.16-.088.32-.18.477-.274.365-.218.827-.51 1.276-.793a160.61 160.61 0 001.622-1.042l.136-.087 3.55 2.505a.36.36 0 00.317.042.336.336 0 00.212-.232l3.33-13.671a.338.338 0 00-.104-.326.358.358 0 00-.345-.06l-16.703 6.211zm5.905 6.351l-.987-4.727 7.471-3.764a.21.21 0 01.257.064.196.196 0 01-.03.258L18.86 22.69l-1.098 3.256z" fill="#fff"/></svg>