<?xml version="1.0" encoding="utf-8"?><svg width="24" height="24" fill="none" xmlns="http://www.w3.org/2000/svg" viewBox="0 0 24 24"><path d="M12 1C9.794 1 8 2.794 8 5H5c-.999 0-1.83.695-1.986 1.729l-.993 13.05a1.894 1.894 0 00.489 1.576c.379.41.922.645 1.49.645h16a2.03 2.03 0 001.488-.643c.4-.43.577-1.005.498-1.503l-.998-13.125-.01-.077C20.83 5.695 20 5 19 5h-3c0-2.206-1.794-4-4-4zm0 2c1.103 0 2 .897 2 2h-4c0-1.103.897-2 2-2zM4.998 7l14.006.006L20 20l-15.992.006L4.998 7zm1.678 1.955v7.465H8.31v-1.496l.462-.461L9.92 16.42h1.873l-1.961-3.094 1.84-2.162H9.71L8.477 12.7l-.165.219V8.955H6.676zm7.73 2.113c-.434 0-.813.111-1.14.332-.327.221-.578.539-.754.946-.174.408-.262.878-.262 1.408h.002v.059c0 .822.197 1.478.592 1.968.396.491.913.735 1.554.735.478 0 .876-.173 1.19-.52v.166c0 .744-.365 1.115-1.09 1.115-.498 0-.9-.18-1.203-.539l-.686.963c.191.232.467.42.829.567a2.94 2.94 0 001.119.218c.537 0 1.01-.09 1.418-.273.409-.182.718-.444.933-.785.217-.342.324-.744.324-1.207v-5.057h-1.486l-.059.457c-.305-.369-.734-.553-1.28-.553zm.418 1.262c.35 0 .604.12.762.36v2.208c-.162.236-.42.356-.771.356a.764.764 0 01-.68-.377c-.162-.25-.244-.591-.244-1.022 0-.495.084-.873.248-1.134.166-.26.393-.39.685-.39z" fill="#ACADAC"/></svg>