<svg width="80" height="71" viewBox="0 0 80 71" fill="none" xmlns="http://www.w3.org/2000/svg"><g clip-path="url(#clip0_3164_2529)" stroke="#231F20" stroke-width="2" stroke-linecap="round" stroke-linejoin="round"><path d="M29.814 5.026H6.735a5.655 5.655 0 00-5.652 5.652v53.5a5.655 5.655 0 005.652 5.653h53.501a5.655 5.655 0 005.652-5.652V41.093"/><path d="M36.237 11.442H9.333A1.836 1.836 0 007.5 13.276v48.299c0 1.011.822 1.834 1.834 1.834h48.299a1.836 1.836 0 001.834-1.834V34.67"/><path d="M78.916 6.057L41.928 43.051l6.312 6.305-28.653 2.298L21.877 23l6.312 6.305L56.412 1.083"/></g><defs><clipPath id="clip0_3164_2529"><path fill="#fff" d="M0 0h80v70.915H0z"/></clipPath></defs></svg>