<svg width="80" height="80" viewBox="0 0 80 80" fill="none" xmlns="http://www.w3.org/2000/svg"><g clip-path="url(#clip0_3164_2533)" stroke="#231F20" stroke-width="2" stroke-linecap="round" stroke-linejoin="round"><path d="M78.44 46.243c3.447-21.23-10.97-41.232-32.199-44.678C25.012-1.881 5.01 12.535 1.563 33.764c-3.446 21.23 10.97 41.232 32.2 44.678 21.228 3.446 41.232-10.97 44.678-32.199z"/><path d="M40 72.13c17.745 0 32.13-14.384 32.13-32.13C72.13 22.255 57.745 7.87 40 7.87 22.255 7.87 7.87 22.255 7.87 40c0 17.745 14.384 32.13 32.13 32.13zm0-54.047v18.724M40 7.87v6.387M7.87 40h6.386M40 72.13v-6.38M72.13 40h-6.38M18.41 18.41l2.253 2.253M18.41 61.59l2.253-2.253M61.59 61.59l-2.253-2.253M61.59 18.41l-2.253 2.253m-5.081 33.169L42.292 42.22"/><path d="M40 43.194a3.194 3.194 0 100-6.387 3.194 3.194 0 000 6.387z"/></g><defs><clipPath id="clip0_3164_2533"><path fill="#fff" d="M0 0h80v80H0z"/></clipPath></defs></svg>