<svg width="73" height="80" viewBox="0 0 73 80" fill="none" xmlns="http://www.w3.org/2000/svg"><g clip-path="url(#clip0_3164_2508)" stroke="#231F20" stroke-width="2" stroke-linecap="round" stroke-linejoin="round"><path d="M71.911 1.058H1.05v77.878h70.86V1.058z"/><path d="M17.698 33.215H7.86v9.92h9.837v-9.92zm15.717 0h-9.837v9.92h9.837v-9.92zM65.993 9.96H6.98v15.895h59.013V9.959zM49.137 33.215h-9.836v9.92h9.836v-9.92zm15.716 0h-9.836v9.92h9.836v-9.92zM17.698 47.96H7.86v9.92h9.837v-9.92zm15.717 0h-9.837v9.92h9.837v-9.92zm15.722 0h-9.836v9.92h9.836v-9.92zm15.716 0h-9.836v9.92h9.836v-9.92zM17.698 62.714H7.86v9.92h9.837v-9.92zm15.717 0h-9.837v9.92h9.837v-9.92zm15.722 0h-9.836v9.92h9.836v-9.92zm15.716 0h-9.836v9.92h9.836v-9.92z"/><path d="M15.898 13.257h-4.941v9.64h4.94v-9.64zm9.227 0h-4.94v9.64h4.94v-9.64zm9.228 0h-4.94v9.64h4.94v-9.64zm9.227 0h-4.94v9.64h4.94v-9.64zm4.281 5.316l4.941-5.316v9.633m4.287-4.317l4.94-5.316v9.633"/></g><defs><clipPath id="clip0_3164_2508"><path fill="#fff" d="M0 0h72.967v80H0z"/></clipPath></defs></svg>