<svg width="74" height="80" viewBox="0 0 74 80" fill="none" xmlns="http://www.w3.org/2000/svg"><g clip-path="url(#clip0_3164_2547)" stroke="#231F20" stroke-width="2" stroke-linecap="round" stroke-linejoin="round"><path d="M38.714 21.355V1.058l20.754 20.297H38.714z"/><path d="M59.467 30.178V21.36L38.713 1.058H2.991c-1.065 0-1.933.842-1.933 1.887v74.103c0 1.045.862 1.887 1.933 1.887h54.55c1.064 0 1.933-.842 1.933-1.887V68.35m-20.082-2.554H9.332m23.053-8.594H9.332M31.099 48.6H9.332M33.28 40H9.332m32.078-8.6H9.332m24.516-8.595H9.332m23.536-8.601H9.332"/><path d="M72.033 52.567c1.823-11.232-5.805-21.816-17.037-23.64-11.232-1.822-21.816 5.805-23.639 17.038-1.823 11.232 5.804 21.815 17.037 23.639 11.232 1.823 21.816-5.805 23.639-17.037z"/><path d="M66.736 43.383l-4.807-5.486-12.238 13.976-6.942-7.929-4.807 5.486 11.749 13.414 4.806-5.486 12.239-13.975z"/></g><defs><clipPath id="clip0_3164_2547"><path fill="#fff" d="M0 0h73.358v80H0z"/></clipPath></defs></svg>