<svg width="64" height="64" viewBox="0 0 64 64" fill="none" xmlns="http://www.w3.org/2000/svg"><circle cx="32" cy="32" r="32" fill="#1F2120"/><path d="M30.292 51.104c-13.054 1.388-28.906-13.779-8.553-37.27 3.14 8.096 20.65 18.07 10.971 35.173-4.357-3.874-10.16-13.097-9.998-21.49-2.623 10.264 2.736 18.425 7.576 23.587h.004z" stroke="#fff" stroke-linecap="round" stroke-linejoin="round"/><path d="M35.796 48.5c9.841-.16 20.534-10.266 14.403-33.986-5.018 1.939-13.799 6.044-17.562 11.062 3.193 3.649 4.29 8.401 4.29 8.401 2.257-4.84 6.292-8.874 6.292-8.874-2.905 5.323-5.488 12.906-5.488 12.906.809 7.1-1.935 10.488-1.935 10.488v.004z" stroke="#fff" stroke-linecap="round" stroke-linejoin="round"/></svg>