<svg width="64" height="64" viewBox="0 0 64 64" fill="none" xmlns="http://www.w3.org/2000/svg"><circle cx="32" cy="32" r="32" fill="#1F2120"/><path d="M38.553 36.243c0-.535-.039-1.063-.105-1.582l2.127-1.456-.942-2.894-2.566.072a12.387 12.387 0 00-1.873-2.572l.862-2.425-2.46-1.788-2.031 1.565a12.146 12.146 0 00-3.032-.981l-.725-2.464h-3.041l-.726 2.464c-1.063.197-2.08.528-3.031.98l-2.031-1.564-2.461 1.788.863 2.425a12.39 12.39 0 00-1.874 2.572l-2.565-.072L12 33.205l2.126 1.456a12.553 12.553 0 00-.105 1.582c0 .538.04 1.073.105 1.594L12 39.294l.942 2.894 2.575-.072a12.418 12.418 0 001.867 2.563l-.866 2.434 2.46 1.788 2.045-1.575c.945.45 1.955.781 3.015.975l.732 2.477h3.041l.732-2.477c1.06-.197 2.07-.525 3.015-.975l2.044 1.575 2.461-1.788-.866-2.434a12.18 12.18 0 001.867-2.563l2.575.072.942-2.894-2.126-1.456c.069-.522.105-1.054.105-1.595h-.007z" stroke="#fff" stroke-linecap="round" stroke-linejoin="round"/><path d="M33.21 43.171c3.826-3.826 3.826-10.03 0-13.855-3.826-3.826-10.03-3.826-13.856 0-3.826 3.826-3.826 10.029 0 13.855 3.826 3.826 10.03 3.826 13.856 0z" stroke="#fff" stroke-linecap="round" stroke-linejoin="round"/><path d="M33.909 37.482a7.727 7.727 0 10-15.254-2.476 7.727 7.727 0 0015.254 2.476zm16.906-17.713c0-.312-.023-.617-.062-.919l1.234-.846-.545-1.68-1.49.042a7.085 7.085 0 00-1.089-1.492l.502-1.408-1.43-1.04-1.181.909a7.119 7.119 0 00-1.76-.571l-.42-1.43h-1.768l-.42 1.43a7.12 7.12 0 00-1.758.57l-1.181-.908-1.43 1.04.501 1.408c-.423.446-.79.948-1.09 1.492l-1.489-.042-.544 1.68 1.233.846a6.976 6.976 0 000 1.844l-1.233.847.544 1.68 1.496-.043a7.026 7.026 0 001.086 1.486l-.502 1.414 1.43 1.04 1.189-.912a7.022 7.022 0 001.752.568l.423 1.44h1.768l.424-1.44a7.11 7.11 0 001.752-.568l1.188.912 1.43-1.04-.502-1.414a7.227 7.227 0 001.086-1.486l1.496.042.545-1.68-1.234-.846c.04-.302.063-.61.063-.925h-.014z" stroke="#fff" stroke-linecap="round" stroke-linejoin="round"/><path d="M48.057 20.8a4.488 4.488 0 10-8.737-2.061 4.488 4.488 0 008.737 2.062z" stroke="#fff" stroke-linecap="round" stroke-linejoin="round"/></svg>