<svg width="64" height="64" viewBox="0 0 64 64" fill="none" xmlns="http://www.w3.org/2000/svg"><circle cx="32" cy="32" r="32" fill="#1F2120"/><path d="M22.484 35.675h11.269l3.259 3.492V26.421c0-2.137-1.71-3.871-3.818-3.871h-10.71c-2.108 0-3.818 1.734-3.818 3.87v5.381c0 2.137 1.71 3.871 3.818 3.871v.003z" stroke="#fff" stroke-linecap="round" stroke-linejoin="round"/><path d="M32.55 29.209c0 .2.162.369.363.369a.365.365 0 00.364-.37.365.365 0 00-.364-.368.365.365 0 00-.363.369zm-5.072 0c0 .2.162.369.364.369a.365.365 0 00.364-.37.366.366 0 00-.364-.368.365.365 0 00-.364.369zm-5.073 0c0 .2.162.369.364.369a.365.365 0 00.364-.37.365.365 0 00-.364-.368.365.365 0 00-.364.369z" stroke="#fff" stroke-linecap="round" stroke-linejoin="round"/><path d="M21.082 37.58v10.614c0 1.734 1.386 3.14 3.096 3.14h16.23c1.71 0 3.096-1.406 3.096-3.14V14.469c-.003-1.73-1.39-3.136-3.097-3.136H24.18c-1.711 0-3.097 1.406-3.097 3.14v6.581" stroke="#fff" stroke-linecap="round" stroke-linejoin="round"/><path d="M23.997 37.58v7.913h16.589V14.47h-16.59v6.582m6.856 27.215c0 .805.645 1.46 1.44 1.46a1.45 1.45 0 001.438-1.46 1.45 1.45 0 00-1.439-1.459 1.45 1.45 0 00-1.439 1.46z" stroke="#fff" stroke-linecap="round" stroke-linejoin="round"/></svg>