<?xml version="1.0" encoding="utf-8"?><svg viewBox="0 0 114 124" xmlns="http://www.w3.org/2000/svg" xmlns:xlink="http://www.w3.org/1999/xlink"><style>:root>svg{display:none}:root>svg:target{display:block}</style><svg fill="none" viewBox="0 0 24 24" id="Circled-Menu" xmlns="http://www.w3.org/2000/svg"><path d="M5 3a2 2 0 10-.001 3.999A2 2 0 005 3zm7 0a2 2 0 10-.001 3.999A2 2 0 0012 3zm7 0a2 2 0 10-.001 3.999A2 2 0 0019 3zM5 10a2 2 0 10-.001 3.999A2 2 0 005 10zm7 0a2 2 0 10-.001 3.999A2 2 0 0012 10zm7 0a2 2 0 10-.001 3.999A2 2 0 0019 10zM5 17a2 2 0 10-.001 3.999A2 2 0 005 17zm7 0a2 2 0 10-.001 3.999A2 2 0 0012 17zm7 0a2 2 0 10-.001 3.999A2 2 0 0019 17z" fill="#fff"/></svg><svg fill="none" viewBox="0 0 24 24" id="Invert" xmlns="http://www.w3.org/2000/svg"><path d="M12 1.143S4 9.63 4 15c0 4.457 3.543 8 8 8s8-3.543 8-8c0-5.37-8-13.857-8-13.857zM12 21c-3.365 0-6-2.635-6-6 0-2.805 3.253-7.582 6.001-10.846L12 21z" fill="#ACADAC"/></svg><svg fill="none" viewBox="0 0 24 24" id="Layers" xmlns="http://www.w3.org/2000/svg"><path d="M12 1.883L1.764 7l1.789.895L6.763 9.5l-5 2.5 5 2.5-5 2.5L12 22.117 22.236 17l-5-2.5 5-2.5-5-2.5 5-2.5L12 1.883zm0 2.234L17.764 7 12 9.883 6.236 7 12 4.117zm-3 6.5l3 1.5 3-1.5L17.764 12 12 14.883 6.236 12 9 10.617zm0 5l3 1.5 3-1.5L17.764 17 12 19.883 6.236 17 9 15.617z" fill="#ACADAC"/></svg><svg fill="none" viewBox="0 0 24 24" id="Orthogonal" xmlns="http://www.w3.org/2000/svg"><path d="M3.99 2.99A1 1 0 003 4.13V16a1 1 0 00.293.707l3.912 3.912a1 1 0 00.953.381H20a1 1 0 001-1V8.168a1 1 0 00-.377-.961l-.006-.004-3.91-3.91A1 1 0 0016 3H4.117a1 1 0 00-.127-.01zM6.414 5h9.172l2 2H8.414l-2-2zM5 6.414l2 2v9.172l-2-2V6.414zM9 9h10v10H9V9z" fill="#ACADAC"/></svg><svg fill="none" viewBox="0 0 24 24" id="Weight" xmlns="http://www.w3.org/2000/svg"><path d="M12 1C9.794 1 8 2.794 8 5H5c-.999 0-1.83.695-1.986 1.729l-.993 13.05a1.894 1.894 0 00.489 1.576c.379.41.922.645 1.49.645h16a2.03 2.03 0 001.488-.643c.4-.43.577-1.005.498-1.503l-.998-13.125-.01-.077C20.83 5.695 20 5 19 5h-3c0-2.206-1.794-4-4-4zm0 2c1.103 0 2 .897 2 2h-4c0-1.103.897-2 2-2zM4.998 7l14.006.006L20 20l-15.992.006L4.998 7zm1.678 1.955v7.465H8.31v-1.496l.462-.461L9.92 16.42h1.873l-1.961-3.094 1.84-2.162H9.71L8.477 12.7l-.165.219V8.955H6.676zm7.73 2.113c-.434 0-.813.111-1.14.332-.327.221-.578.539-.754.946-.174.408-.262.878-.262 1.408h.002v.059c0 .822.197 1.478.592 1.968.396.491.913.735 1.554.735.478 0 .876-.173 1.19-.52v.166c0 .744-.365 1.115-1.09 1.115-.498 0-.9-.18-1.203-.539l-.686.963c.191.232.467.42.829.567a2.94 2.94 0 001.119.218c.537 0 1.01-.09 1.418-.273.409-.182.718-.444.933-.785.217-.342.324-.744.324-1.207v-5.057h-1.486l-.059.457c-.305-.369-.734-.553-1.28-.553zm.418 1.262c.35 0 .604.12.762.36v2.208c-.162.236-.42.356-.771.356a.764.764 0 01-.68-.377c-.162-.25-.244-.591-.244-1.022 0-.495.084-.873.248-1.134.166-.26.393-.39.685-.39z" fill="#ACADAC"/></svg><svg fill="none" viewBox="0 0 13 8" id="accordion--row" xmlns="http://www.w3.org/2000/svg"><path d="M1 1.243L6.657 6.9l5.657-5.657" stroke="#1F2120"/></svg><svg fill="none" viewBox="0 0 26 15" id="arrow-down" xmlns="http://www.w3.org/2000/svg"><path d="M1 1.5l12 12 12-12" stroke="#4C4E4D" stroke-width="1.5"/></svg><svg fill="none" viewBox="0 0 38 38" id="i-arrow-link" xmlns="http://www.w3.org/2000/svg"><path d="M28.428 28.428c5.207-5.207 5.207-13.65 0-18.856-5.207-5.207-13.65-5.207-18.856 0-5.207 5.207-5.207 13.65 0 18.856 5.207 5.207 13.649 5.207 18.856 0zM15.7 22.3l5.657-5.657" stroke="#1F2120" stroke-width="1.5" stroke-linecap="round" stroke-linejoin="round"/><path d="M22.3 21.357V15.7h-5.657" stroke="#1F2120" stroke-width="1.5" stroke-linecap="round" stroke-linejoin="round"/></svg><svg fill="none" viewBox="0 0 38 38" id="i-arrow-link-white" xmlns="http://www.w3.org/2000/svg"><path d="M28.428 28.428c5.207-5.207 5.207-13.65 0-18.856-5.207-5.207-13.65-5.207-18.856 0-5.207 5.207-5.207 13.65 0 18.856 5.207 5.207 13.649 5.207 18.856 0zM15.7 22.3l5.657-5.657" stroke="#fff" stroke-width="1.5" stroke-linecap="round" stroke-linejoin="round"/><path d="M22.3 21.357V15.7h-5.657" stroke="#fff" stroke-width="1.5" stroke-linecap="round" stroke-linejoin="round"/></svg><svg fill="none" viewBox="0 0 44 88" id="i-arrow-slider" xmlns="http://www.w3.org/2000/svg"><path d="M12 1c17.998 5.886 31 22.815 31 42.78S29.998 80.673 12 86.56" stroke="#1F2120" stroke-width="2"/><path d="M0 43.78l10 5.773V38.006L0 43.779zm24-1H9v2h15v-2z" fill="#1F2120"/></svg><svg fill="none" viewBox="0 0 44 88" id="i-arrow-slider-white" xmlns="http://www.w3.org/2000/svg"><path d="M32 1C14.002 6.886 1 23.815 1 43.78s13.002 36.893 31 42.78" stroke="#fff" stroke-width="2"/><path d="M44 43.78l-10 5.773V38.006l10 5.773zm-24-1h15v2H20v-2z" fill="#fff"/></svg><svg fill="none" viewBox="0 0 24 24" id="i-catalog" xmlns="http://www.w3.org/2000/svg"><path d="M5 3a2 2 0 10-.001 3.999A2 2 0 005 3zm7 0a2 2 0 10-.001 3.999A2 2 0 0012 3zm7 0a2 2 0 10-.001 3.999A2 2 0 0019 3zM5 10a2 2 0 10-.001 3.999A2 2 0 005 10zm7 0a2 2 0 10-.001 3.999A2 2 0 0012 10zm7 0a2 2 0 10-.001 3.999A2 2 0 0019 10zM5 17a2 2 0 10-.001 3.999A2 2 0 005 17zm7 0a2 2 0 10-.001 3.999A2 2 0 0012 17zm7 0a2 2 0 10-.001 3.999A2 2 0 0019 17z" fill="#fff"/></svg><svg fill="none" viewBox="0 0 11 17" id="i-chevron" xmlns="http://www.w3.org/2000/svg"><path d="M1.5 1L9 8.5 1.5 16" stroke="#1F2120" stroke-width="1.5"/></svg><svg fill="none" viewBox="0 0 22 22" id="i-close" xmlns="http://www.w3.org/2000/svg"><path d="M1 1l20 20m0-20L1 21" stroke="#1F2120" stroke-width="1.5"/></svg><svg fill="none" viewBox="0 0 24 24" id="i-company-1" xmlns="http://www.w3.org/2000/svg"><path d="M5.434 3L1.78 9.088 12 21.58l.773-.947L22.22 9.088 18.566 3H5.434zm2.332 2h8.468l-1.8 3H9.566l-1.8-3zM6 5.943L7.234 8H4.766L6 5.943zm12 0L19.234 8h-2.468L18 5.943zM5.11 10h3.126l1.565 5.734L5.109 10zm5.199 0h3.347l-1.754 5.844L10.31 10zm5.435 0h3.147l-4.97 6.074L15.745 10z" fill="#fff"/></svg><svg fill="none" viewBox="0 0 24 24" id="i-company-2" xmlns="http://www.w3.org/2000/svg"><path d="M12 2C6.5 2 2 6.5 2 12s4.5 10 10 10 10-4.5 10-10S17.5 2 12 2zm0 2c4.06 0 7.433 3.069 7.93 7h-4.075C15.405 9.284 13.85 8 12 8s-3.406 1.284-3.855 3H4.07C4.567 7.069 7.94 4 12 4zm0 6c1.116 0 2 .884 2 2s-.884 2-2 2-2-.884-2-2 .884-2 2-2zm-7.93 3h4.075A4.01 4.01 0 0011 15.855v4.075A8.027 8.027 0 014.07 13zm11.785 0h4.075A8.027 8.027 0 0113 19.93v-4.075A4.01 4.01 0 0015.855 13z" fill="#fff"/></svg><svg fill="none" viewBox="0 0 24 24" id="i-company-3" xmlns="http://www.w3.org/2000/svg"><path d="M12 2v2c-4.959 0-9 4.041-9 9s4.041 9 9 9 9-4.041 9-9h2c0-6.04-4.96-11-11-11zm0 4v2c2.796 0 5 2.204 5 5h2c0 3.878-3.122 7-7 7s-7-3.122-7-7 3.122-7 7-7zm0 4a3 3 0 100 6 3 3 0 000-6zm0 2c.551 0 1 .449 1 1 0 .551-.449 1-1 1-.551 0-1-.449-1-1 0-.551.449-1 1-1z" fill="#fff"/></svg><svg fill="none" viewBox="0 0 42 6" id="i-dots" xmlns="http://www.w3.org/2000/svg"><circle cx="3" cy="3" r="3" transform="rotate(-90 3 3)" fill="#1F2120"/><circle cx="39" cy="3" r="3" transform="rotate(-90 39 3)" fill="#1F2120"/><circle cx="21" cy="3" r="3" transform="rotate(-90 21 3)" fill="#1F2120"/></svg><svg fill="none" viewBox="0 0 24 24" id="i-globe" xmlns="http://www.w3.org/2000/svg"><path d="M12 2C6.489 2 2 6.489 2 12s4.489 10 10 10 10-4.489 10-10S17.511 2 12 2zm0 2c.248 0 .52.102.867.432s.723.883 1.047 1.611c.246.554.448 1.23.621 1.957h-5.07c.173-.726.375-1.403.62-1.957.324-.728.701-1.281 1.048-1.611.347-.33.619-.432.867-.432zm-3.549.834c-.065.13-.132.26-.193.396-.362.814-.643 1.756-.854 2.77H5.072a7.99 7.99 0 013.38-3.166zm7.098 0A7.99 7.99 0 0118.928 8h-2.332c-.211-1.014-.492-1.956-.854-2.77-.06-.137-.128-.265-.193-.396zM4.262 10h2.836A21.14 21.14 0 007 12c0 .686.036 1.353.098 2H4.262A8.028 8.028 0 014 12c0-.693.098-1.36.262-2zm4.855 0h5.766c.07.643.117 1.307.117 2 0 .693-.048 1.357-.117 2H9.117A18.472 18.472 0 019 12c0-.693.048-1.357.117-2zm7.785 0h2.836c.164.64.262 1.307.262 2 0 .693-.098 1.36-.262 2h-2.836c.062-.647.098-1.314.098-2 0-.686-.036-1.353-.098-2zm-11.83 6h2.332c.211 1.014.492 1.956.854 2.77.06.137.128.265.193.396A7.99 7.99 0 015.072 16zm4.393 0h5.07c-.173.726-.375 1.403-.62 1.957-.324.728-.701 1.281-1.048 1.611-.347.33-.619.432-.867.432s-.52-.102-.867-.432-.723-.883-1.047-1.611c-.246-.554-.448-1.23-.621-1.957zm7.13 0h2.333a7.99 7.99 0 01-3.38 3.166c.066-.13.133-.26.194-.396.362-.814.643-1.756.854-2.77z" fill="#fff"/></svg><svg fill="none" viewBox="0 0 24 24" id="i-lang" xmlns="http://www.w3.org/2000/svg"><path d="M12 2C6.489 2 2 6.489 2 12s4.489 10 10 10 10-4.489 10-10S17.511 2 12 2zm0 2c.248 0 .52.102.867.432s.723.883 1.047 1.611c.246.554.448 1.23.621 1.957h-5.07c.173-.726.375-1.403.62-1.957.324-.728.701-1.281 1.048-1.611.347-.33.619-.432.867-.432zm-3.549.834c-.065.13-.132.26-.193.396-.362.814-.643 1.756-.854 2.77H5.072a7.99 7.99 0 013.38-3.166zm7.098 0A7.99 7.99 0 0118.928 8h-2.332c-.211-1.014-.492-1.956-.854-2.77-.06-.137-.128-.265-.193-.396zM4.262 10h2.836A21.14 21.14 0 007 12c0 .686.036 1.353.098 2H4.262A8.028 8.028 0 014 12c0-.693.098-1.36.262-2zm4.855 0h5.766c.07.643.117 1.307.117 2 0 .693-.048 1.357-.117 2H9.117A18.472 18.472 0 019 12c0-.693.048-1.357.117-2zm7.785 0h2.836c.164.64.262 1.307.262 2 0 .693-.098 1.36-.262 2h-2.836c.062-.647.098-1.314.098-2 0-.686-.036-1.353-.098-2zm-11.83 6h2.332c.211 1.014.492 1.956.854 2.77.06.137.128.265.193.396A7.99 7.99 0 015.072 16zm4.393 0h5.07c-.173.726-.375 1.403-.62 1.957-.324.728-.701 1.281-1.048 1.611-.347.33-.619.432-.867.432s-.52-.102-.867-.432-.723-.883-1.047-1.611c-.246-.554-.448-1.23-.621-1.957zm7.13 0h2.333a7.99 7.99 0 01-3.38 3.166c.066-.13.133-.26.194-.396.362-.814.643-1.756.854-2.77z" fill="#fff"/></svg><svg fill="none" viewBox="0 0 24 24" id="i-mail" xmlns="http://www.w3.org/2000/svg"><path d="M4 4a2 2 0 00-2 2v12a2 2 0 002 2h16a2 2 0 002-2V6a2 2 0 00-2-2H4zm0 2h16v1.002L12 12 4 7.002V6zm0 3.002L12 14l8-4.998V18H4V9.002z" fill="#fff"/></svg><svg fill="none" viewBox="0 0 32 32" id="i-play" xmlns="http://www.w3.org/2000/svg"><g clip-path="url(#avclip0_270_20)"><path d="M9 9.93L17.6 16 9 22.07V9.93z" stroke="#8F9190" stroke-width="2"/><path fill="#8F9190" d="M22 8h2v16h-2z"/></g><defs><clipPath id="avclip0_270_20"><path fill="#fff" d="M0 0h32v32H0z"/></clipPath></defs></svg><svg fill="none" viewBox="0 0 114 124" id="i-play-2" xmlns="http://www.w3.org/2000/svg"><path d="M49 43.904L75.239 62 49 80.096V43.904zM1.803 88c9.76 20.686 30.807 35 55.197 35 24.39 0 45.437-14.314 55.198-35M1.803 36C11.563 15.314 32.61 1 57 1c24.39 0 45.437 14.314 55.198 35" stroke="#fff" stroke-width="2"/></svg><svg fill="none" viewBox="0 0 24 24" id="i-property-item-1" xmlns="http://www.w3.org/2000/svg"><path d="M20.922 7.615a.993.993 0 00-.217-.323l-3.999-3.999A.992.992 0 0016 3H4a.996.996 0 00-1 1v12c0 .266.105.52.293.707l3.999 3.999A1.004 1.004 0 008 21h12a1 1 0 001-1V8a.988.988 0 00-.078-.385zM17.586 7H8.414l-2-2h9.172l2 2zM5 6.414l2 2v9.172l-2-2V6.414z" fill="#fff"/></svg><svg fill="none" viewBox="0 0 80 80" id="i-search-zoom-in" xmlns="http://www.w3.org/2000/svg"><path d="M36.667 66.667c16.568 0 30-13.432 30-30 0-16.569-13.432-30-30-30-16.569 0-30 13.431-30 30 0 16.568 13.431 30 30 30zM28.333 36.667H45M36.667 45V28.333" stroke="#fff" stroke-width="2" stroke-linecap="round" stroke-linejoin="round"/></svg><svg fill="none" viewBox="0 0 28 28" id="i-slider-top-1" xmlns="http://www.w3.org/2000/svg"><path d="M24.409 8.884a1.158 1.158 0 00-.253-.377L19.49 3.842a1.157 1.157 0 00-.823-.342h-14A1.162 1.162 0 003.5 4.667v14c0 .31.123.606.342.824l4.665 4.666a1.172 1.172 0 00.826.343h14c.646 0 1.167-.521 1.167-1.167v-14c0-.156-.032-.308-.091-.449zm-3.892-.717h-10.7L7.482 5.833h10.7l2.334 2.334zM5.833 7.483l2.334 2.333v10.701l-2.334-2.333V7.483z" fill="#fff"/></svg><svg fill="none" viewBox="0 0 28 28" id="i-slider-top-2" xmlns="http://www.w3.org/2000/svg"><path d="M14 1.333s-9.333 9.9-9.333 16.167c0 5.2 4.133 9.333 9.333 9.333s9.333-4.133 9.333-9.333C23.333 11.234 14 1.334 14 1.334zM14 24.5c-3.926 0-7-3.074-7-7 0-3.273 3.795-8.846 7.001-12.654L14 24.5z" fill="#fff"/></svg><svg fill="none" viewBox="0 0 28 28" id="i-slider-top-3" xmlns="http://www.w3.org/2000/svg"><path d="M14 2.197L2.058 8.167 4.145 9.21l3.746 1.873L2.058 14l5.833 2.917-5.833 2.916L14 25.803l11.942-5.97-5.833-2.916L25.942 14l-5.833-2.917 5.833-2.916L14 2.197zm0 2.606l6.724 3.364L14 11.53 7.276 8.167 14 4.803zm-3.5 7.584l3.5 1.75 3.5-1.75L20.724 14 14 17.363 7.276 14l3.224-1.613zm0 5.833l3.5 1.75 3.5-1.75 3.224 1.613L14 23.197l-6.724-3.364L10.5 18.22z" fill="#fff"/></svg><svg fill="none" viewBox="0 0 28 28" id="i-slider-top-4" xmlns="http://www.w3.org/2000/svg"><path d="M14 1.167a4.671 4.671 0 00-4.667 4.666h-3.5c-1.165 0-2.135.81-2.317 2.017L2.358 23.076a2.21 2.21 0 00.57 1.839 2.37 2.37 0 001.739.752h18.666c.663 0 1.297-.274 1.737-.75.465-.502.673-1.172.58-1.755L24.487 7.85l-.011-.089c-.173-1.116-1.143-1.928-2.308-1.928h-3.5A4.671 4.671 0 0014 1.167zM14 3.5a2.336 2.336 0 012.333 2.333h-4.666A2.336 2.336 0 0114 3.5zM5.831 8.167l16.34.007 1.162 15.16-18.657.006L5.83 8.167zm1.957 2.28v8.71h1.908V17.41l.54-.538 1.337 2.284h2.185l-2.287-3.61 2.146-2.522H11.33l-1.44 1.79-.191.256v-4.623h-1.91zm9.02 2.466c-.507 0-.95.13-1.331.387-.382.258-.675.629-.88 1.103-.203.476-.305 1.025-.305 1.643h.002v.069c0 .96.23 1.725.69 2.297.462.572 1.066.856 1.814.856.558 0 1.022-.201 1.388-.606v.194c0 .868-.426 1.301-1.272 1.301-.58 0-1.049-.21-1.403-.629l-.8 1.123c.223.271.545.49.966.661a3.43 3.43 0 001.306.255c.626 0 1.178-.104 1.654-.319.477-.212.838-.518 1.09-.916.252-.399.378-.868.378-1.408v-5.9H18.37l-.068.534c-.357-.43-.857-.645-1.495-.645zm.487 1.472c.408 0 .704.14.889.42v2.577c-.19.275-.49.414-.9.414a.892.892 0 01-.793-.44c-.19-.291-.285-.69-.285-1.191 0-.579.098-1.02.29-1.324.193-.303.458-.456.799-.456z" fill="#F8F8F8"/></svg><svg fill="none" viewBox="0 0 16 16" id="i-socials-ok" xmlns="http://www.w3.org/2000/svg"><g clip-path="url(#bdclip0_84_15)" fill="#fff"><path d="M7.213 11.311c-1.24-.13-2.36-.435-3.317-1.184-.119-.093-.241-.183-.35-.287-.419-.402-.461-.863-.13-1.338.284-.407.76-.516 1.256-.282.095.045.187.102.274.162 1.785 1.226 4.236 1.26 6.027.055.178-.136.367-.247.587-.303a.922.922 0 011.056.421c.262.427.259.844-.064 1.176a4.868 4.868 0 01-1.753 1.133c-.626.242-1.312.364-1.99.446.102.111.15.166.214.23.922.926 1.847 1.848 2.765 2.776.313.317.379.709.206 1.077-.188.402-.61.667-1.023.638-.262-.018-.466-.148-.648-.331-.695-.7-1.403-1.386-2.084-2.1-.199-.207-.294-.167-.469.013-.7.72-1.41 1.429-2.125 2.134-.321.316-.703.373-1.076.193-.396-.192-.647-.596-.628-1.002.013-.275.148-.485.337-.673.912-.91 1.821-1.823 2.73-2.735.06-.06.117-.125.205-.219z"/><path d="M7.968 8.099C5.755 8.09 3.941 6.257 3.954 4.04A4.056 4.056 0 018.017 0c2.239.006 4.036 1.838 4.025 4.102-.012 2.212-1.839 4.004-4.074 3.997zM9.98 4.046a1.972 1.972 0 00-1.978-1.978A1.975 1.975 0 006.017 4.07a1.972 1.972 0 001.994 1.962 1.968 1.968 0 001.968-1.986z"/></g><defs><clipPath id="bdclip0_84_15"><path fill="#fff" d="M0 0h16v16H0z"/></clipPath></defs></svg><svg fill="none" viewBox="0 0 16 16" id="i-socials-sk" xmlns="http://www.w3.org/2000/svg"><path d="M8.033 12.815c-2.658 0-3.872-1.354-3.872-2.347a.861.861 0 01.909-.861c1.138 0 .84 1.707 2.963 1.707 1.086 0 1.723-.653 1.723-1.267 0-.369-.21-.79-.927-.96l-2.37-.597c-1.905-.485-2.237-1.544-2.237-2.526 0-2.04 1.865-2.777 3.64-2.777 1.636 0 3.58.904 3.58 2.126 0 .527-.44.809-.95.809-.973 0-.81-1.365-2.764-1.365-.972 0-1.483.456-1.483 1.094 0 .637.756.853 1.42.998l1.749.395c1.917.432 2.428 1.557 2.428 2.634 0 1.657-1.283 2.937-3.811 2.937h.002zm7.34-3.506a7.6 7.6 0 00.112-1.317A7.486 7.486 0 006.703.587 4.404 4.404 0 004.496 0 4.478 4.478 0 00.63 6.693a7.491 7.491 0 008.672 8.72c.67.386 1.431.588 2.205.587a4.478 4.478 0 003.864-6.69z" fill="#fff"/></svg><svg fill="none" viewBox="0 0 16 16" id="i-socials-tg" xmlns="http://www.w3.org/2000/svg"><path fill-rule="evenodd" clip-rule="evenodd" d="M1.358 7.529C5.492 5.728 8.25 4.54 9.628 3.966c3.94-1.638 4.758-1.922 5.291-1.932.117-.002.38.027.55.165a.597.597 0 01.201.384 2.5 2.5 0 01.024.559c-.213 2.242-1.137 7.684-1.607 10.196-.198 1.062-.59 1.419-.969 1.454-.824.075-1.449-.545-2.247-1.068-1.248-.818-1.953-1.327-3.164-2.126-1.4-.922-.493-1.43.305-2.258.209-.217 3.838-3.518 3.908-3.817.008-.038.017-.177-.066-.25-.083-.074-.206-.05-.294-.03-.125.03-2.12 1.347-5.982 3.955-.566.388-1.079.578-1.538.568-.506-.011-1.48-.287-2.204-.522C.947 8.955.242 8.803.303 8.312c.032-.255.384-.516 1.055-.783z" fill="#fff"/></svg><svg fill="none" viewBox="0 0 24 16" id="i-socials-vk" xmlns="http://www.w3.org/2000/svg"><path fill-rule="evenodd" clip-rule="evenodd" d="M20.568 3.389c.125-.417 0-.722-.594-.722h-1.965c-.5 0-.73.264-.855.555 0 0-1 2.436-2.415 4.018-.458.458-.666.604-.916.604-.125 0-.312-.146-.312-.562V3.389c0-.5-.138-.722-.555-.722H9.87c-.313 0-.5.231-.5.451 0 .474.707.583.78 1.915v2.894c0 .634-.114.75-.364.75-.666 0-2.286-2.447-3.247-5.247-.189-.544-.378-.764-.88-.764H3.693c-.561 0-.673.265-.673.556 0 .52.666 3.102 3.101 6.516 1.624 2.332 3.912 3.595 5.993 3.595 1.25 0 1.404-.28 1.404-.764v-1.762c0-.562.118-.674.514-.674.291 0 .79.146 1.956 1.27 1.333 1.332 1.552 1.93 2.302 1.93h1.965c.561 0 .842-.28.68-.835-.177-.552-.813-1.353-1.657-2.302-.458-.541-1.145-1.124-1.354-1.416-.291-.374-.208-.54 0-.874 0 0 2.394-3.372 2.644-4.517z" fill="#fff"/></svg><svg fill="none" viewBox="0 0 16 16" id="i-socials-yt" xmlns="http://www.w3.org/2000/svg"><path d="M15.67 4.153a2.005 2.005 0 00-1.41-1.41C13.008 2.4 8 2.4 8 2.4s-5.008 0-6.26.33A2.046 2.046 0 00.33 4.152C0 5.405 0 8 0 8s0 2.61.33 3.849a2.005 2.005 0 001.41 1.41c1.265.342 6.26.342 6.26.342s5.008 0 6.26-.329a2.005 2.005 0 001.41-1.41C16 10.61 16 8.014 16 8.014s.013-2.61-.33-3.861z" fill="#fff"/><path d="M6.404 10.4L10.57 8 6.404 5.603V10.4z" fill="#D3D3D3"/></svg><svg fill="none" viewBox="0 0 48 48" id="i-truck-1" xmlns="http://www.w3.org/2000/svg"><path d="M43.996 40.996h3v-11l-4.003-10.998M37 19v11" stroke="#fff" stroke-width="1.5" stroke-miterlimit="10" stroke-linejoin="round"/><path d="M31.492 34.995l2.033-15.997h12.468M37.995 46.997a6.001 6.001 0 100-12.002 6.001 6.001 0 000 12.002z" stroke="#fff" stroke-width="1.5" stroke-miterlimit="10" stroke-linejoin="round"/><path d="M37.995 42.993a1.997 1.997 0 100-3.995 1.997 1.997 0 000 3.995zM31.994 29.997h15.003M42.993 15.003H29.996l-3 23.995h-6.001L1.003 26.002l.889-7.004h27.101M23.16 21.998l-1.77 13.903M17.66 21.998l-1.346 10.603M12.16 21.998l-.924 7.304M6.66 21.998l-.5 4.004M6.995 46.997a6.001 6.001 0 100-12.002 6.001 6.001 0 000 12.002z" stroke="#fff" stroke-width="1.5" stroke-miterlimit="10" stroke-linejoin="round"/><path d="M6.995 42.993a1.997 1.997 0 100-3.995 1.997 1.997 0 000 3.995z" stroke="#fff" stroke-width="1.5" stroke-miterlimit="10" stroke-linejoin="round"/><path d="M13 43h19" stroke="#fff" stroke-width="1.5" stroke-miterlimit="10"/></svg><svg fill="none" viewBox="0 0 48 48" id="i-truck-2" xmlns="http://www.w3.org/2000/svg"><path d="M35.998 42.993h-11M43.996 37.001h3" stroke="#fff" stroke-width="1.5" stroke-miterlimit="10"/><path d="M46.997 34l-9.002-3v-6.001h6.001" stroke="#fff" stroke-width="1.5" stroke-miterlimit="10" stroke-linejoin="round"/><path d="M42.993 42.993h4.004V34l-3.564-11.588a1.993 1.993 0 00-1.91-1.408h-8.526v21.998" stroke="#fff" stroke-width="1.5" stroke-miterlimit="10" stroke-linejoin="round"/><path d="M39.5 46.997a3.502 3.502 0 100-7.004 3.502 3.502 0 000 7.004zM12.002 46.997a3.502 3.502 0 100-7.004 3.502 3.502 0 000 7.004zM21.998 46.997a3.502 3.502 0 100-7.004 3.502 3.502 0 000 7.004z" stroke="#fff" stroke-width="1.5" stroke-miterlimit="10"/><path d="M9.001 42.993H4.003v-4.998M18.997 42.993h-3.995M32.997 37.995H1.003l3.995-14.994h23.995" stroke="#fff" stroke-width="1.5" stroke-miterlimit="10" stroke-linejoin="round"/><path d="M25.65 37.995L31.28 17h9.715M21.461 34.995l2.411-8.993M16.455 34.995l2.41-8.993M11.457 34.995l2.41-8.993M6.458 34.995l2.412-8.993" stroke="#fff" stroke-width="1.5" stroke-miterlimit="10" stroke-linejoin="round"/></svg><svg fill="none" viewBox="0 0 48 48" id="i-truck-3" xmlns="http://www.w3.org/2000/svg"><path d="M39.992 46.988a6.995 6.995 0 100-13.99 6.995 6.995 0 000 13.99z" stroke="#fff" stroke-width="1.5" stroke-miterlimit="10" stroke-linejoin="round"/><path d="M39.993 42.492a2.499 2.499 0 100-4.998 2.499 2.499 0 000 4.998zM26.002 37.001h6.995M12.002 45.994c5.52 0 9.996-4.476 9.996-9.996 0-5.52-4.475-9.996-9.996-9.996-5.52 0-9.996 4.475-9.996 9.996 0 5.52 4.476 9.996 9.996 9.996z" stroke="#fff" stroke-width="1.5" stroke-miterlimit="10" stroke-linejoin="round"/><path d="M.871 27.506a13.978 13.978 0 0111.131-5.508c7.735 0 14 6.265 14 14 0 2.12-.475 4.136-1.32 5.94" stroke="#fff" stroke-width="1.5" stroke-miterlimit="10" stroke-linejoin="round"/><path d="M12.002 40.002a4.004 4.004 0 100-8.008 4.004 4.004 0 000 8.008zM12.002 23.996v2.006M12.002 45.994V48M6.001 25.606l.994 1.733M17 44.656l.994 1.734M1.61 29.997L3.335 31M20.66 40.996l1.734 1.003M0 35.998h1.997M21.998 35.998h1.997M1.61 41.999l1.725-1.003M20.66 31l1.734-1.003M6.001 46.39l.994-1.734M17 27.34l.994-1.734M29.997 29.997v-6.001M34 29.997v-6.001M37.995 29.997v-6.001M20.617 17.3l4.496 4.496M23.09 14.818l-4.955 4.954M21.338 25.57l6.767-6.766 13.313 2.851a1.997 1.997 0 011.584 1.953v10.384M7.999 23.001V14h.906c1.258 0 2.385.783 2.816 1.97l2.252 6.143M32.232 9.46L34 12.995v7.005" stroke="#fff" stroke-width="1.5" stroke-miterlimit="10" stroke-linejoin="round"/></svg><svg fill="none" viewBox="0 0 48 48" id="i-truck-4" xmlns="http://www.w3.org/2000/svg"><path d="M43.996 37.001h3M39.5 46.997a3.502 3.502 0 100-7.004 3.502 3.502 0 000 7.004zM11 46.997a3.502 3.502 0 100-7.004 3.502 3.502 0 000 7.004zM20.995 46.997a3.502 3.502 0 100-7.004 3.502 3.502 0 000 7.004z" stroke="#fff" stroke-width="1.5" stroke-miterlimit="10"/><path d="M42.993 42.993h4.004V31.994l-3.564-11.58a1.993 1.993 0 00-1.91-1.408h-8.526V43.002h3" stroke="#fff" stroke-width="1.5" stroke-miterlimit="10" stroke-linejoin="round"/><path d="M46.997 31.994l-9.002-3V23h6.001M7.999 42.993H4.004v-4.998M17.994 42.993H14M29.997 42.993h-6.001" stroke="#fff" stroke-width="1.5" stroke-miterlimit="10" stroke-linejoin="round"/><path d="M24.013 17.81L10.005 14H5.473L.994 21.752 3.3 25.756l10.25 10.25h7.506c1.787 0 3.441-.95 4.33-2.498l2.42-4.189a5.018 5.018 0 000-4.998l-3.793-6.511z" stroke="#fff" stroke-width="1.5" stroke-miterlimit="10" stroke-linecap="round" stroke-linejoin="round"/><path d="M3.308 25.747L9.996 14M13.56 35.998L24.013 17.81" stroke="#fff" stroke-width="1.5" stroke-miterlimit="10" stroke-linejoin="round"/></svg><svg fill="none" viewBox="0 0 48 48" id="icon----1" xmlns="http://www.w3.org/2000/svg"><circle cx="24" cy="24" r="24" fill="#1F2120"/><path d="M32.922 19.615a.993.993 0 00-.217-.323l-3.999-3.999A.992.992 0 0028 15H16a.996.996 0 00-1 1v12c0 .266.105.52.293.707l3.999 3.999A1.004 1.004 0 0020 33h12a1 1 0 001-1V20a.988.988 0 00-.078-.385zM29.586 19h-9.172l-2-2h9.172l2 2zM17 18.414l2 2v9.172l-2-2v-9.172z" fill="#fff"/></svg><svg fill="none" viewBox="0 0 66 44" id="logo" xmlns="http://www.w3.org/2000/svg"><g clip-path="url(#bnclip0_549_79)"><path d="M8.921 20.95H2.232v-3.518h6.69v3.519zM66 15.19h-1.839c-.334 0-.668.159-.846.453l-4.011 6.72-4.012-6.72c-.178-.294-.512-.453-.846-.453h-.422a1.39 1.39 0 00-1.402 1.404V28.81h1.787a.46.46 0 00.438-.453V18.89l3.3 5.36c.245.249.511.453.845.453h.623c.334 0 .6-.204.845-.453l3.3-5.36v9.467c0 .249.2.453.445.453h1.335a.45.45 0 00.445-.453C66 23.963 66 19.577 66 15.19zm-15.388 0H48.825a.46.46 0 00-.437.453v10.894h-6.69V15.643a.45.45 0 00-.444-.453h-1.335a.45.45 0 00-.445.453V28.802h9.766c.78 0 1.38-.611 1.38-1.404-.008-4.07-.008-8.139-.008-12.208zm-13.155 0H35.67a.46.46 0 00-.438.453v9.671l-6.266-9.67c-.2-.34-.556-.454-.846-.454h-.422c-.779 0-1.38.612-1.38 1.404V28.81h1.788a.46.46 0 00.437-.453V18.73l6.244 9.626c.2.34.556.453.846.453h.444c.78 0 1.387-.612 1.387-1.404-.007-4.077-.007-8.147-.007-12.216zm-13.156 0h-9.766c-.779 0-1.38.612-1.38 1.404V28.802h9.76c.778 0 1.379-.611 1.379-1.404.007-4.07.007-8.139.007-12.208zm-2.224 11.347h-6.69v-9.082h6.69v9.082zM0 28.81h8.81c1.29 0 2.343-1.042 2.343-2.318v-2.295c0-1.268-1.045-2.318-2.343-2.318v-.09c1.29 0 2.343-1.042 2.343-2.318v-1.978c0-1.269-1.045-2.318-2.343-2.318H.445a.45.45 0 00-.445.453V28.81zm51.962-17.365C48.292 4.628 41.18 0 33 0S17.709 4.628 14.038 11.445h2.625C20.097 5.95 26.126 2.303 33 2.303c6.874 0 12.903 3.646 16.337 9.142h2.625zM33 44c8.18 0 15.291-4.628 18.962-11.445h-2.625c-3.434 5.496-9.47 9.142-16.337 9.142-6.874 0-12.903-3.646-16.337-9.142h-2.625C17.708 39.372 24.82 44 33 44zM8.921 26.56H2.232v-3.813h6.69v3.813z" fill="#fff"/></g><defs><clipPath id="bnclip0_549_79"><path fill="#fff" d="M0 0h66v44H0z"/></clipPath></defs></svg><svg fill="none" viewBox="0 0 22 18" id="make--Italy" xmlns="http://www.w3.org/2000/svg"><g clip-path="url(#boclip0_1166_1198)" fill-rule="evenodd" clip-rule="evenodd"><path d="M1 1.5h20v15H1v-15z" fill="#fff"/><path d="M1 1.5h6.666v15H1v-15z" fill="#009246"/><path d="M14.334 1.5H21v15h-6.666v-15z" fill="#CE2B37"/></g><path stroke="#E3E3E3" d="M.5 1h21v16H.5z"/><defs><clipPath id="boclip0_1166_1198"><path fill="#fff" d="M1 1.5h20v15H1z"/></clipPath></defs></svg><svg fill="none" viewBox="0 0 22 18" id="maker-Finland" xmlns="http://www.w3.org/2000/svg"><g clip-path="url(#bpclip0_1166_1206)"><path d="M1 1.5h20v15H1v-15z" fill="#fff"/><path d="M1 6.953h20v4.094H1V6.953z" fill="#003580"/><path d="M6.484 1.5h4.091v15H6.481l.003-15z" fill="#003580"/></g><path stroke="#E3E3E3" d="M.5 1h21v16H.5z"/><defs><clipPath id="bpclip0_1166_1206"><path fill="#fff" d="M1 1.5h20v15H1z"/></clipPath></defs></svg><svg fill="none" viewBox="0 0 20 20" id="paperclip" xmlns="http://www.w3.org/2000/svg"><path fill-rule="evenodd" clip-rule="evenodd" d="M7.405 2.803c2.452-2.348 6.417-2.348 8.87 0 2.467 2.361 2.467 6.203 0 8.565l-6.624 6.34c-1.742 1.667-4.555 1.667-6.297 0a4.192 4.192 0 010-6.103l6.528-6.248a2.71 2.71 0 013.724 0 2.5 2.5 0 010 3.639L7.03 15.29a.626.626 0 11-.865-.904l6.575-6.294a1.252 1.252 0 000-1.833 1.46 1.46 0 00-1.994 0l-6.529 6.248a2.942 2.942 0 000 4.297c1.259 1.204 3.31 1.204 4.569 0l6.623-6.34c1.953-1.87 1.953-4.89 0-6.76-1.97-1.884-5.172-1.884-7.142 0L2.932 8.813a.625.625 0 11-.865-.902l5.338-5.108z" fill="#fff"/></svg><svg fill="none" viewBox="0 0 48 48" id="property__item-icon--10" xmlns="http://www.w3.org/2000/svg"><circle cx="24" cy="24" r="24" fill="#1F2120"/><path d="M16 13l-3 3h2v1h2v-1h2l-3-3zm-1 6v2h2v-2h-2zm0 4v2h2v-2h-2zm0 4v2h2v-2h-2zm17 2v2H17.732a2 2 0 10-.734 2.731 2 2 0 00.73-.731H32v2l3-3-3-3z" fill="#F8F8F8"/></svg><svg fill="none" viewBox="0 0 48 48" id="property__item-icon--11" xmlns="http://www.w3.org/2000/svg"><circle cx="24" cy="24" r="24" fill="#1F2120"/><path d="M24 14c-5.5 0-10 4.5-10 10s4.5 10 10 10 10-4.5 10-10-4.5-10-10-10zm-1.002 2.07l-.002.909 2 .003.002-.912c.734.093 1.44.28 2.1.559l-.457.79 1.73 1.003.453-.783c.578.44 1.093.955 1.533 1.533l-.78.453 1 1.732.794-.459c.28.66.466 1.367.559 2.102h-.914v2h.914a7.917 7.917 0 01-.559 2.102l-.795-.46-1 1.733.781.453a8.087 8.087 0 01-1.533 1.533l-.451-.78-1.732.997.457.793c-.66.28-1.366.466-2.1.559l-.002-.912-2 .003.002.909a7.919 7.919 0 01-2.102-.56l.457-.79-1.732-1.002-.45.78a8.087 8.087 0 01-1.532-1.534l.779-.449-1.002-1.732-.787.457a7.919 7.919 0 01-.559-2.1h.909v-2h-.909c.093-.734.28-1.44.559-2.1l.787.457 1.002-1.732-.78-.45a8.087 8.087 0 011.534-1.532l.45.779 1.732-1.002-.457-.79a7.915 7.915 0 012.101-.56zM24 20c-2.197 0-4 1.803-4 4s1.803 4 4 4 4-1.803 4-4-1.803-4-4-4zm0 2c1.116 0 2 .884 2 2s-.884 2-2 2-2-.884-2-2 .884-2 2-2z" fill="#fff"/></svg><svg fill="none" viewBox="0 0 48 48" id="property__item-icon--12" xmlns="http://www.w3.org/2000/svg"><circle cx="24" cy="24" r="24" fill="#1F2120"/><path d="M24 14v2c-4.959 0-9 4.041-9 9s4.041 9 9 9 9-4.041 9-9h2c0-6.04-4.96-11-11-11zm0 4v2c2.797 0 5 2.203 5 5h2c0 3.878-3.122 7-7 7s-7-3.122-7-7 3.122-7 7-7zm0 4a3 3 0 100 6 3 3 0 000-6zm0 2c.551 0 1 .449 1 1 0 .551-.449 1-1 1-.551 0-1-.449-1-1 0-.551.449-1 1-1z" fill="#fff"/></svg><svg fill="none" viewBox="0 0 48 48" id="property__item-icon--13" xmlns="http://www.w3.org/2000/svg"><circle cx="24" cy="24" r="24" fill="#1F2120"/><path d="M24 13.143S16 21.629 16 27c0 4.457 3.543 8 8 8s8-3.543 8-8c0-5.371-8-13.857-8-13.857zM24 33c-3.365 0-6-2.635-6-6 0-2.805 3.253-7.582 6.001-10.846L24 33z" fill="#fff"/></svg><svg fill="none" viewBox="0 0 48 48" id="property__item-icon--14" xmlns="http://www.w3.org/2000/svg"><circle cx="24" cy="24" r="24" fill="#1F2120"/><path d="M21.707 14.293l-1.414 1.414L23 18.414v3.781l-3.207-2.006-.857-3.73-1.95.45.729 3.16-3.16.728.449 1.95 3.728-.86L22.113 24l-3.38 2.113-3.73-.86-.448 1.95 3.16.729-.729 3.16 1.95.449.857-3.73L23 25.806v3.779l-2.707 2.707 1.414 1.414L24 31.414l2.293 2.293 1.414-1.414L25 29.586v-3.78l3.207 2.005.857 3.73 1.95-.45-.729-3.16 3.16-.728-.449-1.95-3.728.86L25.887 24l3.38-2.113 3.73.86.448-1.95-3.16-.729.729-3.16-1.95-.449-.857 3.73L25 22.195v-3.78l2.707-2.708-1.414-1.414L24 16.586l-2.293-2.293z" fill="#fff"/></svg><svg fill="none" viewBox="0 0 48 48" id="property__item-icon--2" xmlns="http://www.w3.org/2000/svg"><circle cx="24" cy="24" r="24" fill="#1F2120"/><path d="M21.666 14l-.49 2.523a7.952 7.952 0 00-2.244 1.291l-2.424-.835-2.336 4.043 1.941 1.687A7.997 7.997 0 0016 24c0 .409.04.833.113 1.291v.002l-1.941 1.688 2.336 4.04 2.422-.834a7.952 7.952 0 002.246 1.29l.49 2.523h4.668l.49-2.523a7.942 7.942 0 002.244-1.291l2.424.835 2.334-4.04-1.94-1.69c.075-.458.114-.883.114-1.291a8.01 8.01 0 00-.113-1.29v-.001l1.941-1.69-2.336-4.04-2.422.834a7.952 7.952 0 00-2.246-1.29L26.334 14h-4.668zm1.648 2h1.372l.388 2 1.043.395a5.943 5.943 0 011.684.964l.863.707 1.922-.66.686 1.186-1.536 1.336.176 1.1v.001c.061.375.088.69.088.971s-.027.596-.088.97l-.178 1.1 1.535 1.336-.685 1.188-1.92-.662-.865.709a5.932 5.932 0 01-1.682.965h-.002L25.072 30l-.388 2h-1.37l-.388-2-1.043-.395a5.943 5.943 0 01-1.684-.964l-.863-.707-1.922.66-.686-1.186 1.538-1.338-.178-1.095v-.002A6.156 6.156 0 0118 24c0-.281.027-.596.088-.97l.178-1.1-1.537-1.336.685-1.188 1.922.662.863-.709a5.943 5.943 0 011.684-.965L22.926 18l.389-2zM24 20c-2.197 0-4 1.803-4 4s1.803 4 4 4 4-1.803 4-4-1.803-4-4-4zm0 2c1.111 0 2 .889 2 2s-.889 2-2 2-2-.889-2-2 .889-2 2-2z" fill="#fff"/></svg><svg fill="none" viewBox="0 0 48 48" id="property__item-icon--3" xmlns="http://www.w3.org/2000/svg"><circle cx="24" cy="24" r="24" fill="#1F2120"/><path d="M24 13c-1.844 0-3.34 1.294-3.797 3H15v19h7c0-1.117.883-2 2-2s2 .883 2 2h7V16h-5.203c-.457-1.706-1.953-3-3.797-3zm0 2c1.117 0 2 .883 2 2v14.62c-.598-.358-1.257-.62-2-.62-.743 0-1.402.262-2 .62V17c0-1.117.883-2 2-2zm-7 3h3v15h-3V18zm11 0h3v15h-3V18z" fill="#fff"/></svg><svg fill="none" viewBox="0 0 48 48" id="property__item-icon--4" xmlns="http://www.w3.org/2000/svg"><circle cx="24" cy="24" r="24" fill="#1F2120"/><path d="M21 15l-1 2h-2v-1h-2v1h-.082c-.818 0-1.58.508-1.871 1.291-.4 1.07-1.047 3.255-1.047 6.209 0 2.954.648 5.138 1.047 6.209A2.003 2.003 0 0015.918 32H17v1h2v-1h10v1h2v-1h1.082c.818 0 1.578-.508 1.871-1.29v-.001c.4-1.07 1.047-3.255 1.047-6.209 0-2.954-.648-5.138-1.047-6.209A2.003 2.003 0 0032.082 17H32v-1h-2v1h-2l-1-2h-6zm-5.082 4h16.164c.335.9.918 2.844.918 5.5s-.583 4.6-.918 5.5H15.918c-.335-.9-.918-2.844-.918-5.5s.583-4.6.918-5.5zM24 21s-3 2-3 4.5c0 1.466 1 2.5 2.443 2.5-.262-.177-.443-.536-.443-1 0-1.5 1-3 1-3s1 1.5 1 3c0 .464-.181.823-.443 1C26 28 27 26.966 27 25.5c0-2.5-3-4.5-3-4.5z" fill="#fff"/></svg><svg fill="none" viewBox="0 0 48 48" id="property__item-icon--5" xmlns="http://www.w3.org/2000/svg"><circle cx="24" cy="24" r="24" fill="#1F2120"/><path d="M24 13c-2.206 0-4 1.794-4 4h-3c-1 0-1.83.695-1.986 1.729l-.993 13.05a1.894 1.894 0 00.489 1.576c.379.41.922.645 1.49.645h16a2.03 2.03 0 001.488-.643c.4-.43.577-1.005.498-1.503l-.998-13.125-.01-.077C32.83 17.695 31.998 17 31 17h-3c0-2.206-1.794-4-4-4zm0 2c1.103 0 2 .897 2 2h-4c0-1.103.897-2 2-2zm-7.002 4l14.006.006L32 32l-15.992.006.99-13.006zm1.678 1.955v7.465h1.634v-1.496l.463-.461 1.147 1.957h1.873l-1.961-3.094 1.84-2.162H21.71L20.476 24.7l-.164.219v-3.963h-1.636zm7.73 2.113c-.434 0-.813.111-1.14.332-.327.221-.578.539-.754.946-.174.408-.262.878-.262 1.408h.002v.058c0 .823.197 1.48.592 1.97.396.49.913.734 1.554.734.478 0 .876-.173 1.19-.52v.166c0 .744-.365 1.115-1.09 1.115-.498 0-.9-.18-1.203-.539l-.686.963c.191.232.467.42.828.567a2.94 2.94 0 001.12.218c.537 0 1.01-.09 1.418-.273.409-.182.718-.444.933-.785.217-.342.324-.744.324-1.207v-5.057h-1.486l-.059.457c-.306-.369-.734-.553-1.28-.553zm.418 1.262c.35 0 .604.12.762.36v2.208c-.162.236-.42.356-.772.356a.764.764 0 01-.68-.377c-.161-.25-.244-.591-.244-1.021 0-.497.085-.874.249-1.135.166-.26.393-.39.685-.39z" fill="#F8F8F8"/></svg><svg fill="none" viewBox="0 0 48 48" id="property__item-icon--6" xmlns="http://www.w3.org/2000/svg"><circle cx="24" cy="24" r="24" fill="#1F2120"/><path d="M26.736 14.027c-.762 0-1.525.289-2.1.864l-9.745 9.746c-1.179 1.178-1.21 3.143.046 4.244l4.229 4.23a2.988 2.988 0 004.2 0l9.745-9.746a2.988 2.988 0 000-4.199l-4.275-4.275a2.962 2.962 0 00-2.1-.864zm0 1.946c.232 0 .463.11.684.332l4.277 4.275c.443.443.443.928 0 1.371l-9.746 9.746c-.443.443-.928.443-1.37 0l-4.3-4.299-.025-.023c-.335-.293-.366-.912.047-1.324h.002l1.222-1.223 3.03 3.104 1.431-1.397-3.047-3.12 1.57-1.571 1.573 1.69 1.465-1.364-1.621-1.742 1.61-1.61 3.095 3.096 1.414-1.416-3.094-3.096 1.098-1.097c.221-.222.453-.332.685-.332z" fill="#fff"/></svg><svg fill="none" viewBox="0 0 48 48" id="property__item-icon--7" xmlns="http://www.w3.org/2000/svg"><circle cx="24" cy="24" r="24" fill="#1F2120"/><path d="M14.5 16a.5.5 0 00-.5.5v1a.5.5 0 00.5.5h5a.5.5 0 00.5-.5v-1a.5.5 0 00-.5-.5h-5zm14 0a.5.5 0 00-.5.5v1a.5.5 0 00.5.5h5a.5.5 0 00.5-.5v-1a.5.5 0 00-.5-.5h-5zM16 20v2.271A2 2 0 0015 24a2 2 0 001 1.729V28h2v-2.27a2 2 0 00.729-.73h10.54a2 2 0 00.731.729V28h2v-2.27A2.001 2.001 0 0033 24a2 2 0 00-1-1.729V20h-2v2.27a2 2 0 00-.729.73H18.729a2 2 0 00-.728-.73V20h-2zm-1.5 10a.5.5 0 00-.5.5v1a.5.5 0 00.5.5h5a.5.5 0 00.5-.5v-1a.5.5 0 00-.5-.5h-5zm14 0a.5.5 0 00-.5.5v1a.5.5 0 00.5.5h5a.5.5 0 00.5-.5v-1a.5.5 0 00-.5-.5h-5z" fill="#fff"/></svg><svg fill="none" viewBox="0 0 48 48" id="property__item-icon--8" xmlns="http://www.w3.org/2000/svg"><circle cx="24" cy="24" r="24" fill="#1F2120"/><path d="M23 13v2.205c-.49.164-.934.403-1.248.756A3.05 3.05 0 0021 18c0 .435.272.82.453 1.229C20.101 19.518 19 20.567 19 22c0 1.645 1.355 3 3 3h4c.565 0 1 .435 1 1s-.435 1-1 1h-2c-.917 0-1.731.38-2.248.96A3.05 3.05 0 0021 30c0 .722.235 1.458.752 2.04.314.352.758.59 1.248.755V35h2v-2.205c.49-.164.934-.403 1.248-.756A3.05 3.05 0 0027 30c0-.435-.272-.82-.453-1.229C27.899 28.482 29 27.433 29 26c0-1.645-1.355-3-3-3h-4c-.565 0-1-.435-1-1s.435-1 1-1h2c.917 0 1.731-.38 2.248-.96A3.05 3.05 0 0027 18a3.05 3.05 0 00-.752-2.04c-.314-.352-.758-.59-1.248-.755V13h-2zm1 4c.417 0 .602.12.752.29.15.168.248.432.248.71 0 .278-.098.542-.248.71-.15.17-.335.29-.752.29s-.602-.12-.752-.29A1.095 1.095 0 0123 18c0-.278.098-.542.248-.71.15-.17.335-.29.752-.29zm0 12c.417 0 .602.12.752.29.15.168.248.432.248.71 0 .278-.098.542-.248.71-.15.17-.335.29-.752.29s-.602-.12-.752-.29A1.095 1.095 0 0123 30c0-.278.098-.542.248-.71.15-.17.335-.29.752-.29z" fill="#fff"/></svg><svg fill="none" viewBox="0 0 48 48" id="property__item-icon--9" xmlns="http://www.w3.org/2000/svg"><circle cx="24" cy="24" r="24" fill="#1F2120"/><path d="M22.918 16c-2.068 0-4.427.796-6.377 2.156C14.591 19.516 13 21.532 13 24c0 2.468 1.59 4.483 3.541 5.844C18.491 31.204 20.85 32 22.918 32c.66 0 1.265-.374 1.65-.846.385-.471.636-1.046.838-1.726C25.811 28.066 26 26.25 26 24c0-2.25-.189-4.066-.594-5.428-.202-.68-.453-1.255-.838-1.726-.385-.472-.99-.846-1.65-.846zm0 2c-.008 0-.026-.047.102.11.127.156.315.51.47 1.03.31 1.044.51 2.728.51 4.86s-.2 3.816-.51 4.86c-.155.52-.343.874-.47 1.03-.128.157-.11.11-.102.11-1.523 0-3.621-.673-5.232-1.797C16.074 27.08 15 25.593 15 24c0-1.593 1.074-3.079 2.686-4.203 1.61-1.124 3.71-1.797 5.232-1.797zm4.383 0c.18.6.33 1.27.43 2H35v-2h-7.7zm.68 5c.02.32.019.66.019 1 0 .34 0 .68-.02 1H35v-2h-7.02zm-.25 5c-.1.73-.25 1.4-.43 2H35v-2h-7.27z" fill="#fff"/></svg><svg fill="none" viewBox="0 0 10 2" id="questions--line" xmlns="http://www.w3.org/2000/svg"><path d="M0 1h10" stroke="#1F2120" stroke-width="2"/></svg><svg fill="none" viewBox="0 0 10 10" id="questions--line2" xmlns="http://www.w3.org/2000/svg"><path d="M5 0v10M0 5h10" stroke="#1F2120" stroke-width="2"/></svg></svg>