<?xml version="1.0" encoding="utf-8"?><svg viewBox="0 0 114 124" xmlns="http://www.w3.org/2000/svg" xmlns:xlink="http://www.w3.org/1999/xlink"><style>:root>svg{display:none}:root>svg:target{display:block}</style><svg fill="none" viewBox="0 0 44 88" id="i-arrow-slider" xmlns="http://www.w3.org/2000/svg"><path d="M12 1c17.998 5.886 31 22.815 31 42.78S29.998 80.673 12 86.56" stroke="#1F2120" stroke-width="2"/><path d="M0 43.78l10 5.773V38.006L0 43.779zm24-1H9v2h15v-2z" fill="#1F2120"/></svg><svg fill="none" viewBox="0 0 44 88" id="i-arrow-slider-white" xmlns="http://www.w3.org/2000/svg"><path d="M32 1C14.002 6.886 1 23.815 1 43.78s13.002 36.893 31 42.78" stroke="#fff" stroke-width="2"/><path d="M44 43.78l-10 5.773V38.006l10 5.773zm-24-1h15v2H20v-2z" fill="#fff"/></svg><svg fill="none" viewBox="0 0 24 24" id="i-catalog" xmlns="http://www.w3.org/2000/svg"><path d="M5 3a2 2 0 10-.001 3.999A2 2 0 005 3zm7 0a2 2 0 10-.001 3.999A2 2 0 0012 3zm7 0a2 2 0 10-.001 3.999A2 2 0 0019 3zM5 10a2 2 0 10-.001 3.999A2 2 0 005 10zm7 0a2 2 0 10-.001 3.999A2 2 0 0012 10zm7 0a2 2 0 10-.001 3.999A2 2 0 0019 10zM5 17a2 2 0 10-.001 3.999A2 2 0 005 17zm7 0a2 2 0 10-.001 3.999A2 2 0 0012 17zm7 0a2 2 0 10-.001 3.999A2 2 0 0019 17z" fill="#fff"/></svg><svg fill="none" viewBox="0 0 24 24" id="i-company-1" xmlns="http://www.w3.org/2000/svg"><path d="M5.434 3L1.78 9.088 12 21.58l.773-.947L22.22 9.088 18.566 3H5.434zm2.332 2h8.468l-1.8 3H9.566l-1.8-3zM6 5.943L7.234 8H4.766L6 5.943zm12 0L19.234 8h-2.468L18 5.943zM5.11 10h3.126l1.565 5.734L5.109 10zm5.199 0h3.347l-1.754 5.844L10.31 10zm5.435 0h3.147l-4.97 6.074L15.745 10z" fill="#fff"/></svg><svg fill="none" viewBox="0 0 24 24" id="i-company-2" xmlns="http://www.w3.org/2000/svg"><path d="M12 2C6.5 2 2 6.5 2 12s4.5 10 10 10 10-4.5 10-10S17.5 2 12 2zm0 2c4.06 0 7.433 3.069 7.93 7h-4.075C15.405 9.284 13.85 8 12 8s-3.406 1.284-3.855 3H4.07C4.567 7.069 7.94 4 12 4zm0 6c1.116 0 2 .884 2 2s-.884 2-2 2-2-.884-2-2 .884-2 2-2zm-7.93 3h4.075A4.01 4.01 0 0011 15.855v4.075A8.027 8.027 0 014.07 13zm11.785 0h4.075A8.027 8.027 0 0113 19.93v-4.075A4.01 4.01 0 0015.855 13z" fill="#fff"/></svg><svg fill="none" viewBox="0 0 24 24" id="i-company-3" xmlns="http://www.w3.org/2000/svg"><path d="M12 2v2c-4.959 0-9 4.041-9 9s4.041 9 9 9 9-4.041 9-9h2c0-6.04-4.96-11-11-11zm0 4v2c2.796 0 5 2.204 5 5h2c0 3.878-3.122 7-7 7s-7-3.122-7-7 3.122-7 7-7zm0 4a3 3 0 100 6 3 3 0 000-6zm0 2c.551 0 1 .449 1 1 0 .551-.449 1-1 1-.551 0-1-.449-1-1 0-.551.449-1 1-1z" fill="#fff"/></svg><svg fill="none" viewBox="0 0 42 6" id="i-dots" xmlns="http://www.w3.org/2000/svg"><circle cx="3" cy="3" r="3" transform="rotate(-90 3 3)" fill="#1F2120"/><circle cx="39" cy="3" r="3" transform="rotate(-90 39 3)" fill="#1F2120"/><circle cx="21" cy="3" r="3" transform="rotate(-90 21 3)" fill="#1F2120"/></svg><svg fill="none" viewBox="0 0 24 24" id="i-globe" xmlns="http://www.w3.org/2000/svg"><path d="M12 2C6.489 2 2 6.489 2 12s4.489 10 10 10 10-4.489 10-10S17.511 2 12 2zm0 2c.248 0 .52.102.867.432s.723.883 1.047 1.611c.246.554.448 1.23.621 1.957h-5.07c.173-.726.375-1.403.62-1.957.324-.728.701-1.281 1.048-1.611.347-.33.619-.432.867-.432zm-3.549.834c-.065.13-.132.26-.193.396-.362.814-.643 1.756-.854 2.77H5.072a7.99 7.99 0 013.38-3.166zm7.098 0A7.99 7.99 0 0118.928 8h-2.332c-.211-1.014-.492-1.956-.854-2.77-.06-.137-.128-.265-.193-.396zM4.262 10h2.836A21.14 21.14 0 007 12c0 .686.036 1.353.098 2H4.262A8.028 8.028 0 014 12c0-.693.098-1.36.262-2zm4.855 0h5.766c.07.643.117 1.307.117 2 0 .693-.048 1.357-.117 2H9.117A18.472 18.472 0 019 12c0-.693.048-1.357.117-2zm7.785 0h2.836c.164.64.262 1.307.262 2 0 .693-.098 1.36-.262 2h-2.836c.062-.647.098-1.314.098-2 0-.686-.036-1.353-.098-2zm-11.83 6h2.332c.211 1.014.492 1.956.854 2.77.06.137.128.265.193.396A7.99 7.99 0 015.072 16zm4.393 0h5.07c-.173.726-.375 1.403-.62 1.957-.324.728-.701 1.281-1.048 1.611-.347.33-.619.432-.867.432s-.52-.102-.867-.432-.723-.883-1.047-1.611c-.246-.554-.448-1.23-.621-1.957zm7.13 0h2.333a7.99 7.99 0 01-3.38 3.166c.066-.13.133-.26.194-.396.362-.814.643-1.756.854-2.77z" fill="#fff"/></svg><svg fill="none" viewBox="0 0 24 24" id="i-mail" xmlns="http://www.w3.org/2000/svg"><path d="M4 4a2 2 0 00-2 2v12a2 2 0 002 2h16a2 2 0 002-2V6a2 2 0 00-2-2H4zm0 2h16v1.002L12 12 4 7.002V6zm0 3.002L12 14l8-4.998V18H4V9.002z" fill="#fff"/></svg><svg fill="none" viewBox="0 0 32 32" id="i-play" xmlns="http://www.w3.org/2000/svg"><g clip-path="url(#jclip0_270_20)"><path d="M9 9.93L17.6 16 9 22.07V9.93z" stroke="#8F9190" stroke-width="2"/><path fill="#8F9190" d="M22 8h2v16h-2z"/></g><defs><clipPath id="jclip0_270_20"><path fill="#fff" d="M0 0h32v32H0z"/></clipPath></defs></svg><svg fill="none" viewBox="0 0 114 124" id="i-play-2" xmlns="http://www.w3.org/2000/svg"><path d="M49 43.904L75.239 62 49 80.096V43.904zM1.803 88c9.76 20.686 30.807 35 55.197 35 24.39 0 45.437-14.314 55.198-35M1.803 36C11.563 15.314 32.61 1 57 1c24.39 0 45.437 14.314 55.198 35" stroke="#fff" stroke-width="2"/></svg><svg fill="none" viewBox="0 0 24 24" id="i-property-item-1" xmlns="http://www.w3.org/2000/svg"><path d="M20.922 7.615a.993.993 0 00-.217-.323l-3.999-3.999A.992.992 0 0016 3H4a.996.996 0 00-1 1v12c0 .266.105.52.293.707l3.999 3.999A1.004 1.004 0 008 21h12a1 1 0 001-1V8a.988.988 0 00-.078-.385zM17.586 7H8.414l-2-2h9.172l2 2zM5 6.414l2 2v9.172l-2-2V6.414z" fill="#fff"/></svg><svg fill="none" viewBox="0 0 80 80" id="i-search-zoom-in" xmlns="http://www.w3.org/2000/svg"><path d="M36.667 66.667c16.568 0 30-13.432 30-30 0-16.569-13.432-30-30-30-16.569 0-30 13.431-30 30 0 16.568 13.431 30 30 30zM28.333 36.667H45M36.667 45V28.333M63.1 68.966c1.766 5.334 5.8 5.867 8.9 1.2 2.833-4.267.966-7.767-4.167-7.767-3.8-.033-5.933 2.934-4.733 6.567z" stroke="#fff" stroke-width="2" stroke-linecap="round" stroke-linejoin="round"/></svg><svg fill="none" viewBox="0 0 28 28" id="i-slider-top-1" xmlns="http://www.w3.org/2000/svg"><path d="M24.409 8.884a1.158 1.158 0 00-.253-.377L19.49 3.842a1.157 1.157 0 00-.823-.342h-14A1.162 1.162 0 003.5 4.667v14c0 .31.123.606.342.824l4.665 4.666a1.172 1.172 0 00.826.343h14c.646 0 1.167-.521 1.167-1.167v-14c0-.156-.032-.308-.091-.449zm-3.892-.717h-10.7L7.482 5.833h10.7l2.334 2.334zM5.833 7.483l2.334 2.333v10.701l-2.334-2.333V7.483z" fill="#fff"/></svg><svg fill="none" viewBox="0 0 28 28" id="i-slider-top-2" xmlns="http://www.w3.org/2000/svg"><path d="M14 1.333s-9.333 9.9-9.333 16.167c0 5.2 4.133 9.333 9.333 9.333s9.333-4.133 9.333-9.333C23.333 11.234 14 1.334 14 1.334zM14 24.5c-3.926 0-7-3.074-7-7 0-3.273 3.795-8.846 7.001-12.654L14 24.5z" fill="#fff"/></svg><svg fill="none" viewBox="0 0 28 28" id="i-slider-top-3" xmlns="http://www.w3.org/2000/svg"><path d="M14 2.197L2.058 8.167 4.145 9.21l3.746 1.873L2.058 14l5.833 2.917-5.833 2.916L14 25.803l11.942-5.97-5.833-2.916L25.942 14l-5.833-2.917 5.833-2.916L14 2.197zm0 2.606l6.724 3.364L14 11.53 7.276 8.167 14 4.803zm-3.5 7.584l3.5 1.75 3.5-1.75L20.724 14 14 17.363 7.276 14l3.224-1.613zm0 5.833l3.5 1.75 3.5-1.75 3.224 1.613L14 23.197l-6.724-3.364L10.5 18.22z" fill="#fff"/></svg><svg fill="none" viewBox="0 0 28 28" id="i-slider-top-4" xmlns="http://www.w3.org/2000/svg"><path d="M14 1.167a4.671 4.671 0 00-4.667 4.666h-3.5c-1.165 0-2.135.81-2.317 2.017L2.358 23.076a2.21 2.21 0 00.57 1.839 2.37 2.37 0 001.739.752h18.666c.663 0 1.297-.274 1.737-.75.465-.502.673-1.172.58-1.755L24.487 7.85l-.011-.089c-.173-1.116-1.143-1.928-2.308-1.928h-3.5A4.671 4.671 0 0014 1.167zM14 3.5a2.336 2.336 0 012.333 2.333h-4.666A2.336 2.336 0 0114 3.5zM5.831 8.167l16.34.007 1.162 15.16-18.657.006L5.83 8.167zm1.957 2.28v8.71h1.908V17.41l.54-.538 1.337 2.284h2.185l-2.287-3.61 2.146-2.522H11.33l-1.44 1.79-.191.256v-4.623h-1.91zm9.02 2.466c-.507 0-.95.13-1.331.387-.382.258-.675.629-.88 1.103-.203.476-.305 1.025-.305 1.643h.002v.069c0 .96.23 1.725.69 2.297.462.572 1.066.856 1.814.856.558 0 1.022-.201 1.388-.606v.194c0 .868-.426 1.301-1.272 1.301-.58 0-1.049-.21-1.403-.629l-.8 1.123c.223.271.545.49.966.661a3.43 3.43 0 001.306.255c.626 0 1.178-.104 1.654-.319.477-.212.838-.518 1.09-.916.252-.399.378-.868.378-1.408v-5.9H18.37l-.068.534c-.357-.43-.857-.645-1.495-.645zm.487 1.472c.408 0 .704.14.889.42v2.577c-.19.275-.49.414-.9.414a.892.892 0 01-.793-.44c-.19-.291-.285-.69-.285-1.191 0-.579.098-1.02.29-1.324.193-.303.458-.456.799-.456z" fill="#F8F8F8"/></svg><svg fill="none" viewBox="0 0 48 48" id="i-truck-1" xmlns="http://www.w3.org/2000/svg"><path d="M43.996 40.996h3v-11l-4.003-10.998M37 19v11" stroke="#fff" stroke-width="1.5" stroke-miterlimit="10" stroke-linejoin="round"/><path d="M31.492 34.995l2.033-15.997h12.468M37.995 46.997a6.001 6.001 0 100-12.002 6.001 6.001 0 000 12.002z" stroke="#fff" stroke-width="1.5" stroke-miterlimit="10" stroke-linejoin="round"/><path d="M37.995 42.993a1.997 1.997 0 100-3.995 1.997 1.997 0 000 3.995zM31.994 29.997h15.003M42.993 15.003H29.996l-3 23.995h-6.001L1.003 26.002l.889-7.004h27.101M23.16 21.998l-1.77 13.903M17.66 21.998l-1.346 10.603M12.16 21.998l-.924 7.304M6.66 21.998l-.5 4.004M6.995 46.997a6.001 6.001 0 100-12.002 6.001 6.001 0 000 12.002z" stroke="#fff" stroke-width="1.5" stroke-miterlimit="10" stroke-linejoin="round"/><path d="M6.995 42.993a1.997 1.997 0 100-3.995 1.997 1.997 0 000 3.995z" stroke="#fff" stroke-width="1.5" stroke-miterlimit="10" stroke-linejoin="round"/><path d="M13 43h19" stroke="#fff" stroke-width="1.5" stroke-miterlimit="10"/></svg><svg fill="none" viewBox="0 0 48 48" id="i-truck-2" xmlns="http://www.w3.org/2000/svg"><path d="M35.998 42.993h-11M43.996 37.001h3" stroke="#fff" stroke-width="1.5" stroke-miterlimit="10"/><path d="M46.997 34l-9.002-3v-6.001h6.001" stroke="#fff" stroke-width="1.5" stroke-miterlimit="10" stroke-linejoin="round"/><path d="M42.993 42.993h4.004V34l-3.564-11.588a1.993 1.993 0 00-1.91-1.408h-8.526v21.998" stroke="#fff" stroke-width="1.5" stroke-miterlimit="10" stroke-linejoin="round"/><path d="M39.5 46.997a3.502 3.502 0 100-7.004 3.502 3.502 0 000 7.004zM12.002 46.997a3.502 3.502 0 100-7.004 3.502 3.502 0 000 7.004zM21.998 46.997a3.502 3.502 0 100-7.004 3.502 3.502 0 000 7.004z" stroke="#fff" stroke-width="1.5" stroke-miterlimit="10"/><path d="M9.001 42.993H4.003v-4.998M18.997 42.993h-3.995M32.997 37.995H1.003l3.995-14.994h23.995" stroke="#fff" stroke-width="1.5" stroke-miterlimit="10" stroke-linejoin="round"/><path d="M25.65 37.995L31.28 17h9.715M21.461 34.995l2.411-8.993M16.455 34.995l2.41-8.993M11.457 34.995l2.41-8.993M6.458 34.995l2.412-8.993" stroke="#fff" stroke-width="1.5" stroke-miterlimit="10" stroke-linejoin="round"/></svg><svg fill="none" viewBox="0 0 48 48" id="i-truck-3" xmlns="http://www.w3.org/2000/svg"><path d="M39.992 46.988a6.995 6.995 0 100-13.99 6.995 6.995 0 000 13.99z" stroke="#fff" stroke-width="1.5" stroke-miterlimit="10" stroke-linejoin="round"/><path d="M39.993 42.492a2.499 2.499 0 100-4.998 2.499 2.499 0 000 4.998zM26.002 37.001h6.995M12.002 45.994c5.52 0 9.996-4.476 9.996-9.996 0-5.52-4.475-9.996-9.996-9.996-5.52 0-9.996 4.475-9.996 9.996 0 5.52 4.476 9.996 9.996 9.996z" stroke="#fff" stroke-width="1.5" stroke-miterlimit="10" stroke-linejoin="round"/><path d="M.871 27.506a13.978 13.978 0 0111.131-5.508c7.735 0 14 6.265 14 14 0 2.12-.475 4.136-1.32 5.94" stroke="#fff" stroke-width="1.5" stroke-miterlimit="10" stroke-linejoin="round"/><path d="M12.002 40.002a4.004 4.004 0 100-8.008 4.004 4.004 0 000 8.008zM12.002 23.996v2.006M12.002 45.994V48M6.001 25.606l.994 1.733M17 44.656l.994 1.734M1.61 29.997L3.335 31M20.66 40.996l1.734 1.003M0 35.998h1.997M21.998 35.998h1.997M1.61 41.999l1.725-1.003M20.66 31l1.734-1.003M6.001 46.39l.994-1.734M17 27.34l.994-1.734M29.997 29.997v-6.001M34 29.997v-6.001M37.995 29.997v-6.001M20.617 17.3l4.496 4.496M23.09 14.818l-4.955 4.954M21.338 25.57l6.767-6.766 13.313 2.851a1.997 1.997 0 011.584 1.953v10.384M7.999 23.001V14h.906c1.258 0 2.385.783 2.816 1.97l2.252 6.143M32.232 9.46L34 12.995v7.005" stroke="#fff" stroke-width="1.5" stroke-miterlimit="10" stroke-linejoin="round"/></svg><svg fill="none" viewBox="0 0 48 48" id="i-truck-4" xmlns="http://www.w3.org/2000/svg"><path d="M43.996 37.001h3M39.5 46.997a3.502 3.502 0 100-7.004 3.502 3.502 0 000 7.004zM11 46.997a3.502 3.502 0 100-7.004 3.502 3.502 0 000 7.004zM20.995 46.997a3.502 3.502 0 100-7.004 3.502 3.502 0 000 7.004z" stroke="#fff" stroke-width="1.5" stroke-miterlimit="10"/><path d="M42.993 42.993h4.004V31.994l-3.564-11.58a1.993 1.993 0 00-1.91-1.408h-8.526V43.002h3" stroke="#fff" stroke-width="1.5" stroke-miterlimit="10" stroke-linejoin="round"/><path d="M46.997 31.994l-9.002-3V23h6.001M7.999 42.993H4.004v-4.998M17.994 42.993H14M29.997 42.993h-6.001" stroke="#fff" stroke-width="1.5" stroke-miterlimit="10" stroke-linejoin="round"/><path d="M24.013 17.81L10.005 14H5.473L.994 21.752 3.3 25.756l10.25 10.25h7.506c1.787 0 3.441-.95 4.33-2.498l2.42-4.189a5.018 5.018 0 000-4.998l-3.793-6.511z" stroke="#fff" stroke-width="1.5" stroke-miterlimit="10" stroke-linecap="round" stroke-linejoin="round"/><path d="M3.308 25.747L9.996 14M13.56 35.998L24.013 17.81" stroke="#fff" stroke-width="1.5" stroke-miterlimit="10" stroke-linejoin="round"/></svg><svg fill="none" viewBox="0 0 66 44" id="logo" xmlns="http://www.w3.org/2000/svg"><g clip-path="url(#vclip0_549_79)"><path d="M8.921 20.95H2.232v-3.518h6.69v3.519zM66 15.19h-1.839c-.334 0-.668.159-.846.453l-4.011 6.72-4.012-6.72c-.178-.294-.512-.453-.846-.453h-.422a1.39 1.39 0 00-1.402 1.404V28.81h1.787a.46.46 0 00.438-.453V18.89l3.3 5.36c.245.249.511.453.845.453h.623c.334 0 .6-.204.845-.453l3.3-5.36v9.467c0 .249.2.453.445.453h1.335a.45.45 0 00.445-.453C66 23.963 66 19.577 66 15.19zm-15.388 0H48.825a.46.46 0 00-.437.453v10.894h-6.69V15.643a.45.45 0 00-.444-.453h-1.335a.45.45 0 00-.445.453V28.802h9.766c.78 0 1.38-.611 1.38-1.404-.008-4.07-.008-8.139-.008-12.208zm-13.155 0H35.67a.46.46 0 00-.438.453v9.671l-6.266-9.67c-.2-.34-.556-.454-.846-.454h-.422c-.779 0-1.38.612-1.38 1.404V28.81h1.788a.46.46 0 00.437-.453V18.73l6.244 9.626c.2.34.556.453.846.453h.444c.78 0 1.387-.612 1.387-1.404-.007-4.077-.007-8.147-.007-12.216zm-13.156 0h-9.766c-.779 0-1.38.612-1.38 1.404V28.802h9.76c.778 0 1.379-.611 1.379-1.404.007-4.07.007-8.139.007-12.208zm-2.224 11.347h-6.69v-9.082h6.69v9.082zM0 28.81h8.81c1.29 0 2.343-1.042 2.343-2.318v-2.295c0-1.268-1.045-2.318-2.343-2.318v-.09c1.29 0 2.343-1.042 2.343-2.318v-1.978c0-1.269-1.045-2.318-2.343-2.318H.445a.45.45 0 00-.445.453V28.81zm51.962-17.365C48.292 4.628 41.18 0 33 0S17.709 4.628 14.038 11.445h2.625C20.097 5.95 26.126 2.303 33 2.303c6.874 0 12.903 3.646 16.337 9.142h2.625zM33 44c8.18 0 15.291-4.628 18.962-11.445h-2.625c-3.434 5.496-9.47 9.142-16.337 9.142-6.874 0-12.903-3.646-16.337-9.142h-2.625C17.708 39.372 24.82 44 33 44zM8.921 26.56H2.232v-3.813h6.69v3.813z" fill="#fff"/></g><defs><clipPath id="vclip0_549_79"><path fill="#fff" d="M0 0h66v44H0z"/></clipPath></defs></svg></svg>