<svg width="88" height="50" viewBox="0 0 88 50" fill="none" xmlns="http://www.w3.org/2000/svg">
<path d="M0.283264 27.9136V10.3384L44.4721 0.187988L87.9056 10.5263V28.1955L43.9056 38.5339L0.283264 27.9136Z" fill="#D9D1C1"/>
<path d="M33.5193 9.58651L26.1545 10.7143V27.4437L33.5193 28.4775V9.58651Z" fill="white"/>
<path d="M41.9227 8.36471L34.5579 9.49253L39.1845 18.4211L33.9914 28.4775L41.4506 29.6053L43.9056 24.6241L46.2661 29.6053L50.4206 28.9474L51.5536 29.8873L82.618 25.47V13.1579L45.8884 7.98877L43.9056 13.1579L41.9227 8.36471Z" fill="white"/>
<path d="M22.0956 5.04396C10.0287 7.81116 0.125026 10.1025 0.0955943 10.1318C0.0661628 10.1611 0.0293735 14.246 0.0146578 19.2167L-0.00741577 28.2358L0.492919 28.3675C6.80596 29.9561 41.123 38.3529 41.1892 38.3236C41.2407 38.3016 41.2628 38.3236 41.2407 38.3675C41.2113 38.4115 41.2628 38.4188 41.3953 38.3895C41.5351 38.3529 41.5792 38.3602 41.5424 38.4261C41.4983 38.492 41.5424 38.4993 41.6896 38.4627C41.8441 38.4261 41.8735 38.4334 41.8294 38.5066C41.7852 38.5798 41.7999 38.5945 41.8956 38.5579C41.9618 38.5286 42.0722 38.5432 42.1458 38.5798C42.3444 38.697 43.4187 38.9385 43.529 38.8946C43.5879 38.8727 43.632 38.8946 43.632 38.9459C43.632 38.9971 43.6909 39.0117 43.7792 38.9825C43.8601 38.9605 43.9264 38.9678 43.9264 39.0044C43.9264 39.041 44.0367 39.0703 44.1692 39.0703C44.2943 39.0703 47.1565 38.4041 50.5117 37.5842C53.8742 36.7643 58.2448 35.6955 60.224 35.2123C62.2106 34.7292 69.2595 33.0088 75.8963 31.3836L87.9632 28.4334L87.9852 19.4583L87.9999 10.4759L87.7277 10.4027C86.8521 10.1684 44.1986 3.43323e-05 44.125 0.00735474C44.0735 0.0146751 34.1625 2.27676 22.0956 5.04396ZM66.1397 5.46124L87.7792 10.6443V14.9854V19.3265L86.0354 19.3119L84.2842 19.2899L84.2622 15.8346C84.2474 12.6281 84.2401 12.3792 84.115 12.3426C84.0488 12.3207 74.9397 10.4393 63.8735 8.15523L43.7571 4.01175L39.931 4.74381C37.8341 5.15377 36.0976 5.49784 36.0829 5.51248C36.0608 5.52712 36.4802 6.26651 37.0026 7.14498C37.5324 8.02346 37.9444 8.75552 37.9297 8.77749C37.915 8.79213 37.0762 8.93122 36.0829 9.08495C35.0822 9.24601 34.2508 9.3851 34.2434 9.39242C34.2287 9.40706 35.3103 11.4422 36.6421 13.9239L39.0702 18.4334L36.3993 23.47L33.7357 28.5139L33.7137 18.9385L33.6989 9.35582L33.4929 9.39974C33.3825 9.4217 31.6902 9.6706 29.7257 9.95611C27.7611 10.2416 26.113 10.4905 26.0615 10.5052C25.9879 10.5344 25.9732 12.2841 25.9879 19.085L26.01 27.6355L29.9096 28.1626C32.0581 28.4481 35.5531 28.9459 37.6943 29.2533C40.0856 29.6047 41.6013 29.7951 41.6381 29.7511C41.6749 29.7145 42.1605 28.6604 42.7123 27.4158C43.2642 26.164 43.7424 25.1172 43.7719 25.0879C43.8013 25.0586 44.3016 26.1128 44.8755 27.4305C45.4568 28.7482 45.9351 29.839 45.9498 29.8536C45.9645 29.8683 46.9284 29.7292 48.0909 29.5462C49.2535 29.3558 50.2321 29.2314 50.2541 29.2606C50.3866 29.4144 52.0936 32.306 52.0642 32.3353C52.0494 32.35 50.1732 32.7306 47.8996 33.1772L43.7645 33.9898L23.8321 29.9049L3.89961 25.8126V22.5696V19.3265H2.09693H0.294256V14.8317V10.3295L0.684223 10.2489C0.890243 10.205 10.7351 7.93561 22.5518 5.19769C34.9424 2.33532 44.1324 0.241615 44.2722 0.256256C44.3973 0.270897 54.2421 2.61351 66.1397 5.46124ZM42.8521 10.798C43.3745 12.0645 43.8234 13.104 43.8454 13.104C43.8675 13.104 44.3163 12.0864 44.8387 10.8492C45.3611 9.61204 45.81 8.57251 45.8394 8.54323C45.8836 8.49198 52.7779 9.39242 53.028 9.48027C53.0795 9.49491 52.1525 11.2738 50.6882 13.9532C49.3565 16.3983 48.2675 18.4261 48.2675 18.47C48.2675 18.5066 49.4227 20.7321 50.8354 23.4188C52.2555 26.0981 53.418 28.3382 53.4327 28.3968C53.4474 28.4773 52.7264 28.6018 49.923 28.9971C47.9805 29.2753 46.3471 29.4949 46.2956 29.4803C46.2367 29.4729 45.6849 28.309 45.0595 26.9034C44.4341 25.4905 43.8969 24.3192 43.8675 24.2899C43.8381 24.2606 43.2642 25.4027 42.602 26.8302C41.4762 29.2606 41.3879 29.429 41.2113 29.429C41.0053 29.429 34.1257 28.492 34.1036 28.4627C34.0963 28.4481 35.2735 26.2153 36.723 23.4993C38.1725 20.7833 39.3645 18.5213 39.3645 18.47C39.3645 18.4188 38.2902 16.3983 36.9805 13.9678C35.612 11.4349 34.626 9.53883 34.6775 9.52419C34.8247 9.47295 41.3805 8.50662 41.6454 8.4993L41.903 8.49198L42.8521 10.798ZM33.4046 19.0337V28.4041L33.206 28.3968C33.0882 28.3968 31.4769 28.1772 29.6153 27.9063L26.2307 27.4158L26.2086 19.0557L26.1939 10.6955L26.5397 10.6443C26.7384 10.615 28.3351 10.388 30.0936 10.1391C31.8521 9.8829 33.3163 9.67793 33.3531 9.6706C33.3826 9.6706 33.4046 13.88 33.4046 19.0337ZM60.9966 10.5857C64.0943 11.0176 66.6695 11.3983 66.721 11.4422C66.8682 11.5593 67.4274 12.7014 67.604 13.2504C67.9571 14.3339 68.1337 16.0981 68.1337 18.5213C68.1337 21.186 67.9498 22.9063 67.5009 24.3192C67.2655 25.0513 66.7431 26.0908 66.4193 26.4568L66.1839 26.7204L60.5993 27.5037L55.0147 28.287L54.6026 28.0674C54.3598 27.9429 53.9183 27.5842 53.521 27.1962C52.9618 26.6399 52.8073 26.4276 52.513 25.8419C51.63 24.0484 51.3284 21.7204 51.4902 18.0381C51.6374 14.8097 51.9685 13.3236 52.8882 11.8595C53.4842 10.9078 54.7203 9.81702 55.2207 9.8097C55.3016 9.8097 57.8989 10.1538 60.9966 10.5857ZM73.2474 12.306C75.3518 12.5989 77.0809 12.8404 77.0956 12.8478C77.103 12.8551 77.6401 14.4071 78.2876 16.2958C78.9277 18.1845 79.509 19.8609 79.5752 20.022C79.6782 20.2929 79.6856 20.0366 79.6488 16.779C79.612 13.8946 79.6193 13.2504 79.7003 13.2504C79.7518 13.2504 80.3478 13.3236 81.0321 13.4115L82.2608 13.5725V19.0117C82.2608 22.0059 82.2535 24.451 82.2461 24.451C82.2314 24.4583 81.0026 24.634 79.5016 24.8463L76.7792 25.2343L76.6983 25.0806C76.6541 24.9927 76.1244 23.5432 75.521 21.8522L74.4247 18.7775L74.4026 19.4363C74.3953 19.7951 74.41 21.3104 74.4468 22.8038C74.4836 24.2899 74.5056 25.5198 74.4909 25.5344C74.4762 25.5637 69.2595 26.2811 69.0755 26.2811C68.9504 26.2811 68.9431 25.8858 68.9431 18.9898V11.6984L69.1859 11.735C69.311 11.757 71.1431 12.0132 73.2474 12.306Z" fill="#003768"/>
<path d="M4.71739 13.0698L4.71654 13.286L4.69447 18.9009L4.69446 18.9013L4.67975 24.5235L4.67923 24.7238L4.87461 24.768L5.03648 24.8046L5.04508 24.8066L5.05379 24.8079C5.15231 24.823 9.26892 25.3871 14.1966 26.053L14.1967 26.053L23.1659 27.2609L23.2543 27.2728L23.3302 27.2262L23.5804 27.0724L23.5811 27.072L23.5811 27.072C23.8106 26.9299 24.052 26.6912 24.2773 26.41C24.5052 26.1256 24.7275 25.7841 24.9149 25.4225M4.71739 13.0698L24.9149 25.4225M4.71739 13.0698L4.93145 13.0394M4.71739 13.0698L4.93145 13.0394M24.9149 25.4225C25.2714 24.7355 25.4982 24.1739 25.6495 23.4566C25.7992 22.7464 25.8734 21.8908 25.936 20.6199L25.936 20.6199C26.0283 18.7342 25.9975 17.1663 25.8377 15.9056C25.6784 14.6487 25.3884 13.6759 24.9466 12.9969L24.9459 12.9957C24.7129 12.6421 24.3504 12.2489 23.9607 11.9016C23.5712 11.5544 23.1388 11.239 22.7588 11.05L22.7576 11.0493C22.4988 10.9224 22.316 10.8382 22.138 10.7907C21.953 10.7413 21.7852 10.7346 21.5617 10.7383L21.559 10.7384C21.4769 10.7407 21.1691 10.7766 20.7109 10.8345C20.2427 10.8937 19.5977 10.9784 18.823 11.0828C17.2735 11.2915 15.2035 11.5789 12.9883 11.8974L24.9149 25.4225ZM4.93145 13.0394L12.9878 11.8975L4.93145 13.0394Z" fill="white" stroke="#003768" stroke-width="0.5"/>
<path d="M12.6555 24.701H12.4055V24.451V18.9898V13.5286V13.2711L12.663 13.2788L13.6416 13.308L13.6426 13.3081C14.234 13.3282 14.7261 13.3728 15.1216 13.5099C15.5326 13.6524 15.8388 13.8945 16.0538 14.2906C16.2609 14.6721 16.3761 15.1835 16.4467 15.8532C16.5177 16.5263 16.5458 17.3865 16.5623 18.4807C16.5954 20.5525 16.5348 21.9186 16.2908 22.8309C16.1674 23.2926 15.9936 23.653 15.7498 23.9331C15.5045 24.2149 15.2019 24.4 14.8468 24.5317L14.8461 24.532C14.4653 24.672 14.1866 24.701 13.5017 24.701H12.6555Z" fill="#D9D1C1" stroke="#003768" stroke-width="0.5"/>
<path d="M59.3411 12.2694C58.6863 12.6062 58.3331 13.3016 58.0756 14.7658C57.9579 15.388 57.9431 15.9664 57.9431 19.1435C57.9431 22.6647 57.9505 22.8331 58.1124 23.5505C58.311 24.451 58.4729 24.8536 58.7967 25.2196C59.2234 25.7028 59.79 25.8199 60.386 25.5564C60.9304 25.3075 61.3278 24.5608 61.5117 23.4261C61.6368 22.6647 61.7545 18.7921 61.703 16.9107C61.6441 14.5535 61.4455 13.4334 60.9525 12.7306C60.5993 12.2255 59.8415 12.0059 59.3411 12.2694Z" fill="#003768"/>
<path d="M44.3826 43.4188C42.9625 43.6603 41.9398 45.0439 41.9398 46.735C41.9398 47.2621 41.9692 47.4012 42.1458 47.7379C42.4328 48.287 42.911 48.5359 43.6762 48.5359C44.3752 48.5359 44.905 48.3382 45.398 47.899C45.7512 47.5842 46.2073 46.9253 46.2073 46.7204C46.2073 46.6691 46.1043 46.6325 45.9351 46.6398C45.6776 46.6398 45.6334 46.6764 45.3612 47.0937C44.9418 47.7306 44.515 47.9868 43.8455 47.9868C43.2936 47.9868 43.0655 47.8697 42.7712 47.4378C42.6314 47.2401 42.602 47.0937 42.602 46.6764C42.602 45.0952 43.5512 43.9166 44.802 43.9239C45.3759 43.9312 45.913 44.3485 45.913 44.8024C45.913 44.9268 45.9572 44.9488 46.2441 44.9488C46.5605 44.9488 46.5752 44.9415 46.5679 44.7438C46.5458 43.8068 45.5746 43.2211 44.3826 43.4188Z" fill="#003768"/>
<path d="M9.54315 43.5359C9.52108 43.5725 9.48429 43.7042 9.45486 43.8287L9.40335 44.0703H10.2642C11.0442 44.0703 11.1177 44.0849 11.0809 44.1947C11.0589 44.2679 10.8602 45.1976 10.6321 46.2665C10.4114 47.3353 10.2054 48.265 10.1833 48.3309C10.1465 48.4407 10.1906 48.4626 10.4776 48.4626H10.8013L10.8823 48.1113C10.9191 47.9209 11.1324 46.9326 11.3458 45.9224L11.7358 44.0703H12.604C13.3766 44.0703 13.4649 44.0556 13.4649 43.9385C13.4649 43.8726 13.487 43.7408 13.509 43.6457L13.5532 43.4846H11.5666C10.4702 43.4846 9.55787 43.5066 9.54315 43.5359Z" fill="#003768"/>
<path d="M14.2007 43.5139C14.2007 43.5285 13.9726 44.6193 13.6856 45.9443C13.406 47.2694 13.1706 48.3748 13.1706 48.4041C13.1706 48.4407 13.2956 48.4626 13.4502 48.4626H13.7298L13.9358 47.4524C14.2227 46.1054 14.311 45.8785 14.6421 45.5783C15.0762 45.1903 15.7532 45.1464 15.9813 45.4905C16.0769 45.6296 16.0475 45.9151 15.7826 47.1376C15.6428 47.7965 15.5251 48.3602 15.5251 48.3968C15.5251 48.4334 15.6502 48.4626 15.8047 48.4626H16.0769L16.3565 47.1596C16.695 45.5564 16.7023 45.3001 16.4227 45.0219C16.0328 44.6339 15.2896 44.6559 14.7304 45.0732C14.598 45.1757 14.4729 45.2416 14.4508 45.2196C14.4214 45.1976 14.5391 44.5827 14.7525 43.6457C14.7893 43.4992 14.7672 43.4846 14.495 43.4846C14.3331 43.4846 14.2007 43.4992 14.2007 43.5139Z" fill="#003768"/>
<path d="M23.7365 45.8858C23.4569 47.2035 23.2141 48.3236 23.192 48.3675C23.1699 48.4334 23.2582 48.4627 23.501 48.4627C23.685 48.4627 23.8395 48.448 23.8395 48.4261C23.8395 48.3895 24.1632 46.8448 24.2442 46.5007C24.281 46.3397 24.303 46.3397 25.3184 46.3397C26.3117 46.3397 26.3559 46.347 26.5251 46.5227C26.7385 46.7277 26.7385 46.7716 26.5987 47.5476C26.4294 48.492 26.4221 48.4627 26.893 48.4627C27.3271 48.4627 27.3418 48.4553 27.2167 48.2577C27.1505 48.1552 27.1579 47.9502 27.2535 47.4231C27.408 46.5154 27.408 46.4641 27.1873 46.2079L27.0107 45.9956L27.305 45.754C27.695 45.4466 27.8789 45.0293 27.8863 44.4876C27.8863 44.1142 27.8569 44.0337 27.6803 43.8507C27.386 43.5652 26.9077 43.4846 25.4729 43.4846H24.2442L23.7365 45.8858ZM27.0401 44.2533C27.2609 44.4656 27.2756 44.7291 27.0769 45.1537C26.8562 45.6369 26.5398 45.754 25.3699 45.754C24.8475 45.754 24.4281 45.7467 24.4281 45.7321C24.4281 45.6881 24.7298 44.3192 24.7666 44.1947C24.8034 44.0849 24.9211 44.0703 25.8335 44.0703C26.8268 44.0703 26.8709 44.0776 27.0401 44.2533Z" fill="#003768"/>
<path d="M29.1886 43.5359C29.1739 43.5725 29.1371 43.719 29.1077 43.8654L29.0562 44.1436H29.3431C29.608 44.1436 29.6375 44.1216 29.6816 43.9166C29.7625 43.5213 29.7405 43.4847 29.4756 43.4847C29.3358 43.4847 29.2033 43.5067 29.1886 43.5359Z" fill="#003768"/>
<path d="M34.6923 43.6457C34.5746 44.1727 33.699 48.3309 33.699 48.3894C33.699 48.4334 33.8241 48.4626 33.9786 48.4626H34.2508L34.4642 47.4158C34.5819 46.8448 34.7291 46.2445 34.8027 46.0834C35.0823 45.4246 35.899 45.0439 36.3331 45.366C36.4435 45.4465 36.5391 45.593 36.5539 45.6954C36.5686 45.7906 36.4582 46.4129 36.311 47.079C36.1712 47.7379 36.0535 48.3236 36.0535 48.3748C36.0535 48.4407 36.1418 48.4626 36.3258 48.448L36.6054 48.426L36.8776 47.1449C37.194 45.6662 37.2087 45.4392 37.01 45.1171C36.7304 44.6632 35.8916 44.6193 35.3177 45.0293C35.1485 45.1537 34.994 45.2342 34.9719 45.2196C34.9425 45.183 35.1853 43.9531 35.2883 43.6091C35.3177 43.5066 35.2809 43.4846 35.0308 43.4846C34.7806 43.4846 34.7291 43.5139 34.6923 43.6457Z" fill="#003768"/>
<path d="M69.0241 43.7556C68.9137 44.1436 68.9137 44.1436 69.2227 44.1436C69.5023 44.1436 69.5097 44.1362 69.5833 43.8141L69.6568 43.4847H69.3772C69.1197 43.4847 69.0903 43.5067 69.0241 43.7556Z" fill="#003768"/>
<path d="M78.4716 43.5505C78.0375 43.7262 77.7137 44.3411 77.802 44.817C77.9197 45.4319 78.3538 45.7833 79.0013 45.7833C80.1418 45.7906 80.5759 44.224 79.5973 43.631C79.3471 43.4773 78.7585 43.4407 78.4716 43.5505ZM79.4502 43.7774C79.7371 43.9531 79.9799 44.3265 79.9799 44.6047C79.9799 44.7145 79.9137 44.9268 79.8401 45.0805C79.3692 45.9883 77.9933 45.6442 77.9933 44.6193C77.9933 43.858 78.81 43.3894 79.4502 43.7774Z" fill="#003768"/>
<path d="M78.4348 44.656C78.4348 45.1904 78.4569 45.3148 78.5452 45.3148C78.6261 45.3148 78.6555 45.2343 78.6555 45.022C78.6555 44.817 78.685 44.7292 78.7585 44.7292C78.8615 44.7292 79.2 45.0806 79.2589 45.2489C79.2736 45.2929 79.3472 45.3221 79.4134 45.3075C79.5311 45.2782 79.5237 45.2489 79.3545 45.0074L79.1706 44.7292L79.3177 44.5828C79.6268 44.2753 79.3913 43.9971 78.8174 43.9971H78.4348V44.656ZM79.2 44.2899C79.3104 44.3997 79.1043 44.5828 78.8689 44.5828C78.6776 44.5828 78.6555 44.5608 78.6555 44.3558C78.6555 44.1362 78.6629 44.1289 78.891 44.1728C79.0234 44.1948 79.1632 44.2533 79.2 44.2899Z" fill="#003768"/>
<path d="M38.6214 44.3411C38.5184 44.8316 38.511 44.839 38.2609 44.8756C38.0475 44.9048 37.996 44.9488 37.9813 45.1098C37.9592 45.2928 37.9813 45.3148 38.1799 45.3148C38.305 45.3148 38.408 45.3294 38.408 45.3441C38.408 45.366 38.2903 45.9078 38.1505 46.5593C37.8488 47.9356 37.8267 48.2797 38.0328 48.3895C38.2609 48.5066 38.9231 48.4846 38.9231 48.3602C38.9231 48.3016 38.9451 48.2064 38.9672 48.1406C38.9966 48.06 38.9672 48.0234 38.8716 48.0234C38.7906 48.0234 38.6655 47.9795 38.592 47.9209C38.4595 47.8258 38.4669 47.7892 38.695 46.6984C39.0114 45.1977 38.9599 45.3148 39.291 45.3148C39.519 45.3148 39.5779 45.2855 39.6147 45.1464C39.6809 44.8902 39.6736 44.8756 39.394 44.8756H39.1217L39.1659 44.5461C39.1953 44.3631 39.2321 44.1362 39.2615 44.0337C39.3057 43.858 39.291 43.8507 39.0187 43.8507H38.7244L38.6214 44.3411Z" fill="#003768"/>
<path d="M67.0154 44.3411C66.9124 44.8389 66.9124 44.8389 66.6475 44.8609C66.4194 44.8829 66.3826 44.9121 66.3532 45.1025C66.3237 45.3001 66.3385 45.3148 66.5666 45.3148C66.7873 45.3148 66.8094 45.3367 66.7726 45.4758C66.5592 46.3689 66.2943 47.7891 66.2943 48.0234C66.2943 48.3748 66.4268 48.4626 66.9492 48.4626C67.2214 48.4626 67.3244 48.4334 67.3244 48.3602C67.3244 48.3016 67.3465 48.2064 67.3686 48.1405C67.398 48.06 67.3686 48.0234 67.2729 48.0234C67.192 48.0234 67.0669 47.9795 66.9933 47.9209C66.8535 47.8258 66.8609 47.7965 67.0595 46.8448C67.3906 45.2269 67.3612 45.3148 67.6849 45.3148C67.9204 45.3148 67.9793 45.2855 68.0161 45.1464C68.0823 44.8902 68.0749 44.8755 67.8174 44.8755C67.6776 44.8755 67.5525 44.8536 67.5304 44.8316C67.5084 44.8096 67.5304 44.6047 67.5893 44.3777C67.6408 44.1508 67.6849 43.9385 67.6923 43.9019C67.6923 43.8726 67.5672 43.8506 67.4053 43.8506H67.1257L67.0154 44.3411Z" fill="#003768"/>
<path d="M18.7773 44.8683C18.2254 45.0586 17.8796 45.3661 17.6 45.9078C17.1365 46.8156 17.107 47.6575 17.5191 48.1333C17.806 48.4554 18.1518 48.5652 18.7405 48.514C19.3144 48.47 19.7779 48.2138 20.1532 47.7307L20.4034 47.4012L20.1164 47.3793C19.8809 47.3573 19.8074 47.3866 19.6455 47.5696C19.2776 48.0015 18.6375 48.1479 18.1739 47.9137C17.9311 47.7892 17.7545 47.35 17.8355 47.0425L17.8796 46.8522H19.1967C20.7124 46.8522 20.602 46.9108 20.602 46.0982C20.602 45.4247 20.4549 45.1172 20.0134 44.8903C19.6234 44.6926 19.2997 44.6926 18.7773 44.8683ZM19.8883 45.5418C19.9619 45.637 20.0134 45.82 20.0134 46.0176V46.3397H19.0127H18.0194L18.0709 46.1714C18.3064 45.41 19.4542 45.0147 19.8883 45.5418Z" fill="#003768"/>
<path d="M31.4328 44.8024C30.5719 45.0074 29.9391 45.9883 29.9171 47.145C29.9097 48.0308 30.2555 48.4627 31.0281 48.5213C31.3813 48.5432 31.5137 48.5139 31.8154 48.3529L32.1759 48.1626L32.1318 48.4261C32.0288 49.0484 31.5064 49.4803 30.8589 49.4876C30.513 49.4876 30.1672 49.268 30.1672 49.041C30.1672 48.9239 30.1157 48.9019 29.8655 48.9019H29.5565L29.6007 49.2094C29.6522 49.5828 29.8803 49.8097 30.3291 49.9342C30.9398 50.0952 31.8448 49.8097 32.2642 49.3192C32.588 48.9459 32.6689 48.697 33.0736 46.779C33.2575 45.9151 33.4194 45.1318 33.4415 45.0366C33.4783 44.8756 33.4635 44.8683 33.206 44.8902C32.9779 44.9049 32.9191 44.9415 32.9043 45.0732C32.8749 45.2855 32.8013 45.2855 32.6247 45.0879C32.3451 44.7731 31.9478 44.6779 31.4328 44.8024ZM32.404 45.5564C32.7278 45.9883 32.5291 47.1889 32.0582 47.6428C31.5946 48.0894 31.087 48.1479 30.7411 47.8038C30.5204 47.5842 30.5204 47.5623 30.5498 47.0059C30.6161 45.8419 31.2268 45.1538 32.0361 45.3148C32.1538 45.3368 32.3231 45.4466 32.404 45.5564Z" fill="#003768"/>
<path d="M48.5104 44.795C47.6936 45 47.0609 45.7614 46.8769 46.7277C46.612 48.1772 47.7672 48.9824 49.0843 48.265C50.313 47.6062 50.6883 45.5125 49.6876 44.9341C49.4227 44.7731 48.8488 44.7072 48.5104 44.795ZM49.2314 45.3587C49.6361 45.5637 49.7612 46.1347 49.5625 46.8082C49.2535 47.8331 48.3338 48.3455 47.7451 47.8185C47.1639 47.306 47.5391 45.798 48.3485 45.4026C48.7311 45.2123 48.9298 45.205 49.2314 45.3587Z" fill="#003768"/>
<path d="M52.6749 44.8316C52.5277 44.8829 52.307 44.9927 52.1819 45.0805C51.895 45.2855 51.8435 45.2855 51.9023 45.0512C51.9465 44.8755 51.9391 44.8682 51.6742 44.8902L51.3946 44.9121L51.0194 46.6691L50.6515 48.426L50.9017 48.448C51.0415 48.4626 51.1665 48.4553 51.1886 48.4334C51.2107 48.4114 51.3431 47.877 51.4756 47.2474C51.7552 45.9297 51.9097 45.6369 52.4027 45.3953C52.7706 45.2196 52.9839 45.205 53.2194 45.3221C53.5726 45.5124 53.5726 45.7247 53.2415 47.284L52.9913 48.4626H53.2709C53.4769 48.4626 53.5652 48.426 53.5946 48.3309C53.7859 47.6574 54.1538 45.6149 54.1244 45.4246C54.0655 45.1171 53.8448 44.8975 53.5137 44.8096C53.1605 44.7072 53.006 44.7145 52.6749 44.8316Z" fill="#003768"/>
<path d="M56.6187 44.817C56.501 44.8609 56.2803 44.978 56.1405 45.0732L55.8829 45.2416L55.8609 45.0585C55.8388 44.9048 55.7946 44.8755 55.5886 44.8755C55.3826 44.8755 55.3385 44.9048 55.3017 45.0732C55.2796 45.1903 55.1104 45.9663 54.9264 46.8155C54.7425 47.6574 54.5953 48.3748 54.5953 48.4041C54.5953 48.4407 54.7204 48.4626 54.8749 48.4626H55.1619L55.3605 47.489C55.6401 46.1274 55.6916 45.9809 56.0301 45.6369C56.4863 45.1537 57.1411 45.1171 57.3913 45.5564C57.4869 45.732 57.4796 45.8492 57.2515 46.94C57.1117 47.5988 56.9866 48.2064 56.9645 48.3016C56.9351 48.448 56.9645 48.4626 57.2221 48.4626H57.509L57.7813 47.1596C58.0976 45.6662 58.1197 45.3441 57.9063 45.0732C57.6635 44.7657 57.0823 44.6559 56.6187 44.817Z" fill="#003768"/>
<path d="M60.2829 44.8317C60.1137 44.8903 59.8635 45.0001 59.7164 45.0879C59.0027 45.5272 58.4876 46.8742 58.7157 47.6941C59.0321 48.8141 60.7244 48.8288 61.5779 47.7307L61.8281 47.4013L61.5558 47.3793C61.3277 47.3573 61.2542 47.3939 61.0481 47.6136C60.7612 47.9137 60.511 48.0235 60.1063 48.0235C59.503 48.0235 59.1351 47.5843 59.2749 47.0279L59.319 46.8522H60.6287C62.1297 46.8522 62.0267 46.9108 62.0267 46.0982C62.0267 45.4174 61.8796 45.1172 61.4381 44.8903C61.0776 44.7073 60.7391 44.6926 60.2829 44.8317ZM61.313 45.5418C61.3866 45.637 61.4381 45.82 61.4381 46.0177V46.3398H60.4448C59.9003 46.3398 59.4515 46.3178 59.4515 46.2812C59.4515 46.1714 59.79 45.6882 59.9739 45.5491C60.3786 45.227 61.0555 45.2197 61.313 45.5418Z" fill="#003768"/>
<path d="M64.1384 44.8316C63.2408 45.0732 62.5418 46.1201 62.5418 47.2328C62.5418 48.1259 63.0568 48.5944 63.9545 48.5139C64.6314 48.4554 65.0876 48.1332 65.4408 47.4524L65.5659 47.2182H65.2715C65.0214 47.2182 64.9625 47.2474 64.8301 47.4744C64.6314 47.8185 64.2709 48.0234 63.8809 48.0234C63.2923 48.0234 63.0348 47.5403 63.204 46.735C63.3217 46.1786 63.4983 45.8346 63.822 45.5491C64.3812 45.0659 65.117 45.1977 65.2348 45.798C65.2789 46.0249 65.301 46.0469 65.5364 46.0469H65.794L65.7645 45.6442C65.6983 44.8756 65.1023 44.5754 64.1384 44.8316Z" fill="#003768"/>
<path d="M71.2903 44.8463C70.4809 45.0952 69.8334 46.0249 69.7746 47.0352C69.7304 47.716 69.9291 48.1332 70.4147 48.3748C71.5699 48.9532 72.9679 47.9356 73.1813 46.3617C73.2769 45.6223 72.9017 44.9634 72.2983 44.8097C71.8863 44.7072 71.717 44.7145 71.2903 44.8463ZM72.3498 45.5344C72.909 46.1567 72.2762 47.8331 71.4227 47.9868C71.0475 48.06 70.7237 47.9576 70.5324 47.7086C70.2087 47.2767 70.4147 46.186 70.915 45.6515C71.3639 45.183 71.9819 45.1245 72.3498 45.5344Z" fill="#003768"/>
<path d="M75.5578 44.8316C75.4033 44.8829 75.19 45 75.0796 45.0878L74.8662 45.2562L74.8441 45.0659C74.8221 44.9048 74.7853 44.8755 74.5719 44.8755C74.3806 44.8755 74.3217 44.9121 74.2923 45.0366C74.2114 45.3587 73.5786 48.3382 73.5786 48.4041C73.5786 48.4334 73.7037 48.4626 73.8582 48.4626H74.1304L74.3364 47.489C74.6234 46.1127 74.6602 45.9956 74.9471 45.6808C75.396 45.1903 76.0876 45.1098 76.3525 45.5124C76.4776 45.6954 76.4702 45.754 76.2274 46.918C76.095 47.5842 75.9625 48.2064 75.9478 48.3016C75.9184 48.448 75.9478 48.4626 76.198 48.4626H76.4849L76.7719 47.101C77.1471 45.3221 77.0956 44.978 76.4555 44.8023C76.1097 44.7072 75.8816 44.7145 75.5578 44.8316Z" fill="#003768"/>
<path d="M28.909 44.8902C28.909 44.9049 28.7324 45.7028 28.5191 46.6692L28.1364 48.4261L28.3866 48.4481C28.5264 48.4627 28.6589 48.4554 28.6809 48.4334C28.7251 48.3822 29.4241 45.1977 29.4314 45C29.4314 44.9049 29.3726 44.8756 29.1739 44.8756C29.0341 44.8756 28.9164 44.8829 28.909 44.8902Z" fill="#003768"/>
<path d="M68.7886 44.8902C68.7886 44.9048 68.612 45.7101 68.3987 46.6911L68.0161 48.47L68.3104 48.448L68.6047 48.426L68.9799 46.6471L69.3552 44.8755H69.0756C68.9211 44.8755 68.796 44.8829 68.7886 44.8902Z" fill="#003768"/>
</svg>
