<svg width="210" height="50" viewBox="0 0 210 50" fill="none" xmlns="http://www.w3.org/2000/svg">
<path d="M136.166 15.1011H120.883L122.204 10.894H137.487" fill="#009640"/>
<path d="M121.699 14.6058C121.951 13.8634 122.139 13.121 122.391 12.3786C122.517 12.0074 122.454 11.5743 122.894 11.5743H136.731V11.3887C136.48 12.1311 136.291 12.8735 136.039 13.6159C135.913 13.9872 135.976 14.4202 135.536 14.4202H121.699V14.6058H135.473C135.913 14.6058 135.851 14.3584 135.976 13.9253L136.731 11.5743V11.3887H122.957C122.517 11.3887 122.58 11.6361 122.454 12.0692L121.699 14.4202V14.6058Z" fill="white"/>
<path d="M151.51 15.1011H136.164L137.485 10.894H152.831" fill="#EDEDED"/>
<path d="M136.98 14.6058C137.232 13.8634 137.421 13.121 137.672 12.3786C137.798 12.0074 137.735 11.5743 138.175 11.5743H152.012V11.3887C151.761 12.1311 151.572 12.8735 151.321 13.6159C151.195 13.9872 151.258 14.4202 150.817 14.4202H136.98V14.6058H150.754C151.195 14.6058 151.132 14.3584 151.258 13.9253L152.012 11.5743V11.3887H138.238C137.798 11.3887 137.861 11.6361 137.735 12.0692L136.98 14.4202V14.6058Z" fill="white"/>
<path d="M166.796 15.1011H151.449L152.77 10.894H168.116" fill="#E30613"/>
<path d="M152.266 14.6058C152.517 13.8634 152.706 13.121 152.957 12.3786C153.083 12.0074 153.02 11.5743 153.461 11.5743H167.298V11.3887C167.046 12.1311 166.857 12.8735 166.606 13.6159C166.48 13.9872 166.543 14.4202 166.103 14.4202H152.266V14.6058H166.04C166.48 14.6058 166.417 14.3584 166.543 13.9253L167.298 11.5743V11.3887H153.524C153.083 11.3887 153.146 11.6361 153.02 12.0692L152.266 14.4202V14.6058Z" fill="white"/>
<path d="M150.756 22.8347C151.007 21.9066 151.385 21.5354 152.328 21.5354H155.787C156.731 21.5354 156.92 21.9066 156.668 22.8347L156.102 25.0619H150.19L150.756 22.8347ZM173.146 30.7538C172.58 30.6301 172.266 30.1352 172.517 29.5165L176.669 16.2766C176.983 15.596 177.801 15.0392 178.555 15.0392H185.034C185.788 15.0392 186.166 15.596 185.914 16.2766L184.593 19.37H191.952L194.279 14.0493C195.097 12.2551 194.09 10.7084 192.078 10.7084H176.228C174.216 10.7084 171.889 12.1932 171.071 14.0493L165.914 30.692H148.932C148.869 30.4445 148.869 30.1352 148.932 29.7639L149.309 28.2172H162.769L164.215 23.2059C165.096 19.8031 164.781 18.2564 161.008 18.2564H148.303C144.529 18.2564 143.083 19.8031 142.202 23.2059L140.567 29.7021C140.504 30.0733 140.378 30.3826 140.315 30.7538C139.875 33.4761 140.756 34.6516 144.089 34.6516H194.153L195.914 30.7538H173.146ZM140.064 24.7526L138.554 30.8157L138.491 31.0013C137.925 33.2905 138.177 33.9091 138.428 34.7753H128.931C129.623 33.9091 130.252 33.2905 130.818 31.0013L130.881 30.8157L132.957 22.7728C133.145 21.9066 132.894 21.5973 132.202 21.5973H129.434C128.805 21.5973 128.302 21.9685 128.114 22.7728L126.038 30.8157L125.975 31.0013C125.409 33.2905 125.661 33.9091 125.912 34.7753H116.415C117.107 33.9091 117.736 33.2905 118.302 31.0013L118.365 30.8157L120.44 22.7728C120.629 21.9066 120.378 21.5973 119.686 21.5973H116.918C116.289 21.5973 115.786 21.9685 115.598 22.7728L113.522 30.8157L113.459 31.0013C112.893 33.2905 113.145 33.9091 113.396 34.7753H103.899C104.591 33.9091 105.22 33.2905 105.786 31.0013L108.05 22.1541C108.616 19.865 108.365 19.2463 108.113 18.3801H116.038L115.723 20.3599H115.786C116.415 19.3081 117.044 18.3801 118.428 18.3801H125.912C127.988 18.3801 128.177 18.8132 128.365 20.1743H128.428C128.743 19.4937 129.309 18.3801 130.755 18.3801H136.479C139.372 18.3182 141.51 19.0607 140.064 24.7526ZM106.729 23.7008C105.849 23.0821 105.534 22.8965 103.081 22.8965C99.8109 22.8965 98.9933 23.4533 98.4272 25.6806L97.1064 30.9395C96.5404 33.2286 96.7919 33.8473 97.0435 34.7134H86.8545C87.5464 33.8473 88.1753 33.2286 88.7414 30.9395L88.8043 30.7538L91.0056 22.0304C91.5717 19.7412 91.3201 19.1225 91.0685 18.2564H99.4335L99.0562 20.9167H99.1191C100.44 18.9369 101.509 18.2564 104.088 18.2564H108.176L106.729 23.7008ZM80.0619 22.8347L78.175 30.1352C78.1121 30.3826 78.0492 30.5682 77.9863 30.7538C77.7348 31.2488 77.3574 31.4963 76.6027 31.4963H73.1434C72.4516 31.4963 72.2 31.3107 72.2 30.7538C72.2 30.5682 72.2629 30.3826 72.3258 30.1352L74.2126 22.8347C74.4642 21.9066 74.8416 21.5354 75.785 21.5354H79.2442C80.1248 21.5354 80.3135 21.9066 80.0619 22.8347ZM84.7161 18.3182H71.6969C67.9232 18.3182 66.4766 19.865 65.596 23.2677L63.9608 29.7639C63.8979 30.1352 63.7721 30.4445 63.7092 30.8157H55.7844C55.7844 30.8157 62.1997 15.2248 62.1997 15.1629H119.623L120.881 11.0177H58.2373C58.7405 12.1314 58.7405 12.6263 58.0486 15.2867L51.1302 30.5064H51.0044L48.1112 10.0278H35.1549C35.658 11.1415 35.658 11.6364 34.9662 14.2968L29.0541 30.6301C29.0541 30.692 29.0541 30.7538 28.9912 30.8157H6.28608L4.27344 34.7134H32.8278C32.3875 33.7235 32.4504 33.1667 33.0164 30.8157C33.0164 30.7538 33.0164 30.692 33.0793 30.6301L39.0544 14.1112H39.1173L41.5073 30.7538L42.0733 34.6516H80.565C83.8985 34.6516 85.408 33.4142 86.3514 30.7538C86.4772 30.4445 86.5401 30.0733 86.6659 29.7021L88.3011 23.2059C89.1817 19.865 88.4898 18.3182 84.7161 18.3182Z" fill="#E30613"/>
<path d="M144.217 34.033C143.336 34.033 142.393 33.9711 141.638 33.5381C140.695 32.9813 140.883 31.6201 141.072 30.754C141.261 29.8878 141.512 29.0217 141.701 28.1555C142.267 26.052 142.582 23.7009 143.462 21.7211C144.468 19.432 146.607 18.9989 148.934 18.9989H161.073C161.764 18.9989 162.519 19.0608 163.211 19.3083C164.154 19.6795 164.154 20.6075 164.029 21.4737C163.903 22.5873 163.526 23.7009 163.211 24.8146C162.959 25.7426 162.645 26.6706 162.393 27.6605C162.393 27.7224 161.136 27.6605 161.073 27.6605H150.569C150.066 27.6605 149.311 27.5368 148.934 27.908C148.682 28.2174 148.619 29.0217 148.557 29.3929C148.431 29.7641 148.368 30.1353 148.368 30.5684C148.368 31.2489 148.682 31.5583 149.311 31.5583H165.224C165.664 31.5583 166.356 31.682 166.544 31.1252C166.922 29.8259 167.362 28.5886 167.739 27.2893L171.576 14.73C172.205 12.7502 174.532 11.5128 176.545 11.5128H189.816C191.325 11.5128 194.91 11.1416 193.715 13.802C193.338 14.6681 192.897 15.5961 192.52 16.4623C192.394 16.7098 191.702 18.6896 191.451 18.6896H185.413V18.8752C185.916 17.6997 187.803 14.2969 184.973 14.2969H178.935C177.74 14.2969 176.419 14.73 175.979 15.9674L175.601 17.2666C174.91 19.5557 174.155 21.8449 173.463 24.0722C172.96 25.7426 172.394 27.4131 171.891 29.0835C171.639 29.8259 171.639 30.5684 172.331 31.1252C172.708 31.4345 173.211 31.3727 173.715 31.3727H195.036V31.1871C194.659 32.0532 194.281 32.9194 193.841 33.7855C193.778 33.9711 193.715 33.9093 193.464 33.9093H144.217V34.0949H193.715C193.967 34.0949 193.904 34.033 194.03 33.7855L195.162 31.3727V31.1871H173.211C172.394 31.1871 171.891 30.4446 171.891 29.7022V29.8878C171.953 29.331 172.205 28.7742 172.331 28.2174L173.274 25.2477C174.029 22.8967 174.784 20.4838 175.476 18.1328C175.979 16.5242 176.356 14.4825 178.62 14.4825H184.721C185.665 14.4825 186.419 14.7919 186.545 15.7818V15.5961C186.545 16.586 185.853 17.6997 185.476 18.6277V18.8133H191.262C191.765 18.8133 191.954 17.8234 192.143 17.3903C192.646 16.3386 193.086 15.2249 193.589 14.1732C193.841 13.6163 194.092 13.0595 193.967 12.4408C193.715 11.3272 192.709 11.1416 191.765 11.1416H176.545C175.224 11.1416 174.029 11.6984 173.023 12.5027C171.702 13.5545 171.45 15.1631 171.01 16.6479C170.255 18.9989 169.563 21.3499 168.809 23.7009C168.18 25.7426 167.551 27.7224 166.922 29.7641C166.796 30.1353 166.733 30.6302 166.419 30.9396C166.167 31.1871 165.349 31.0633 165.098 31.0633H149.5C148.871 31.0633 148.494 30.9396 148.431 30.1972V30.3828C148.431 29.7022 148.619 29.0835 148.808 28.4648C148.934 28.0318 148.997 27.5987 149.5 27.5987H161.702C162.268 27.5987 162.331 27.7224 162.519 27.2275C163.148 25.1239 164.092 22.8348 164.092 20.6694C164.092 19.7413 163.84 19.1227 162.834 18.8133C162.016 18.5658 161.136 18.6277 160.318 18.6277H148.431C146.984 18.6277 145.475 18.8752 144.468 19.927C143.588 20.7931 143.21 22.0924 142.896 23.2679C142.393 25.3095 141.89 27.3512 141.324 29.3929C141.135 30.1972 140.946 31.0015 140.946 31.8676C140.946 32.4863 141.072 33.0431 141.575 33.4762C142.267 34.033 143.399 34.033 144.28 34.033C144.217 34.2186 144.217 34.033 144.217 34.033Z" fill="white"/>
<path d="M152.33 20.855C150.82 20.9169 150.38 21.9068 150.066 23.1441C149.877 23.8247 149.625 24.5053 149.625 25.1858C149.625 25.9901 150.883 25.7426 151.449 25.7426H156.104C156.607 25.7426 156.732 25.3095 156.795 24.8765C156.984 24.0722 157.361 23.1441 157.361 22.278C157.361 21.0406 156.418 20.7931 155.349 20.7931H152.33V20.9787H154.846C155.915 20.9787 157.299 20.855 157.361 22.3398V22.1542C157.299 23.0823 156.921 24.0103 156.732 24.9383C156.544 25.6808 155.663 25.4952 155.034 25.4952H151.701C151.072 25.4952 149.814 25.7426 149.625 24.9383V25.1239C149.688 24.3815 150.003 23.5772 150.191 22.8348C150.506 21.6593 151.072 20.9787 152.33 20.9787V20.855ZM130.191 34.2186C131.386 32.3626 131.763 29.9497 132.266 27.8462C132.581 26.6707 132.895 25.4333 133.147 24.2578C133.273 23.701 133.524 23.0204 133.524 22.4636C133.524 21.4737 133.021 20.855 131.952 20.855C131.008 20.855 130.002 20.7313 129.059 20.855C127.989 20.9787 127.612 21.9686 127.361 22.8967C127.109 23.9484 126.857 24.9383 126.606 25.9901L125.474 30.5065C125.159 31.7439 124.908 32.9813 125.159 34.2805V34.0949H117.675V34.2805C118.87 32.4244 119.247 30.0116 119.75 27.908C120.065 26.7325 120.379 25.4952 120.631 24.3196C120.757 23.7628 121.008 23.0823 121.008 22.5255C121.008 21.5356 120.505 20.9169 119.436 20.9169C118.492 20.9169 117.486 20.7931 116.543 20.9169C115.473 21.0406 115.096 22.0305 114.844 22.9585C114.593 24.0103 114.341 25.0002 114.09 26.052C113.712 27.5368 113.335 29.0217 112.958 30.5684C112.643 31.8058 112.392 33.0431 112.643 34.3424V34.1568H105.159V34.3424C105.976 33.1669 106.291 31.7439 106.605 30.3828L107.8 25.8045C108.366 23.6391 109.373 21.1643 108.932 18.9371V19.1227H115.41V18.9371C115.348 19.5558 115.222 20.1126 115.222 20.6694C115.222 20.9169 115.599 21.1025 115.851 21.1025C116.291 21.1025 116.48 20.7313 116.668 20.4219C117.109 19.7414 117.675 19.1227 118.555 19.1227H124.656C125.474 19.1227 126.354 19.0608 127.172 19.1845C127.675 19.3083 127.801 19.7414 127.864 20.1744C127.927 20.5457 128.052 20.855 128.493 20.855C128.996 20.855 129.122 20.3601 129.373 19.9888C130.002 18.9371 131.071 19.0608 132.078 19.0608H135.788C137.298 19.0608 139.248 18.9371 139.814 20.6694C140.317 22.4017 139.499 24.5053 139.059 26.2376C138.682 27.6606 138.304 29.1454 137.99 30.5684C137.675 31.7439 137.424 33.0431 137.675 34.2805V34.0949H130.191V34.2186H137.675V34.033C137.424 32.7338 137.801 31.4345 138.116 30.1972C138.43 29.0217 138.682 27.8462 138.996 26.6707C139.499 24.8146 140.128 22.8348 139.877 20.9169C139.625 18.1946 135.914 18.8133 133.902 18.8133H130.946C130.254 18.8133 129.751 19.1845 129.373 19.7414C129.122 20.1126 129.059 20.5457 128.556 20.6075C128.115 20.6694 127.927 20.2982 127.864 19.927C127.801 19.3702 127.675 18.9989 127.046 18.8752C126.606 18.8133 126.103 18.8133 125.662 18.8133H118.618C117.926 18.8133 117.423 19.0608 116.983 19.5558C116.668 19.927 116.48 20.4838 116.039 20.7313C115.599 20.9787 115.222 20.4838 115.159 20.1126V20.2982L115.348 18.9989V18.8133H108.869V18.9989C109.184 20.2982 108.744 21.6593 108.429 22.8967C108.115 24.134 107.8 25.4333 107.486 26.6707L106.542 30.3209C106.228 31.6202 105.85 32.8575 105.159 33.9712V34.1568H112.643V33.9712C112.392 32.7338 112.769 31.4964 113.02 30.259C113.272 29.2073 113.587 28.0936 113.838 27.0419L114.719 23.5772C114.907 22.7729 115.033 21.8449 115.788 21.2881C116.543 20.7313 117.863 20.9787 118.744 20.9787C119.939 20.9787 121.386 21.1025 120.945 22.7111C120.442 24.6909 119.939 26.7325 119.436 28.7123C118.996 30.5065 118.681 32.3626 117.675 33.9093V34.0949H125.159V33.9093C124.908 32.6719 125.285 31.4345 125.537 30.1972C125.788 29.1454 126.103 28.0318 126.354 26.98C126.669 25.8045 126.92 24.6909 127.235 23.5154C127.423 22.7111 127.549 21.783 128.304 21.2262C129.059 20.6694 130.379 20.9169 131.26 20.9169C132.455 20.9169 133.902 21.0406 133.461 22.6492C132.958 24.629 132.455 26.6707 131.952 28.6505C131.512 30.4446 131.197 32.3007 130.191 33.8474C130.128 34.0949 130.191 34.1568 130.191 34.2186ZM88.0512 34.2186C88.8688 33.0431 89.1833 31.6202 89.4978 30.259L90.6928 25.6808C91.2588 23.5154 92.2651 21.0406 91.8249 18.8133V18.9989H98.6804V18.8133C98.5546 19.4939 98.366 20.2363 98.366 20.9169C98.366 21.3499 98.4917 21.6593 98.9949 21.6593C99.6239 21.6593 100.19 20.4838 100.63 20.0507C101.636 19.1227 103.02 18.9989 104.341 18.9989H107.297V18.8133L106.668 21.1643C106.542 21.5974 106.479 22.0305 106.354 22.4636C106.291 22.7729 105.85 22.4636 105.599 22.4017C104.152 22.0305 102.328 22.1542 100.882 22.3398C99.6867 22.5255 98.8062 23.0823 98.2402 24.134C97.8628 24.8146 97.737 25.6189 97.5483 26.3613C97.2967 27.4131 97.0452 28.4648 96.7307 29.5166C96.3533 31.0633 95.8502 32.6719 96.1646 34.2186V34.033H87.9883C88.0512 34.033 88.0512 34.2186 88.0512 34.2186H96.2275V34.033C95.8501 32.177 96.7307 29.826 97.2338 27.9699C97.6112 26.4851 97.7999 24.5671 98.8691 23.4535C99.6238 22.6492 100.819 22.5255 101.825 22.4636C103.146 22.4017 104.655 22.278 105.913 22.7111C106.291 22.8348 106.228 22.8967 106.354 22.5255C106.479 22.0924 106.542 21.6593 106.668 21.2262L107.234 18.9989V18.8133C105.913 18.8133 104.53 18.7515 103.209 18.8133C102.14 18.8752 101.196 19.1845 100.441 19.927C100.064 20.2982 99.7496 20.7313 99.4352 21.1643C99.0578 21.7212 98.3031 21.35 98.3031 20.7313V20.9169C98.4288 20.2363 98.4917 19.6176 98.6175 18.9371V18.7515H91.762V18.9371C92.0136 20.2363 91.6362 21.5974 91.3217 22.8348C91.0072 24.0722 90.6928 25.3714 90.3783 26.6088L89.4349 30.259C89.1204 31.5583 88.743 32.7957 88.0512 33.9093C87.9883 34.0949 88.0512 34.1568 88.0512 34.2186Z" fill="white"/>
<path d="M42.5784 34.0328L41.0689 23.2676C40.7544 20.9785 40.4399 18.6275 40.0626 16.3383C39.9997 15.6578 39.8739 15.0391 39.811 14.3585C39.7481 13.7398 39.2449 13.0593 38.616 13.678C38.3644 13.8636 38.3015 14.4204 38.2386 14.7297C37.9241 15.534 37.6097 16.4002 37.3581 17.2045C36.4776 19.6174 35.597 21.9684 34.7794 24.3812C34.0875 26.1754 33.4586 28.0315 32.7667 29.8257C32.2636 31.1868 31.8233 32.7954 32.0749 34.2184V34.0328H5.21875V34.2184C5.65901 33.3522 6.09928 32.5479 6.53954 31.6818C6.72823 31.3724 6.91691 31.4961 7.23139 31.4961H28.8044C29.3075 31.4961 29.4962 31.2487 29.6849 30.8156C30.251 29.3307 30.7541 27.8459 31.3202 26.2992C32.7039 22.4015 34.1504 18.5656 35.5341 14.6679C35.9744 13.4305 36.3518 11.8219 36.0373 10.5227V10.7083H47.4842C47.7986 10.7083 47.6729 10.8939 47.7358 11.1414C47.8615 11.8219 47.9244 12.5025 48.0502 13.183C48.3647 15.534 48.6792 17.885 49.0565 20.1742C49.371 22.5871 49.7484 24.9999 50.0629 27.4747L50.3773 29.8257C50.4402 30.1969 50.4402 30.6919 50.6918 31.0012C51.0063 31.3724 51.6352 31.0631 51.761 30.7537L52.0126 30.2588L53.0189 28.0315C54.0881 25.7424 55.0945 23.4532 56.1637 21.1641C56.9184 19.4936 57.7361 17.7613 58.4908 16.0908C59.1197 14.7297 59.56 12.9974 59.1826 11.5126V11.6982H120.065V11.5126C119.751 12.4406 119.499 13.3686 119.184 14.2967C119.122 14.4823 119.059 14.4204 118.87 14.4204H62.2016C61.6355 14.4204 61.5098 15.0391 61.3211 15.4722L60.0003 18.6275C58.6795 21.8446 57.3587 24.9999 56.1008 28.2171C55.8492 28.8977 55.5347 29.5782 55.2832 30.2588C55.2203 30.4444 55.1574 30.63 55.1574 30.8156C55.1574 31.6818 56.4782 31.4343 57.0442 31.4343H63.5853C64.5287 31.4343 64.4658 30.135 64.6545 29.4545C64.969 28.3408 65.2206 27.1653 65.535 26.0517C66.0382 24.01 66.3527 21.2878 68.1766 19.8648C69.6232 18.6893 71.8245 18.9987 73.5856 18.9987H81.133C82.894 18.9987 84.9067 18.7512 86.6677 19.1843C88.5546 19.6792 88.1143 21.659 87.737 23.082C87.4854 24.01 87.2967 24.9381 87.0451 25.8661C86.4791 27.9696 86.1646 30.7537 84.7809 32.486C83.6488 33.909 81.7619 33.9709 80.0638 33.9709H42.5784V34.1565H80.6298C82.0764 34.1565 83.523 33.9709 84.5922 32.9191C85.5356 31.9911 85.913 30.63 86.1646 29.4545C86.6677 27.4128 87.1709 25.3711 87.737 23.3295C87.9256 22.4633 88.1143 21.659 88.1143 20.731C88.1143 19.0605 86.4791 18.7512 85.0954 18.7512C81.0701 18.6275 76.9819 18.7512 72.8937 18.7512C70.8811 18.7512 68.8056 18.6893 67.4848 20.4217C66.7929 21.3497 66.4785 22.5252 66.164 23.6388C65.9124 24.7525 65.5979 25.8042 65.3463 26.9179C65.0948 27.8459 64.9061 28.7739 64.6545 29.702C64.5287 30.2588 64.5916 31.1249 63.8369 31.2487C63.6482 31.3105 63.3966 31.2487 63.2079 31.2487H56.2895C55.7863 31.2487 55.2203 31.3105 55.1574 30.63V30.8156C55.2832 30.135 55.6605 29.4545 55.975 28.7739C56.2895 27.9696 56.6668 27.1035 56.9813 26.2992C57.6732 24.6287 58.365 23.0201 58.994 21.3497C59.8745 19.2461 60.6921 17.1426 61.5726 15.0391C61.8242 14.4204 62.7048 14.606 63.2079 14.606H119.059C119.247 14.606 119.876 11.9456 120.002 11.6363V11.4507H59.0568V11.6363C59.4971 13.5542 58.4908 15.534 57.7361 17.2045C56.7297 19.3699 55.7234 21.5972 54.7171 23.7626C53.8366 25.7424 52.8931 27.7222 52.0126 29.702C51.8239 30.135 51.6981 30.63 51.2579 30.8775C50.566 31.3105 50.3144 30.3825 50.2516 29.8876C49.6226 25.5568 49.0565 21.1641 48.4276 16.8333C48.176 14.9153 47.9244 13.0593 47.61 11.1414C47.61 11.0795 47.5471 10.3989 47.4842 10.3989H35.9744V10.5845C36.4147 12.3787 35.4712 14.4204 34.8423 16.0908L32.3894 22.7727C31.6346 24.8762 30.817 27.0416 30.0623 29.1451C29.8736 29.5782 29.7478 30.0113 29.5591 30.5062C29.3704 31.0631 29.1188 31.1249 28.6157 31.1249H7.1056C6.60244 31.1249 6.66533 31.1249 6.41375 31.6199C6.03638 32.3623 5.59612 33.1047 5.21875 33.909V34.0946H32.012V33.909C31.6975 32.1767 32.5781 30.3206 33.1441 28.6502C33.9618 26.4229 34.7165 24.2575 35.5341 22.0302C36.3518 19.8648 37.1065 17.6376 37.9241 15.4722C38.1128 14.9772 38.3015 14.4204 38.4902 13.9254C38.7418 13.2449 39.6852 13.3068 39.7481 14.0492L42.5784 34.0328C42.5784 34.1565 42.5784 34.0946 42.5784 34.0328Z" fill="white"/>
<path d="M75.6589 20.855C74.3381 20.9168 73.772 21.7211 73.4576 22.8966L72.7028 25.8663C72.3883 26.98 72.1368 28.1555 71.8223 29.2691C71.6965 29.8259 71.5078 30.3209 71.5078 30.8777C71.5078 32.2388 72.7657 32.2388 73.8349 32.2388C74.8412 32.2388 75.8476 32.3007 76.8539 32.2388C78.1747 32.1769 78.6149 31.0014 78.8665 29.9497C79.1181 28.836 79.4326 27.7843 79.6842 26.6706L80.4389 23.7009C80.5647 23.2679 80.6905 22.7729 80.6905 22.3398C80.6905 20.9787 79.4955 20.9168 78.4263 20.9168H75.6589V21.1025H78.1118C79.2439 21.1025 80.7534 20.9787 80.7534 22.4636V22.278C80.6905 23.0823 80.4389 23.8247 80.2502 24.5671C79.9357 25.8045 79.6213 26.98 79.3068 28.2174C79.1181 28.8979 78.9923 29.5785 78.8036 30.259C78.552 31.1871 78.0489 31.8057 77.1055 31.9913C76.7281 32.0532 76.2249 32.0532 75.8476 32.0532C74.8412 32.0532 73.772 32.1151 72.7657 32.0532C71.1933 31.9295 71.6965 30.3209 71.9481 29.2691C72.4512 27.1656 73.0173 25.1239 73.5204 23.0204C73.8349 21.8449 74.401 21.1643 75.6589 21.1025V20.855Z" fill="white"/>
<path d="M201.385 13.4924C201.385 15.1629 200.001 16.3384 198.429 16.3384C196.856 16.3384 195.473 15.1629 195.473 13.4924C195.473 11.822 196.856 10.6465 198.429 10.6465C200.001 10.6465 201.385 11.822 201.385 13.4924ZM200.756 13.4924C200.756 12.1313 199.75 11.1414 198.429 11.1414C197.108 11.1414 196.102 12.1313 196.102 13.4924C196.102 14.8536 197.108 15.8435 198.429 15.8435C199.75 15.9053 200.756 14.8536 200.756 13.4924ZM197.863 15.1629H197.297V11.8839H198.555C199.372 11.8839 199.75 12.1932 199.75 12.8119C199.75 13.4306 199.372 13.678 198.869 13.7399L199.812 15.1629H199.246L198.366 13.7399H197.8V15.1629H197.863ZM198.492 13.245C198.806 13.245 199.246 13.1831 199.246 12.75C199.246 12.3169 198.869 12.2551 198.492 12.2551H197.8V13.1831H198.492V13.245Z" fill="#E30613"/>
<path d="M58.9278 38.611H57.3555V38.3016H60.8776V38.611H59.3052V43.1274H58.9278V38.611ZM64.1481 41.5188H62.2613L61.6952 43.1274H61.3178L63.016 38.3016H63.4563L65.1544 43.1274H64.6513L64.1481 41.5188ZM64.0223 41.2094L63.7079 40.3433C63.4563 39.6627 63.3305 39.1059 63.1418 38.6728C63.016 39.1059 62.8273 39.6627 62.6386 40.3433L62.3242 41.2094H64.0223ZM66.2237 38.3016H66.6639L68.6766 41.6425L69.2426 42.6324V38.2397H69.62V43.0655H69.1797L67.1671 39.7246L66.601 38.7347V43.0655H66.2237V38.3016ZM71.381 38.3016H71.7584V40.962L74.0855 38.3016H74.5258L72.9534 40.0958L74.7145 43.1274H74.2742L72.7018 40.4052L71.7584 41.5188V43.1892H71.381V38.3016ZM75.4063 41.1476H77.0416V41.4569H75.4063V41.1476ZM79.18 38.611H77.6076V38.3016H81.1298V38.611H79.5574V43.1274H79.18V38.611ZM85.1551 43.1274L83.8343 40.962H82.8279V43.1274H82.4506V38.3016H83.8972C84.4003 38.3016 84.8406 38.4254 85.0922 38.611C85.4066 38.7966 85.5324 39.1678 85.5324 39.6009C85.5324 39.9721 85.4066 40.2814 85.2179 40.5289C85.0293 40.7764 84.7148 40.9001 84.3374 40.962L85.6582 43.1892H85.1551V43.1274ZM83.7714 40.6526C84.2116 40.6526 84.5261 40.5908 84.7777 40.4052C85.0293 40.2195 85.0922 39.9721 85.0922 39.6009C85.0922 39.2296 84.9664 38.9822 84.7777 38.8584C84.5261 38.7347 84.2116 38.611 83.7714 38.611H82.8279V40.5908H83.7714V40.6526ZM87.3564 42.7562C87.0419 42.4468 86.9161 41.9519 86.9161 41.2713V38.3016H87.2935V41.2094C87.2935 41.8281 87.4193 42.1993 87.6709 42.4468C87.9224 42.6943 88.2369 42.818 88.6143 42.818C88.9916 42.818 89.3061 42.6943 89.5577 42.4468C89.8093 42.1993 89.9351 41.7663 89.9351 41.2094V38.3016H90.3124V41.2713C90.3124 41.9519 90.1866 42.5087 89.8722 42.7562C89.5577 43.0655 89.1803 43.1892 88.6772 43.1892C88.1111 43.2511 87.6709 43.0655 87.3564 42.7562ZM92.7653 42.9418C92.4509 42.7562 92.1993 42.4468 92.0106 42.0756C91.8219 41.7044 91.759 41.2713 91.759 40.7764C91.759 40.2814 91.8219 39.8483 92.0106 39.4771C92.1993 39.1059 92.4509 38.7966 92.7653 38.611C93.0798 38.4254 93.4572 38.3016 93.8974 38.3016C94.149 38.3016 94.4006 38.3635 94.6522 38.4872C94.9038 38.611 95.0296 38.7347 95.2182 38.9203L94.9667 39.1678C94.6522 38.8584 94.3377 38.6728 93.8974 38.6728C93.583 38.6728 93.2685 38.7347 93.0169 38.9203C92.7653 39.1059 92.5767 39.3534 92.4509 39.6627C92.3251 39.9721 92.2622 40.3433 92.2622 40.7764C92.2622 41.2094 92.3251 41.5807 92.4509 41.9519C92.5767 42.2612 92.7653 42.5087 93.0169 42.6943C93.2685 42.8799 93.583 42.9418 93.8974 42.9418C94.149 42.9418 94.3377 42.8799 94.5893 42.818C94.778 42.6943 94.9667 42.5706 95.1553 42.3849L95.4069 42.6324C95.2182 42.8799 94.9667 43.0036 94.778 43.1274C94.5893 43.2511 94.2748 43.313 93.9603 43.313C93.3943 43.2511 93.0798 43.1274 92.7653 42.9418ZM96.6648 38.3016H97.0422V40.962L99.3693 38.3016H99.8096L98.2372 40.0958L99.9983 43.1274H99.558L97.9856 40.4052L97.0422 41.5188V43.1892H96.6648V38.3016ZM103.08 38.3016H105.785V38.611H103.457V40.4052H105.407V40.7145H103.457V42.7562H105.847V43.0655H103.08V38.3016ZM111.131 44.241C110.942 44.3029 110.753 44.3029 110.502 44.3029C110.124 44.3029 109.747 44.1791 109.495 43.9935C109.181 43.8079 108.992 43.5605 108.866 43.1892C108.489 43.1274 108.175 43.0036 107.923 42.818C107.671 42.5706 107.42 42.3231 107.294 41.9519C107.168 41.5807 107.042 41.1476 107.042 40.7145C107.042 40.2195 107.105 39.7865 107.294 39.4153C107.483 39.044 107.734 38.7347 108.049 38.5491C108.363 38.3635 108.678 38.2397 109.118 38.2397C109.495 38.2397 109.873 38.3635 110.187 38.5491C110.502 38.7347 110.753 39.044 110.879 39.4153C111.068 39.7865 111.131 40.2195 111.131 40.7145C111.131 41.2094 111.068 41.5807 110.879 41.9519C110.753 42.3231 110.502 42.6324 110.25 42.818C109.999 43.0036 109.684 43.1892 109.307 43.1892C109.433 43.4367 109.558 43.6223 109.81 43.7461C110.061 43.8698 110.313 43.9317 110.565 43.9317C110.753 43.9317 110.942 43.9317 111.068 43.8698L111.131 44.241ZM107.671 41.89C107.797 42.1993 107.986 42.5087 108.238 42.6324C108.489 42.818 108.741 42.8799 109.055 42.8799C109.37 42.8799 109.684 42.818 109.936 42.6324C110.187 42.4468 110.376 42.1993 110.502 41.89C110.628 41.5807 110.69 41.1476 110.69 40.7145C110.69 40.2814 110.628 39.9102 110.502 39.6009C110.376 39.2915 110.187 39.044 109.936 38.8584C109.684 38.6728 109.433 38.611 109.055 38.611C108.741 38.611 108.426 38.6728 108.175 38.8584C107.923 39.044 107.734 39.2915 107.609 39.6009C107.483 39.9102 107.42 40.2814 107.42 40.7145C107.42 41.1476 107.546 41.5188 107.671 41.89ZM113.08 42.7562C112.766 42.4468 112.64 41.9519 112.64 41.2713V38.3016H113.018V41.2094C113.018 41.8281 113.143 42.1993 113.395 42.4468C113.646 42.6943 113.961 42.818 114.338 42.818C114.716 42.818 115.03 42.6943 115.282 42.4468C115.533 42.1993 115.659 41.7663 115.659 41.2094V38.3016H116.036V41.2713C116.036 41.9519 115.911 42.5087 115.596 42.7562C115.282 43.0655 114.904 43.1892 114.401 43.1892C113.772 43.2511 113.395 43.0655 113.08 42.7562ZM117.735 38.3016H118.112V43.1274H117.735V38.3016ZM119.936 38.3016H121.194C121.76 38.3016 122.2 38.4254 122.515 38.611C122.829 38.7966 122.955 39.1678 122.955 39.6627C122.955 40.1577 122.829 40.467 122.515 40.7145C122.2 40.962 121.76 41.0857 121.194 41.0857H120.313V43.1274H119.936V38.3016ZM121.131 40.7764C121.634 40.7764 122.012 40.7145 122.2 40.5289C122.452 40.3433 122.578 40.0958 122.578 39.6627C122.578 39.2915 122.452 38.9822 122.2 38.8584C121.949 38.7347 121.571 38.611 121.068 38.611H120.313V40.7764H121.131ZM124.464 38.3016H125.03L126.037 41.0857L126.414 42.1375C126.477 42.0137 126.54 41.8281 126.603 41.5807L126.792 41.0238L127.798 38.2397H128.364V43.0655H127.987V39.9721C127.987 39.7246 127.987 39.2915 128.049 38.611L127.672 39.7246L126.603 42.5087H126.288L125.219 39.7246L124.842 38.611C124.842 39.1678 124.905 39.6009 124.905 39.9721V43.0655H124.527V38.3016H124.464ZM130.125 38.3016H132.829V38.611H130.502V40.4052H132.452V40.7145H130.502V42.7562H132.892V43.0655H130.125V38.3016ZM134.402 38.3016H134.842L136.855 41.6425L137.421 42.6324V38.2397H137.798V43.0655H137.358L135.345 39.7246L134.779 38.7347V43.0655H134.402V38.3016ZM140.566 38.611H138.993V38.3016H142.515V38.611H140.943V43.1274H140.566V38.611Z" fill="#636569"/>
</svg>
