<svg width="172" height="38" viewBox="0 0 172 38" fill="none" xmlns="http://www.w3.org/2000/svg">
<g clip-path="url(#clip0_216_747)">
<path d="M65.58 17.4366C65.4532 17.4362 65.3247 17.4383 65.1941 17.4432H43.3047V37.5H54.2492V31.3533H56.9352L60.2888 37.5H73.3616L68.5241 30.8452C73.9204 28.2136 73.5672 17.4677 65.58 17.4366ZM54.2492 22.534H58.4828C62.4212 22.534 62.4849 26.2617 58.5484 26.2617H54.2492V22.534Z" fill="#ED1C24"/>
<path d="M165.453 0.50083C165.34 0.498443 165.224 0.499309 165.108 0.503334H0.5V37.4996H19.4849V14.3479H165.108C174.483 13.3453 172.629 0.651173 165.453 0.50083ZM124.901 5.6671C136.638 5.67003 144.486 5.67776 144.55 5.69339C146.225 6.13913 146.352 8.49286 144.55 9.13034H19.4849V5.69339C19.4849 5.69339 89.6908 5.65831 124.901 5.6671Z" fill="#ED1C24"/>
<path d="M25.9766 37.4996H36.8536V17.4429H25.9766V37.4996Z" fill="#ED1C24"/>
<path d="M78.1133 17.4434V37.4999H101.873V32.4328H89.2499V29.7623H100.584V24.8231H89.3194V22.5338H101.036V17.4434H78.1133Z" fill="#ED1C24"/>
<path d="M107.68 17.4434V37.4999H129.113V32.3741H118.879V17.4434H107.68Z" fill="#ED1C24"/>
<path d="M131.914 17.4434V37.4999H153.344V32.3741H143.113V17.4434H131.914Z" fill="#ED1C24"/>
<path d="M156.57 37.4996H167.449V17.4429H156.57V37.4996Z" fill="#ED1C24"/>
</g>
<defs>
<clipPath id="clip0_216_747">
<rect width="171" height="37" fill="white" transform="translate(0.5 0.5)"/>
</clipPath>
</defs>
</svg>
