<svg width="76" height="75" viewBox="0 0 76 75" fill="none" xmlns="http://www.w3.org/2000/svg">
<g clip-path="url(#clip0_2872_2294)">
<path d="M43.64 27.69C45.87 25.98 47.36 23.28 47.36 20.21C47.36 15.06 43.15 10.9 37.94 10.9C32.73 10.9 28.52 15.07 28.52 20.21C28.52 23.27 30.01 25.97 32.24 27.69C27.28 29.9 23.81 34.8 23.81 40.56V53.06C23.81 53.92 24.55 54.65 25.42 54.65H30.13V73.4C30.13 74.26 30.87 74.99 31.74 74.99C32.61 74.99 33.35 74.25 33.35 73.4V48.28C33.35 47.42 32.61 46.69 31.74 46.69C30.87 46.69 30.13 47.43 30.13 48.28V51.47H27.03V40.44C27.03 34.43 31.99 29.53 38.06 29.53C44.14 29.53 49.09 34.43 49.09 40.44V51.47H45.99V48.4C45.99 47.54 45.25 46.81 44.38 46.81C43.51 46.81 42.77 47.54 42.77 48.4V73.4C42.77 74.26 43.51 74.99 44.38 74.99C45.25 74.99 45.99 74.25 45.99 73.4V54.53H50.7C51.57 54.53 52.31 53.8 52.31 52.94V40.44C52.19 34.8 48.72 29.78 43.64 27.69ZM31.62 20.22C31.62 16.79 34.47 13.97 37.94 13.97C41.41 13.97 44.26 16.79 44.26 20.22C44.26 23.65 41.41 26.47 37.94 26.47C34.47 26.47 31.62 23.65 31.62 20.22Z" fill="#08090A"/>
<path d="M37.94 59.19C37.07 59.19 36.33 59.93 36.33 60.78V73.28C36.33 74.14 37.07 74.87 37.94 74.87C38.81 74.87 39.55 74.14 39.55 73.28V60.78C39.55 59.92 38.81 59.19 37.94 59.19Z" fill="#08090A"/>
<path d="M20.58 18.63C25.79 18.63 30 14.46 30 9.32001C30 4.17001 25.79 0.0100098 20.58 0.0100098C15.37 0.0100098 11.16 4.18001 11.16 9.32001C11.04 14.46 15.38 18.63 20.58 18.63ZM20.58 3.06001C24.05 3.06001 26.9 5.88001 26.9 9.31001C26.9 12.74 24.05 15.56 20.58 15.56C17.11 15.56 14.26 12.74 14.26 9.31001C14.26 5.88001 17.11 3.06001 20.58 3.06001Z" fill="#08090A"/>
<path d="M55.29 18.63C60.5 18.63 64.71 14.46 64.71 9.32001C64.71 4.17001 60.5 0.0100098 55.29 0.0100098C50.08 0.0100098 45.87 4.18001 45.87 9.32001C45.87 14.46 50.09 18.63 55.29 18.63ZM55.29 3.06001C58.76 3.06001 61.61 5.88001 61.61 9.31001C61.61 12.74 58.76 15.56 55.29 15.56C51.82 15.56 48.97 12.74 48.97 9.31001C48.97 5.88001 51.82 3.06001 55.29 3.06001Z" fill="#08090A"/>
<path d="M18.23 49.88C17.36 49.88 16.62 50.62 16.62 51.47V73.28C16.62 74.14 17.36 74.87 18.23 74.87C19.1 74.87 19.84 74.14 19.84 73.28V51.47C19.72 50.61 19.1 49.88 18.23 49.88Z" fill="#08090A"/>
<path d="M12.65 60.78C11.78 60.78 11.04 61.52 11.04 62.37V73.28C11.04 74.14 11.78 74.87 12.65 74.87C13.52 74.87 14.26 74.14 14.26 73.28V62.38C14.26 61.52 13.52 60.78 12.65 60.78Z" fill="#08090A"/>
<path d="M12.65 18.38C7.94001 18.38 4.22001 22.18 4.22001 26.84C4.22001 29.41 5.46 31.74 7.32 33.33C3.11 35.29 0.130005 39.7 0.130005 44.61V55.52C0.130005 56.38 0.870005 57.11 1.74 57.11H5.71V73.29C5.71 74.15 6.45001 74.88 7.32 74.88C8.19001 74.88 8.93001 74.15 8.93001 73.29V51.47C8.93001 50.61 8.19001 49.88 7.32 49.88C6.45001 49.88 5.71 50.62 5.71 51.47V53.92H3.35V44.61C3.35 39.46 7.57001 35.3 12.77 35.3C17.48 35.3 21.32 31.5 21.32 26.97C21.2 22.18 17.36 18.38 12.65 18.38ZM12.65 32.11C9.67001 32.11 7.32 29.78 7.32 26.84C7.32 23.9 9.68001 21.57 12.65 21.57C15.62 21.57 17.98 23.9 17.98 26.84C17.98 29.78 15.62 32.11 12.65 32.11Z" fill="#08090A"/>
<path d="M68.56 33.33C70.42 31.74 71.66 29.41 71.66 26.83C71.66 22.17 67.82 18.5 63.23 18.5C58.52 18.5 54.8 22.3 54.8 26.83C54.8 31.49 58.64 35.16 63.23 35.16C68.44 35.16 72.65 39.33 72.65 44.47V53.91H70.29V51.46C70.29 50.6 69.55 49.87 68.68 49.87C67.81 49.87 67.07 50.61 67.07 51.46V73.27C67.07 74.13 67.81 74.86 68.68 74.86C69.55 74.86 70.29 74.13 70.29 73.27V57.1H74.26C75.13 57.1 75.87 56.37 75.87 55.51V44.61C75.87 39.58 72.9 35.29 68.56 33.33ZM57.9 26.84C57.9 23.9 60.25 21.57 63.23 21.57C66.21 21.57 68.56 23.9 68.56 26.84C68.56 29.78 66.2 32.11 63.23 32.11C60.26 32.11 57.9 29.78 57.9 26.84Z" fill="#08090A"/>
<path d="M57.65 49.88C56.78 49.88 56.04 50.62 56.04 51.47V73.28C56.04 74.14 56.78 74.87 57.65 74.87C58.52 74.87 59.26 74.14 59.26 73.28V51.47C59.26 50.61 58.52 49.88 57.65 49.88Z" fill="#08090A"/>
<path d="M63.23 60.78C62.36 60.78 61.62 61.52 61.62 62.37V73.28C61.62 74.14 62.36 74.87 63.23 74.87C64.1 74.87 64.84 74.14 64.84 73.28V62.38C64.84 61.52 64.1 60.78 63.23 60.78Z" fill="#08090A"/>
</g>
<defs>
<clipPath id="clip0_2872_2294">
<rect width="75.74" height="75" fill="white" transform="translate(0.130005)"/>
</clipPath>
</defs>
</svg>
