<svg width="20" height="20" viewBox="0 0 20 20" fill="none" xmlns="http://www.w3.org/2000/svg"><path d="M16.686 12.907c-.525-.013-1.186-.044-1.604-.117-.451-.08-.995-.235-1.377-.354a.848.848 0 00-.85.21l-1.847 1.837a12.815 12.815 0 01-3.165-2.326 12.816 12.816 0 01-2.326-3.165l1.836-1.849a.847.847 0 00.211-.849 12.166 12.166 0 01-.353-1.376c-.074-.418-.104-1.079-.118-1.604a.833.833 0 00-.835-.814H3.333c-.365 0-.833.273-.833.833 0 3.783 1.533 7.395 4.138 10.029 2.634 2.605 6.246 4.138 10.029 4.138.56 0 .833-.468.833-.833v-2.925a.833.833 0 00-.814-.835z" fill="#8F9190"/></svg>